M48
; DRILL file {KiCad (6.0.5)} date Tue Jul 12 02:11:52 2022
; FORMAT={2:4/ absolute / inch / suppress leading zeros}
; #@! TF.CreationDate,2022-07-12T02:11:52+09:00
; #@! TF.GenerationSoftware,Kicad,Pcbnew,(6.0.5)
; #@! TF.FileFunction,MixedPlating,1,2
FMAT,2
INCH,TZ
; #@! TA.AperFunction,Plated,PTH,ViaDrill
T1C0.0157
; #@! TA.AperFunction,Plated,PTH,ComponentDrill
T2C0.0300
; #@! TA.AperFunction,Plated,PTH,ComponentDrill
T3C0.0315
; #@! TA.AperFunction,Plated,PTH,ComponentDrill
T4C0.0394
; #@! TA.AperFunction,NonPlated,NPTH,ComponentDrill
T5C0.1260
%
G90
G05
T1
X-14461Y-3860
X-11661Y10140
X-11461Y-10460
X-10230Y6813
X-5557Y-8885
X4139Y17740
X5339Y-1460
X7139Y5140
X11013Y-4193
X11421Y-10319
X17739Y-1860
T2
X-4102Y-10961
X-3102Y-10961
X-2315Y13811
X-2315Y12811
X-2315Y11811
X-2315Y10811
X-2315Y9811
X-2102Y-10961
X-1102Y-10961
X-102Y-10961
X898Y-10961
X1898Y-10961
X2898Y-10961
X3898Y-10961
X4303Y-4193
X4553Y13061
X4553Y12061
X4553Y11061
X4553Y10061
X4898Y-10961
X5303Y-4193
X6303Y-4193
X7303Y-4193
X8053Y13061
X8053Y12061
X8053Y11061
X8053Y10061
X8303Y-4193
X12921Y-4193
X12921Y-5193
X12921Y-6193
X12921Y-7193
X12921Y-8193
X12921Y-9193
T3
X-15957Y6799
X-15957Y4043
X-15350Y1287
X-15350Y287
X-14957Y6799
X-14957Y4043
X-9551Y14673
X-9551Y11524
X-8551Y14673
X-8551Y11524
X-6114Y16173
X-5114Y16173
X-4114Y16173
X-3388Y6898
X-3388Y5898
X-3388Y4898
X-3388Y3898
X-3388Y2898
X-3388Y1898
X-3388Y898
X-3388Y-102
X-3388Y-1102
X-3388Y-2102
X-3388Y-3102
X-3388Y-4102
X-3388Y-5102
X-3388Y-6102
X2612Y6898
X2612Y5898
X2612Y4898
X2612Y3898
X2612Y2898
X2612Y1898
X2612Y898
X2612Y-102
X2612Y-1102
X2612Y-2102
X2612Y-3102
X2612Y-4102
X2612Y-5102
X2612Y-6102
X14933Y4756
X14933Y3756
X14933Y2756
X14933Y1756
X14933Y756
T4
X-11654Y7106
X-11654Y6106
X-11654Y5106
X-11654Y4106
X-11654Y3106
X-11654Y2106
X-11654Y1106
X-11654Y106
X-11654Y-894
X-11654Y-1894
X-11654Y-2894
X-11654Y-3894
X-11654Y-4894
X-11654Y-5894
X-11654Y-6894
X-5654Y7106
X-5654Y6106
X-5654Y5106
X-5654Y4106
X-5654Y3106
X-5654Y2106
X-5654Y1106
X-5654Y106
X-5654Y-894
X-5654Y-1894
X-5654Y-2894
X-5654Y-3894
X-5654Y-4894
X-5654Y-5894
X-5654Y-6894
X7509Y16754
X8275Y16111
X9041Y15469
X9807Y14826
X10573Y14183
X11339Y13540
X12105Y12897
X12871Y12255
X13638Y11612
X14404Y10969
X15170Y10326
T5
X-15350Y-8661
X19Y17714
X15173Y-9164
T0
M30
