%TF.GenerationSoftware,KiCad,Pcbnew,(6.0.5)*%
%TF.CreationDate,2022-07-12T02:11:44+09:00*%
%TF.ProjectId,sc11bbm,73633131-6262-46d2-9e6b-696361645f70,rev?*%
%TF.SameCoordinates,PXca2b5f1PY459e440*%
%TF.FileFunction,Legend,Bot*%
%TF.FilePolarity,Positive*%
%FSLAX46Y46*%
G04 Gerber Fmt 4.6, Leading zero omitted, Abs format (unit mm)*
G04 Created by KiCad (PCBNEW (6.0.5)) date 2022-07-12 02:11:44*
%MOMM*%
%LPD*%
G01*
G04 APERTURE LIST*
%ADD10C,0.150000*%
G04 APERTURE END LIST*
D10*
X5655713Y-45800571D02*
X5512856Y-45848190D01*
X5465237Y-45895809D01*
X5417618Y-45991047D01*
X5417618Y-46133904D01*
X5465237Y-46229142D01*
X5512856Y-46276761D01*
X5608094Y-46324380D01*
X5989046Y-46324380D01*
X5989046Y-45324380D01*
X5655713Y-45324380D01*
X5560475Y-45372000D01*
X5512856Y-45419619D01*
X5465237Y-45514857D01*
X5465237Y-45610095D01*
X5512856Y-45705333D01*
X5560475Y-45752952D01*
X5655713Y-45800571D01*
X5989046Y-45800571D01*
X4846189Y-46324380D02*
X4941427Y-46276761D01*
X4989046Y-46229142D01*
X5036665Y-46133904D01*
X5036665Y-45848190D01*
X4989046Y-45752952D01*
X4941427Y-45705333D01*
X4846189Y-45657714D01*
X4703332Y-45657714D01*
X4608094Y-45705333D01*
X4560475Y-45752952D01*
X4512856Y-45848190D01*
X4512856Y-46133904D01*
X4560475Y-46229142D01*
X4608094Y-46276761D01*
X4703332Y-46324380D01*
X4846189Y-46324380D01*
X3655713Y-46324380D02*
X3655713Y-45800571D01*
X3703332Y-45705333D01*
X3798570Y-45657714D01*
X3989046Y-45657714D01*
X4084284Y-45705333D01*
X3655713Y-46276761D02*
X3750951Y-46324380D01*
X3989046Y-46324380D01*
X4084284Y-46276761D01*
X4131903Y-46181523D01*
X4131903Y-46086285D01*
X4084284Y-45991047D01*
X3989046Y-45943428D01*
X3750951Y-45943428D01*
X3655713Y-45895809D01*
X3179522Y-46324380D02*
X3179522Y-45657714D01*
X3179522Y-45848190D02*
X3131903Y-45752952D01*
X3084284Y-45705333D01*
X2989046Y-45657714D01*
X2893808Y-45657714D01*
X2131903Y-46324380D02*
X2131903Y-45324380D01*
X2131903Y-46276761D02*
X2227141Y-46324380D01*
X2417618Y-46324380D01*
X2512856Y-46276761D01*
X2560475Y-46229142D01*
X2608094Y-46133904D01*
X2608094Y-45848190D01*
X2560475Y-45752952D01*
X2512856Y-45705333D01*
X2417618Y-45657714D01*
X2227141Y-45657714D01*
X2131903Y-45705333D01*
X989046Y-45657714D02*
X750951Y-46324380D01*
X512856Y-45657714D01*
X-249049Y-46276761D02*
X-153811Y-46324380D01*
X36665Y-46324380D01*
X131903Y-46276761D01*
X179522Y-46181523D01*
X179522Y-45800571D01*
X131903Y-45705333D01*
X36665Y-45657714D01*
X-153811Y-45657714D01*
X-249049Y-45705333D01*
X-296668Y-45800571D01*
X-296668Y-45895809D01*
X179522Y-45991047D01*
X-725240Y-46324380D02*
X-725240Y-45657714D01*
X-725240Y-45848190D02*
X-772859Y-45752952D01*
X-820478Y-45705333D01*
X-915716Y-45657714D01*
X-1010954Y-45657714D01*
X-1868097Y-46324380D02*
X-1296668Y-46324380D01*
X-1582382Y-46324380D02*
X-1582382Y-45324380D01*
X-1487144Y-45467238D01*
X-1391906Y-45562476D01*
X-1296668Y-45610095D01*
X-2296668Y-46229142D02*
X-2344287Y-46276761D01*
X-2296668Y-46324380D01*
X-2249049Y-46276761D01*
X-2296668Y-46229142D01*
X-2296668Y-46324380D01*
X-2963335Y-45324380D02*
X-3058573Y-45324380D01*
X-3153811Y-45372000D01*
X-3201430Y-45419619D01*
X-3249049Y-45514857D01*
X-3296668Y-45705333D01*
X-3296668Y-45943428D01*
X-3249049Y-46133904D01*
X-3201430Y-46229142D01*
X-3153811Y-46276761D01*
X-3058573Y-46324380D01*
X-2963335Y-46324380D01*
X-2868097Y-46276761D01*
X-2820478Y-46229142D01*
X-2772859Y-46133904D01*
X-2725240Y-45943428D01*
X-2725240Y-45705333D01*
X-2772859Y-45514857D01*
X-2820478Y-45419619D01*
X-2868097Y-45372000D01*
X-2963335Y-45324380D01*
X-15822763Y18683620D02*
X-16156097Y17683620D01*
X-16489430Y18683620D01*
X-16822763Y17683620D02*
X-16822763Y18683620D01*
X-17298954Y17683620D02*
X-17298954Y18683620D01*
X-17870382Y17683620D01*
X-17870382Y18683620D01*
X-26228097Y18547620D02*
X-26799525Y18547620D01*
X-26513811Y17547620D02*
X-26513811Y18547620D01*
X-27037621Y18547620D02*
X-27704287Y17547620D01*
X-27704287Y18547620D02*
X-27037621Y17547620D01*
X-26339906Y-96380D02*
X-26339906Y903620D01*
X-26578001Y903620D01*
X-26720859Y856000D01*
X-26816097Y760762D01*
X-26863716Y665524D01*
X-26911335Y475048D01*
X-26911335Y332191D01*
X-26863716Y141715D01*
X-26816097Y46477D01*
X-26720859Y-48761D01*
X-26578001Y-96380D01*
X-26339906Y-96380D01*
X-27816097Y903620D02*
X-27339906Y903620D01*
X-27292287Y427429D01*
X-27339906Y475048D01*
X-27435144Y522667D01*
X-27673240Y522667D01*
X-27768478Y475048D01*
X-27816097Y427429D01*
X-27863716Y332191D01*
X-27863716Y94096D01*
X-27816097Y-1142D01*
X-27768478Y-48761D01*
X-27673240Y-96380D01*
X-27435144Y-96380D01*
X-27339906Y-48761D01*
X-27292287Y-1142D01*
X-26339906Y2443620D02*
X-26339906Y3443620D01*
X-26578001Y3443620D01*
X-26720859Y3396000D01*
X-26816097Y3300762D01*
X-26863716Y3205524D01*
X-26911335Y3015048D01*
X-26911335Y2872191D01*
X-26863716Y2681715D01*
X-26816097Y2586477D01*
X-26720859Y2491239D01*
X-26578001Y2443620D01*
X-26339906Y2443620D01*
X-27768478Y3110286D02*
X-27768478Y2443620D01*
X-27530382Y3491239D02*
X-27292287Y2776953D01*
X-27911335Y2776953D01*
X-25355716Y-15336380D02*
X-25355716Y-14336380D01*
X-25593811Y-14336380D01*
X-25736668Y-14384000D01*
X-25831906Y-14479238D01*
X-25879525Y-14574476D01*
X-25927144Y-14764952D01*
X-25927144Y-14907809D01*
X-25879525Y-15098285D01*
X-25831906Y-15193523D01*
X-25736668Y-15288761D01*
X-25593811Y-15336380D01*
X-25355716Y-15336380D01*
X-26879525Y-15336380D02*
X-26308097Y-15336380D01*
X-26593811Y-15336380D02*
X-26593811Y-14336380D01*
X-26498573Y-14479238D01*
X-26403335Y-14574476D01*
X-26308097Y-14622095D01*
X-27831906Y-15336380D02*
X-27260478Y-15336380D01*
X-27546192Y-15336380D02*
X-27546192Y-14336380D01*
X-27450954Y-14479238D01*
X-27355716Y-14574476D01*
X-27260478Y-14622095D01*
X-26339906Y-2636380D02*
X-26339906Y-1636380D01*
X-26578001Y-1636380D01*
X-26720859Y-1684000D01*
X-26816097Y-1779238D01*
X-26863716Y-1874476D01*
X-26911335Y-2064952D01*
X-26911335Y-2207809D01*
X-26863716Y-2398285D01*
X-26816097Y-2493523D01*
X-26720859Y-2588761D01*
X-26578001Y-2636380D01*
X-26339906Y-2636380D01*
X-27768478Y-1636380D02*
X-27578001Y-1636380D01*
X-27482763Y-1684000D01*
X-27435144Y-1731619D01*
X-27339906Y-1874476D01*
X-27292287Y-2064952D01*
X-27292287Y-2445904D01*
X-27339906Y-2541142D01*
X-27387525Y-2588761D01*
X-27482763Y-2636380D01*
X-27673240Y-2636380D01*
X-27768478Y-2588761D01*
X-27816097Y-2541142D01*
X-27863716Y-2445904D01*
X-27863716Y-2207809D01*
X-27816097Y-2112571D01*
X-27768478Y-2064952D01*
X-27673240Y-2017333D01*
X-27482763Y-2017333D01*
X-27387525Y-2064952D01*
X-27339906Y-2112571D01*
X-27292287Y-2207809D01*
X-16727525Y10555620D02*
X-16251335Y10555620D01*
X-16203716Y10079429D01*
X-16251335Y10127048D01*
X-16346573Y10174667D01*
X-16584668Y10174667D01*
X-16679906Y10127048D01*
X-16727525Y10079429D01*
X-16775144Y9984191D01*
X-16775144Y9746096D01*
X-16727525Y9650858D01*
X-16679906Y9603239D01*
X-16584668Y9555620D01*
X-16346573Y9555620D01*
X-16251335Y9603239D01*
X-16203716Y9650858D01*
X-17060859Y10555620D02*
X-17394192Y9555620D01*
X-17727525Y10555620D01*
X-16203716Y-7430666D02*
X-16679906Y-7430666D01*
X-16108478Y-7716380D02*
X-16441811Y-6716380D01*
X-16775144Y-7716380D01*
X-17632287Y-7716380D02*
X-17060859Y-7716380D01*
X-17346573Y-7716380D02*
X-17346573Y-6716380D01*
X-17251335Y-6859238D01*
X-17156097Y-6954476D01*
X-17060859Y-7002095D01*
X-16203716Y-9970666D02*
X-16679906Y-9970666D01*
X-16108478Y-10256380D02*
X-16441811Y-9256380D01*
X-16775144Y-10256380D01*
X-17298954Y-9256380D02*
X-17394192Y-9256380D01*
X-17489430Y-9304000D01*
X-17537049Y-9351619D01*
X-17584668Y-9446857D01*
X-17632287Y-9637333D01*
X-17632287Y-9875428D01*
X-17584668Y-10065904D01*
X-17537049Y-10161142D01*
X-17489430Y-10208761D01*
X-17394192Y-10256380D01*
X-17298954Y-10256380D01*
X-17203716Y-10208761D01*
X-17156097Y-10161142D01*
X-17108478Y-10065904D01*
X-17060859Y-9875428D01*
X-17060859Y-9637333D01*
X-17108478Y-9446857D01*
X-17156097Y-9351619D01*
X-17203716Y-9304000D01*
X-17298954Y-9256380D01*
X-16203716Y-4890666D02*
X-16679906Y-4890666D01*
X-16108478Y-5176380D02*
X-16441811Y-4176380D01*
X-16775144Y-5176380D01*
X-17060859Y-4271619D02*
X-17108478Y-4224000D01*
X-17203716Y-4176380D01*
X-17441811Y-4176380D01*
X-17537049Y-4224000D01*
X-17584668Y-4271619D01*
X-17632287Y-4366857D01*
X-17632287Y-4462095D01*
X-17584668Y-4604952D01*
X-17013240Y-5176380D01*
X-17632287Y-5176380D01*
X-23720668Y12603620D02*
X-23387335Y13079810D01*
X-23149240Y12603620D02*
X-23149240Y13603620D01*
X-23530192Y13603620D01*
X-23625430Y13556000D01*
X-23673049Y13508381D01*
X-23720668Y13413143D01*
X-23720668Y13270286D01*
X-23673049Y13175048D01*
X-23625430Y13127429D01*
X-23530192Y13079810D01*
X-23149240Y13079810D01*
X-24149240Y13127429D02*
X-24482573Y13127429D01*
X-24625430Y12603620D02*
X-24149240Y12603620D01*
X-24149240Y13603620D01*
X-24625430Y13603620D01*
X-25006382Y12651239D02*
X-25149240Y12603620D01*
X-25387335Y12603620D01*
X-25482573Y12651239D01*
X-25530192Y12698858D01*
X-25577811Y12794096D01*
X-25577811Y12889334D01*
X-25530192Y12984572D01*
X-25482573Y13032191D01*
X-25387335Y13079810D01*
X-25196859Y13127429D01*
X-25101621Y13175048D01*
X-25054001Y13222667D01*
X-25006382Y13317905D01*
X-25006382Y13413143D01*
X-25054001Y13508381D01*
X-25101621Y13556000D01*
X-25196859Y13603620D01*
X-25434954Y13603620D01*
X-25577811Y13556000D01*
X-26006382Y13127429D02*
X-26339716Y13127429D01*
X-26482573Y12603620D02*
X-26006382Y12603620D01*
X-26006382Y13603620D01*
X-26482573Y13603620D01*
X-26768287Y13603620D02*
X-27339716Y13603620D01*
X-27054001Y12603620D02*
X-27054001Y13603620D01*
X-27815906Y13603620D02*
X-27815906Y13365524D01*
X-27577811Y13460762D02*
X-27815906Y13365524D01*
X-28054001Y13460762D01*
X-27673049Y13175048D02*
X-27815906Y13365524D01*
X-27958763Y13175048D01*
X-16211716Y-17876380D02*
X-16211716Y-16876380D01*
X-16449811Y-16876380D01*
X-16592668Y-16924000D01*
X-16687906Y-17019238D01*
X-16735525Y-17114476D01*
X-16783144Y-17304952D01*
X-16783144Y-17447809D01*
X-16735525Y-17638285D01*
X-16687906Y-17733523D01*
X-16592668Y-17828761D01*
X-16449811Y-17876380D01*
X-16211716Y-17876380D01*
X-17735525Y-17876380D02*
X-17164097Y-17876380D01*
X-17449811Y-17876380D02*
X-17449811Y-16876380D01*
X-17354573Y-17019238D01*
X-17259335Y-17114476D01*
X-17164097Y-17162095D01*
X-18068859Y-16876380D02*
X-18687906Y-16876380D01*
X-18354573Y-17257333D01*
X-18497430Y-17257333D01*
X-18592668Y-17304952D01*
X-18640287Y-17352571D01*
X-18687906Y-17447809D01*
X-18687906Y-17685904D01*
X-18640287Y-17781142D01*
X-18592668Y-17828761D01*
X-18497430Y-17876380D01*
X-18211716Y-17876380D01*
X-18116478Y-17828761D01*
X-18068859Y-17781142D01*
X-16187906Y-14336380D02*
X-16806954Y-14336380D01*
X-16473621Y-14717333D01*
X-16616478Y-14717333D01*
X-16711716Y-14764952D01*
X-16759335Y-14812571D01*
X-16806954Y-14907809D01*
X-16806954Y-15145904D01*
X-16759335Y-15241142D01*
X-16711716Y-15288761D01*
X-16616478Y-15336380D01*
X-16330763Y-15336380D01*
X-16235525Y-15288761D01*
X-16187906Y-15241142D01*
X-17092668Y-14336380D02*
X-17426001Y-15336380D01*
X-17759335Y-14336380D01*
X-17997430Y-14336380D02*
X-18616478Y-14336380D01*
X-18283144Y-14717333D01*
X-18426001Y-14717333D01*
X-18521240Y-14764952D01*
X-18568859Y-14812571D01*
X-18616478Y-14907809D01*
X-18616478Y-15145904D01*
X-18568859Y-15241142D01*
X-18521240Y-15288761D01*
X-18426001Y-15336380D01*
X-18140287Y-15336380D01*
X-18045049Y-15288761D01*
X-17997430Y-15241142D01*
X-16330763Y5269334D02*
X-16806954Y5269334D01*
X-16235525Y4983620D02*
X-16568859Y5983620D01*
X-16902192Y4983620D01*
X-17664097Y5983620D02*
X-17473621Y5983620D01*
X-17378382Y5936000D01*
X-17330763Y5888381D01*
X-17235525Y5745524D01*
X-17187906Y5555048D01*
X-17187906Y5174096D01*
X-17235525Y5078858D01*
X-17283144Y5031239D01*
X-17378382Y4983620D01*
X-17568859Y4983620D01*
X-17664097Y5031239D01*
X-17711716Y5078858D01*
X-17759335Y5174096D01*
X-17759335Y5412191D01*
X-17711716Y5507429D01*
X-17664097Y5555048D01*
X-17568859Y5602667D01*
X-17378382Y5602667D01*
X-17283144Y5555048D01*
X-17235525Y5507429D01*
X-17187906Y5412191D01*
X-18330763Y5983620D02*
X-18330763Y5745524D01*
X-18092668Y5840762D02*
X-18330763Y5745524D01*
X-18568859Y5840762D01*
X-18187906Y5555048D02*
X-18330763Y5745524D01*
X-18473621Y5555048D01*
X-26911335Y15143620D02*
X-26578001Y15619810D01*
X-26339906Y15143620D02*
X-26339906Y16143620D01*
X-26720859Y16143620D01*
X-26816097Y16096000D01*
X-26863716Y16048381D01*
X-26911335Y15953143D01*
X-26911335Y15810286D01*
X-26863716Y15715048D01*
X-26816097Y15667429D01*
X-26720859Y15619810D01*
X-26339906Y15619810D01*
X-27244668Y16143620D02*
X-27911335Y15143620D01*
X-27911335Y16143620D02*
X-27244668Y15143620D01*
X-26339906Y4983620D02*
X-26339906Y5983620D01*
X-26578001Y5983620D01*
X-26720859Y5936000D01*
X-26816097Y5840762D01*
X-26863716Y5745524D01*
X-26911335Y5555048D01*
X-26911335Y5412191D01*
X-26863716Y5221715D01*
X-26816097Y5126477D01*
X-26720859Y5031239D01*
X-26578001Y4983620D01*
X-26339906Y4983620D01*
X-27244668Y5983620D02*
X-27863716Y5983620D01*
X-27530382Y5602667D01*
X-27673240Y5602667D01*
X-27768478Y5555048D01*
X-27816097Y5507429D01*
X-27863716Y5412191D01*
X-27863716Y5174096D01*
X-27816097Y5078858D01*
X-27768478Y5031239D01*
X-27673240Y4983620D01*
X-27387525Y4983620D01*
X-27292287Y5031239D01*
X-27244668Y5078858D01*
X-16330763Y-2350666D02*
X-16806954Y-2350666D01*
X-16235525Y-2636380D02*
X-16568859Y-1636380D01*
X-16902192Y-2636380D01*
X-17140287Y-1636380D02*
X-17759335Y-1636380D01*
X-17426001Y-2017333D01*
X-17568859Y-2017333D01*
X-17664097Y-2064952D01*
X-17711716Y-2112571D01*
X-17759335Y-2207809D01*
X-17759335Y-2445904D01*
X-17711716Y-2541142D01*
X-17664097Y-2588761D01*
X-17568859Y-2636380D01*
X-17283144Y-2636380D01*
X-17187906Y-2588761D01*
X-17140287Y-2541142D01*
X-18330763Y-1636380D02*
X-18330763Y-1874476D01*
X-18092668Y-1779238D02*
X-18330763Y-1874476D01*
X-18568859Y-1779238D01*
X-18187906Y-2064952D02*
X-18330763Y-1874476D01*
X-18473621Y-2064952D01*
X-16203716Y2729334D02*
X-16679906Y2729334D01*
X-16108478Y2443620D02*
X-16441811Y3443620D01*
X-16775144Y2443620D01*
X-17584668Y3443620D02*
X-17108478Y3443620D01*
X-17060859Y2967429D01*
X-17108478Y3015048D01*
X-17203716Y3062667D01*
X-17441811Y3062667D01*
X-17537049Y3015048D01*
X-17584668Y2967429D01*
X-17632287Y2872191D01*
X-17632287Y2634096D01*
X-17584668Y2538858D01*
X-17537049Y2491239D01*
X-17441811Y2443620D01*
X-17203716Y2443620D01*
X-17108478Y2491239D01*
X-17060859Y2538858D01*
X-26339906Y-10256380D02*
X-26339906Y-9256380D01*
X-26578001Y-9256380D01*
X-26720859Y-9304000D01*
X-26816097Y-9399238D01*
X-26863716Y-9494476D01*
X-26911335Y-9684952D01*
X-26911335Y-9827809D01*
X-26863716Y-10018285D01*
X-26816097Y-10113523D01*
X-26720859Y-10208761D01*
X-26578001Y-10256380D01*
X-26339906Y-10256380D01*
X-27387525Y-10256380D02*
X-27578001Y-10256380D01*
X-27673240Y-10208761D01*
X-27720859Y-10161142D01*
X-27816097Y-10018285D01*
X-27863716Y-9827809D01*
X-27863716Y-9446857D01*
X-27816097Y-9351619D01*
X-27768478Y-9304000D01*
X-27673240Y-9256380D01*
X-27482763Y-9256380D01*
X-27387525Y-9304000D01*
X-27339906Y-9351619D01*
X-27292287Y-9446857D01*
X-27292287Y-9684952D01*
X-27339906Y-9780190D01*
X-27387525Y-9827809D01*
X-27482763Y-9875428D01*
X-27673240Y-9875428D01*
X-27768478Y-9827809D01*
X-27816097Y-9780190D01*
X-27863716Y-9684952D01*
X-26339906Y7523620D02*
X-26339906Y8523620D01*
X-26578001Y8523620D01*
X-26720859Y8476000D01*
X-26816097Y8380762D01*
X-26863716Y8285524D01*
X-26911335Y8095048D01*
X-26911335Y7952191D01*
X-26863716Y7761715D01*
X-26816097Y7666477D01*
X-26720859Y7571239D01*
X-26578001Y7523620D01*
X-26339906Y7523620D01*
X-27292287Y8428381D02*
X-27339906Y8476000D01*
X-27435144Y8523620D01*
X-27673240Y8523620D01*
X-27768478Y8476000D01*
X-27816097Y8428381D01*
X-27863716Y8333143D01*
X-27863716Y8237905D01*
X-27816097Y8095048D01*
X-27244668Y7523620D01*
X-27863716Y7523620D01*
X-16203716Y189334D02*
X-16679906Y189334D01*
X-16108478Y-96380D02*
X-16441811Y903620D01*
X-16775144Y-96380D01*
X-17537049Y570286D02*
X-17537049Y-96380D01*
X-17298954Y951239D02*
X-17060859Y236953D01*
X-17679906Y236953D01*
X-25355716Y-12796380D02*
X-25355716Y-11796380D01*
X-25593811Y-11796380D01*
X-25736668Y-11844000D01*
X-25831906Y-11939238D01*
X-25879525Y-12034476D01*
X-25927144Y-12224952D01*
X-25927144Y-12367809D01*
X-25879525Y-12558285D01*
X-25831906Y-12653523D01*
X-25736668Y-12748761D01*
X-25593811Y-12796380D01*
X-25355716Y-12796380D01*
X-26879525Y-12796380D02*
X-26308097Y-12796380D01*
X-26593811Y-12796380D02*
X-26593811Y-11796380D01*
X-26498573Y-11939238D01*
X-26403335Y-12034476D01*
X-26308097Y-12082095D01*
X-27498573Y-11796380D02*
X-27593811Y-11796380D01*
X-27689049Y-11844000D01*
X-27736668Y-11891619D01*
X-27784287Y-11986857D01*
X-27831906Y-12177333D01*
X-27831906Y-12415428D01*
X-27784287Y-12605904D01*
X-27736668Y-12701142D01*
X-27689049Y-12748761D01*
X-27593811Y-12796380D01*
X-27498573Y-12796380D01*
X-27403335Y-12748761D01*
X-27355716Y-12701142D01*
X-27308097Y-12605904D01*
X-27260478Y-12415428D01*
X-27260478Y-12177333D01*
X-27308097Y-11986857D01*
X-27355716Y-11891619D01*
X-27403335Y-11844000D01*
X-27498573Y-11796380D01*
X-15934001Y-12510666D02*
X-16410192Y-12510666D01*
X-15838763Y-12796380D02*
X-16172097Y-11796380D01*
X-16505430Y-12796380D01*
X-17410192Y-12796380D02*
X-17076859Y-12320190D01*
X-16838763Y-12796380D02*
X-16838763Y-11796380D01*
X-17219716Y-11796380D01*
X-17314954Y-11844000D01*
X-17362573Y-11891619D01*
X-17410192Y-11986857D01*
X-17410192Y-12129714D01*
X-17362573Y-12224952D01*
X-17314954Y-12272571D01*
X-17219716Y-12320190D01*
X-16838763Y-12320190D01*
X-17838763Y-12272571D02*
X-18172097Y-12272571D01*
X-18314954Y-12796380D02*
X-17838763Y-12796380D01*
X-17838763Y-11796380D01*
X-18314954Y-11796380D01*
X-19076859Y-12272571D02*
X-18743525Y-12272571D01*
X-18743525Y-12796380D02*
X-18743525Y-11796380D01*
X-19219716Y-11796380D01*
X-19743525Y-11796380D02*
X-19743525Y-12034476D01*
X-19505430Y-11939238D02*
X-19743525Y-12034476D01*
X-19981621Y-11939238D01*
X-19600668Y-12224952D02*
X-19743525Y-12034476D01*
X-19886382Y-12224952D01*
X-16330763Y7809334D02*
X-16806954Y7809334D01*
X-16235525Y7523620D02*
X-16568859Y8523620D01*
X-16902192Y7523620D01*
X-17140287Y8523620D02*
X-17806954Y8523620D01*
X-17378382Y7523620D01*
X-18330763Y8523620D02*
X-18330763Y8285524D01*
X-18092668Y8380762D02*
X-18330763Y8285524D01*
X-18568859Y8380762D01*
X-18187906Y8095048D02*
X-18330763Y8285524D01*
X-18473621Y8095048D01*
X-25450954Y-7716380D02*
X-25450954Y-6716380D01*
X-25689049Y-6716380D01*
X-25831906Y-6764000D01*
X-25927144Y-6859238D01*
X-25974763Y-6954476D01*
X-26022382Y-7144952D01*
X-26022382Y-7287809D01*
X-25974763Y-7478285D01*
X-25927144Y-7573523D01*
X-25831906Y-7668761D01*
X-25689049Y-7716380D01*
X-25450954Y-7716380D01*
X-26593811Y-7144952D02*
X-26498573Y-7097333D01*
X-26450954Y-7049714D01*
X-26403335Y-6954476D01*
X-26403335Y-6906857D01*
X-26450954Y-6811619D01*
X-26498573Y-6764000D01*
X-26593811Y-6716380D01*
X-26784287Y-6716380D01*
X-26879525Y-6764000D01*
X-26927144Y-6811619D01*
X-26974763Y-6906857D01*
X-26974763Y-6954476D01*
X-26927144Y-7049714D01*
X-26879525Y-7097333D01*
X-26784287Y-7144952D01*
X-26593811Y-7144952D01*
X-26498573Y-7192571D01*
X-26450954Y-7240190D01*
X-26403335Y-7335428D01*
X-26403335Y-7525904D01*
X-26450954Y-7621142D01*
X-26498573Y-7668761D01*
X-26593811Y-7716380D01*
X-26784287Y-7716380D01*
X-26879525Y-7668761D01*
X-26927144Y-7621142D01*
X-26974763Y-7525904D01*
X-26974763Y-7335428D01*
X-26927144Y-7240190D01*
X-26879525Y-7192571D01*
X-26784287Y-7144952D01*
X-27546192Y-6716380D02*
X-27546192Y-6954476D01*
X-27308097Y-6859238D02*
X-27546192Y-6954476D01*
X-27784287Y-6859238D01*
X-27403335Y-7144952D02*
X-27546192Y-6954476D01*
X-27689049Y-7144952D01*
X-16608668Y12095620D02*
X-16275335Y12571810D01*
X-16037240Y12095620D02*
X-16037240Y13095620D01*
X-16418192Y13095620D01*
X-16513430Y13048000D01*
X-16561049Y13000381D01*
X-16608668Y12905143D01*
X-16608668Y12762286D01*
X-16561049Y12667048D01*
X-16513430Y12619429D01*
X-16418192Y12571810D01*
X-16037240Y12571810D01*
X-17037240Y12619429D02*
X-17370573Y12619429D01*
X-17513430Y12095620D02*
X-17037240Y12095620D01*
X-17037240Y13095620D01*
X-17513430Y13095620D01*
X-17894382Y12143239D02*
X-18037240Y12095620D01*
X-18275335Y12095620D01*
X-18370573Y12143239D01*
X-18418192Y12190858D01*
X-18465811Y12286096D01*
X-18465811Y12381334D01*
X-18418192Y12476572D01*
X-18370573Y12524191D01*
X-18275335Y12571810D01*
X-18084859Y12619429D01*
X-17989621Y12667048D01*
X-17942001Y12714667D01*
X-17894382Y12809905D01*
X-17894382Y12905143D01*
X-17942001Y13000381D01*
X-17989621Y13048000D01*
X-18084859Y13095620D01*
X-18322954Y13095620D01*
X-18465811Y13048000D01*
X-18894382Y12619429D02*
X-19227716Y12619429D01*
X-19370573Y12095620D02*
X-18894382Y12095620D01*
X-18894382Y13095620D01*
X-19370573Y13095620D01*
X-19656287Y13095620D02*
X-20227716Y13095620D01*
X-19942001Y12095620D02*
X-19942001Y13095620D01*
X-20703906Y13095620D02*
X-20703906Y12857524D01*
X-20465811Y12952762D02*
X-20703906Y12857524D01*
X-20942001Y12952762D01*
X-20561049Y12667048D02*
X-20703906Y12857524D01*
X-20846763Y12667048D01*
X-25450954Y-5176380D02*
X-25450954Y-4176380D01*
X-25689049Y-4176380D01*
X-25831906Y-4224000D01*
X-25927144Y-4319238D01*
X-25974763Y-4414476D01*
X-26022382Y-4604952D01*
X-26022382Y-4747809D01*
X-25974763Y-4938285D01*
X-25927144Y-5033523D01*
X-25831906Y-5128761D01*
X-25689049Y-5176380D01*
X-25450954Y-5176380D01*
X-26355716Y-4176380D02*
X-27022382Y-4176380D01*
X-26593811Y-5176380D01*
X-27546192Y-4176380D02*
X-27546192Y-4414476D01*
X-27308097Y-4319238D02*
X-27546192Y-4414476D01*
X-27784287Y-4319238D01*
X-27403335Y-4604952D02*
X-27546192Y-4414476D01*
X-27689049Y-4604952D01*
X-25355716Y-17876380D02*
X-25355716Y-16876380D01*
X-25593811Y-16876380D01*
X-25736668Y-16924000D01*
X-25831906Y-17019238D01*
X-25879525Y-17114476D01*
X-25927144Y-17304952D01*
X-25927144Y-17447809D01*
X-25879525Y-17638285D01*
X-25831906Y-17733523D01*
X-25736668Y-17828761D01*
X-25593811Y-17876380D01*
X-25355716Y-17876380D01*
X-26879525Y-17876380D02*
X-26308097Y-17876380D01*
X-26593811Y-17876380D02*
X-26593811Y-16876380D01*
X-26498573Y-17019238D01*
X-26403335Y-17114476D01*
X-26308097Y-17162095D01*
X-27260478Y-16971619D02*
X-27308097Y-16924000D01*
X-27403335Y-16876380D01*
X-27641430Y-16876380D01*
X-27736668Y-16924000D01*
X-27784287Y-16971619D01*
X-27831906Y-17066857D01*
X-27831906Y-17162095D01*
X-27784287Y-17304952D01*
X-27212859Y-17876380D01*
X-27831906Y-17876380D01*
%TO.C,G\u002A\u002A\u002A*%
G36*
X7438416Y-31699317D02*
G01*
X7827511Y-31873640D01*
X8037499Y-32201853D01*
X8038047Y-32604636D01*
X7798827Y-33002667D01*
X7675028Y-33116056D01*
X7313576Y-33308872D01*
X7043265Y-33238786D01*
X6890775Y-32923870D01*
X6882787Y-32382194D01*
X6898273Y-32252418D01*
X6969208Y-31889946D01*
X7087204Y-31726794D01*
X7296465Y-31688874D01*
X7438416Y-31699317D01*
G37*
G36*
X24227883Y-35046345D02*
G01*
X24226731Y-35051564D01*
X24068786Y-35630253D01*
X24058826Y-35666747D01*
X24047067Y-35825987D01*
X24086746Y-35849219D01*
X24211404Y-35922207D01*
X24295667Y-35941751D01*
X24384363Y-36078301D01*
X24423671Y-36360138D01*
X24428345Y-36393649D01*
X24440206Y-36944046D01*
X24440188Y-36981081D01*
X24437940Y-37104824D01*
X24430672Y-37504855D01*
X24392070Y-37802282D01*
X24307369Y-37935309D01*
X24159553Y-37965885D01*
X24051199Y-37972847D01*
X23974051Y-38032409D01*
X23975271Y-38201111D01*
X24058198Y-38535323D01*
X24226166Y-39091418D01*
X24276472Y-39255744D01*
X24422374Y-39749843D01*
X24517517Y-40100104D01*
X24543313Y-40239249D01*
X24530245Y-40245261D01*
X24327491Y-40319744D01*
X23934125Y-40457639D01*
X23418367Y-40634950D01*
X23284940Y-40680308D01*
X22779521Y-40849229D01*
X22403626Y-40970328D01*
X22230479Y-41019878D01*
X22194901Y-40957608D01*
X22124452Y-40662718D01*
X22041826Y-40179977D01*
X21958394Y-39569973D01*
X21901551Y-39147161D01*
X21809425Y-38593618D01*
X21721191Y-38198825D01*
X21650018Y-38028599D01*
X21608008Y-38084100D01*
X21562661Y-38374167D01*
X21531959Y-38860751D01*
X21520666Y-39490029D01*
X21520666Y-41031402D01*
X19331011Y-41031402D01*
X19331011Y-39469448D01*
X19326990Y-39060185D01*
X19296983Y-38446414D01*
X19243898Y-38118477D01*
X19175191Y-38073622D01*
X19098318Y-38309100D01*
X19039847Y-38695770D01*
X19020735Y-38822159D01*
X18949899Y-39610049D01*
X18849987Y-41031402D01*
X15138768Y-41031402D01*
X15000565Y-40010439D01*
X14996740Y-39981777D01*
X14946926Y-39462743D01*
X14942979Y-39062588D01*
X14985977Y-38865862D01*
X15011972Y-38817402D01*
X15025322Y-38619848D01*
X16734613Y-38619848D01*
X16752084Y-38793088D01*
X16795991Y-38815926D01*
X16849402Y-38695770D01*
X16838867Y-38618491D01*
X16752084Y-38598452D01*
X16734613Y-38619848D01*
X15025322Y-38619848D01*
X15030897Y-38537345D01*
X14973174Y-38135101D01*
X14967014Y-38107536D01*
X14901490Y-37736451D01*
X14933880Y-37567066D01*
X15076700Y-37525719D01*
X15195209Y-37506563D01*
X15176951Y-37458828D01*
X16731617Y-37458828D01*
X16797363Y-37457545D01*
X16913005Y-37278790D01*
X16923397Y-37251096D01*
X16954025Y-37104824D01*
X16831288Y-37197073D01*
X16747991Y-37304406D01*
X16731617Y-37458828D01*
X15176951Y-37458828D01*
X15160661Y-37416236D01*
X15130355Y-37373929D01*
X15065375Y-37079655D01*
X15025528Y-36556359D01*
X15021481Y-36284216D01*
X16880590Y-36284216D01*
X16898061Y-36457456D01*
X16941968Y-36480294D01*
X16995379Y-36360138D01*
X16984844Y-36282858D01*
X16898061Y-36262820D01*
X16880590Y-36284216D01*
X15021481Y-36284216D01*
X15015013Y-35849219D01*
X23710321Y-35849219D01*
X23783310Y-35922207D01*
X23856298Y-35849219D01*
X23783310Y-35776230D01*
X23710321Y-35849219D01*
X15015013Y-35849219D01*
X15014860Y-35491766D01*
X15005017Y-35008899D01*
X19201254Y-35008899D01*
X19225412Y-35520770D01*
X19229198Y-35549325D01*
X19257096Y-35625956D01*
X19269474Y-35513859D01*
X21550685Y-35513859D01*
X21569965Y-35812724D01*
X21620654Y-35837486D01*
X21643594Y-35630253D01*
X21623246Y-35429444D01*
X21569965Y-35447782D01*
X21550685Y-35513859D01*
X19269474Y-35513859D01*
X19276813Y-35447389D01*
X19284287Y-35046345D01*
X19284166Y-34986303D01*
X19274972Y-34610779D01*
X19254034Y-34461744D01*
X19225412Y-34571920D01*
X19201254Y-35008899D01*
X15005017Y-35008899D01*
X15000940Y-34808887D01*
X14980487Y-34389448D01*
X16703425Y-34389448D01*
X16776413Y-34462437D01*
X16849402Y-34389448D01*
X16776413Y-34316460D01*
X16703425Y-34389448D01*
X14980487Y-34389448D01*
X14972355Y-34222671D01*
X14933068Y-33830725D01*
X14907572Y-33648173D01*
X14909836Y-33586575D01*
X19331011Y-33586575D01*
X19457072Y-33693580D01*
X19848083Y-33695294D01*
X20498827Y-33586575D01*
X20722496Y-33535190D01*
X20790945Y-33496173D01*
X20614799Y-33474094D01*
X20170379Y-33459814D01*
X19814667Y-33464668D01*
X19464248Y-33509008D01*
X19331011Y-33586575D01*
X14909836Y-33586575D01*
X14919211Y-33331502D01*
X15054461Y-33190008D01*
X15177779Y-33114183D01*
X15146745Y-33072721D01*
X17026567Y-33072721D01*
X17044038Y-33245962D01*
X17087945Y-33268799D01*
X17141356Y-33148644D01*
X17130821Y-33071364D01*
X17044038Y-33051326D01*
X17026567Y-33072721D01*
X15146745Y-33072721D01*
X15091413Y-32998795D01*
X15001359Y-32876006D01*
X14999268Y-32612442D01*
X15093733Y-32143248D01*
X15165618Y-31855158D01*
X15257651Y-31525342D01*
X15308350Y-31396920D01*
X15421621Y-31430230D01*
X15742647Y-31535926D01*
X16192505Y-31688874D01*
X16614387Y-31833941D01*
X16936248Y-31936309D01*
X17090780Y-31958101D01*
X17138858Y-31905451D01*
X17141356Y-31784493D01*
X17146053Y-31768385D01*
X17336224Y-31682399D01*
X17782325Y-31603895D01*
X18453864Y-31534968D01*
X19320349Y-31477713D01*
X20351287Y-31434224D01*
X21516185Y-31406595D01*
X22784551Y-31396920D01*
X24440206Y-31396920D01*
X24440206Y-33586575D01*
X23199402Y-33620149D01*
X23748427Y-33726622D01*
X23839886Y-33745346D01*
X24196987Y-33839117D01*
X24387567Y-33923208D01*
X24388088Y-33923744D01*
X24404165Y-34112159D01*
X24363777Y-34389448D01*
X24346111Y-34510733D01*
X24227883Y-35046345D01*
G37*
G36*
X6252514Y-31631263D02*
G01*
X6571446Y-31907839D01*
X6700918Y-32127372D01*
X6725899Y-32352018D01*
X6571446Y-32637724D01*
X6341883Y-32865892D01*
X5963107Y-32982871D01*
X5582461Y-32907562D01*
X5288866Y-32663140D01*
X5171241Y-32272782D01*
X5239624Y-31966959D01*
X5497683Y-31683998D01*
X5864953Y-31564375D01*
X6252514Y-31631263D01*
G37*
G36*
X-14535656Y-38549793D02*
G01*
X-14535656Y-40739448D01*
X-23732208Y-40739448D01*
X-23732208Y-39644621D01*
X-23730747Y-39229493D01*
X-23713221Y-38839815D01*
X-23658165Y-38637665D01*
X-23544061Y-38561505D01*
X-23349391Y-38549793D01*
X-23214153Y-38546248D01*
X-23062135Y-38492678D01*
X-23088942Y-38440311D01*
X-20808025Y-38440311D01*
X-20785461Y-38490672D01*
X-20593702Y-38549793D01*
X-20446274Y-38471274D01*
X-20374736Y-38156950D01*
X-20380754Y-37927497D01*
X-20434410Y-37865584D01*
X-20589059Y-38047467D01*
X-20724905Y-38250225D01*
X-20808025Y-38440311D01*
X-23088942Y-38440311D01*
X-23139652Y-38341248D01*
X-23154907Y-38321797D01*
X-23200129Y-38155147D01*
X-23077872Y-37934787D01*
X-22756089Y-37598675D01*
X-22605154Y-37451896D01*
X-22389509Y-37217749D01*
X-22376731Y-37157876D01*
X-20958644Y-37157876D01*
X-20895978Y-37233296D01*
X-20666690Y-37381977D01*
X-20623735Y-37404378D01*
X-20425201Y-37459445D01*
X-20374736Y-37314125D01*
X-20426981Y-37183656D01*
X-20666690Y-37090023D01*
X-20835848Y-37102658D01*
X-20958644Y-37157876D01*
X-22376731Y-37157876D01*
X-22369613Y-37124526D01*
X-22527897Y-37136658D01*
X-22654884Y-37158200D01*
X-22768503Y-37124313D01*
X-22828629Y-36966381D01*
X-22852248Y-36628438D01*
X-22856346Y-36054518D01*
X-22856346Y-34900368D01*
X-20374736Y-34900368D01*
X-20374736Y-33732552D01*
X-23586231Y-33732552D01*
X-23586231Y-31542897D01*
X-14681633Y-31542897D01*
X-14681633Y-33732552D01*
X-17747150Y-33732552D01*
X-17747150Y-34900368D01*
X-15265541Y-34900368D01*
X-15265541Y-37257451D01*
X-16506686Y-37210231D01*
X-17747832Y-37163012D01*
X-17747758Y-37314125D01*
X-17747491Y-37856402D01*
X-17747343Y-38156950D01*
X-17747150Y-38549793D01*
X-14535656Y-38549793D01*
G37*
G36*
X14738439Y-39384150D02*
G01*
X14751986Y-39527179D01*
X14750373Y-39528291D01*
X14587407Y-39566077D01*
X14216567Y-39633658D01*
X13713505Y-39717193D01*
X12800856Y-39943419D01*
X11820009Y-40364661D01*
X11435949Y-40565306D01*
X10956725Y-40757592D01*
X10478852Y-40849329D01*
X9906272Y-40855870D01*
X9142925Y-40792571D01*
X8254540Y-40699716D01*
X7930934Y-39880215D01*
X7807637Y-39575492D01*
X7598843Y-39118979D01*
X7460719Y-38929251D01*
X7384369Y-38997485D01*
X7360896Y-39314856D01*
X7359664Y-39386525D01*
X7314021Y-39742201D01*
X7222954Y-39931609D01*
X7025986Y-39941901D01*
X6631724Y-39886385D01*
X6128126Y-39776500D01*
X5738460Y-39672260D01*
X5383967Y-39542591D01*
X5215866Y-39405123D01*
X5174596Y-39225437D01*
X5180129Y-39115831D01*
X5200879Y-38914736D01*
X12324114Y-38914736D01*
X12397103Y-38987724D01*
X12470091Y-38914736D01*
X12397103Y-38841747D01*
X12324114Y-38914736D01*
X5200879Y-38914736D01*
X5220788Y-38721796D01*
X5292493Y-38167904D01*
X5385290Y-37518334D01*
X5489227Y-36837263D01*
X5594348Y-36188868D01*
X5690702Y-35637328D01*
X5768334Y-35246819D01*
X5817291Y-35081520D01*
X5822115Y-35077955D01*
X6016887Y-35065998D01*
X6411789Y-35103433D01*
X6927485Y-35183008D01*
X7340463Y-35262718D01*
X7707997Y-35363278D01*
X7872500Y-35470823D01*
X7884926Y-35607968D01*
X7871936Y-35655825D01*
X7796990Y-35996433D01*
X7716630Y-36433127D01*
X7618867Y-37017035D01*
X8069728Y-36433127D01*
X8225371Y-36222552D01*
X8439077Y-35892963D01*
X8524651Y-35697754D01*
X8524544Y-35693967D01*
X8421174Y-35515546D01*
X8161252Y-35205079D01*
X7798827Y-34827379D01*
X7581258Y-34601572D01*
X7216573Y-34131120D01*
X7062023Y-33764152D01*
X7124591Y-33525650D01*
X7411260Y-33440598D01*
X7509417Y-33434038D01*
X7907951Y-33250316D01*
X8177387Y-32864551D01*
X8264815Y-32344680D01*
X8264730Y-32342393D01*
X8299150Y-31968269D01*
X8429223Y-31834851D01*
X8635155Y-31817978D01*
X9068504Y-31771245D01*
X9664417Y-31701865D01*
X10358973Y-31617051D01*
X10366723Y-31616085D01*
X11049383Y-31531761D01*
X11621844Y-31462568D01*
X12024286Y-31415634D01*
X12196886Y-31398086D01*
X12209420Y-31410155D01*
X12272887Y-31610385D01*
X12357529Y-31994351D01*
X12448757Y-32480601D01*
X12531982Y-32987681D01*
X12592615Y-33434137D01*
X12616068Y-33738515D01*
X12594942Y-33764665D01*
X12363307Y-33823383D01*
X11925617Y-33863607D01*
X11343756Y-33878529D01*
X10071444Y-33878529D01*
X10841286Y-34658055D01*
X11611129Y-35437580D01*
X10726817Y-36496002D01*
X10443340Y-36842784D01*
X10087948Y-37329495D01*
X9900727Y-37699687D01*
X9856755Y-38010454D01*
X9931111Y-38318889D01*
X10007272Y-38450505D01*
X10226479Y-38533866D01*
X10580946Y-38418374D01*
X11103761Y-38097791D01*
X11375146Y-37919425D01*
X11677281Y-37746644D01*
X11817961Y-37703027D01*
X11829963Y-37718720D01*
X11937834Y-37922723D01*
X12093943Y-38264512D01*
X12114720Y-38312246D01*
X12244839Y-38586372D01*
X12300945Y-38610496D01*
X12313263Y-38403816D01*
X12308908Y-38293969D01*
X12272305Y-37886328D01*
X12206497Y-37317823D01*
X12121201Y-36675874D01*
X12068349Y-36279688D01*
X12013688Y-35713480D01*
X12021089Y-35383921D01*
X12089844Y-35259112D01*
X12267363Y-35205789D01*
X12651607Y-35103156D01*
X13106463Y-34989721D01*
X13543678Y-34886708D01*
X13875000Y-34815339D01*
X14012178Y-34796836D01*
X14035316Y-34898435D01*
X14095499Y-35237132D01*
X14181926Y-35756451D01*
X14285433Y-36397799D01*
X14396857Y-37102581D01*
X14507034Y-37812202D01*
X14606799Y-38468067D01*
X14672700Y-38914736D01*
X14686989Y-39011581D01*
X14738439Y-39384150D01*
G37*
G36*
X4920766Y-38480904D02*
G01*
X4849208Y-38754410D01*
X4707197Y-39202536D01*
X4519064Y-39747312D01*
X4116366Y-40871842D01*
X3293516Y-40926178D01*
X2968668Y-40942002D01*
X2329387Y-40959348D01*
X1573474Y-40969098D01*
X803741Y-40969465D01*
X-863184Y-40958414D01*
X-1324736Y-38973568D01*
X-2122623Y-39783520D01*
X-2213540Y-39875278D01*
X-2587113Y-40240451D01*
X-2868422Y-40496761D01*
X-3002359Y-40593471D01*
X-3032361Y-40570704D01*
X-3189141Y-40362297D01*
X-3436831Y-39982926D01*
X-3737231Y-39489954D01*
X-4390254Y-38386438D01*
X-4477738Y-39273320D01*
X-4524181Y-39683719D01*
X-4579704Y-40049483D01*
X-4623715Y-40209107D01*
X-4716994Y-40210067D01*
X-5047246Y-40168468D01*
X-5555208Y-40086229D01*
X-6178472Y-39972832D01*
X-7674736Y-39687651D01*
X-7674736Y-38607803D01*
X-7671337Y-38314093D01*
X1112815Y-38314093D01*
X1145898Y-38438990D01*
X1320247Y-38597414D01*
X1704287Y-38668088D01*
X1732825Y-38670411D01*
X2077160Y-38676154D01*
X2222083Y-38585148D01*
X2251700Y-38348255D01*
X2250984Y-38294802D01*
X2181559Y-37986820D01*
X1959515Y-37870814D01*
X1529245Y-37913307D01*
X1375080Y-37949776D01*
X1145133Y-38080474D01*
X1112815Y-38314093D01*
X-7671337Y-38314093D01*
X-7670107Y-38207823D01*
X-7639817Y-37794793D01*
X-7571953Y-37585832D01*
X-7455771Y-37527954D01*
X-7407395Y-37521421D01*
X-7304197Y-37408856D01*
X-7251547Y-37114446D01*
X-7236805Y-36583685D01*
X-7240465Y-36244879D01*
X-7268595Y-35881512D01*
X-7335891Y-35725270D01*
X-7455771Y-35723441D01*
X-7476232Y-35732662D01*
X-7625979Y-35961442D01*
X-7674736Y-36448745D01*
X-7680775Y-36630948D01*
X-7732777Y-36959744D01*
X-7820713Y-37090023D01*
X-7862659Y-37142474D01*
X-7864436Y-37152029D01*
X-7918193Y-37441046D01*
X-7954001Y-37971246D01*
X-7966690Y-38695770D01*
X-7966690Y-40301517D01*
X-9061518Y-40301517D01*
X-9207661Y-40301781D01*
X-9712724Y-40313446D01*
X-9999186Y-40353575D01*
X-10127057Y-40437454D01*
X-10156346Y-40580367D01*
X-10158972Y-40630144D01*
X-10219244Y-40754962D01*
X-10402019Y-40839356D01*
X-10763692Y-40900984D01*
X-11360656Y-40957506D01*
X-11448248Y-40964396D01*
X-12118805Y-41002948D01*
X-12752223Y-41018309D01*
X-13221863Y-41007105D01*
X-13878759Y-40958414D01*
X-13991766Y-38122656D01*
X-13997695Y-37965885D01*
X-11616116Y-37965885D01*
X-11608076Y-38364294D01*
X-11581628Y-38709090D01*
X-11543127Y-38841747D01*
X-11513347Y-38771894D01*
X-11513010Y-38768759D01*
X-9864392Y-38768759D01*
X-9791403Y-38841747D01*
X-9718414Y-38768759D01*
X-9791403Y-38695770D01*
X-9864392Y-38768759D01*
X-11513010Y-38768759D01*
X-11482215Y-38482069D01*
X-11470139Y-38043812D01*
X-11470139Y-37245877D01*
X-8331633Y-37152029D01*
X-9973874Y-37121026D01*
X-11616116Y-37090023D01*
X-11616116Y-37965885D01*
X-13997695Y-37965885D01*
X-14013255Y-37554433D01*
X-14039590Y-36652426D01*
X-14044858Y-35994734D01*
X-14028382Y-35550335D01*
X-13989486Y-35288208D01*
X-13927493Y-35177332D01*
X-13910021Y-35162884D01*
X-10972278Y-35162884D01*
X-10740254Y-35192322D01*
X-10669994Y-35191257D01*
X-10493226Y-35147881D01*
X-10528976Y-35082839D01*
X-7964455Y-35082839D01*
X-7960903Y-35108499D01*
X-7895038Y-35147881D01*
X-7820713Y-35192322D01*
X-7730176Y-35120170D01*
X-7676972Y-34863874D01*
X-7678595Y-34784734D01*
X-7714231Y-34639749D01*
X-7820713Y-34754391D01*
X-7891519Y-34878148D01*
X-7964455Y-35082839D01*
X-10528976Y-35082839D01*
X-10565081Y-35017150D01*
X-10716782Y-34917141D01*
X-10915426Y-35017150D01*
X-10948958Y-35052812D01*
X-10972278Y-35162884D01*
X-13910021Y-35162884D01*
X-13875253Y-35134134D01*
X-13823649Y-34932624D01*
X-13908999Y-34550393D01*
X-14067785Y-34033019D01*
X-13389364Y-33815489D01*
X-12710943Y-33597958D01*
X-13331346Y-33678086D01*
X-13951748Y-33758214D01*
X-13951748Y-31688874D01*
X-12928917Y-31688874D01*
X-12404959Y-31669523D01*
X-12043087Y-31617779D01*
X-11908070Y-31542897D01*
X-11904177Y-31529838D01*
X-11724990Y-31460602D01*
X-11318585Y-31413992D01*
X-10740254Y-31396920D01*
X-10635783Y-31397406D01*
X-10081896Y-31419805D01*
X-9709017Y-31470605D01*
X-9572437Y-31542897D01*
X-9479404Y-31608821D01*
X-9163110Y-31666713D01*
X-8696575Y-31688874D01*
X-7820713Y-31688874D01*
X-7820713Y-32637724D01*
X-7821028Y-32846297D01*
X-7833892Y-33269704D01*
X-7886387Y-33491533D01*
X-8006483Y-33578694D01*
X-8222150Y-33598099D01*
X-8623587Y-33609624D01*
X-8192955Y-33765973D01*
X-8135256Y-33786317D01*
X-7832215Y-33848895D01*
X-7706365Y-33754448D01*
X-7666060Y-33686667D01*
X-7443606Y-33586575D01*
X-7416209Y-33584011D01*
X-7309414Y-33477337D01*
X-7253176Y-33178256D01*
X-7236805Y-32637724D01*
X-7236805Y-31688874D01*
X-4901173Y-31688874D01*
X-4901173Y-32637724D01*
X-4899570Y-32853066D01*
X-4873293Y-33296881D01*
X-4805029Y-33523229D01*
X-4682208Y-33586575D01*
X-4595191Y-33614096D01*
X-4514972Y-33771392D01*
X-4474446Y-34114835D01*
X-4463242Y-34697020D01*
X-4465630Y-34863874D01*
X-4471027Y-35241019D01*
X-4502925Y-35578235D01*
X-4569727Y-35722209D01*
X-4682208Y-35723441D01*
X-4689305Y-35720815D01*
X-4797154Y-35728082D01*
X-4861679Y-35877610D01*
X-4892984Y-36219199D01*
X-4901173Y-36802651D01*
X-4896340Y-37230675D01*
X-4866538Y-37671200D01*
X-4802066Y-37900233D01*
X-4694372Y-37965885D01*
X-4606215Y-37979005D01*
X-4436869Y-38117993D01*
X-4429782Y-38125837D01*
X-4265798Y-38072438D01*
X-3923773Y-37872993D01*
X-3448454Y-37555469D01*
X-2884586Y-37147831D01*
X-2466996Y-36831691D01*
X-1948183Y-36416180D01*
X-1622761Y-36112599D01*
X-1459423Y-35890247D01*
X-1426859Y-35718425D01*
X-1427714Y-35712542D01*
X-1470420Y-35573180D01*
X-1585463Y-35482065D01*
X-1827745Y-35426303D01*
X-2252162Y-35393003D01*
X-2913616Y-35369270D01*
X-4356518Y-35327253D01*
X-4253467Y-34057206D01*
X-4232388Y-33804317D01*
X-4184364Y-33277482D01*
X-4144537Y-32905558D01*
X-4119900Y-32756642D01*
X-4071780Y-32754777D01*
X-3794963Y-32779156D01*
X-3329631Y-32833509D01*
X-2741051Y-32910553D01*
X-2415550Y-32952730D01*
X-1875263Y-33010936D01*
X-1488250Y-33036670D01*
X-1322234Y-33024494D01*
X-1294105Y-32929498D01*
X-1263599Y-32608412D01*
X-1251748Y-32153856D01*
X-1251748Y-31353704D01*
X77924Y-31439850D01*
X382122Y-31460681D01*
X916182Y-31503519D01*
X1292865Y-31542415D01*
X1445125Y-31570940D01*
X1445293Y-31709147D01*
X1416769Y-32082181D01*
X1363847Y-32630364D01*
X1291780Y-33294621D01*
X1223120Y-33910181D01*
X1157657Y-34523386D01*
X1111706Y-34984633D01*
X1092396Y-35224905D01*
X1102268Y-35314891D01*
X1186313Y-35394697D01*
X1400626Y-35429423D01*
X1798737Y-35425653D01*
X2434172Y-35389973D01*
X3784459Y-35303491D01*
X4356202Y-36787305D01*
X4543580Y-37283815D01*
X4741683Y-37836335D01*
X4876081Y-38245370D01*
X4900974Y-38348255D01*
X4924854Y-38446950D01*
X4920766Y-38480904D01*
G37*
%TD*%
M02*
