%TF.GenerationSoftware,KiCad,Pcbnew,(6.0.5)*%
%TF.CreationDate,2022-07-12T02:11:44+09:00*%
%TF.ProjectId,sc11bbm,73633131-6262-46d2-9e6b-696361645f70,rev?*%
%TF.SameCoordinates,PXca2b5f1PY459e440*%
%TF.FileFunction,Copper,L1,Top*%
%TF.FilePolarity,Positive*%
%FSLAX46Y46*%
G04 Gerber Fmt 4.6, Leading zero omitted, Abs format (unit mm)*
G04 Created by KiCad (PCBNEW (6.0.5)) date 2022-07-12 02:11:44*
%MOMM*%
%LPD*%
G01*
G04 APERTURE LIST*
G04 Aperture macros list*
%AMHorizOval*
0 Thick line with rounded ends*
0 $1 width*
0 $2 $3 position (X,Y) of the first rounded end (center of the circle)*
0 $4 $5 position (X,Y) of the second rounded end (center of the circle)*
0 Add line between two ends*
20,1,$1,$2,$3,$4,$5,0*
0 Add two circle primitives to create the rounded ends*
1,1,$1,$2,$3*
1,1,$1,$4,$5*%
G04 Aperture macros list end*
%TA.AperFunction,ComponentPad*%
%ADD10C,1.524000*%
%TD*%
%TA.AperFunction,ComponentPad*%
%ADD11R,1.524000X1.524000*%
%TD*%
%TA.AperFunction,ComponentPad*%
%ADD12C,1.700000*%
%TD*%
%TA.AperFunction,ComponentPad*%
%ADD13HorizOval,1.700000X0.000000X0.000000X0.000000X0.000000X0*%
%TD*%
%TA.AperFunction,ComponentPad*%
%ADD14C,1.600000*%
%TD*%
%TA.AperFunction,ComponentPad*%
%ADD15O,1.600000X1.600000*%
%TD*%
%TA.AperFunction,ComponentPad*%
%ADD16R,1.600000X1.600000*%
%TD*%
%TA.AperFunction,ViaPad*%
%ADD17C,0.800000*%
%TD*%
%TA.AperFunction,Conductor*%
%ADD18C,1.300000*%
%TD*%
G04 APERTURE END LIST*
D10*
%TO.P,U9,1,DAT2*%
%TO.N,unconnected-(U9-Pad1)*%
X12439999Y-27840000D03*
%TO.P,U9,2,CD/DAT3*%
%TO.N,D4*%
X9899999Y-27840000D03*
%TO.P,U9,3,CMD*%
%TO.N,D11*%
X7359999Y-27840000D03*
%TO.P,U9,4,VDD*%
%TO.N,3V3*%
X4819999Y-27840000D03*
%TO.P,U9,5,CLK*%
%TO.N,D13*%
X2279999Y-27840000D03*
D11*
%TO.P,U9,6,VSS*%
%TO.N,GND*%
X-260001Y-27840000D03*
D10*
%TO.P,U9,7,DAT0*%
%TO.N,D12*%
X-2800001Y-27840000D03*
%TO.P,U9,8,DAT1*%
%TO.N,unconnected-(U9-Pad8)*%
X-5340001Y-27840000D03*
%TO.P,U9,9*%
%TO.N,N/C*%
X-7880001Y-27840000D03*
%TO.P,U9,10*%
X-10420001Y-27840000D03*
%TD*%
D12*
%TO.P,REF\u002A\u002A,1*%
%TO.N,N/C*%
X19073235Y42555402D03*
D13*
%TO.P,REF\u002A\u002A,2*%
X21018988Y40922721D03*
%TO.P,REF\u002A\u002A,3*%
X22964741Y39290041D03*
%TO.P,REF\u002A\u002A,4*%
X24910494Y37657360D03*
%TO.P,REF\u002A\u002A,5*%
X26856247Y36024680D03*
%TO.P,REF\u002A\u002A,6*%
X28801999Y34391999D03*
%TO.P,REF\u002A\u002A,7*%
X30747752Y32759319D03*
%TO.P,REF\u002A\u002A,8*%
X32693505Y31126638D03*
%TO.P,REF\u002A\u002A,9*%
X34639258Y29493958D03*
%TO.P,REF\u002A\u002A,10*%
X36585011Y27861277D03*
%TO.P,REF\u002A\u002A,11*%
X38530764Y26228597D03*
%TD*%
D10*
%TO.P,RV1,1,1*%
%TO.N,Net-(Q1-Pad2)*%
X-24260001Y29270000D03*
%TO.P,RV1,2,2*%
%TO.N,Net-(BT2-Pad1)*%
X-21720001Y29270000D03*
%TD*%
%TO.P,BT1,1,+*%
%TO.N,Lipo2*%
X-38990001Y3270000D03*
D11*
%TO.P,BT1,2,-*%
%TO.N,GND*%
X-38990001Y730000D03*
%TD*%
D14*
%TO.P,A1,1,D1/TX*%
%TO.N,TX*%
X-29600001Y18050000D03*
D15*
%TO.P,A1,2,D0/RX*%
%TO.N,RX*%
X-29600001Y15510000D03*
%TO.P,A1,3,~{RESET}*%
%TO.N,unconnected-(A1-Pad3)*%
X-29600001Y12970000D03*
D16*
%TO.P,A1,4,GND*%
%TO.N,GND*%
X-29600001Y10430000D03*
D15*
%TO.P,A1,5,D2*%
%TO.N,D2*%
X-29600001Y7890000D03*
%TO.P,A1,6,D3*%
%TO.N,D3*%
X-29600001Y5350000D03*
%TO.P,A1,7,D4*%
%TO.N,D4*%
X-29600001Y2810000D03*
%TO.P,A1,8,D5*%
%TO.N,D5*%
X-29600001Y270000D03*
%TO.P,A1,9,D6*%
%TO.N,D6*%
X-29600001Y-2270000D03*
%TO.P,A1,10,D7*%
%TO.N,unconnected-(A1-Pad10)*%
X-29600001Y-4810000D03*
%TO.P,A1,11,D8*%
%TO.N,unconnected-(A1-Pad11)*%
X-29600001Y-7350000D03*
%TO.P,A1,12,D9*%
%TO.N,D9*%
X-29600001Y-9890000D03*
%TO.P,A1,13,D10*%
%TO.N,D10*%
X-29600001Y-12430000D03*
%TO.P,A1,14,D11*%
%TO.N,D11*%
X-29600001Y-14970000D03*
%TO.P,A1,15,D12*%
%TO.N,D12*%
X-29600001Y-17510000D03*
%TO.P,A1,16,D13*%
%TO.N,D13*%
X-14360001Y-17510000D03*
%TO.P,A1,17,3V3*%
%TO.N,3V3*%
X-14360001Y-14970000D03*
%TO.P,A1,18,AREF*%
%TO.N,unconnected-(A1-Pad18)*%
X-14360001Y-12430000D03*
%TO.P,A1,19,A0*%
%TO.N,A0*%
X-14360001Y-9890000D03*
%TO.P,A1,20,A1*%
%TO.N,A1*%
X-14360001Y-7350000D03*
%TO.P,A1,21,A2*%
%TO.N,A2*%
X-14360001Y-4810000D03*
%TO.P,A1,22,A3*%
%TO.N,unconnected-(A1-Pad22)*%
X-14360001Y-2270000D03*
%TO.P,A1,23,A4*%
%TO.N,A4*%
X-14360001Y270000D03*
%TO.P,A1,24,A5*%
%TO.N,A5*%
X-14360001Y2810000D03*
%TO.P,A1,25,A6*%
%TO.N,unconnected-(A1-Pad25)*%
X-14360001Y5350000D03*
%TO.P,A1,26,A7*%
%TO.N,unconnected-(A1-Pad26)*%
X-14360001Y7890000D03*
%TO.P,A1,27,+5V*%
%TO.N,5V*%
X-14360001Y10430000D03*
%TO.P,A1,28,~{RESET}*%
%TO.N,unconnected-(A1-Pad28)*%
X-14360001Y12970000D03*
D16*
%TO.P,A1,29,GND*%
%TO.N,GND*%
X-14360001Y15510000D03*
D15*
%TO.P,A1,30,VIN*%
%TO.N,Lipo2*%
X-14360001Y18050000D03*
%TD*%
D10*
%TO.P,U2,1,PWM*%
%TO.N,D5*%
X-40530001Y10270000D03*
D11*
%TO.P,U2,3,GND*%
%TO.N,GND*%
X-37990001Y10270000D03*
%TD*%
D16*
%TO.P,U6,1,GND*%
%TO.N,GND*%
X6634999Y-15500000D03*
D15*
%TO.P,U6,2,DIO14/SCL*%
%TO.N,unconnected-(U6-Pad2)*%
X6634999Y-12960000D03*
%TO.P,U6,3,DIO7/RX*%
%TO.N,TX*%
X6634999Y-10420000D03*
%TO.P,U6,4,DIO5/PWM1*%
%TO.N,unconnected-(U6-Pad4)*%
X6634999Y-7880000D03*
%TO.P,U6,5,DIO18/DO1*%
%TO.N,unconnected-(U6-Pad5)*%
X6634999Y-5340000D03*
%TO.P,U6,6,DO0/PWM2*%
%TO.N,unconnected-(U6-Pad6)*%
X6634999Y-2800000D03*
%TO.P,U6,7,DO1/PWM3*%
%TO.N,unconnected-(U6-Pad7)*%
X6634999Y-260000D03*
%TO.P,U6,8,DIO19/DO2*%
%TO.N,unconnected-(U6-Pad8)*%
X6634999Y2280000D03*
%TO.P,U6,9,DIO4/DO3*%
%TO.N,unconnected-(U6-Pad9)*%
X6634999Y4820000D03*
%TO.P,U6,10,DIO6/TX*%
%TO.N,RX*%
X6634999Y7360000D03*
%TO.P,U6,11,DIO8/PWM4*%
%TO.N,unconnected-(U6-Pad11)*%
X6634999Y9900000D03*
%TO.P,U6,12,DIO9/DO4*%
%TO.N,unconnected-(U6-Pad12)*%
X6634999Y12440000D03*
%TO.P,U6,13,DIO10/M1*%
%TO.N,unconnected-(U6-Pad13)*%
X6634999Y14980000D03*
D16*
%TO.P,U6,14,GND*%
%TO.N,GND*%
X6634999Y17520000D03*
D15*
%TO.P,U6,15,DIO12/DI1*%
%TO.N,unconnected-(U6-Pad15)*%
X-8605001Y17520000D03*
%TO.P,U6,16,DIO13/DI2*%
%TO.N,unconnected-(U6-Pad16)*%
X-8605001Y14980000D03*
%TO.P,U6,17,DIO11/DI3*%
%TO.N,unconnected-(U6-Pad17)*%
X-8605001Y12440000D03*
%TO.P,U6,18,DIO16/DI4*%
%TO.N,unconnected-(U6-Pad18)*%
X-8605001Y9900000D03*
%TO.P,U6,19,DIO15/SDA*%
%TO.N,unconnected-(U6-Pad19)*%
X-8605001Y7360000D03*
%TO.P,U6,20,DIO17/BPS*%
%TO.N,unconnected-(U6-Pad20)*%
X-8605001Y4820000D03*
%TO.P,U6,21,~{RESET}*%
%TO.N,unconnected-(U6-Pad21)*%
X-8605001Y2280000D03*
%TO.P,U6,22,ADC1/AI1*%
%TO.N,unconnected-(U6-Pad22)*%
X-8605001Y-260000D03*
%TO.P,U6,23,DIO0/AI2*%
%TO.N,unconnected-(U6-Pad23)*%
X-8605001Y-2800000D03*
%TO.P,U6,24,ADC2/AI3*%
%TO.N,unconnected-(U6-Pad24)*%
X-8605001Y-5340000D03*
%TO.P,U6,25,DIO1/AI4*%
%TO.N,unconnected-(U6-Pad25)*%
X-8605001Y-7880000D03*
%TO.P,U6,26,DIO2/M2*%
%TO.N,unconnected-(U6-Pad26)*%
X-8605001Y-10420000D03*
%TO.P,U6,27,DIO3/M3*%
%TO.N,unconnected-(U6-Pad27)*%
X-8605001Y-12960000D03*
%TO.P,U6,28,VCC*%
%TO.N,3V3*%
X-8605001Y-15500000D03*
%TD*%
D10*
%TO.P,U1,1,PWM*%
%TO.N,D4*%
X-40530001Y17270000D03*
D11*
%TO.P,U1,3,GND*%
%TO.N,GND*%
X-37990001Y17270000D03*
%TD*%
D10*
%TO.P,U7,1,5V*%
%TO.N,5V*%
X37929999Y12080000D03*
D11*
%TO.P,U7,2,GND*%
%TO.N,GND*%
X37929999Y9540000D03*
D10*
%TO.P,U7,3,RXD*%
%TO.N,D3*%
X37929999Y7000000D03*
%TO.P,U7,4,TXD*%
%TO.N,D2*%
X37929999Y4460000D03*
%TO.P,U7,5,1PPS*%
%TO.N,unconnected-(U7-Pad5)*%
X37929999Y1920000D03*
%TD*%
%TO.P,U5,1,VCC*%
%TO.N,3V3*%
X32819999Y-10650000D03*
D11*
%TO.P,U5,2,GND*%
%TO.N,GND*%
X32819999Y-13190000D03*
D10*
%TO.P,U5,3,SCL*%
%TO.N,D13*%
X32819999Y-15730000D03*
%TO.P,U5,4,SDA*%
%TO.N,D11*%
X32819999Y-18270000D03*
%TO.P,U5,5,CSB*%
%TO.N,D9*%
X32819999Y-20810000D03*
%TO.P,U5,6,SDO*%
%TO.N,D12*%
X32819999Y-23350000D03*
%TD*%
D11*
%TO.P,Q1,1,G*%
%TO.N,D6*%
X-10450001Y41080000D03*
D10*
%TO.P,Q1,2,D*%
%TO.N,Net-(Q1-Pad2)*%
X-12990001Y41080000D03*
%TO.P,Q1,3,S*%
%TO.N,GND*%
X-15530001Y41080000D03*
%TD*%
%TO.P,U8,1,VCC*%
%TO.N,5V*%
X10929999Y-10650000D03*
%TO.P,U8,2,X_out*%
%TO.N,A2*%
X13469999Y-10650000D03*
%TO.P,U8,3,Y_out*%
%TO.N,A1*%
X16009999Y-10650000D03*
%TO.P,U8,4,Z_out*%
%TO.N,A0*%
X18549999Y-10650000D03*
D11*
%TO.P,U8,5,GND*%
%TO.N,GND*%
X21089999Y-10650000D03*
%TD*%
D10*
%TO.P,U4,1,VCC*%
%TO.N,3V3*%
X-5880001Y35080000D03*
D11*
%TO.P,U4,2,GND*%
%TO.N,GND*%
X-5880001Y32540000D03*
D10*
%TO.P,U4,3,SCL*%
%TO.N,A5*%
X-5880001Y30000000D03*
%TO.P,U4,4,SDA*%
%TO.N,A4*%
X-5880001Y27460000D03*
%TO.P,U4,5,DRDY*%
%TO.N,unconnected-(U4-Pad5)*%
X-5880001Y24920000D03*
%TD*%
%TO.P,U3,1,+V*%
%TO.N,3V3*%
X11564999Y33175000D03*
%TO.P,U3,2,SCL*%
%TO.N,D13*%
X11564999Y30635000D03*
%TO.P,U3,3,SDA*%
%TO.N,D11*%
X11564999Y28095000D03*
%TO.P,U3,4,SA0*%
%TO.N,D12*%
X11564999Y25555000D03*
%TO.P,U3,5,CS*%
%TO.N,D10*%
X20454999Y25555000D03*
%TO.P,U3,6,INT2*%
%TO.N,unconnected-(U3-Pad6)*%
X20454999Y28095000D03*
%TO.P,U3,7,INT1*%
%TO.N,unconnected-(U3-Pad7)*%
X20454999Y30635000D03*
D11*
%TO.P,U3,8,GND*%
%TO.N,GND*%
X20454999Y33175000D03*
%TD*%
D10*
%TO.P,BT2,1,+*%
%TO.N,Net-(BT2-Pad1)*%
X-24260001Y37270000D03*
D11*
%TO.P,BT2,2,-*%
%TO.N,GND*%
X-21720001Y37270000D03*
%TD*%
D17*
%TO.N,GND*%
X13561999Y-3708000D03*
X-29618001Y25756000D03*
X-36730001Y-9804000D03*
X18133999Y13056000D03*
X-29110001Y-26568000D03*
X45057999Y-4724000D03*
X10513999Y45060000D03*
%TO.N,D11*%
X29009999Y-26211300D03*
%TO.N,3V3*%
X27973599Y-10650000D03*
%TO.N,D13*%
X-14113601Y-22569100D03*
%TO.N,Lipo2*%
X-25983601Y17305800D03*
%TD*%
D18*
%TO.N,GND*%
X-21720001Y37270000D02*
X-19340001Y37270000D01*
X-14360001Y15510000D02*
X-22420001Y15510000D01*
X-15530001Y41080000D02*
X-7942001Y33492000D01*
X-5880001Y32540000D02*
X-7942001Y32540000D01*
X32819999Y-13190000D02*
X23629999Y-13190000D01*
X-22420001Y15510000D02*
X-27500001Y10430000D01*
X6634999Y21637400D02*
X6634999Y17520000D01*
X-19340001Y37270000D02*
X-15530001Y41080000D01*
X-7942001Y33492000D02*
X-7942001Y32540000D01*
X1089299Y27183200D02*
X6634999Y21637400D01*
X20454999Y33175000D02*
X17291199Y36338800D01*
X-4417901Y32540000D02*
X-4267601Y32540000D01*
X23629999Y-13190000D02*
X21089999Y-10650000D01*
X-29600001Y10430000D02*
X-27500001Y10430000D01*
X10244899Y36338800D02*
X1089299Y27183200D01*
X17291199Y36338800D02*
X10244899Y36338800D01*
X-4267601Y32540000D02*
X1089299Y27183200D01*
X-5880001Y32540000D02*
X-4417901Y32540000D01*
%TO.N,D4*%
X-35392701Y2810000D02*
X-42176901Y9594200D01*
X-29600001Y2810000D02*
X-31690901Y2810000D01*
X-31690901Y-17797800D02*
X-16952401Y-32536300D01*
X-16952401Y-32536300D02*
X5203699Y-32536300D01*
X-31690901Y2810000D02*
X-31690901Y-17797800D01*
X5203699Y-32536300D02*
X9899999Y-27840000D01*
X-42176901Y9594200D02*
X-42176901Y15623100D01*
X-31690901Y2810000D02*
X-35392701Y2810000D01*
X-42176901Y15623100D02*
X-40530001Y17270000D01*
%TO.N,D11*%
X4222699Y-30977300D02*
X-11737401Y-30977300D01*
X8988699Y-26211300D02*
X7359999Y-27840000D01*
X29009999Y-26211300D02*
X8988699Y-26211300D01*
X-29600001Y-14970000D02*
X-27500001Y-14970000D01*
X-27500001Y-15214700D02*
X-27500001Y-14970000D01*
X-11737401Y-30977300D02*
X-27500001Y-15214700D01*
X7359999Y-27840000D02*
X4222699Y-30977300D01*
%TO.N,3V3*%
X11564999Y33175000D02*
X15046799Y29693200D01*
X15046799Y29693200D02*
X15046799Y2276800D01*
X27973599Y-10650000D02*
X32819999Y-10650000D01*
X15046799Y2276800D02*
X27973599Y-10650000D01*
%TO.N,D13*%
X2385999Y-27946000D02*
X2385999Y-29462700D01*
X-14113601Y-26467000D02*
X-14113601Y-22569100D01*
X2385999Y-29462700D02*
X-11117901Y-29462700D01*
X2279999Y-27840000D02*
X2385999Y-27946000D01*
X-11117901Y-29462700D02*
X-14113601Y-26467000D01*
%TO.N,D12*%
X31518979Y-24651020D02*
X32819999Y-23350000D01*
X-2800001Y-27840000D02*
X-2800001Y-25265020D01*
X-2186001Y-24651020D02*
X31518979Y-24651020D01*
X-2800001Y-25265020D02*
X-2186001Y-24651020D01*
%TO.N,Lipo2*%
X-25239401Y18050000D02*
X-25983601Y17305800D01*
X-14360001Y18050000D02*
X-25239401Y18050000D01*
%TO.N,D9*%
X-27500001Y-9890000D02*
X-16580001Y-20810000D01*
X-9664801Y-23151500D02*
X30478499Y-23151500D01*
X-12006301Y-20810000D02*
X-9664801Y-23151500D01*
X-29600001Y-9890000D02*
X-27500001Y-9890000D01*
X-16580001Y-20810000D02*
X-12006301Y-20810000D01*
X30478499Y-23151500D02*
X32819999Y-20810000D01*
%TO.N,TX*%
X-7308001Y20690500D02*
X-24859501Y20690500D01*
X-1521001Y14903500D02*
X-7308001Y20690500D01*
X-1521001Y-2264000D02*
X-1521001Y14903500D01*
X6634999Y-10420000D02*
X-1521001Y-2264000D01*
X-24859501Y20690500D02*
X-27500001Y18050000D01*
X-29600001Y18050000D02*
X-27500001Y18050000D01*
%TO.N,RX*%
X4373799Y11157800D02*
X-6681801Y22213400D01*
X4373799Y9621200D02*
X4373799Y11157800D01*
X6634999Y7360000D02*
X4373799Y9621200D01*
X-28288601Y22213400D02*
X-31250401Y19251600D01*
X-31250401Y16875000D02*
X-29885401Y15510000D01*
X-29885401Y15510000D02*
X-29600001Y15510000D01*
X-6681801Y22213400D02*
X-28288601Y22213400D01*
X-31250401Y19251600D02*
X-31250401Y16875000D01*
%TO.N,D3*%
X36318488Y7928489D02*
X36318488Y20271511D01*
X37929999Y7000000D02*
X37246977Y7000000D01*
X-2137051Y40000000D02*
X-4842951Y42705900D01*
X-4842951Y42705900D02*
X-21116601Y42705900D01*
X-32776401Y31046100D02*
X-32776401Y8526400D01*
X16589999Y40000000D02*
X-2137051Y40000000D01*
X37246977Y7000000D02*
X36318488Y7928489D01*
X-32776401Y8526400D02*
X-29600001Y5350000D01*
X36318488Y20271511D02*
X16589999Y40000000D01*
X-21116601Y42705900D02*
X-32776401Y31046100D01*
%TO.N,A0*%
X-9034501Y-21651200D02*
X9707899Y-21651200D01*
X9707899Y-21651200D02*
X18549999Y-12809100D01*
X-14360001Y-9890000D02*
X-16011401Y-11541400D01*
X-11512001Y-19173700D02*
X-9034501Y-21651200D01*
X-16011401Y-18226200D02*
X-15063901Y-19173700D01*
X-15063901Y-19173700D02*
X-11512001Y-19173700D01*
X-16011401Y-11541400D02*
X-16011401Y-18226200D01*
X18549999Y-12809100D02*
X18549999Y-10650000D01*
%TO.N,A1*%
X-14360001Y-7350000D02*
X-12108701Y-9601300D01*
X9086499Y-20150900D02*
X16009999Y-13227400D01*
X-12108701Y-16455300D02*
X-8413101Y-20150900D01*
X16009999Y-13227400D02*
X16009999Y-10650000D01*
X-12108701Y-9601300D02*
X-12108701Y-16455300D01*
X-8413101Y-20150900D02*
X9086499Y-20150900D01*
%TO.N,A2*%
X-10608401Y-8561600D02*
X-14360001Y-4810000D01*
X-7791701Y-18650600D02*
X-10608401Y-15833900D01*
X-10608401Y-15833900D02*
X-10608401Y-8561600D01*
X13469999Y-10650000D02*
X13469999Y-13645700D01*
X8465099Y-18650600D02*
X-7791701Y-18650600D01*
X13469999Y-13645700D02*
X8465099Y-18650600D01*
%TO.N,5V*%
X38613021Y12080000D02*
X40485999Y10207022D01*
X38597510Y308489D02*
X37206710Y308489D01*
X-7929401Y19190200D02*
X-9300101Y19190200D01*
X-10951901Y13838100D02*
X-14360001Y10430000D01*
X-3485301Y-8182200D02*
X-3485301Y14746100D01*
X10833899Y34795700D02*
X9917499Y33879300D01*
X-9300101Y19190200D02*
X-10951901Y17538400D01*
X40485999Y10207022D02*
X40485999Y2196978D01*
X37929999Y12080000D02*
X38613021Y12080000D01*
X37206710Y308489D02*
X18177899Y19337300D01*
X-3485301Y14746100D02*
X-7929401Y19190200D01*
X10929999Y-10650000D02*
X10929999Y-14062400D01*
X-10951901Y17538400D02*
X-10951901Y13838100D01*
X40485999Y2196978D02*
X38597510Y308489D01*
X5482799Y-17150300D02*
X-3485301Y-8182200D01*
X12246699Y34795700D02*
X10833899Y34795700D01*
X10929999Y-14062400D02*
X7842099Y-17150300D01*
X18177899Y28864500D02*
X12246699Y34795700D01*
X9917499Y33879300D02*
X9917499Y-9637500D01*
X18177899Y19337300D02*
X18177899Y28864500D01*
X9917499Y-9637500D02*
X10929999Y-10650000D01*
X7842099Y-17150300D02*
X5482799Y-17150300D01*
%TD*%
%TA.AperFunction,Conductor*%
%TO.N,GND*%
G36*
X347345Y49500256D02*
G01*
X754493Y49491727D01*
X1725790Y49471381D01*
X1729306Y49471259D01*
X2815594Y49418131D01*
X3106477Y49403904D01*
X3109973Y49403685D01*
X4484724Y49297904D01*
X4488178Y49297589D01*
X5716126Y49168526D01*
X5859442Y49153463D01*
X5862937Y49153046D01*
X7229596Y48970694D01*
X7233053Y48970184D01*
X7799300Y48878472D01*
X8594109Y48749741D01*
X8597574Y48749130D01*
X9951911Y48490776D01*
X9955358Y48490069D01*
X10732663Y48319168D01*
X11302037Y48193983D01*
X11305417Y48193189D01*
X11953934Y48031496D01*
X12643246Y47859631D01*
X12646648Y47858732D01*
X13974620Y47487956D01*
X13977995Y47486963D01*
X15275222Y47085404D01*
X15295118Y47079245D01*
X15298457Y47078160D01*
X16603704Y46633818D01*
X16606965Y46632657D01*
X17239395Y46397459D01*
X17899333Y46152030D01*
X17902613Y46150757D01*
X19180951Y45634275D01*
X19184195Y45632912D01*
X20447730Y45080887D01*
X20450863Y45079465D01*
X21698444Y44492399D01*
X21701554Y44490883D01*
X22762736Y43954841D01*
X22932276Y43869200D01*
X22935394Y43867570D01*
X23174511Y43738280D01*
X24148270Y43211770D01*
X24151311Y43210069D01*
X25345353Y42520689D01*
X25348375Y42518888D01*
X26467914Y41830143D01*
X26473612Y41826421D01*
X29813369Y39514282D01*
X29816420Y39512103D01*
X29927173Y39430449D01*
X29929975Y39428321D01*
X30916566Y38657512D01*
X31016428Y38579491D01*
X31019162Y38577294D01*
X31135499Y38481051D01*
X32081554Y37698407D01*
X32084234Y37696126D01*
X32480618Y37349118D01*
X33069257Y36833804D01*
X33121633Y36787952D01*
X33124237Y36785608D01*
X34128389Y35855753D01*
X34135902Y35848796D01*
X34138446Y35846374D01*
X34275486Y35712174D01*
X35123569Y34881670D01*
X35126048Y34879173D01*
X36083831Y33887360D01*
X36086239Y33884795D01*
X37015938Y32866644D01*
X37018274Y32864013D01*
X37919187Y31820295D01*
X37921449Y31817600D01*
X37956074Y31775146D01*
X38769672Y30777577D01*
X38792906Y30749089D01*
X38795046Y30746389D01*
X39512611Y29814612D01*
X39516361Y29809477D01*
X41795791Y26516966D01*
X41798106Y26513501D01*
X41978692Y26233287D01*
X41980557Y26230303D01*
X42694809Y25050934D01*
X42696589Y25047900D01*
X42799336Y24867033D01*
X43326041Y23939864D01*
X43377632Y23849047D01*
X43379316Y23845982D01*
X43656906Y23323913D01*
X44026604Y22628612D01*
X44028213Y22625483D01*
X44641283Y21390461D01*
X44642803Y21387288D01*
X45146957Y20296202D01*
X45221132Y20135672D01*
X45222553Y20132481D01*
X45765719Y18865179D01*
X45767059Y18861928D01*
X45801954Y18773793D01*
X46176696Y17827301D01*
X46179078Y17820762D01*
X47595334Y13571995D01*
X47599575Y13555726D01*
X49258141Y4848253D01*
X49259765Y4836972D01*
X49288359Y4545353D01*
X49321226Y4210150D01*
X49327720Y4143915D01*
X49328013Y4140426D01*
X49342336Y3935590D01*
X49424192Y2764989D01*
X49424388Y2761476D01*
X49482124Y1383948D01*
X49482223Y1380431D01*
X49501474Y1759D01*
X49501474Y-1759D01*
X49482223Y-1380431D01*
X49482124Y-1383948D01*
X49424388Y-2761476D01*
X49424192Y-2764989D01*
X49394606Y-3188098D01*
X49332868Y-4070999D01*
X49328014Y-4140410D01*
X49327722Y-4143894D01*
X49298069Y-4446322D01*
X49193171Y-5516154D01*
X49192778Y-5519651D01*
X49157997Y-5794973D01*
X49156960Y-5801715D01*
X48056528Y-11854093D01*
X48055036Y-11861138D01*
X47971268Y-12207393D01*
X47946732Y-12308811D01*
X47945858Y-12312215D01*
X47928388Y-12376514D01*
X47584354Y-13642772D01*
X47583384Y-13646154D01*
X47184875Y-14966080D01*
X47183811Y-14969434D01*
X46748603Y-16277716D01*
X46747446Y-16281039D01*
X46275878Y-17576662D01*
X46274629Y-17579951D01*
X45937491Y-18431467D01*
X45767060Y-18861926D01*
X45765720Y-18865176D01*
X45248776Y-20071299D01*
X45222563Y-20132458D01*
X45221142Y-20135649D01*
X44915314Y-20797521D01*
X44642803Y-21387288D01*
X44641283Y-21390461D01*
X44028213Y-22625483D01*
X44026604Y-22628612D01*
X43470701Y-23674112D01*
X43465438Y-23683094D01*
X39982211Y-29101448D01*
X39973019Y-29113976D01*
X35440104Y-34553474D01*
X35433964Y-34560317D01*
X35409458Y-34585694D01*
X35126048Y-34879173D01*
X35123569Y-34881670D01*
X34206550Y-35779680D01*
X34199055Y-35786452D01*
X29054693Y-40073421D01*
X29048810Y-40078035D01*
X28817370Y-40248668D01*
X28814532Y-40250699D01*
X28496089Y-40472023D01*
X28490215Y-40475867D01*
X23295212Y-43672792D01*
X23289105Y-43676319D01*
X22935394Y-43867570D01*
X22932276Y-43869200D01*
X21701579Y-44490870D01*
X21698416Y-44492412D01*
X21465242Y-44602135D01*
X21452988Y-44607134D01*
X17742824Y-45897626D01*
X10870798Y-48287896D01*
X10856475Y-48291946D01*
X10130325Y-48451600D01*
X10116476Y-48453844D01*
X875071Y-49426624D01*
X848920Y-49426647D01*
X-11442031Y-48155169D01*
X-11457829Y-48152511D01*
X-11691381Y-48097732D01*
X-11973776Y-48031496D01*
X-11977190Y-48030645D01*
X-13310225Y-47678442D01*
X-13313614Y-47677496D01*
X-14636324Y-47288202D01*
X-14639685Y-47287161D01*
X-15950963Y-46861100D01*
X-15954294Y-46859966D01*
X-17253165Y-46397459D01*
X-17256463Y-46396233D01*
X-18541950Y-45897626D01*
X-18545212Y-45896308D01*
X-19816269Y-45362005D01*
X-19819493Y-45360596D01*
X-21075115Y-44791020D01*
X-21078286Y-44789528D01*
X-21462498Y-44602135D01*
X-22317529Y-44185109D01*
X-22320669Y-44183523D01*
X-23542567Y-43544730D01*
X-23545662Y-43543056D01*
X-24749209Y-42870417D01*
X-24752256Y-42868658D01*
X-25936583Y-42162657D01*
X-25939580Y-42160813D01*
X-26033999Y-42100893D01*
X-26442964Y-41841356D01*
X-26446549Y-41838993D01*
X-29482396Y-39761835D01*
X-29487405Y-39758224D01*
X-30474764Y-39008778D01*
X-30477526Y-39006620D01*
X-31552077Y-38142659D01*
X-31554788Y-38140416D01*
X-32604791Y-37246794D01*
X-32607390Y-37244519D01*
X-33632076Y-36321887D01*
X-33634619Y-36319532D01*
X-34633112Y-35368680D01*
X-34635626Y-35366218D01*
X-35410720Y-34585694D01*
X-35607173Y-34387865D01*
X-35609605Y-34385346D01*
X-36254139Y-33698986D01*
X-36553430Y-33380274D01*
X-36555802Y-33377677D01*
X-36879511Y-33013075D01*
X-37471249Y-32346584D01*
X-37473512Y-32343962D01*
X-38359791Y-31287737D01*
X-38362011Y-31285014D01*
X-39218433Y-30204478D01*
X-39220580Y-30201690D01*
X-40046508Y-29097649D01*
X-40048576Y-29094802D01*
X-40843336Y-27968158D01*
X-40845324Y-27965255D01*
X-41433902Y-27079374D01*
X-41608338Y-26816826D01*
X-41610234Y-26813885D01*
X-41667477Y-26722276D01*
X-42043811Y-26120016D01*
X-42340879Y-25644607D01*
X-42342702Y-25641597D01*
X-43023350Y-24481461D01*
X-43040412Y-24452380D01*
X-43042146Y-24449328D01*
X-43132906Y-24284235D01*
X-43600142Y-23434336D01*
X-43706397Y-23241059D01*
X-43708048Y-23237952D01*
X-44157800Y-22362830D01*
X-44276070Y-22132703D01*
X-41099258Y-22132703D01*
X-41098699Y-22136947D01*
X-41098699Y-22136951D01*
X-41084713Y-22243186D01*
X-41061733Y-22417734D01*
X-40985872Y-22695036D01*
X-40984188Y-22698984D01*
X-40918313Y-22853424D01*
X-40873078Y-22959476D01*
X-40861308Y-22979142D01*
X-40774126Y-23124812D01*
X-40725440Y-23206161D01*
X-40545688Y-23430528D01*
X-40337150Y-23628423D01*
X-40103684Y-23796186D01*
X-40099889Y-23798195D01*
X-40099888Y-23798196D01*
X-40078132Y-23809715D01*
X-39849609Y-23930712D01*
X-39579628Y-24029511D01*
X-39298737Y-24090755D01*
X-39270160Y-24093004D01*
X-39075719Y-24108307D01*
X-39075710Y-24108307D01*
X-39073262Y-24108500D01*
X-38917730Y-24108500D01*
X-38915594Y-24108354D01*
X-38915583Y-24108354D01*
X-38707453Y-24094165D01*
X-38707447Y-24094164D01*
X-38703176Y-24093873D01*
X-38698981Y-24093004D01*
X-38698979Y-24093004D01*
X-38505932Y-24053026D01*
X-38421659Y-24035574D01*
X-38150658Y-23939607D01*
X-37895189Y-23807750D01*
X-37891688Y-23805289D01*
X-37891684Y-23805287D01*
X-37725909Y-23688778D01*
X-37659978Y-23642441D01*
X-37449379Y-23446740D01*
X-37267288Y-23224268D01*
X-37117074Y-22979142D01*
X-37090723Y-22919114D01*
X-37003244Y-22719830D01*
X-37001518Y-22715898D01*
X-36922757Y-22439406D01*
X-36882250Y-22154784D01*
X-36882210Y-22147278D01*
X-36880766Y-21871583D01*
X-36880766Y-21871576D01*
X-36880744Y-21867297D01*
X-36885774Y-21829086D01*
X-36908832Y-21653946D01*
X-36918269Y-21582266D01*
X-36994130Y-21304964D01*
X-37106924Y-21040524D01*
X-37244890Y-20810000D01*
X-37252358Y-20797521D01*
X-37252361Y-20797517D01*
X-37254562Y-20793839D01*
X-37434314Y-20569472D01*
X-37631313Y-20382527D01*
X-37639743Y-20374527D01*
X-37639746Y-20374525D01*
X-37642852Y-20371577D01*
X-37876318Y-20203814D01*
X-37898158Y-20192250D01*
X-38011086Y-20132458D01*
X-38130393Y-20069288D01*
X-38400374Y-19970489D01*
X-38681265Y-19909245D01*
X-38712316Y-19906801D01*
X-38904283Y-19891693D01*
X-38904292Y-19891693D01*
X-38906740Y-19891500D01*
X-39062272Y-19891500D01*
X-39064408Y-19891646D01*
X-39064419Y-19891646D01*
X-39272549Y-19905835D01*
X-39272555Y-19905836D01*
X-39276826Y-19906127D01*
X-39281021Y-19906996D01*
X-39281023Y-19906996D01*
X-39417584Y-19935276D01*
X-39558343Y-19964426D01*
X-39829344Y-20060393D01*
X-40084813Y-20192250D01*
X-40088314Y-20194711D01*
X-40088318Y-20194713D01*
X-40098407Y-20201804D01*
X-40320024Y-20357559D01*
X-40335109Y-20371577D01*
X-40526841Y-20549746D01*
X-40530623Y-20553260D01*
X-40712714Y-20775732D01*
X-40862928Y-21020858D01*
X-40978484Y-21284102D01*
X-40979659Y-21288229D01*
X-40979660Y-21288230D01*
X-40993180Y-21335693D01*
X-41057245Y-21560594D01*
X-41071039Y-21657518D01*
X-41095456Y-21829086D01*
X-41097752Y-21845216D01*
X-41097774Y-21849505D01*
X-41097775Y-21849512D01*
X-41099212Y-22123862D01*
X-41099258Y-22132703D01*
X-44276070Y-22132703D01*
X-44338263Y-22011689D01*
X-44339824Y-22008545D01*
X-44360301Y-21965805D01*
X-44658645Y-21343113D01*
X-44935583Y-20765099D01*
X-44937059Y-20761905D01*
X-45350624Y-19833023D01*
X-45497867Y-19502310D01*
X-45499249Y-19499085D01*
X-46024665Y-18224329D01*
X-46025960Y-18221058D01*
X-46296066Y-17510000D01*
X-46515591Y-16932095D01*
X-46516775Y-16928840D01*
X-46526630Y-16900538D01*
X-46970201Y-15626778D01*
X-46971311Y-15623442D01*
X-47081280Y-15276775D01*
X-47388228Y-14309154D01*
X-47389237Y-14305810D01*
X-47391683Y-14297278D01*
X-47769285Y-12980425D01*
X-47770204Y-12977040D01*
X-47888561Y-12516067D01*
X-48033278Y-11952432D01*
X-48113083Y-11641612D01*
X-48113911Y-11638192D01*
X-48419385Y-10293641D01*
X-48420116Y-10290200D01*
X-48666464Y-9046054D01*
X-48687916Y-8937714D01*
X-48688551Y-8934260D01*
X-48696781Y-8885598D01*
X-48764645Y-8484366D01*
X-48898946Y-7690326D01*
X-48899605Y-7685966D01*
X-49185124Y-5544576D01*
X-49185444Y-5541968D01*
X-49265053Y-4832235D01*
X-49265396Y-4828733D01*
X-49380767Y-3454825D01*
X-49381013Y-3451316D01*
X-49392607Y-3243933D01*
X-49429805Y-2578607D01*
X-49430001Y-2571573D01*
X-49430001Y2571573D01*
X-49429805Y2578607D01*
X-49390462Y3282301D01*
X-49381013Y3451320D01*
X-49380767Y3454825D01*
X-49265396Y4828733D01*
X-49265053Y4832235D01*
X-49111361Y6202434D01*
X-49110920Y6205925D01*
X-48919032Y7571276D01*
X-48918494Y7574753D01*
X-48722372Y8734300D01*
X-48688550Y8934268D01*
X-48687915Y8937721D01*
X-48674293Y9006514D01*
X-48617046Y9295634D01*
X-48563959Y9563744D01*
X-43339965Y9563744D01*
X-43333887Y9512396D01*
X-43329427Y9474712D01*
X-43329084Y9471438D01*
X-43320882Y9382176D01*
X-43319315Y9376619D01*
X-43318870Y9374219D01*
X-43316134Y9360468D01*
X-43315618Y9358042D01*
X-43314939Y9352302D01*
X-43290686Y9274195D01*
X-43288350Y9266671D01*
X-43287414Y9263509D01*
X-43268294Y9195716D01*
X-43263087Y9177252D01*
X-43260533Y9172073D01*
X-43259634Y9169731D01*
X-43254475Y9156800D01*
X-43253515Y9154483D01*
X-43251801Y9148962D01*
X-43249112Y9143850D01*
X-43249109Y9143844D01*
X-43210045Y9069595D01*
X-43208554Y9066670D01*
X-43198265Y9045805D01*
X-43176196Y9001055D01*
X-43168916Y8986292D01*
X-43165463Y8981668D01*
X-43164143Y8979514D01*
X-43156704Y8967725D01*
X-43155354Y8965646D01*
X-43152664Y8960533D01*
X-43097153Y8890119D01*
X-43095182Y8887549D01*
X-43044980Y8820319D01*
X-43044973Y8820312D01*
X-43041523Y8815691D01*
X-43005819Y8782687D01*
X-42980321Y8759117D01*
X-42976754Y8755687D01*
X-41846906Y7625839D01*
X-41812880Y7563527D01*
X-41810001Y7536744D01*
X-41810001Y-3200000D01*
X-36222001Y-3200000D01*
X-36222001Y1729851D01*
X-36201999Y1797972D01*
X-36148343Y1844465D01*
X-36078069Y1854569D01*
X-36028563Y1835968D01*
X-36026368Y1834238D01*
X-35947005Y1792482D01*
X-35944189Y1790954D01*
X-35865923Y1747124D01*
X-35860450Y1745266D01*
X-35858084Y1744213D01*
X-35845356Y1738745D01*
X-35843054Y1737792D01*
X-35837939Y1735100D01*
X-35832419Y1733386D01*
X-35752305Y1708509D01*
X-35749169Y1707490D01*
X-35669780Y1680541D01*
X-35669775Y1680540D01*
X-35664305Y1678683D01*
X-35658586Y1677854D01*
X-35656159Y1677271D01*
X-35642497Y1674180D01*
X-35640116Y1673674D01*
X-35634599Y1671961D01*
X-35551403Y1662114D01*
X-35545565Y1661423D01*
X-35542293Y1660992D01*
X-35453592Y1648131D01*
X-35370322Y1651403D01*
X-35365376Y1651500D01*
X-32975401Y1651500D01*
X-32907280Y1631498D01*
X-32860787Y1577842D01*
X-32849401Y1525500D01*
X-32849401Y-17754503D01*
X-32849671Y-17762744D01*
X-32853965Y-17828256D01*
X-32849922Y-17862417D01*
X-32843427Y-17917288D01*
X-32843084Y-17920562D01*
X-32834882Y-18009824D01*
X-32833315Y-18015381D01*
X-32832870Y-18017781D01*
X-32830134Y-18031532D01*
X-32829618Y-18033958D01*
X-32828939Y-18039698D01*
X-32826194Y-18048537D01*
X-32802350Y-18125329D01*
X-32801418Y-18128476D01*
X-32777087Y-18214748D01*
X-32774533Y-18219927D01*
X-32773634Y-18222269D01*
X-32768475Y-18235200D01*
X-32767515Y-18237517D01*
X-32765801Y-18243038D01*
X-32763112Y-18248150D01*
X-32763109Y-18248156D01*
X-32724045Y-18322405D01*
X-32722547Y-18325344D01*
X-32685665Y-18400133D01*
X-32682916Y-18405708D01*
X-32679463Y-18410332D01*
X-32678143Y-18412486D01*
X-32670704Y-18424275D01*
X-32669354Y-18426354D01*
X-32666664Y-18431467D01*
X-32611153Y-18501881D01*
X-32609182Y-18504451D01*
X-32558980Y-18571681D01*
X-32558973Y-18571688D01*
X-32555523Y-18576309D01*
X-32494321Y-18632883D01*
X-32490754Y-18636313D01*
X-17802211Y-33324856D01*
X-17796574Y-33330874D01*
X-17753276Y-33380246D01*
X-17748747Y-33383817D01*
X-17748741Y-33383822D01*
X-17682900Y-33435726D01*
X-17680335Y-33437803D01*
X-17615841Y-33491443D01*
X-17615837Y-33491446D01*
X-17611394Y-33495141D01*
X-17606347Y-33497968D01*
X-17604305Y-33499371D01*
X-17592696Y-33507128D01*
X-17590604Y-33508487D01*
X-17586068Y-33512062D01*
X-17525640Y-33543855D01*
X-17506763Y-33553787D01*
X-17503867Y-33555360D01*
X-17430665Y-33596354D01*
X-17430660Y-33596356D01*
X-17425623Y-33599177D01*
X-17420158Y-33601032D01*
X-17417894Y-33602040D01*
X-17405049Y-33607558D01*
X-17402755Y-33608508D01*
X-17397639Y-33611200D01*
X-17312031Y-33637782D01*
X-17308895Y-33638801D01*
X-17229480Y-33665759D01*
X-17229475Y-33665760D01*
X-17224005Y-33667617D01*
X-17218286Y-33668446D01*
X-17215859Y-33669029D01*
X-17202197Y-33672120D01*
X-17199816Y-33672626D01*
X-17194299Y-33674339D01*
X-17110878Y-33684213D01*
X-17105265Y-33684877D01*
X-17101993Y-33685308D01*
X-17013292Y-33698169D01*
X-16930022Y-33694897D01*
X-16925076Y-33694800D01*
X5160402Y-33694800D01*
X5168644Y-33695070D01*
X5234155Y-33699364D01*
X5323193Y-33688825D01*
X5326461Y-33688483D01*
X5415723Y-33680281D01*
X5421280Y-33678714D01*
X5423680Y-33678269D01*
X5437431Y-33675533D01*
X5439857Y-33675017D01*
X5445597Y-33674338D01*
X5531243Y-33647745D01*
X5534375Y-33646817D01*
X5577317Y-33634707D01*
X5615088Y-33624054D01*
X5615090Y-33624053D01*
X5620647Y-33622486D01*
X5625826Y-33619932D01*
X5628168Y-33619033D01*
X5641099Y-33613874D01*
X5643416Y-33612914D01*
X5648937Y-33611200D01*
X5654049Y-33608511D01*
X5654055Y-33608508D01*
X5728304Y-33569444D01*
X5731243Y-33567946D01*
X5806429Y-33530869D01*
X5806433Y-33530867D01*
X5811607Y-33528315D01*
X5816231Y-33524862D01*
X5818385Y-33523542D01*
X5830174Y-33516103D01*
X5832253Y-33514753D01*
X5837366Y-33512063D01*
X5907780Y-33456552D01*
X5910350Y-33454581D01*
X5977580Y-33404379D01*
X5977587Y-33404372D01*
X5982208Y-33400922D01*
X6038783Y-33339719D01*
X6042212Y-33336153D01*
X10327472Y-29050893D01*
X10363317Y-29025793D01*
X10532689Y-28946814D01*
X10532694Y-28946811D01*
X10537676Y-28944488D01*
X10639504Y-28873187D01*
X10715269Y-28820136D01*
X10715272Y-28820134D01*
X10719780Y-28816977D01*
X10876976Y-28659781D01*
X10895682Y-28633067D01*
X11001330Y-28482185D01*
X11001331Y-28482183D01*
X11004487Y-28477676D01*
X11006810Y-28472694D01*
X11006813Y-28472689D01*
X11055804Y-28367627D01*
X11102722Y-28314342D01*
X11170999Y-28294881D01*
X11238959Y-28315423D01*
X11284194Y-28367627D01*
X11333185Y-28472689D01*
X11333188Y-28472694D01*
X11335511Y-28477676D01*
X11338667Y-28482183D01*
X11338668Y-28482185D01*
X11444317Y-28633067D01*
X11463022Y-28659781D01*
X11620218Y-28816977D01*
X11624726Y-28820134D01*
X11624729Y-28820136D01*
X11700494Y-28873187D01*
X11802322Y-28944488D01*
X11807304Y-28946811D01*
X11807309Y-28946814D01*
X11935779Y-29006720D01*
X12003803Y-29038440D01*
X12009111Y-29039862D01*
X12009113Y-29039863D01*
X12050278Y-29050893D01*
X12218536Y-29095978D01*
X12439999Y-29115353D01*
X12661462Y-29095978D01*
X12829720Y-29050893D01*
X12870885Y-29039863D01*
X12870887Y-29039862D01*
X12876195Y-29038440D01*
X12944219Y-29006720D01*
X13072689Y-28946814D01*
X13072694Y-28946811D01*
X13077676Y-28944488D01*
X13179504Y-28873187D01*
X13255269Y-28820136D01*
X13255272Y-28820134D01*
X13259780Y-28816977D01*
X13416976Y-28659781D01*
X13435682Y-28633067D01*
X13541330Y-28482185D01*
X13541331Y-28482183D01*
X13544487Y-28477676D01*
X13546810Y-28472694D01*
X13546813Y-28472689D01*
X13636116Y-28281178D01*
X13636117Y-28281177D01*
X13638439Y-28276196D01*
X13695977Y-28061463D01*
X13715352Y-27840000D01*
X13695977Y-27618537D01*
X13671828Y-27528411D01*
X13673518Y-27457434D01*
X13713312Y-27398639D01*
X13778577Y-27370691D01*
X13793535Y-27369800D01*
X29064012Y-27369800D01*
X29149644Y-27361932D01*
X29216269Y-27355810D01*
X29216272Y-27355809D01*
X29222023Y-27355281D01*
X29227583Y-27353713D01*
X29421388Y-27299054D01*
X29421390Y-27299053D01*
X29426947Y-27297486D01*
X29432122Y-27294934D01*
X29432127Y-27294932D01*
X29612726Y-27205870D01*
X29617907Y-27203315D01*
X29625273Y-27197815D01*
X29783885Y-27079374D01*
X29788508Y-27075922D01*
X29933036Y-26919571D01*
X30046652Y-26739501D01*
X30125550Y-26541741D01*
X30167088Y-26332915D01*
X30169875Y-26120016D01*
X30168896Y-26114318D01*
X30141840Y-25956858D01*
X30150017Y-25886333D01*
X30195024Y-25831426D01*
X30266020Y-25809520D01*
X31475682Y-25809520D01*
X31483924Y-25809790D01*
X31549435Y-25814084D01*
X31638473Y-25803545D01*
X31641741Y-25803203D01*
X31731003Y-25795001D01*
X31736560Y-25793434D01*
X31738960Y-25792989D01*
X31752711Y-25790253D01*
X31755137Y-25789737D01*
X31760877Y-25789058D01*
X31846523Y-25762465D01*
X31849655Y-25761537D01*
X31892597Y-25749427D01*
X31930368Y-25738774D01*
X31930370Y-25738773D01*
X31935927Y-25737206D01*
X31941106Y-25734652D01*
X31943448Y-25733753D01*
X31956379Y-25728594D01*
X31958696Y-25727634D01*
X31964217Y-25725920D01*
X31969329Y-25723231D01*
X31969335Y-25723228D01*
X32043584Y-25684164D01*
X32046523Y-25682666D01*
X32121709Y-25645589D01*
X32121713Y-25645587D01*
X32126887Y-25643035D01*
X32131511Y-25639582D01*
X32133665Y-25638262D01*
X32145454Y-25630823D01*
X32147533Y-25629473D01*
X32152646Y-25626783D01*
X32223060Y-25571272D01*
X32225630Y-25569301D01*
X32292860Y-25519099D01*
X32292867Y-25519092D01*
X32297488Y-25515642D01*
X32354063Y-25454439D01*
X32357492Y-25450873D01*
X33247472Y-24560893D01*
X33283317Y-24535793D01*
X33452689Y-24456814D01*
X33452694Y-24456811D01*
X33457676Y-24454488D01*
X33621373Y-24339866D01*
X33635269Y-24330136D01*
X33635272Y-24330134D01*
X33639780Y-24326977D01*
X33796976Y-24169781D01*
X33824866Y-24129951D01*
X33921330Y-23992185D01*
X33921331Y-23992183D01*
X33924487Y-23987676D01*
X33926810Y-23982694D01*
X33926813Y-23982689D01*
X34016116Y-23791178D01*
X34016117Y-23791177D01*
X34018439Y-23786196D01*
X34075977Y-23571463D01*
X34090278Y-23408003D01*
X36430142Y-23408003D01*
X36467667Y-23693034D01*
X36543528Y-23970336D01*
X36545212Y-23974284D01*
X36647621Y-24214376D01*
X36656322Y-24234776D01*
X36703223Y-24313142D01*
X36793597Y-24464145D01*
X36803960Y-24481461D01*
X36983712Y-24705828D01*
X37192250Y-24903723D01*
X37425716Y-25071486D01*
X37429511Y-25073495D01*
X37429512Y-25073496D01*
X37451268Y-25085015D01*
X37679791Y-25206012D01*
X37949772Y-25304811D01*
X38230663Y-25366055D01*
X38259240Y-25368304D01*
X38453681Y-25383607D01*
X38453690Y-25383607D01*
X38456138Y-25383800D01*
X38611670Y-25383800D01*
X38613806Y-25383654D01*
X38613817Y-25383654D01*
X38821947Y-25369465D01*
X38821953Y-25369464D01*
X38826224Y-25369173D01*
X38830419Y-25368304D01*
X38830421Y-25368304D01*
X38966983Y-25340023D01*
X39107741Y-25310874D01*
X39378742Y-25214907D01*
X39466761Y-25169477D01*
X39630404Y-25085015D01*
X39630405Y-25085015D01*
X39634211Y-25083050D01*
X39637712Y-25080589D01*
X39637716Y-25080587D01*
X39815474Y-24955656D01*
X39869422Y-24917741D01*
X40004954Y-24791797D01*
X40076878Y-24724961D01*
X40076880Y-24724958D01*
X40080021Y-24722040D01*
X40262112Y-24499568D01*
X40412326Y-24254442D01*
X40527882Y-23991198D01*
X40542171Y-23941038D01*
X40587791Y-23780886D01*
X40606643Y-23714706D01*
X40647150Y-23430084D01*
X40647244Y-23412251D01*
X40648634Y-23146883D01*
X40648634Y-23146876D01*
X40648656Y-23142597D01*
X40647527Y-23134016D01*
X40611691Y-22861822D01*
X40611131Y-22857566D01*
X40535270Y-22580264D01*
X40508706Y-22517985D01*
X40424162Y-22319776D01*
X40424160Y-22319772D01*
X40422476Y-22315824D01*
X40324166Y-22151560D01*
X40277042Y-22072821D01*
X40277039Y-22072817D01*
X40274838Y-22069139D01*
X40095086Y-21844772D01*
X39952486Y-21709450D01*
X39889657Y-21649827D01*
X39889654Y-21649825D01*
X39886548Y-21646877D01*
X39653082Y-21479114D01*
X39631242Y-21467550D01*
X39584287Y-21442689D01*
X39399007Y-21344588D01*
X39129026Y-21245789D01*
X38848135Y-21184545D01*
X38817084Y-21182101D01*
X38625117Y-21166993D01*
X38625108Y-21166993D01*
X38622660Y-21166800D01*
X38467128Y-21166800D01*
X38464992Y-21166946D01*
X38464981Y-21166946D01*
X38256851Y-21181135D01*
X38256845Y-21181136D01*
X38252574Y-21181427D01*
X38248379Y-21182296D01*
X38248377Y-21182296D01*
X38200678Y-21192174D01*
X37971057Y-21239726D01*
X37700056Y-21335693D01*
X37444587Y-21467550D01*
X37441086Y-21470011D01*
X37441082Y-21470013D01*
X37430993Y-21477104D01*
X37209376Y-21632859D01*
X37194291Y-21646877D01*
X37043526Y-21786977D01*
X36998777Y-21828560D01*
X36816686Y-22051032D01*
X36666472Y-22296158D01*
X36664746Y-22300091D01*
X36664745Y-22300092D01*
X36601778Y-22443534D01*
X36550916Y-22559402D01*
X36472155Y-22835894D01*
X36431648Y-23120516D01*
X36431626Y-23124805D01*
X36431625Y-23124812D01*
X36430417Y-23355475D01*
X36430142Y-23408003D01*
X34090278Y-23408003D01*
X34095352Y-23350000D01*
X34075977Y-23128537D01*
X34018439Y-22913804D01*
X34016116Y-22908822D01*
X33926813Y-22717311D01*
X33926810Y-22717306D01*
X33924487Y-22712324D01*
X33909484Y-22690897D01*
X33800135Y-22534730D01*
X33800133Y-22534727D01*
X33796976Y-22530219D01*
X33639780Y-22373023D01*
X33635272Y-22369866D01*
X33635269Y-22369864D01*
X33524783Y-22292501D01*
X33457676Y-22245512D01*
X33452694Y-22243189D01*
X33452689Y-22243186D01*
X33347626Y-22194195D01*
X33294341Y-22147278D01*
X33274880Y-22079001D01*
X33295422Y-22011041D01*
X33347626Y-21965805D01*
X33452689Y-21916814D01*
X33452694Y-21916811D01*
X33457676Y-21914488D01*
X33584565Y-21825639D01*
X33635269Y-21790136D01*
X33635272Y-21790134D01*
X33639780Y-21786977D01*
X33796976Y-21629781D01*
X33827267Y-21586522D01*
X33921330Y-21452185D01*
X33921331Y-21452183D01*
X33924487Y-21447676D01*
X33926810Y-21442694D01*
X33926813Y-21442689D01*
X34016116Y-21251178D01*
X34016117Y-21251177D01*
X34018439Y-21246196D01*
X34020406Y-21238857D01*
X34074553Y-21036776D01*
X34075977Y-21031463D01*
X34095352Y-20810000D01*
X34075977Y-20588537D01*
X34037502Y-20444949D01*
X34019862Y-20379114D01*
X34019861Y-20379112D01*
X34018439Y-20373804D01*
X34005792Y-20346682D01*
X33926813Y-20177311D01*
X33926810Y-20177306D01*
X33924487Y-20172324D01*
X33847489Y-20062359D01*
X33800135Y-19994730D01*
X33800133Y-19994727D01*
X33796976Y-19990219D01*
X33639780Y-19833023D01*
X33635272Y-19829866D01*
X33635269Y-19829864D01*
X33559504Y-19776813D01*
X33457676Y-19705512D01*
X33452694Y-19703189D01*
X33452689Y-19703186D01*
X33347626Y-19654195D01*
X33294341Y-19607278D01*
X33274880Y-19539001D01*
X33295422Y-19471041D01*
X33347626Y-19425805D01*
X33452689Y-19376814D01*
X33452694Y-19376811D01*
X33457676Y-19374488D01*
X33631183Y-19252997D01*
X33635269Y-19250136D01*
X33635272Y-19250134D01*
X33639780Y-19246977D01*
X33796976Y-19089781D01*
X33924487Y-18907676D01*
X33926810Y-18902694D01*
X33926813Y-18902689D01*
X34016116Y-18711178D01*
X34016117Y-18711177D01*
X34018439Y-18706196D01*
X34075977Y-18491463D01*
X34095352Y-18270000D01*
X34075977Y-18048537D01*
X34018439Y-17833804D01*
X33985303Y-17762744D01*
X33926813Y-17637311D01*
X33926810Y-17637306D01*
X33924487Y-17632324D01*
X33838835Y-17510000D01*
X33800135Y-17454730D01*
X33800133Y-17454727D01*
X33796976Y-17450219D01*
X33639780Y-17293023D01*
X33635272Y-17289866D01*
X33635269Y-17289864D01*
X33555214Y-17233809D01*
X33457676Y-17165512D01*
X33452694Y-17163189D01*
X33452689Y-17163186D01*
X33347626Y-17114195D01*
X33294341Y-17067278D01*
X33274880Y-16999001D01*
X33295422Y-16931041D01*
X33347626Y-16885805D01*
X33452689Y-16836814D01*
X33452694Y-16836811D01*
X33457676Y-16834488D01*
X33559504Y-16763187D01*
X33635269Y-16710136D01*
X33635272Y-16710134D01*
X33639780Y-16706977D01*
X33796976Y-16549781D01*
X33867301Y-16449347D01*
X33921330Y-16372185D01*
X33921331Y-16372183D01*
X33924487Y-16367676D01*
X33926810Y-16362694D01*
X33926813Y-16362689D01*
X34016116Y-16171178D01*
X34016117Y-16171177D01*
X34018439Y-16166196D01*
X34020971Y-16156749D01*
X34048679Y-16053341D01*
X34075977Y-15951463D01*
X34095352Y-15730000D01*
X34075977Y-15508537D01*
X34018439Y-15293804D01*
X34016116Y-15288822D01*
X33926813Y-15097311D01*
X33926810Y-15097306D01*
X33924487Y-15092324D01*
X33837269Y-14967763D01*
X33800135Y-14914730D01*
X33800133Y-14914727D01*
X33796976Y-14910219D01*
X33639780Y-14753023D01*
X33635272Y-14749866D01*
X33635269Y-14749864D01*
X33548649Y-14689212D01*
X33504321Y-14633755D01*
X33497012Y-14563135D01*
X33529043Y-14499775D01*
X33590244Y-14463790D01*
X33620920Y-14459999D01*
X33626668Y-14459999D01*
X33633489Y-14459629D01*
X33684351Y-14454105D01*
X33699603Y-14450479D01*
X33820053Y-14405324D01*
X33835648Y-14396786D01*
X33937723Y-14320285D01*
X33950284Y-14307724D01*
X34026785Y-14205649D01*
X34035323Y-14190054D01*
X34080477Y-14069606D01*
X34084104Y-14054351D01*
X34089630Y-14003486D01*
X34089999Y-13996672D01*
X34089999Y-13462115D01*
X34085524Y-13446876D01*
X34084134Y-13445671D01*
X34076451Y-13444000D01*
X31568115Y-13444000D01*
X31552876Y-13448475D01*
X31551671Y-13449865D01*
X31550000Y-13457548D01*
X31550000Y-13996669D01*
X31550370Y-14003490D01*
X31555894Y-14054352D01*
X31559520Y-14069604D01*
X31604675Y-14190054D01*
X31613213Y-14205649D01*
X31689714Y-14307724D01*
X31702275Y-14320285D01*
X31804350Y-14396786D01*
X31819945Y-14405324D01*
X31940393Y-14450478D01*
X31955648Y-14454105D01*
X32006513Y-14459631D01*
X32013327Y-14460000D01*
X32019077Y-14460000D01*
X32087198Y-14480002D01*
X32133691Y-14533658D01*
X32143795Y-14603932D01*
X32114301Y-14668512D01*
X32091348Y-14689213D01*
X32004729Y-14749864D01*
X32004726Y-14749866D01*
X32000218Y-14753023D01*
X31843022Y-14910219D01*
X31839865Y-14914727D01*
X31839863Y-14914730D01*
X31802729Y-14967763D01*
X31715511Y-15092324D01*
X31713188Y-15097306D01*
X31713185Y-15097311D01*
X31623882Y-15288822D01*
X31621559Y-15293804D01*
X31564021Y-15508537D01*
X31544646Y-15730000D01*
X31564021Y-15951463D01*
X31591319Y-16053341D01*
X31619028Y-16156749D01*
X31621559Y-16166196D01*
X31623881Y-16171177D01*
X31623882Y-16171178D01*
X31713185Y-16362689D01*
X31713188Y-16362694D01*
X31715511Y-16367676D01*
X31718667Y-16372183D01*
X31718668Y-16372185D01*
X31772698Y-16449347D01*
X31843022Y-16549781D01*
X32000218Y-16706977D01*
X32004726Y-16710134D01*
X32004729Y-16710136D01*
X32080494Y-16763187D01*
X32182322Y-16834488D01*
X32187304Y-16836811D01*
X32187309Y-16836814D01*
X32292372Y-16885805D01*
X32345657Y-16932722D01*
X32365118Y-17000999D01*
X32344576Y-17068959D01*
X32292372Y-17114195D01*
X32187310Y-17163186D01*
X32187305Y-17163189D01*
X32182323Y-17165512D01*
X32177816Y-17168668D01*
X32177814Y-17168669D01*
X32004729Y-17289864D01*
X32004726Y-17289866D01*
X32000218Y-17293023D01*
X31843022Y-17450219D01*
X31839865Y-17454727D01*
X31839863Y-17454730D01*
X31801163Y-17510000D01*
X31715511Y-17632324D01*
X31713188Y-17637306D01*
X31713185Y-17637311D01*
X31654695Y-17762744D01*
X31621559Y-17833804D01*
X31564021Y-18048537D01*
X31544646Y-18270000D01*
X31564021Y-18491463D01*
X31621559Y-18706196D01*
X31623881Y-18711177D01*
X31623882Y-18711178D01*
X31713185Y-18902689D01*
X31713188Y-18902694D01*
X31715511Y-18907676D01*
X31843022Y-19089781D01*
X32000218Y-19246977D01*
X32004726Y-19250134D01*
X32004729Y-19250136D01*
X32008815Y-19252997D01*
X32182322Y-19374488D01*
X32187304Y-19376811D01*
X32187309Y-19376814D01*
X32292372Y-19425805D01*
X32345657Y-19472722D01*
X32365118Y-19540999D01*
X32344576Y-19608959D01*
X32292372Y-19654195D01*
X32187310Y-19703186D01*
X32187305Y-19703189D01*
X32182323Y-19705512D01*
X32177816Y-19708668D01*
X32177814Y-19708669D01*
X32004729Y-19829864D01*
X32004726Y-19829866D01*
X32000218Y-19833023D01*
X31843022Y-19990219D01*
X31839865Y-19994727D01*
X31839863Y-19994730D01*
X31792509Y-20062359D01*
X31715511Y-20172324D01*
X31713188Y-20177306D01*
X31713185Y-20177311D01*
X31634206Y-20346682D01*
X31609106Y-20382527D01*
X30035538Y-21956095D01*
X29973226Y-21990121D01*
X29946443Y-21993000D01*
X11308655Y-21993000D01*
X11240534Y-21972998D01*
X11194041Y-21919342D01*
X11183937Y-21849068D01*
X11213431Y-21784488D01*
X11219560Y-21777905D01*
X19338555Y-13658910D01*
X19344573Y-13653273D01*
X19389606Y-13613780D01*
X19393945Y-13609975D01*
X19397516Y-13605446D01*
X19397521Y-13605440D01*
X19449425Y-13539599D01*
X19451502Y-13537034D01*
X19505146Y-13472536D01*
X19505152Y-13472527D01*
X19508840Y-13468093D01*
X19511658Y-13463061D01*
X19513064Y-13461015D01*
X19520785Y-13449459D01*
X19522186Y-13447302D01*
X19525761Y-13442767D01*
X19528451Y-13437655D01*
X19567490Y-13363455D01*
X19569063Y-13360558D01*
X19610052Y-13287365D01*
X19610054Y-13287360D01*
X19612875Y-13282323D01*
X19614731Y-13276855D01*
X19615768Y-13274526D01*
X19621265Y-13261732D01*
X19622213Y-13259443D01*
X19624899Y-13254338D01*
X19651504Y-13168656D01*
X19652499Y-13165595D01*
X19679460Y-13086172D01*
X19679460Y-13086170D01*
X19681316Y-13080704D01*
X19682144Y-13074994D01*
X19682720Y-13072595D01*
X19685819Y-13058896D01*
X19686325Y-13056515D01*
X19688038Y-13050998D01*
X19698576Y-12961964D01*
X19699007Y-12958695D01*
X19709804Y-12884225D01*
X19711868Y-12869991D01*
X19708596Y-12786721D01*
X19708499Y-12781775D01*
X19708499Y-11810747D01*
X19728501Y-11742626D01*
X19782157Y-11696133D01*
X19852431Y-11686029D01*
X19917011Y-11715523D01*
X19935325Y-11735182D01*
X19959714Y-11767724D01*
X19972275Y-11780285D01*
X20074350Y-11856786D01*
X20089945Y-11865324D01*
X20210393Y-11910478D01*
X20225648Y-11914105D01*
X20276513Y-11919631D01*
X20283327Y-11920000D01*
X20817884Y-11920000D01*
X20833123Y-11915525D01*
X20834328Y-11914135D01*
X20835999Y-11906452D01*
X20835999Y-11901884D01*
X21343999Y-11901884D01*
X21348474Y-11917123D01*
X21349864Y-11918328D01*
X21357547Y-11919999D01*
X21896668Y-11919999D01*
X21903489Y-11919629D01*
X21954351Y-11914105D01*
X21969603Y-11910479D01*
X22090053Y-11865324D01*
X22105648Y-11856786D01*
X22207723Y-11780285D01*
X22220284Y-11767724D01*
X22296785Y-11665649D01*
X22305323Y-11650054D01*
X22350477Y-11529606D01*
X22354104Y-11514351D01*
X22359630Y-11463486D01*
X22359999Y-11456672D01*
X22359999Y-10922115D01*
X22355524Y-10906876D01*
X22354134Y-10905671D01*
X22346451Y-10904000D01*
X21362114Y-10904000D01*
X21346875Y-10908475D01*
X21345670Y-10909865D01*
X21343999Y-10917548D01*
X21343999Y-11901884D01*
X20835999Y-11901884D01*
X20835999Y-10377885D01*
X21343999Y-10377885D01*
X21348474Y-10393124D01*
X21349864Y-10394329D01*
X21357547Y-10396000D01*
X22341883Y-10396000D01*
X22357122Y-10391525D01*
X22358327Y-10390135D01*
X22359998Y-10382452D01*
X22359998Y-9843331D01*
X22359628Y-9836510D01*
X22354104Y-9785648D01*
X22350478Y-9770396D01*
X22305323Y-9649946D01*
X22296785Y-9634351D01*
X22220284Y-9532276D01*
X22207723Y-9519715D01*
X22105648Y-9443214D01*
X22090053Y-9434676D01*
X21969605Y-9389522D01*
X21954350Y-9385895D01*
X21903485Y-9380369D01*
X21896671Y-9380000D01*
X21362114Y-9380000D01*
X21346875Y-9384475D01*
X21345670Y-9385865D01*
X21343999Y-9393548D01*
X21343999Y-10377885D01*
X20835999Y-10377885D01*
X20835999Y-9398116D01*
X20831524Y-9382877D01*
X20830134Y-9381672D01*
X20822451Y-9380001D01*
X20283330Y-9380001D01*
X20276509Y-9380371D01*
X20225647Y-9385895D01*
X20210395Y-9389521D01*
X20089945Y-9434676D01*
X20074350Y-9443214D01*
X19972275Y-9519715D01*
X19959714Y-9532276D01*
X19883213Y-9634351D01*
X19874675Y-9649946D01*
X19829521Y-9770394D01*
X19825894Y-9785649D01*
X19820368Y-9836514D01*
X19819999Y-9843328D01*
X19819999Y-9849078D01*
X19799997Y-9917199D01*
X19746341Y-9963692D01*
X19676067Y-9973796D01*
X19611487Y-9944302D01*
X19590786Y-9921349D01*
X19530135Y-9834730D01*
X19530133Y-9834727D01*
X19526976Y-9830219D01*
X19369780Y-9673023D01*
X19365272Y-9669866D01*
X19365269Y-9669864D01*
X19268983Y-9602444D01*
X19187676Y-9545512D01*
X19182694Y-9543189D01*
X19182689Y-9543186D01*
X18991177Y-9453883D01*
X18991176Y-9453882D01*
X18986195Y-9451560D01*
X18980887Y-9450138D01*
X18980885Y-9450137D01*
X18915050Y-9432497D01*
X18771462Y-9394022D01*
X18549999Y-9374647D01*
X18328536Y-9394022D01*
X18184948Y-9432497D01*
X18119113Y-9450137D01*
X18119111Y-9450138D01*
X18113803Y-9451560D01*
X18108822Y-9453882D01*
X18108821Y-9453883D01*
X17917310Y-9543186D01*
X17917305Y-9543189D01*
X17912323Y-9545512D01*
X17907816Y-9548668D01*
X17907814Y-9548669D01*
X17734729Y-9669864D01*
X17734726Y-9669866D01*
X17730218Y-9673023D01*
X17573022Y-9830219D01*
X17569865Y-9834727D01*
X17569863Y-9834730D01*
X17470898Y-9976067D01*
X17445511Y-10012324D01*
X17443188Y-10017306D01*
X17443185Y-10017311D01*
X17394194Y-10122373D01*
X17347276Y-10175658D01*
X17278999Y-10195119D01*
X17211039Y-10174577D01*
X17165804Y-10122373D01*
X17116813Y-10017311D01*
X17116810Y-10017306D01*
X17114487Y-10012324D01*
X17089100Y-9976067D01*
X16990135Y-9834730D01*
X16990133Y-9834727D01*
X16986976Y-9830219D01*
X16829780Y-9673023D01*
X16825272Y-9669866D01*
X16825269Y-9669864D01*
X16728983Y-9602444D01*
X16647676Y-9545512D01*
X16642694Y-9543189D01*
X16642689Y-9543186D01*
X16451177Y-9453883D01*
X16451176Y-9453882D01*
X16446195Y-9451560D01*
X16440887Y-9450138D01*
X16440885Y-9450137D01*
X16375050Y-9432497D01*
X16231462Y-9394022D01*
X16009999Y-9374647D01*
X15788536Y-9394022D01*
X15644948Y-9432497D01*
X15579113Y-9450137D01*
X15579111Y-9450138D01*
X15573803Y-9451560D01*
X15568822Y-9453882D01*
X15568821Y-9453883D01*
X15377310Y-9543186D01*
X15377305Y-9543189D01*
X15372323Y-9545512D01*
X15367816Y-9548668D01*
X15367814Y-9548669D01*
X15194729Y-9669864D01*
X15194726Y-9669866D01*
X15190218Y-9673023D01*
X15033022Y-9830219D01*
X15029865Y-9834727D01*
X15029863Y-9834730D01*
X14930898Y-9976067D01*
X14905511Y-10012324D01*
X14903188Y-10017306D01*
X14903185Y-10017311D01*
X14854194Y-10122373D01*
X14807276Y-10175658D01*
X14738999Y-10195119D01*
X14671039Y-10174577D01*
X14625804Y-10122373D01*
X14576813Y-10017311D01*
X14576810Y-10017306D01*
X14574487Y-10012324D01*
X14549100Y-9976067D01*
X14450135Y-9834730D01*
X14450133Y-9834727D01*
X14446976Y-9830219D01*
X14289780Y-9673023D01*
X14285272Y-9669866D01*
X14285269Y-9669864D01*
X14188983Y-9602444D01*
X14107676Y-9545512D01*
X14102694Y-9543189D01*
X14102689Y-9543186D01*
X13911177Y-9453883D01*
X13911176Y-9453882D01*
X13906195Y-9451560D01*
X13900887Y-9450138D01*
X13900885Y-9450137D01*
X13835050Y-9432497D01*
X13691462Y-9394022D01*
X13469999Y-9374647D01*
X13248536Y-9394022D01*
X13104948Y-9432497D01*
X13039113Y-9450137D01*
X13039111Y-9450138D01*
X13033803Y-9451560D01*
X13028822Y-9453882D01*
X13028821Y-9453883D01*
X12837310Y-9543186D01*
X12837305Y-9543189D01*
X12832323Y-9545512D01*
X12827816Y-9548668D01*
X12827814Y-9548669D01*
X12654729Y-9669864D01*
X12654726Y-9669866D01*
X12650218Y-9673023D01*
X12493022Y-9830219D01*
X12489865Y-9834727D01*
X12489863Y-9834730D01*
X12390898Y-9976067D01*
X12365511Y-10012324D01*
X12363188Y-10017306D01*
X12363185Y-10017311D01*
X12314194Y-10122373D01*
X12267276Y-10175658D01*
X12198999Y-10195119D01*
X12131039Y-10174577D01*
X12085804Y-10122373D01*
X12036813Y-10017311D01*
X12036810Y-10017306D01*
X12034487Y-10012324D01*
X12009100Y-9976067D01*
X11910135Y-9834730D01*
X11910133Y-9834727D01*
X11906976Y-9830219D01*
X11749780Y-9673023D01*
X11745272Y-9669866D01*
X11745269Y-9669864D01*
X11648983Y-9602444D01*
X11567676Y-9545512D01*
X11562694Y-9543189D01*
X11562689Y-9543186D01*
X11393317Y-9464207D01*
X11357472Y-9439107D01*
X11112904Y-9194539D01*
X11078878Y-9132227D01*
X11075999Y-9105444D01*
X11075999Y24206502D01*
X11096001Y24274623D01*
X11149657Y24321116D01*
X11219931Y24331220D01*
X11234605Y24328210D01*
X11343536Y24299022D01*
X11564999Y24279647D01*
X11786462Y24299022D01*
X11938893Y24339866D01*
X11995885Y24355137D01*
X11995887Y24355138D01*
X12001195Y24356560D01*
X12006177Y24358883D01*
X12197689Y24448186D01*
X12197694Y24448189D01*
X12202676Y24450512D01*
X12304504Y24521813D01*
X12380269Y24574864D01*
X12380272Y24574866D01*
X12384780Y24578023D01*
X12541976Y24735219D01*
X12639740Y24874840D01*
X12666330Y24912815D01*
X12666331Y24912817D01*
X12669487Y24917324D01*
X12671810Y24922306D01*
X12671813Y24922311D01*
X12761116Y25113822D01*
X12761117Y25113823D01*
X12763439Y25118804D01*
X12768043Y25135984D01*
X12798957Y25251357D01*
X12820977Y25333537D01*
X12840352Y25555000D01*
X12820977Y25776463D01*
X12763439Y25991196D01*
X12746830Y26026814D01*
X12671813Y26187689D01*
X12671810Y26187694D01*
X12669487Y26192676D01*
X12666330Y26197185D01*
X12545135Y26370270D01*
X12545133Y26370273D01*
X12541976Y26374781D01*
X12384780Y26531977D01*
X12380272Y26535134D01*
X12380269Y26535136D01*
X12242020Y26631939D01*
X12202676Y26659488D01*
X12197694Y26661811D01*
X12197689Y26661814D01*
X12092626Y26710805D01*
X12039341Y26757722D01*
X12019880Y26825999D01*
X12040422Y26893959D01*
X12092626Y26939195D01*
X12197689Y26988186D01*
X12197694Y26988189D01*
X12202676Y26990512D01*
X12307827Y27064140D01*
X12380269Y27114864D01*
X12380272Y27114866D01*
X12384780Y27118023D01*
X12541976Y27275219D01*
X12601899Y27360797D01*
X12666330Y27452815D01*
X12666331Y27452817D01*
X12669487Y27457324D01*
X12671810Y27462306D01*
X12671813Y27462311D01*
X12761116Y27653822D01*
X12761117Y27653823D01*
X12763439Y27658804D01*
X12768043Y27675984D01*
X12799849Y27794687D01*
X12820977Y27873537D01*
X12840352Y28095000D01*
X12820977Y28316463D01*
X12769176Y28509785D01*
X12764862Y28525886D01*
X12764861Y28525888D01*
X12763439Y28531196D01*
X12761116Y28536178D01*
X12671813Y28727689D01*
X12671810Y28727694D01*
X12669487Y28732676D01*
X12662697Y28742373D01*
X12545135Y28910270D01*
X12545133Y28910273D01*
X12541976Y28914781D01*
X12384780Y29071977D01*
X12380272Y29075134D01*
X12380269Y29075136D01*
X12277569Y29147047D01*
X12202676Y29199488D01*
X12197694Y29201811D01*
X12197689Y29201814D01*
X12092626Y29250805D01*
X12039341Y29297722D01*
X12019880Y29365999D01*
X12040422Y29433959D01*
X12092626Y29479195D01*
X12092648Y29479205D01*
X12130329Y29496776D01*
X12197689Y29528186D01*
X12197694Y29528189D01*
X12202676Y29530512D01*
X12363338Y29643009D01*
X12380269Y29654864D01*
X12380272Y29654866D01*
X12384780Y29658023D01*
X12541976Y29815219D01*
X12571557Y29857464D01*
X12666330Y29992815D01*
X12666331Y29992817D01*
X12669487Y29997324D01*
X12671810Y30002305D01*
X12671816Y30002316D01*
X12731720Y30130780D01*
X12778637Y30184064D01*
X12846914Y30203525D01*
X12914874Y30182983D01*
X12935009Y30166624D01*
X13851394Y29250239D01*
X13885420Y29187927D01*
X13888299Y29161144D01*
X13888299Y2320097D01*
X13888029Y2311856D01*
X13883735Y2246344D01*
X13884414Y2240609D01*
X13894273Y2157312D01*
X13894616Y2154038D01*
X13902818Y2064776D01*
X13904385Y2059219D01*
X13904830Y2056819D01*
X13907566Y2043068D01*
X13908082Y2040642D01*
X13908761Y2034902D01*
X13933546Y1955080D01*
X13935350Y1949271D01*
X13936282Y1946124D01*
X13960613Y1859852D01*
X13963167Y1854673D01*
X13964066Y1852331D01*
X13969225Y1839400D01*
X13970185Y1837083D01*
X13971899Y1831562D01*
X13974588Y1826450D01*
X13974591Y1826444D01*
X14013655Y1752195D01*
X14015153Y1749256D01*
X14051037Y1676491D01*
X14054784Y1668892D01*
X14058237Y1664268D01*
X14059557Y1662114D01*
X14066996Y1650325D01*
X14068346Y1648246D01*
X14071036Y1643133D01*
X14126547Y1572719D01*
X14128518Y1570149D01*
X14178720Y1502919D01*
X14178727Y1502912D01*
X14182177Y1498291D01*
X14243379Y1441717D01*
X14246946Y1438287D01*
X27123789Y-11438556D01*
X27129426Y-11444574D01*
X27172724Y-11493946D01*
X27177255Y-11497518D01*
X27243130Y-11549450D01*
X27245693Y-11551526D01*
X27249108Y-11554366D01*
X27314606Y-11608840D01*
X27319651Y-11611665D01*
X27321657Y-11613044D01*
X27333287Y-11620816D01*
X27335393Y-11622184D01*
X27339932Y-11625762D01*
X27419329Y-11667535D01*
X27422135Y-11669059D01*
X27500376Y-11712876D01*
X27505850Y-11714734D01*
X27508197Y-11715779D01*
X27520972Y-11721268D01*
X27523255Y-11722214D01*
X27528361Y-11724900D01*
X27533875Y-11726612D01*
X27533877Y-11726613D01*
X27614027Y-11751501D01*
X27617163Y-11752520D01*
X27622961Y-11754488D01*
X27701994Y-11781316D01*
X27707714Y-11782145D01*
X27710170Y-11782735D01*
X27723721Y-11785801D01*
X27726174Y-11786323D01*
X27731701Y-11788039D01*
X27737438Y-11788718D01*
X27737443Y-11788719D01*
X27806603Y-11796904D01*
X27820739Y-11798577D01*
X27823998Y-11799006D01*
X27839717Y-11801285D01*
X27906995Y-11811041D01*
X27906999Y-11811041D01*
X27912708Y-11811869D01*
X27995978Y-11808597D01*
X28000924Y-11808500D01*
X31659252Y-11808500D01*
X31727373Y-11828502D01*
X31773866Y-11882158D01*
X31783970Y-11952432D01*
X31754476Y-12017012D01*
X31734817Y-12035326D01*
X31702275Y-12059715D01*
X31689714Y-12072276D01*
X31613213Y-12174351D01*
X31604675Y-12189946D01*
X31559521Y-12310394D01*
X31555894Y-12325649D01*
X31550368Y-12376514D01*
X31549999Y-12383328D01*
X31549999Y-12917885D01*
X31554474Y-12933124D01*
X31555864Y-12934329D01*
X31563547Y-12936000D01*
X34071883Y-12936000D01*
X34087122Y-12931525D01*
X34088327Y-12930135D01*
X34089998Y-12922452D01*
X34089998Y-12383331D01*
X34089628Y-12376510D01*
X34084104Y-12325648D01*
X34080478Y-12310396D01*
X34035323Y-12189946D01*
X34026785Y-12174351D01*
X33950284Y-12072276D01*
X33937723Y-12059715D01*
X33835648Y-11983214D01*
X33820053Y-11974676D01*
X33699605Y-11929522D01*
X33684350Y-11925895D01*
X33633485Y-11920369D01*
X33626671Y-11920000D01*
X33620921Y-11920000D01*
X33552800Y-11899998D01*
X33506307Y-11846342D01*
X33496203Y-11776068D01*
X33525697Y-11711488D01*
X33548650Y-11690787D01*
X33635269Y-11630136D01*
X33635272Y-11630134D01*
X33639780Y-11626977D01*
X33796976Y-11469781D01*
X33805781Y-11457207D01*
X33921330Y-11292185D01*
X33921331Y-11292183D01*
X33924487Y-11287676D01*
X33926810Y-11282694D01*
X33926813Y-11282689D01*
X34016116Y-11091178D01*
X34016117Y-11091177D01*
X34018439Y-11086196D01*
X34020777Y-11077473D01*
X34050382Y-10966983D01*
X34075977Y-10871463D01*
X34095352Y-10650000D01*
X34075977Y-10428537D01*
X34035024Y-10275699D01*
X34019862Y-10219114D01*
X34019861Y-10219112D01*
X34018439Y-10213804D01*
X34016116Y-10208822D01*
X33926813Y-10017311D01*
X33926810Y-10017306D01*
X33924487Y-10012324D01*
X33899100Y-9976067D01*
X33800135Y-9834730D01*
X33800133Y-9834727D01*
X33796976Y-9830219D01*
X33639780Y-9673023D01*
X33635272Y-9669866D01*
X33635269Y-9669864D01*
X33538983Y-9602444D01*
X33457676Y-9545512D01*
X33452694Y-9543189D01*
X33452689Y-9543186D01*
X33261177Y-9453883D01*
X33261176Y-9453882D01*
X33256195Y-9451560D01*
X33250887Y-9450138D01*
X33250885Y-9450137D01*
X33185050Y-9432497D01*
X33041462Y-9394022D01*
X32819999Y-9374647D01*
X32598536Y-9394022D01*
X32454948Y-9432497D01*
X32389113Y-9450137D01*
X32389111Y-9450138D01*
X32383803Y-9451560D01*
X32378823Y-9453882D01*
X32378821Y-9453883D01*
X32323468Y-9479695D01*
X32270218Y-9491500D01*
X28505655Y-9491500D01*
X28437534Y-9471498D01*
X28416560Y-9454595D01*
X16242204Y2719761D01*
X16208178Y2782073D01*
X16205299Y2808856D01*
X16205299Y28894543D01*
X16225301Y28962664D01*
X16278957Y29009157D01*
X16349231Y29019261D01*
X16413811Y28989767D01*
X16420394Y28983638D01*
X16982494Y28421538D01*
X17016520Y28359226D01*
X17019399Y28332443D01*
X17019399Y19380597D01*
X17019129Y19372356D01*
X17014835Y19306844D01*
X17022107Y19245405D01*
X17025373Y19217812D01*
X17025716Y19214538D01*
X17033918Y19125276D01*
X17035485Y19119719D01*
X17035930Y19117319D01*
X17038666Y19103568D01*
X17039182Y19101142D01*
X17039861Y19095402D01*
X17052034Y19056198D01*
X17066450Y19009771D01*
X17067382Y19006624D01*
X17091713Y18920352D01*
X17094267Y18915173D01*
X17095166Y18912831D01*
X17100325Y18899900D01*
X17101285Y18897583D01*
X17102999Y18892062D01*
X17105688Y18886950D01*
X17105691Y18886944D01*
X17144755Y18812695D01*
X17146253Y18809756D01*
X17168430Y18764786D01*
X17185884Y18729392D01*
X17189337Y18724768D01*
X17190657Y18722614D01*
X17198096Y18710825D01*
X17199446Y18708746D01*
X17202136Y18703633D01*
X17257647Y18633219D01*
X17259618Y18630649D01*
X17309820Y18563419D01*
X17309827Y18563412D01*
X17313277Y18558791D01*
X17348774Y18525978D01*
X17374479Y18502217D01*
X17378046Y18498787D01*
X36356900Y-480067D01*
X36362537Y-486085D01*
X36405835Y-535457D01*
X36410364Y-539028D01*
X36410370Y-539033D01*
X36476211Y-590937D01*
X36478776Y-593014D01*
X36543270Y-646654D01*
X36543274Y-646657D01*
X36547717Y-650352D01*
X36552764Y-653179D01*
X36554806Y-654582D01*
X36566415Y-662339D01*
X36568507Y-663698D01*
X36573043Y-667273D01*
X36642721Y-703933D01*
X36652348Y-708998D01*
X36655244Y-710571D01*
X36728446Y-751565D01*
X36728451Y-751567D01*
X36733488Y-754388D01*
X36738953Y-756243D01*
X36741217Y-757251D01*
X36754062Y-762769D01*
X36756356Y-763719D01*
X36761472Y-766411D01*
X36847080Y-792993D01*
X36850216Y-794012D01*
X36929631Y-820970D01*
X36929636Y-820971D01*
X36935106Y-822828D01*
X36940825Y-823657D01*
X36943252Y-824240D01*
X36956914Y-827331D01*
X36959295Y-827837D01*
X36964812Y-829550D01*
X37048233Y-839424D01*
X37053846Y-840088D01*
X37057118Y-840519D01*
X37145819Y-853380D01*
X37229089Y-850108D01*
X37234035Y-850011D01*
X38554213Y-850011D01*
X38562455Y-850281D01*
X38627966Y-854575D01*
X38717004Y-844036D01*
X38720272Y-843694D01*
X38809534Y-835492D01*
X38815091Y-833925D01*
X38817491Y-833480D01*
X38831242Y-830744D01*
X38833668Y-830228D01*
X38839408Y-829549D01*
X38925054Y-802956D01*
X38928186Y-802028D01*
X38971128Y-789918D01*
X39008899Y-779265D01*
X39008901Y-779264D01*
X39014458Y-777697D01*
X39019637Y-775143D01*
X39021979Y-774244D01*
X39034910Y-769085D01*
X39037227Y-768125D01*
X39042748Y-766411D01*
X39047860Y-763722D01*
X39047866Y-763719D01*
X39122115Y-724655D01*
X39125054Y-723157D01*
X39200240Y-686080D01*
X39200244Y-686078D01*
X39205418Y-683526D01*
X39210042Y-680073D01*
X39212196Y-678753D01*
X39223985Y-671314D01*
X39226064Y-669964D01*
X39231177Y-667274D01*
X39301591Y-611763D01*
X39304161Y-609792D01*
X39371391Y-559590D01*
X39371398Y-559583D01*
X39376019Y-556133D01*
X39432594Y-494930D01*
X39436023Y-491364D01*
X41274555Y1347168D01*
X41280573Y1352805D01*
X41325606Y1392298D01*
X41329945Y1396103D01*
X41333516Y1400632D01*
X41333521Y1400638D01*
X41385425Y1466479D01*
X41387502Y1469044D01*
X41441146Y1533542D01*
X41441152Y1533551D01*
X41444840Y1537985D01*
X41447658Y1543017D01*
X41449064Y1545063D01*
X41456785Y1556619D01*
X41458186Y1558776D01*
X41461761Y1563311D01*
X41465359Y1570149D01*
X41503490Y1642623D01*
X41505063Y1645520D01*
X41546052Y1718713D01*
X41546054Y1718718D01*
X41548875Y1723755D01*
X41550731Y1729223D01*
X41551768Y1731552D01*
X41557265Y1744346D01*
X41558213Y1746635D01*
X41560899Y1751740D01*
X41587504Y1837422D01*
X41588499Y1840483D01*
X41615460Y1919906D01*
X41615460Y1919908D01*
X41617316Y1925374D01*
X41618144Y1931084D01*
X41618720Y1933483D01*
X41621819Y1947182D01*
X41622325Y1949563D01*
X41624038Y1955080D01*
X41634576Y2044114D01*
X41635007Y2047383D01*
X41638708Y2072908D01*
X41647868Y2136087D01*
X41644596Y2219357D01*
X41644499Y2224303D01*
X41644499Y10163725D01*
X41644769Y10171966D01*
X41648685Y10231712D01*
X41649063Y10237478D01*
X41638524Y10326516D01*
X41638181Y10329791D01*
X41635936Y10354225D01*
X41629980Y10419046D01*
X41628413Y10424603D01*
X41627968Y10427003D01*
X41625232Y10440754D01*
X41624716Y10443180D01*
X41624037Y10448920D01*
X41597444Y10534566D01*
X41596512Y10537713D01*
X41573753Y10618411D01*
X41573752Y10618413D01*
X41572185Y10623970D01*
X41569631Y10629149D01*
X41568732Y10631491D01*
X41563573Y10644422D01*
X41562613Y10646739D01*
X41560899Y10652260D01*
X41558210Y10657372D01*
X41558207Y10657378D01*
X41519143Y10731627D01*
X41517645Y10734566D01*
X41515070Y10739789D01*
X41478014Y10814930D01*
X41474561Y10819554D01*
X41473241Y10821708D01*
X41465802Y10833497D01*
X41464452Y10835576D01*
X41461762Y10840689D01*
X41406251Y10911103D01*
X41404280Y10913673D01*
X41354078Y10980903D01*
X41354071Y10980910D01*
X41350621Y10985531D01*
X41289418Y11042106D01*
X41285852Y11045535D01*
X39462831Y12868556D01*
X39457194Y12874574D01*
X39444330Y12889243D01*
X39413896Y12923946D01*
X39344369Y12978757D01*
X39343490Y12979450D01*
X39340927Y12981526D01*
X39318081Y13000527D01*
X39272014Y13038840D01*
X39266969Y13041665D01*
X39264963Y13043044D01*
X39253333Y13050816D01*
X39251227Y13052184D01*
X39246688Y13055762D01*
X39167291Y13097535D01*
X39164485Y13099059D01*
X39086244Y13142876D01*
X39080770Y13144734D01*
X39078423Y13145779D01*
X39065648Y13151268D01*
X39063365Y13152214D01*
X39058259Y13154900D01*
X39052745Y13156612D01*
X39052743Y13156613D01*
X38972593Y13181501D01*
X38969457Y13182520D01*
X38923597Y13198087D01*
X38884626Y13211316D01*
X38878906Y13212145D01*
X38876450Y13212735D01*
X38862899Y13215801D01*
X38860446Y13216323D01*
X38854919Y13218039D01*
X38849182Y13218718D01*
X38849177Y13218719D01*
X38780017Y13226904D01*
X38765881Y13228577D01*
X38762622Y13229006D01*
X38746903Y13231285D01*
X38679625Y13241041D01*
X38679621Y13241041D01*
X38673912Y13241869D01*
X38590644Y13238597D01*
X38585697Y13238500D01*
X38479781Y13238500D01*
X38426531Y13250305D01*
X38371177Y13276117D01*
X38371176Y13276117D01*
X38366195Y13278440D01*
X38360887Y13279862D01*
X38360885Y13279863D01*
X38295050Y13297503D01*
X38151462Y13335978D01*
X37929999Y13355353D01*
X37708536Y13335978D01*
X37703223Y13334554D01*
X37703215Y13334553D01*
X37635600Y13316435D01*
X37564624Y13318124D01*
X37505828Y13357917D01*
X37477879Y13423181D01*
X37476988Y13438141D01*
X37476988Y20228211D01*
X37477258Y20236452D01*
X37481174Y20296202D01*
X37481552Y20301967D01*
X37471012Y20391011D01*
X37470670Y20394279D01*
X37462998Y20477782D01*
X37462997Y20477786D01*
X37462469Y20483535D01*
X37460902Y20489092D01*
X37460459Y20491481D01*
X37457728Y20505216D01*
X37457204Y20507681D01*
X37456526Y20513408D01*
X37429929Y20599066D01*
X37429006Y20602185D01*
X37406242Y20682900D01*
X37406241Y20682902D01*
X37404674Y20688459D01*
X37402120Y20693638D01*
X37401221Y20695980D01*
X37396062Y20708911D01*
X37395102Y20711228D01*
X37393388Y20716749D01*
X37390699Y20721861D01*
X37390696Y20721867D01*
X37351632Y20796116D01*
X37350134Y20799055D01*
X37313057Y20874241D01*
X37313055Y20874245D01*
X37310503Y20879419D01*
X37307050Y20884043D01*
X37305730Y20886197D01*
X37298302Y20897970D01*
X37296940Y20900068D01*
X37294251Y20905178D01*
X37238746Y20975587D01*
X37236758Y20978178D01*
X37186564Y21045395D01*
X37186562Y21045397D01*
X37183110Y21050020D01*
X37121920Y21106583D01*
X37118354Y21110012D01*
X17439809Y40788556D01*
X17434172Y40794574D01*
X17394679Y40839607D01*
X17390874Y40843946D01*
X17378997Y40853309D01*
X17320468Y40899450D01*
X17317905Y40901526D01*
X17292420Y40922721D01*
X17248992Y40958840D01*
X17243947Y40961665D01*
X17241941Y40963044D01*
X17230311Y40970816D01*
X17228205Y40972184D01*
X17223666Y40975762D01*
X17144269Y41017535D01*
X17141463Y41019059D01*
X17063222Y41062876D01*
X17057748Y41064734D01*
X17055401Y41065779D01*
X17042626Y41071268D01*
X17040343Y41072214D01*
X17035237Y41074900D01*
X17029723Y41076612D01*
X17029721Y41076613D01*
X16949571Y41101501D01*
X16946435Y41102520D01*
X16917053Y41112494D01*
X16861604Y41131316D01*
X16855884Y41132145D01*
X16853428Y41132735D01*
X16839877Y41135801D01*
X16837424Y41136323D01*
X16831897Y41138039D01*
X16826160Y41138718D01*
X16826155Y41138719D01*
X16756995Y41146904D01*
X16742859Y41148577D01*
X16739600Y41149006D01*
X16723881Y41151285D01*
X16656603Y41161041D01*
X16656599Y41161041D01*
X16650890Y41161869D01*
X16567622Y41158597D01*
X16562675Y41158500D01*
X-1604995Y41158500D01*
X-1673116Y41178502D01*
X-1694090Y41195405D01*
X-3087392Y42588707D01*
X17710486Y42588707D01*
X17710783Y42583554D01*
X17710783Y42583551D01*
X17716246Y42488812D01*
X17723345Y42365687D01*
X17724482Y42360641D01*
X17724483Y42360635D01*
X17742080Y42282556D01*
X17772457Y42147763D01*
X17856501Y41940786D01*
X17973222Y41750314D01*
X18119485Y41581464D01*
X18291361Y41438770D01*
X18484235Y41326064D01*
X18692927Y41246372D01*
X18697995Y41245341D01*
X18697998Y41245340D01*
X18765577Y41231591D01*
X18911832Y41201835D01*
X18917007Y41201645D01*
X18917009Y41201645D01*
X19129908Y41193838D01*
X19129912Y41193838D01*
X19135072Y41193649D01*
X19140192Y41194305D01*
X19140194Y41194305D01*
X19351523Y41221377D01*
X19351524Y41221377D01*
X19356651Y41222034D01*
X19513886Y41269207D01*
X19584881Y41269624D01*
X19644831Y41231591D01*
X19674703Y41167185D01*
X19675380Y41135135D01*
X19656239Y40956026D01*
X19656536Y40950873D01*
X19656536Y40950870D01*
X19665548Y40794574D01*
X19669098Y40733006D01*
X19670235Y40727960D01*
X19670236Y40727954D01*
X19689201Y40643804D01*
X19718210Y40515082D01*
X19802254Y40308105D01*
X19833987Y40256322D01*
X19914103Y40125584D01*
X19918975Y40117633D01*
X20065238Y39948783D01*
X20237114Y39806089D01*
X20429988Y39693383D01*
X20638680Y39613691D01*
X20643748Y39612660D01*
X20643751Y39612659D01*
X20711330Y39598910D01*
X20857585Y39569154D01*
X20862760Y39568964D01*
X20862762Y39568964D01*
X21075661Y39561157D01*
X21075665Y39561157D01*
X21080825Y39560968D01*
X21085945Y39561624D01*
X21085947Y39561624D01*
X21297276Y39588696D01*
X21297277Y39588696D01*
X21302404Y39589353D01*
X21459639Y39636526D01*
X21530634Y39636943D01*
X21590584Y39598910D01*
X21620456Y39534504D01*
X21621133Y39502455D01*
X21601992Y39323346D01*
X21602289Y39318193D01*
X21602289Y39318190D01*
X21607752Y39223451D01*
X21614851Y39100326D01*
X21615988Y39095280D01*
X21615989Y39095274D01*
X21628185Y39041160D01*
X21663963Y38882402D01*
X21748007Y38675425D01*
X21750706Y38671021D01*
X21860666Y38491582D01*
X21864728Y38484953D01*
X21868108Y38481051D01*
X21872868Y38475556D01*
X22010991Y38316103D01*
X22182867Y38173409D01*
X22375741Y38060703D01*
X22584433Y37981011D01*
X22589501Y37979980D01*
X22589504Y37979979D01*
X22657083Y37966230D01*
X22803338Y37936474D01*
X22808513Y37936284D01*
X22808515Y37936284D01*
X23021414Y37928477D01*
X23021418Y37928477D01*
X23026578Y37928288D01*
X23031698Y37928944D01*
X23031700Y37928944D01*
X23243029Y37956016D01*
X23243030Y37956016D01*
X23248157Y37956673D01*
X23405392Y38003846D01*
X23476387Y38004263D01*
X23536337Y37966230D01*
X23566209Y37901824D01*
X23566886Y37869774D01*
X23547745Y37690665D01*
X23548042Y37685512D01*
X23548042Y37685509D01*
X23556310Y37542115D01*
X23560604Y37467645D01*
X23561741Y37462599D01*
X23561742Y37462593D01*
X23582769Y37369291D01*
X23609716Y37249721D01*
X23693760Y37042744D01*
X23706699Y37021629D01*
X23805609Y36860223D01*
X23810481Y36852272D01*
X23956744Y36683422D01*
X24128620Y36540728D01*
X24321494Y36428022D01*
X24326319Y36426180D01*
X24326320Y36426179D01*
X24399106Y36398385D01*
X24530186Y36348330D01*
X24535254Y36347299D01*
X24535257Y36347298D01*
X24602836Y36333549D01*
X24749091Y36303793D01*
X24754266Y36303603D01*
X24754268Y36303603D01*
X24967167Y36295796D01*
X24967171Y36295796D01*
X24972331Y36295607D01*
X24977451Y36296263D01*
X24977453Y36296263D01*
X25188782Y36323335D01*
X25188783Y36323335D01*
X25193910Y36323992D01*
X25351145Y36371165D01*
X25422140Y36371582D01*
X25482090Y36333549D01*
X25511962Y36269143D01*
X25512639Y36237094D01*
X25493498Y36057985D01*
X25493795Y36052832D01*
X25493795Y36052829D01*
X25505629Y35847593D01*
X25506357Y35834965D01*
X25507494Y35829919D01*
X25507495Y35829913D01*
X25519766Y35775466D01*
X25555469Y35617041D01*
X25639513Y35410064D01*
X25642212Y35405660D01*
X25706064Y35301463D01*
X25756234Y35219592D01*
X25902497Y35050742D01*
X26074373Y34908048D01*
X26267247Y34795342D01*
X26475939Y34715650D01*
X26481007Y34714619D01*
X26481010Y34714618D01*
X26548594Y34700868D01*
X26694844Y34671113D01*
X26700019Y34670923D01*
X26700021Y34670923D01*
X26912920Y34663116D01*
X26912924Y34663116D01*
X26918084Y34662927D01*
X26923204Y34663583D01*
X26923206Y34663583D01*
X27134535Y34690655D01*
X27134536Y34690655D01*
X27139663Y34691312D01*
X27144614Y34692797D01*
X27144617Y34692798D01*
X27296897Y34738484D01*
X27367892Y34738900D01*
X27427842Y34700868D01*
X27457714Y34636461D01*
X27458391Y34604413D01*
X27439250Y34425304D01*
X27439547Y34420151D01*
X27439547Y34420148D01*
X27448993Y34256322D01*
X27452109Y34202284D01*
X27453246Y34197238D01*
X27453247Y34197232D01*
X27474274Y34103930D01*
X27501221Y33984360D01*
X27553970Y33854454D01*
X27572171Y33809631D01*
X27585265Y33777383D01*
X27598204Y33756268D01*
X27697114Y33594862D01*
X27701986Y33586911D01*
X27848249Y33418061D01*
X28020125Y33275367D01*
X28212999Y33162661D01*
X28421691Y33082969D01*
X28426759Y33081938D01*
X28426762Y33081937D01*
X28494341Y33068188D01*
X28640596Y33038432D01*
X28645771Y33038242D01*
X28645773Y33038242D01*
X28858672Y33030435D01*
X28858676Y33030435D01*
X28863836Y33030246D01*
X28868956Y33030902D01*
X28868958Y33030902D01*
X29080287Y33057974D01*
X29080288Y33057974D01*
X29085415Y33058631D01*
X29242650Y33105804D01*
X29313645Y33106221D01*
X29373595Y33068188D01*
X29403467Y33003782D01*
X29404144Y32971733D01*
X29385003Y32792624D01*
X29385300Y32787471D01*
X29385300Y32787468D01*
X29390763Y32692729D01*
X29397862Y32569604D01*
X29398999Y32564558D01*
X29399000Y32564552D01*
X29416597Y32486473D01*
X29446974Y32351680D01*
X29531018Y32144703D01*
X29533717Y32140299D01*
X29632059Y31979819D01*
X29647739Y31954231D01*
X29794002Y31785381D01*
X29965878Y31642687D01*
X30158752Y31529981D01*
X30163577Y31528139D01*
X30163578Y31528138D01*
X30236364Y31500344D01*
X30367444Y31450289D01*
X30372512Y31449258D01*
X30372515Y31449257D01*
X30440094Y31435508D01*
X30586349Y31405752D01*
X30591524Y31405562D01*
X30591526Y31405562D01*
X30804425Y31397755D01*
X30804429Y31397755D01*
X30809589Y31397566D01*
X30814709Y31398222D01*
X30814711Y31398222D01*
X31026040Y31425294D01*
X31026041Y31425294D01*
X31031168Y31425951D01*
X31188403Y31473124D01*
X31259398Y31473541D01*
X31319348Y31435508D01*
X31349220Y31371102D01*
X31349897Y31339052D01*
X31330756Y31159943D01*
X31331053Y31154790D01*
X31331053Y31154787D01*
X31341530Y30973080D01*
X31343615Y30936923D01*
X31344752Y30931877D01*
X31344753Y30931871D01*
X31365780Y30838569D01*
X31392727Y30718999D01*
X31430426Y30626158D01*
X31470910Y30526457D01*
X31476771Y30512022D01*
X31489710Y30490907D01*
X31588620Y30329501D01*
X31593492Y30321550D01*
X31739755Y30152700D01*
X31911631Y30010006D01*
X32104505Y29897300D01*
X32313197Y29817608D01*
X32318265Y29816577D01*
X32318268Y29816576D01*
X32385847Y29802827D01*
X32532102Y29773071D01*
X32537277Y29772881D01*
X32537279Y29772881D01*
X32750178Y29765074D01*
X32750182Y29765074D01*
X32755342Y29764885D01*
X32760462Y29765541D01*
X32760464Y29765541D01*
X32971793Y29792613D01*
X32971794Y29792613D01*
X32976921Y29793270D01*
X33134156Y29840443D01*
X33205151Y29840860D01*
X33265101Y29802827D01*
X33294973Y29738421D01*
X33295650Y29706372D01*
X33276509Y29527263D01*
X33276806Y29522110D01*
X33276806Y29522107D01*
X33285807Y29365999D01*
X33289368Y29304243D01*
X33290505Y29299197D01*
X33290506Y29299191D01*
X33310874Y29208813D01*
X33338480Y29086319D01*
X33378014Y28988958D01*
X33416903Y28893186D01*
X33422524Y28879342D01*
X33425223Y28874938D01*
X33514041Y28730000D01*
X33539245Y28688870D01*
X33685508Y28520020D01*
X33857384Y28377326D01*
X34050258Y28264620D01*
X34258950Y28184928D01*
X34264018Y28183897D01*
X34264021Y28183896D01*
X34331600Y28170147D01*
X34477855Y28140391D01*
X34483030Y28140201D01*
X34483032Y28140201D01*
X34695931Y28132394D01*
X34695935Y28132394D01*
X34701095Y28132205D01*
X34706215Y28132861D01*
X34706217Y28132861D01*
X34917546Y28159933D01*
X34917547Y28159933D01*
X34922674Y28160590D01*
X34949603Y28168669D01*
X35009946Y28186773D01*
X35079909Y28207763D01*
X35150904Y28208180D01*
X35210854Y28170147D01*
X35240726Y28105741D01*
X35241403Y28073691D01*
X35222262Y27894582D01*
X35222559Y27889429D01*
X35222559Y27889426D01*
X35228022Y27794687D01*
X35235121Y27671562D01*
X35236258Y27666516D01*
X35236259Y27666510D01*
X35257286Y27573208D01*
X35284233Y27453638D01*
X35368277Y27246661D01*
X35395800Y27201747D01*
X35480126Y27064140D01*
X35484998Y27056189D01*
X35631261Y26887339D01*
X35803137Y26744645D01*
X35996011Y26631939D01*
X36204703Y26552247D01*
X36209771Y26551216D01*
X36209774Y26551215D01*
X36317028Y26529394D01*
X36423608Y26507710D01*
X36428783Y26507520D01*
X36428785Y26507520D01*
X36641684Y26499713D01*
X36641688Y26499713D01*
X36646848Y26499524D01*
X36651968Y26500180D01*
X36651970Y26500180D01*
X36863299Y26527252D01*
X36863300Y26527252D01*
X36868427Y26527909D01*
X37025662Y26575082D01*
X37096657Y26575499D01*
X37156607Y26537466D01*
X37186479Y26473060D01*
X37187156Y26441011D01*
X37168015Y26261902D01*
X37168312Y26256749D01*
X37168312Y26256746D01*
X37173751Y26162413D01*
X37180874Y26038882D01*
X37182011Y26033836D01*
X37182012Y26033830D01*
X37192817Y25985886D01*
X37229986Y25820958D01*
X37314030Y25613981D01*
X37430751Y25423509D01*
X37577014Y25254659D01*
X37748890Y25111965D01*
X37941764Y24999259D01*
X38150456Y24919567D01*
X38155524Y24918536D01*
X38155527Y24918535D01*
X38262781Y24896714D01*
X38369361Y24875030D01*
X38374536Y24874840D01*
X38374538Y24874840D01*
X38587437Y24867033D01*
X38587441Y24867033D01*
X38592601Y24866844D01*
X38597721Y24867500D01*
X38597723Y24867500D01*
X38809052Y24894572D01*
X38809053Y24894572D01*
X38814180Y24895229D01*
X38872797Y24912815D01*
X39023193Y24957936D01*
X39023198Y24957938D01*
X39028148Y24959423D01*
X39228758Y25057701D01*
X39410624Y25187424D01*
X39568860Y25345108D01*
X39576828Y25356196D01*
X39696199Y25522320D01*
X39699217Y25526520D01*
X39712151Y25552689D01*
X39795900Y25722144D01*
X39795901Y25722146D01*
X39798194Y25726786D01*
X39863134Y25940528D01*
X39892293Y26162007D01*
X39892550Y26172521D01*
X39893838Y26225232D01*
X39893838Y26225236D01*
X39893920Y26228597D01*
X39875616Y26451236D01*
X39821195Y26667895D01*
X39732118Y26872757D01*
X39655939Y26990512D01*
X39613586Y27055980D01*
X39613584Y27055983D01*
X39610778Y27060320D01*
X39460434Y27225546D01*
X39456383Y27228745D01*
X39456379Y27228749D01*
X39289178Y27360797D01*
X39289174Y27360799D01*
X39285123Y27363999D01*
X39276106Y27368977D01*
X39124232Y27452815D01*
X39089553Y27471959D01*
X39084684Y27473683D01*
X39084680Y27473685D01*
X38883851Y27544802D01*
X38883847Y27544803D01*
X38878976Y27546528D01*
X38873883Y27547435D01*
X38873880Y27547436D01*
X38664137Y27584797D01*
X38664131Y27584798D01*
X38659048Y27585703D01*
X38585216Y27586605D01*
X38440845Y27588369D01*
X38440843Y27588369D01*
X38435675Y27588432D01*
X38214855Y27554642D01*
X38091634Y27514367D01*
X38020670Y27512216D01*
X37959809Y27548772D01*
X37928372Y27612429D01*
X37927567Y27650579D01*
X37929665Y27666510D01*
X37946540Y27794687D01*
X37948167Y27861277D01*
X37929863Y28083916D01*
X37875442Y28300575D01*
X37786365Y28505437D01*
X37665025Y28693000D01*
X37514681Y28858226D01*
X37510630Y28861425D01*
X37510626Y28861429D01*
X37343425Y28993477D01*
X37343421Y28993479D01*
X37339370Y28996679D01*
X37143800Y29104639D01*
X37138931Y29106363D01*
X37138927Y29106365D01*
X36938098Y29177482D01*
X36938094Y29177483D01*
X36933223Y29179208D01*
X36928130Y29180115D01*
X36928127Y29180116D01*
X36718384Y29217477D01*
X36718378Y29217478D01*
X36713295Y29218383D01*
X36639463Y29219285D01*
X36495092Y29221049D01*
X36495090Y29221049D01*
X36489922Y29221112D01*
X36269102Y29187322D01*
X36189011Y29161144D01*
X36145881Y29147047D01*
X36074917Y29144896D01*
X36014056Y29181452D01*
X35982619Y29245109D01*
X35981814Y29283259D01*
X35983155Y29293440D01*
X36000787Y29427368D01*
X36001761Y29467222D01*
X36002332Y29490593D01*
X36002332Y29490597D01*
X36002414Y29493958D01*
X35984110Y29716597D01*
X35929689Y29933256D01*
X35840612Y30138118D01*
X35719272Y30325681D01*
X35568928Y30490907D01*
X35564877Y30494106D01*
X35564873Y30494110D01*
X35397672Y30626158D01*
X35397668Y30626160D01*
X35393617Y30629360D01*
X35370385Y30642185D01*
X35239905Y30714213D01*
X35198047Y30737320D01*
X35193178Y30739044D01*
X35193174Y30739046D01*
X34992345Y30810163D01*
X34992341Y30810164D01*
X34987470Y30811889D01*
X34982377Y30812796D01*
X34982374Y30812797D01*
X34772631Y30850158D01*
X34772625Y30850159D01*
X34767542Y30851064D01*
X34693710Y30851966D01*
X34549339Y30853730D01*
X34549337Y30853730D01*
X34544169Y30853793D01*
X34323349Y30820003D01*
X34200128Y30779728D01*
X34129164Y30777577D01*
X34068303Y30814133D01*
X34036866Y30877790D01*
X34036061Y30915940D01*
X34038159Y30931871D01*
X34055034Y31060048D01*
X34055177Y31065886D01*
X34056579Y31123273D01*
X34056579Y31123277D01*
X34056661Y31126638D01*
X34038357Y31349277D01*
X33983936Y31565936D01*
X33894859Y31770798D01*
X33843116Y31850780D01*
X33776327Y31954021D01*
X33776325Y31954024D01*
X33773519Y31958361D01*
X33623175Y32123587D01*
X33619124Y32126786D01*
X33619120Y32126790D01*
X33451919Y32258838D01*
X33451915Y32258840D01*
X33447864Y32262040D01*
X33252294Y32370000D01*
X33247425Y32371724D01*
X33247421Y32371726D01*
X33046592Y32442843D01*
X33046588Y32442844D01*
X33041717Y32444569D01*
X33036624Y32445476D01*
X33036621Y32445477D01*
X32826878Y32482838D01*
X32826872Y32482839D01*
X32821789Y32483744D01*
X32747957Y32484646D01*
X32603586Y32486410D01*
X32603584Y32486410D01*
X32598416Y32486473D01*
X32377596Y32452683D01*
X32254375Y32412408D01*
X32183411Y32410257D01*
X32122550Y32446813D01*
X32091113Y32510470D01*
X32090308Y32548620D01*
X32108844Y32689411D01*
X32109281Y32692729D01*
X32110908Y32759319D01*
X32092604Y32981958D01*
X32038183Y33198617D01*
X31949106Y33403479D01*
X31827766Y33591042D01*
X31677422Y33756268D01*
X31673371Y33759467D01*
X31673367Y33759471D01*
X31506166Y33891519D01*
X31506162Y33891521D01*
X31502111Y33894721D01*
X31306541Y34002681D01*
X31301672Y34004405D01*
X31301668Y34004407D01*
X31100839Y34075524D01*
X31100835Y34075525D01*
X31095964Y34077250D01*
X31090871Y34078157D01*
X31090868Y34078158D01*
X30881125Y34115519D01*
X30881119Y34115520D01*
X30876036Y34116425D01*
X30802204Y34117327D01*
X30657833Y34119091D01*
X30657831Y34119091D01*
X30652663Y34119154D01*
X30431843Y34085364D01*
X30308622Y34045089D01*
X30237658Y34042938D01*
X30176797Y34079494D01*
X30145360Y34143151D01*
X30144555Y34181301D01*
X30146653Y34197232D01*
X30163528Y34325409D01*
X30163837Y34338061D01*
X30165073Y34388634D01*
X30165073Y34388638D01*
X30165155Y34391999D01*
X30146851Y34614638D01*
X30092430Y34831297D01*
X30003353Y35036159D01*
X29882013Y35223722D01*
X29731669Y35388948D01*
X29727618Y35392147D01*
X29727614Y35392151D01*
X29560413Y35524199D01*
X29560409Y35524201D01*
X29556358Y35527401D01*
X29360788Y35635361D01*
X29355919Y35637085D01*
X29355915Y35637087D01*
X29155086Y35708204D01*
X29155082Y35708205D01*
X29150211Y35709930D01*
X29145118Y35710837D01*
X29145115Y35710838D01*
X28935372Y35748199D01*
X28935366Y35748200D01*
X28930283Y35749105D01*
X28856451Y35750007D01*
X28712080Y35751771D01*
X28712078Y35751771D01*
X28706910Y35751834D01*
X28486090Y35718044D01*
X28362869Y35677769D01*
X28291907Y35675618D01*
X28231045Y35712174D01*
X28199608Y35775831D01*
X28198803Y35813981D01*
X28200565Y35827359D01*
X28217776Y35958090D01*
X28218870Y36002877D01*
X28219321Y36021315D01*
X28219321Y36021319D01*
X28219403Y36024680D01*
X28201099Y36247319D01*
X28146678Y36463978D01*
X28057601Y36668840D01*
X27936261Y36856403D01*
X27785917Y37021629D01*
X27781866Y37024828D01*
X27781862Y37024832D01*
X27614661Y37156880D01*
X27614657Y37156882D01*
X27610606Y37160082D01*
X27415036Y37268042D01*
X27410167Y37269766D01*
X27410163Y37269768D01*
X27209334Y37340885D01*
X27209330Y37340886D01*
X27204459Y37342611D01*
X27199366Y37343518D01*
X27199363Y37343519D01*
X26989620Y37380880D01*
X26989614Y37380881D01*
X26984531Y37381786D01*
X26910699Y37382688D01*
X26766328Y37384452D01*
X26766326Y37384452D01*
X26761158Y37384515D01*
X26540338Y37350725D01*
X26417117Y37310450D01*
X26346153Y37308299D01*
X26285292Y37344855D01*
X26253855Y37408512D01*
X26253050Y37446662D01*
X26255148Y37462593D01*
X26272023Y37590770D01*
X26273650Y37657360D01*
X26255346Y37879999D01*
X26200925Y38096658D01*
X26111848Y38301520D01*
X25999259Y38475556D01*
X25993316Y38484743D01*
X25993314Y38484746D01*
X25990508Y38489083D01*
X25840164Y38654309D01*
X25836113Y38657508D01*
X25836109Y38657512D01*
X25668908Y38789560D01*
X25668904Y38789562D01*
X25664853Y38792762D01*
X25643418Y38804595D01*
X25582667Y38838131D01*
X25469283Y38900722D01*
X25464414Y38902446D01*
X25464410Y38902448D01*
X25263581Y38973565D01*
X25263577Y38973566D01*
X25258706Y38975291D01*
X25253613Y38976198D01*
X25253610Y38976199D01*
X25043867Y39013560D01*
X25043861Y39013561D01*
X25038778Y39014466D01*
X24964946Y39015368D01*
X24820575Y39017132D01*
X24820573Y39017132D01*
X24815405Y39017195D01*
X24594585Y38983405D01*
X24471364Y38943130D01*
X24400400Y38940979D01*
X24339539Y38977535D01*
X24308102Y39041192D01*
X24307297Y39079342D01*
X24310091Y39100559D01*
X24326270Y39223451D01*
X24327897Y39290041D01*
X24309593Y39512680D01*
X24255172Y39729339D01*
X24166095Y39934201D01*
X24077405Y40071295D01*
X24047563Y40117424D01*
X24047561Y40117427D01*
X24044755Y40121764D01*
X23894411Y40286990D01*
X23890360Y40290189D01*
X23890356Y40290193D01*
X23723155Y40422241D01*
X23723151Y40422243D01*
X23719100Y40425443D01*
X23523530Y40533403D01*
X23518661Y40535127D01*
X23518657Y40535129D01*
X23317828Y40606246D01*
X23317824Y40606247D01*
X23312953Y40607972D01*
X23307860Y40608879D01*
X23307857Y40608880D01*
X23098114Y40646241D01*
X23098108Y40646242D01*
X23093025Y40647147D01*
X23013629Y40648117D01*
X22874822Y40649813D01*
X22874820Y40649813D01*
X22869652Y40649876D01*
X22648832Y40616086D01*
X22525611Y40575811D01*
X22454647Y40573660D01*
X22393786Y40610216D01*
X22362349Y40673873D01*
X22361544Y40712023D01*
X22363642Y40727954D01*
X22380517Y40856131D01*
X22380712Y40864104D01*
X22382062Y40919356D01*
X22382062Y40919360D01*
X22382144Y40922721D01*
X22363840Y41145360D01*
X22309419Y41362019D01*
X22220342Y41566881D01*
X22099002Y41754444D01*
X21948658Y41919670D01*
X21944607Y41922869D01*
X21944603Y41922873D01*
X21777402Y42054921D01*
X21777398Y42054923D01*
X21773347Y42058123D01*
X21577777Y42166083D01*
X21572908Y42167807D01*
X21572904Y42167809D01*
X21372075Y42238926D01*
X21372071Y42238927D01*
X21367200Y42240652D01*
X21362107Y42241559D01*
X21362104Y42241560D01*
X21152361Y42278921D01*
X21152355Y42278922D01*
X21147272Y42279827D01*
X21073440Y42280729D01*
X20929069Y42282493D01*
X20929067Y42282493D01*
X20923899Y42282556D01*
X20703079Y42248766D01*
X20579858Y42208491D01*
X20508894Y42206340D01*
X20448033Y42242896D01*
X20416596Y42306553D01*
X20415791Y42344703D01*
X20434327Y42485494D01*
X20434764Y42488812D01*
X20436391Y42555402D01*
X20418087Y42778041D01*
X20363666Y42994700D01*
X20274589Y43199562D01*
X20177293Y43349959D01*
X20156057Y43382785D01*
X20156055Y43382788D01*
X20153249Y43387125D01*
X20002905Y43552351D01*
X19998854Y43555550D01*
X19998850Y43555554D01*
X19831649Y43687602D01*
X19831645Y43687604D01*
X19827594Y43690804D01*
X19814713Y43697915D01*
X19740185Y43739056D01*
X19632024Y43798764D01*
X19627155Y43800488D01*
X19627151Y43800490D01*
X19426322Y43871607D01*
X19426318Y43871608D01*
X19421447Y43873333D01*
X19416354Y43874240D01*
X19416351Y43874241D01*
X19206608Y43911602D01*
X19206602Y43911603D01*
X19201519Y43912508D01*
X19127687Y43913410D01*
X18983316Y43915174D01*
X18983314Y43915174D01*
X18978146Y43915237D01*
X18757326Y43881447D01*
X18544991Y43812045D01*
X18346842Y43708895D01*
X18342709Y43705792D01*
X18342706Y43705790D01*
X18172335Y43577872D01*
X18168200Y43574767D01*
X18013864Y43413264D01*
X17887978Y43228722D01*
X17840950Y43127409D01*
X17805651Y43051362D01*
X17793923Y43026097D01*
X17734224Y42810832D01*
X17710486Y42588707D01*
X-3087392Y42588707D01*
X-3993141Y43494456D01*
X-3998778Y43500474D01*
X-4006536Y43509320D01*
X-4042076Y43549846D01*
X-4046607Y43553418D01*
X-4112482Y43605350D01*
X-4115045Y43607426D01*
X-4137891Y43626427D01*
X-4183958Y43664740D01*
X-4189003Y43667565D01*
X-4191009Y43668944D01*
X-4202639Y43676716D01*
X-4204745Y43678084D01*
X-4209284Y43681662D01*
X-4288681Y43723435D01*
X-4291487Y43724959D01*
X-4369728Y43768776D01*
X-4375202Y43770634D01*
X-4377549Y43771679D01*
X-4390324Y43777168D01*
X-4392607Y43778114D01*
X-4397713Y43780800D01*
X-4403227Y43782512D01*
X-4403229Y43782513D01*
X-4483379Y43807401D01*
X-4486515Y43808420D01*
X-4515897Y43818394D01*
X-4571346Y43837216D01*
X-4577066Y43838045D01*
X-4579522Y43838635D01*
X-4593073Y43841701D01*
X-4595526Y43842223D01*
X-4601053Y43843939D01*
X-4606790Y43844618D01*
X-4606795Y43844619D01*
X-4675955Y43852804D01*
X-4690091Y43854477D01*
X-4693350Y43854906D01*
X-4717625Y43858426D01*
X-4776347Y43866941D01*
X-4776351Y43866941D01*
X-4782060Y43867769D01*
X-4865328Y43864497D01*
X-4870275Y43864400D01*
X-21073304Y43864400D01*
X-21081545Y43864670D01*
X-21116193Y43866941D01*
X-21147057Y43868964D01*
X-21236095Y43858425D01*
X-21239363Y43858083D01*
X-21328625Y43849881D01*
X-21334182Y43848314D01*
X-21336582Y43847869D01*
X-21350333Y43845133D01*
X-21352759Y43844617D01*
X-21358499Y43843938D01*
X-21444145Y43817345D01*
X-21447277Y43816417D01*
X-21490219Y43804307D01*
X-21527990Y43793654D01*
X-21527992Y43793653D01*
X-21533549Y43792086D01*
X-21538728Y43789532D01*
X-21541070Y43788633D01*
X-21554009Y43783471D01*
X-21556321Y43782513D01*
X-21561839Y43780800D01*
X-21584693Y43768776D01*
X-21641183Y43739056D01*
X-21644120Y43737559D01*
X-21719333Y43700468D01*
X-21719337Y43700466D01*
X-21724509Y43697915D01*
X-21729135Y43694461D01*
X-21731246Y43693167D01*
X-21743134Y43685666D01*
X-21745154Y43684354D01*
X-21750269Y43681663D01*
X-21754805Y43678087D01*
X-21820679Y43626155D01*
X-21823298Y43624146D01*
X-21895110Y43570522D01*
X-21920792Y43542739D01*
X-21951684Y43509320D01*
X-21955114Y43505753D01*
X-33564957Y31895910D01*
X-33570975Y31890273D01*
X-33620347Y31846975D01*
X-33623919Y31842444D01*
X-33675851Y31776569D01*
X-33677927Y31774006D01*
X-33735241Y31705093D01*
X-33738066Y31700048D01*
X-33739445Y31698042D01*
X-33747217Y31686412D01*
X-33748585Y31684306D01*
X-33752163Y31679767D01*
X-33793936Y31600370D01*
X-33795460Y31597564D01*
X-33839277Y31519323D01*
X-33841135Y31513849D01*
X-33842180Y31511502D01*
X-33847669Y31498727D01*
X-33848615Y31496444D01*
X-33851301Y31491338D01*
X-33853013Y31485824D01*
X-33853014Y31485822D01*
X-33877902Y31405672D01*
X-33878921Y31402536D01*
X-33885869Y31382068D01*
X-33907717Y31317705D01*
X-33908546Y31311985D01*
X-33909136Y31309529D01*
X-33912202Y31295978D01*
X-33912724Y31293525D01*
X-33914440Y31287998D01*
X-33915119Y31282261D01*
X-33915120Y31282256D01*
X-33924977Y31198966D01*
X-33925407Y31195701D01*
X-33938270Y31106991D01*
X-33934998Y31023723D01*
X-33934901Y31018776D01*
X-33934901Y8569697D01*
X-33935171Y8561456D01*
X-33939465Y8495944D01*
X-33929259Y8409715D01*
X-33928927Y8406912D01*
X-33928584Y8403638D01*
X-33920382Y8314376D01*
X-33918815Y8308819D01*
X-33918370Y8306419D01*
X-33915634Y8292668D01*
X-33915118Y8290242D01*
X-33914439Y8284502D01*
X-33890746Y8208197D01*
X-33887850Y8198871D01*
X-33886914Y8195709D01*
X-33865022Y8118087D01*
X-33862587Y8109452D01*
X-33860033Y8104273D01*
X-33859134Y8101931D01*
X-33853975Y8089000D01*
X-33853015Y8086683D01*
X-33851301Y8081162D01*
X-33848612Y8076050D01*
X-33848609Y8076044D01*
X-33809545Y8001795D01*
X-33808054Y7998870D01*
X-33768416Y7918492D01*
X-33764963Y7913868D01*
X-33763643Y7911714D01*
X-33756204Y7899925D01*
X-33754854Y7897846D01*
X-33752164Y7892733D01*
X-33696653Y7822319D01*
X-33694682Y7819749D01*
X-33644480Y7752519D01*
X-33644473Y7752512D01*
X-33641023Y7747891D01*
X-33607026Y7716465D01*
X-33579821Y7691317D01*
X-33576254Y7687887D01*
X-30874689Y4986322D01*
X-30842077Y4929837D01*
X-30835709Y4906069D01*
X-30835708Y4906067D01*
X-30834285Y4900757D01*
X-30831962Y4895776D01*
X-30831962Y4895775D01*
X-30739850Y4698238D01*
X-30739847Y4698233D01*
X-30737524Y4693251D01*
X-30734367Y4688743D01*
X-30614889Y4518111D01*
X-30606199Y4505700D01*
X-30444301Y4343802D01*
X-30439793Y4340645D01*
X-30439790Y4340643D01*
X-30361612Y4285902D01*
X-30256750Y4212477D01*
X-30251761Y4210151D01*
X-30251760Y4210150D01*
X-30248642Y4208696D01*
X-30247499Y4207690D01*
X-30246999Y4207401D01*
X-30247057Y4207301D01*
X-30195355Y4161780D01*
X-30175893Y4093503D01*
X-30196433Y4025543D01*
X-30250455Y3979476D01*
X-30301889Y3968500D01*
X-31676263Y3968500D01*
X-31677912Y3968511D01*
X-31679116Y3968527D01*
X-31782185Y3969876D01*
X-31787883Y3968897D01*
X-31787996Y3968888D01*
X-31797881Y3968500D01*
X-34860644Y3968500D01*
X-34928765Y3988502D01*
X-34949739Y4005405D01*
X-36185096Y5240762D01*
X-36219122Y5303074D01*
X-36222001Y5329857D01*
X-36222001Y23216000D01*
X-41810001Y23216000D01*
X-41810001Y17680556D01*
X-41830003Y17612435D01*
X-41846906Y17591461D01*
X-42965457Y16472910D01*
X-42971475Y16467273D01*
X-43020847Y16423975D01*
X-43024419Y16419444D01*
X-43076351Y16353569D01*
X-43078427Y16351006D01*
X-43135741Y16282093D01*
X-43138566Y16277048D01*
X-43139945Y16275042D01*
X-43147717Y16263412D01*
X-43149085Y16261306D01*
X-43152663Y16256767D01*
X-43194436Y16177370D01*
X-43195960Y16174564D01*
X-43239777Y16096323D01*
X-43241635Y16090849D01*
X-43242680Y16088502D01*
X-43248169Y16075727D01*
X-43249115Y16073444D01*
X-43251801Y16068338D01*
X-43253513Y16062824D01*
X-43253514Y16062822D01*
X-43278402Y15982672D01*
X-43279421Y15979536D01*
X-43308217Y15894705D01*
X-43309046Y15888985D01*
X-43309636Y15886529D01*
X-43312702Y15872978D01*
X-43313224Y15870525D01*
X-43314940Y15864998D01*
X-43315619Y15859261D01*
X-43315620Y15859256D01*
X-43325477Y15775966D01*
X-43325907Y15772701D01*
X-43338770Y15683991D01*
X-43336718Y15631762D01*
X-43335498Y15600723D01*
X-43335401Y15595776D01*
X-43335401Y9637497D01*
X-43335671Y9629256D01*
X-43339965Y9563744D01*
X-48563959Y9563744D01*
X-48420116Y10290200D01*
X-48419385Y10293641D01*
X-48113911Y11638192D01*
X-48113083Y11641612D01*
X-47906686Y12445475D01*
X-47770201Y12977050D01*
X-47769282Y12980435D01*
X-47389229Y14305836D01*
X-47388220Y14309179D01*
X-47385432Y14317966D01*
X-46971310Y15623445D01*
X-46970200Y15626780D01*
X-46950277Y15683991D01*
X-46516765Y16928868D01*
X-46515572Y16932146D01*
X-46512955Y16939033D01*
X-46147355Y17901482D01*
X-46144713Y17907899D01*
X-46113502Y17978122D01*
X-45109800Y20236452D01*
X-44210596Y22259660D01*
X-44207522Y22266081D01*
X-43708048Y23237952D01*
X-43706397Y23241059D01*
X-43135429Y24279647D01*
X-43042142Y24449335D01*
X-43040408Y24452387D01*
X-42964411Y24581920D01*
X-42531059Y25320551D01*
X-42523827Y25331521D01*
X-38509359Y30779728D01*
X-36790162Y33112924D01*
X-36782948Y33121836D01*
X-36555802Y33377677D01*
X-36553429Y33380275D01*
X-36355254Y33591310D01*
X-35694422Y34295025D01*
X-35680230Y34307995D01*
X-35633326Y34344702D01*
X-25656304Y42152806D01*
X-24722420Y42883672D01*
X-24706235Y42894434D01*
X-24113204Y43225867D01*
X-24105018Y43230058D01*
X-20612935Y44859697D01*
X-2061358Y44859697D01*
X-2023833Y44574666D01*
X-1947972Y44297364D01*
X-1835178Y44032924D01*
X-1823408Y44013258D01*
X-1691039Y43792086D01*
X-1687540Y43786239D01*
X-1507788Y43561872D01*
X-1450500Y43507508D01*
X-1327668Y43390945D01*
X-1299250Y43363977D01*
X-1065784Y43196214D01*
X-1061989Y43194205D01*
X-1061988Y43194204D01*
X-1040232Y43182685D01*
X-811709Y43061688D01*
X-727282Y43030792D01*
X-614943Y42989682D01*
X-541728Y42962889D01*
X-260837Y42901645D01*
X-232260Y42899396D01*
X-37819Y42884093D01*
X-37810Y42884093D01*
X-35362Y42883900D01*
X120170Y42883900D01*
X122306Y42884046D01*
X122317Y42884046D01*
X330447Y42898235D01*
X330453Y42898236D01*
X334724Y42898527D01*
X338919Y42899396D01*
X338921Y42899396D01*
X475483Y42927677D01*
X616241Y42956826D01*
X887242Y43052793D01*
X1142711Y43184650D01*
X1146212Y43187111D01*
X1146216Y43187113D01*
X1260317Y43267305D01*
X1377922Y43349959D01*
X1533419Y43494456D01*
X1585378Y43542739D01*
X1585380Y43542742D01*
X1588521Y43545660D01*
X1770612Y43768132D01*
X1920826Y44013258D01*
X2036382Y44276502D01*
X2115143Y44552994D01*
X2155650Y44837616D01*
X2155744Y44855449D01*
X2157134Y45120817D01*
X2157134Y45120824D01*
X2157156Y45125103D01*
X2119631Y45410134D01*
X2043770Y45687436D01*
X1930976Y45951876D01*
X1783338Y46198561D01*
X1603586Y46422928D01*
X1395048Y46620823D01*
X1161582Y46788586D01*
X1139742Y46800150D01*
X1055896Y46844544D01*
X907507Y46923112D01*
X637526Y47021911D01*
X356635Y47083155D01*
X325584Y47085599D01*
X133617Y47100707D01*
X133608Y47100707D01*
X131160Y47100900D01*
X-24372Y47100900D01*
X-26508Y47100754D01*
X-26519Y47100754D01*
X-234649Y47086565D01*
X-234655Y47086564D01*
X-238926Y47086273D01*
X-243121Y47085404D01*
X-243123Y47085404D01*
X-379684Y47057124D01*
X-520443Y47027974D01*
X-791444Y46932007D01*
X-1046913Y46800150D01*
X-1050414Y46797689D01*
X-1050418Y46797687D01*
X-1060507Y46790596D01*
X-1282124Y46634841D01*
X-1492723Y46439140D01*
X-1674814Y46216668D01*
X-1825028Y45971542D01*
X-1940584Y45708298D01*
X-2019345Y45431806D01*
X-2059852Y45147184D01*
X-2059874Y45142895D01*
X-2059875Y45142888D01*
X-2060203Y45080206D01*
X-2061358Y44859697D01*
X-20612935Y44859697D01*
X-17638705Y46247671D01*
X-17630986Y46250965D01*
X-17256463Y46396233D01*
X-17253165Y46397459D01*
X-15954294Y46859966D01*
X-15950963Y46861100D01*
X-15281190Y47078723D01*
X-14764826Y47246500D01*
X-14763052Y47247061D01*
X-14591136Y47299958D01*
X-14476561Y47335212D01*
X-14475081Y47335658D01*
X-13313614Y47677496D01*
X-13310225Y47678442D01*
X-11977190Y48030645D01*
X-11973776Y48031496D01*
X-10631418Y48346344D01*
X-10627982Y48347099D01*
X-9928040Y48490776D01*
X-9277404Y48624332D01*
X-9273949Y48624992D01*
X-7916068Y48864423D01*
X-7912595Y48864985D01*
X-7852868Y48873805D01*
X-7825727Y48877813D01*
X-7820517Y48878472D01*
X-2532745Y49435079D01*
X-2527467Y49435522D01*
X-2419896Y49442290D01*
X-2416381Y49442462D01*
X-1038451Y49490581D01*
X-1034934Y49490655D01*
X-306705Y49495739D01*
X343851Y49500281D01*
X347345Y49500256D01*
G37*
%TD.AperFunction*%
%TA.AperFunction,Conductor*%
G36*
X7516043Y-25829522D02*
G01*
X7562536Y-25883178D01*
X7572640Y-25953452D01*
X7543146Y-26018032D01*
X7537017Y-26024615D01*
X6932525Y-26629107D01*
X6896680Y-26654207D01*
X6777644Y-26709715D01*
X6722323Y-26735512D01*
X6717816Y-26738668D01*
X6717814Y-26738669D01*
X6544729Y-26859864D01*
X6544726Y-26859866D01*
X6540218Y-26863023D01*
X6383022Y-27020219D01*
X6379865Y-27024727D01*
X6379863Y-27024730D01*
X6305482Y-27130958D01*
X6255511Y-27202324D01*
X6253188Y-27207306D01*
X6253185Y-27207311D01*
X6204194Y-27312373D01*
X6157276Y-27365658D01*
X6088999Y-27385119D01*
X6021039Y-27364577D01*
X5975804Y-27312373D01*
X5926813Y-27207311D01*
X5926810Y-27207306D01*
X5924487Y-27202324D01*
X5874516Y-27130958D01*
X5800135Y-27024730D01*
X5800133Y-27024727D01*
X5796976Y-27020219D01*
X5639780Y-26863023D01*
X5635272Y-26859866D01*
X5635269Y-26859864D01*
X5511727Y-26773359D01*
X5457676Y-26735512D01*
X5452694Y-26733189D01*
X5452689Y-26733186D01*
X5261177Y-26643883D01*
X5261176Y-26643882D01*
X5256195Y-26641560D01*
X5250887Y-26640138D01*
X5250885Y-26640137D01*
X5185050Y-26622497D01*
X5041462Y-26584022D01*
X4819999Y-26564647D01*
X4598536Y-26584022D01*
X4454948Y-26622497D01*
X4389113Y-26640137D01*
X4389111Y-26640138D01*
X4383803Y-26641560D01*
X4378822Y-26643882D01*
X4378821Y-26643883D01*
X4187310Y-26733186D01*
X4187305Y-26733189D01*
X4182323Y-26735512D01*
X4177816Y-26738668D01*
X4177814Y-26738669D01*
X4004729Y-26859864D01*
X4004726Y-26859866D01*
X4000218Y-26863023D01*
X3843022Y-27020219D01*
X3839865Y-27024727D01*
X3839863Y-27024730D01*
X3765482Y-27130958D01*
X3715511Y-27202324D01*
X3713188Y-27207306D01*
X3713185Y-27207311D01*
X3664194Y-27312373D01*
X3617276Y-27365658D01*
X3548999Y-27385119D01*
X3481039Y-27364577D01*
X3435804Y-27312373D01*
X3386813Y-27207311D01*
X3386810Y-27207306D01*
X3384487Y-27202324D01*
X3334516Y-27130958D01*
X3260135Y-27024730D01*
X3260133Y-27024727D01*
X3256976Y-27020219D01*
X3099780Y-26863023D01*
X3095272Y-26859866D01*
X3095269Y-26859864D01*
X2971727Y-26773359D01*
X2917676Y-26735512D01*
X2912694Y-26733189D01*
X2912689Y-26733186D01*
X2721177Y-26643883D01*
X2721176Y-26643882D01*
X2716195Y-26641560D01*
X2710887Y-26640138D01*
X2710885Y-26640137D01*
X2645050Y-26622497D01*
X2501462Y-26584022D01*
X2279999Y-26564647D01*
X2058536Y-26584022D01*
X1914948Y-26622497D01*
X1849113Y-26640137D01*
X1849111Y-26640138D01*
X1843803Y-26641560D01*
X1838822Y-26643882D01*
X1838821Y-26643883D01*
X1647310Y-26733186D01*
X1647305Y-26733189D01*
X1642323Y-26735512D01*
X1637816Y-26738668D01*
X1637814Y-26738669D01*
X1464729Y-26859864D01*
X1464726Y-26859866D01*
X1460218Y-26863023D01*
X1303022Y-27020219D01*
X1299864Y-27024729D01*
X1299859Y-27024735D01*
X1239211Y-27111350D01*
X1183754Y-27155679D01*
X1113135Y-27162988D01*
X1049774Y-27130958D01*
X1013789Y-27069756D01*
X1009998Y-27039080D01*
X1009998Y-27033331D01*
X1009628Y-27026510D01*
X1004104Y-26975648D01*
X1000478Y-26960396D01*
X955323Y-26839946D01*
X946785Y-26824351D01*
X870284Y-26722276D01*
X857723Y-26709715D01*
X755648Y-26633214D01*
X740053Y-26624676D01*
X619605Y-26579522D01*
X604350Y-26575895D01*
X553485Y-26570369D01*
X546671Y-26570000D01*
X12114Y-26570000D01*
X-3125Y-26574475D01*
X-4330Y-26575865D01*
X-6001Y-26583548D01*
X-6001Y-27968000D01*
X-26003Y-28036121D01*
X-79659Y-28082614D01*
X-132001Y-28094000D01*
X-388001Y-28094000D01*
X-456122Y-28073998D01*
X-502615Y-28020342D01*
X-514001Y-27968000D01*
X-514001Y-26588116D01*
X-518476Y-26572877D01*
X-519866Y-26571672D01*
X-527549Y-26570001D01*
X-1066670Y-26570001D01*
X-1073491Y-26570371D01*
X-1124353Y-26575895D01*
X-1139605Y-26579521D01*
X-1260055Y-26624676D01*
X-1275650Y-26633214D01*
X-1377725Y-26709715D01*
X-1390286Y-26722276D01*
X-1414675Y-26754818D01*
X-1471534Y-26797333D01*
X-1542353Y-26802359D01*
X-1604646Y-26768299D01*
X-1638636Y-26705968D01*
X-1641501Y-26679253D01*
X-1641501Y-25935520D01*
X-1621499Y-25867399D01*
X-1567843Y-25820906D01*
X-1515501Y-25809520D01*
X7447922Y-25809520D01*
X7516043Y-25829522D01*
G37*
%TD.AperFunction*%
%TA.AperFunction,Conductor*%
G36*
X-10832736Y19511998D02*
G01*
X-10786243Y19458342D01*
X-10776139Y19388068D01*
X-10805633Y19323488D01*
X-10811762Y19316905D01*
X-11740457Y18388210D01*
X-11746475Y18382573D01*
X-11795847Y18339275D01*
X-11799419Y18334744D01*
X-11851351Y18268869D01*
X-11853427Y18266306D01*
X-11910741Y18197393D01*
X-11913566Y18192348D01*
X-11914945Y18190342D01*
X-11922717Y18178712D01*
X-11924085Y18176606D01*
X-11927663Y18172067D01*
X-11969436Y18092670D01*
X-11970960Y18089864D01*
X-12014777Y18011623D01*
X-12016635Y18006149D01*
X-12017680Y18003802D01*
X-12023169Y17991027D01*
X-12024115Y17988744D01*
X-12026801Y17983638D01*
X-12028513Y17978124D01*
X-12028514Y17978122D01*
X-12053402Y17897972D01*
X-12054421Y17894836D01*
X-12083217Y17810005D01*
X-12084046Y17804285D01*
X-12084636Y17801829D01*
X-12087702Y17788278D01*
X-12088224Y17785825D01*
X-12089940Y17780298D01*
X-12090619Y17774561D01*
X-12090620Y17774556D01*
X-12100477Y17691266D01*
X-12100908Y17687994D01*
X-12112787Y17606067D01*
X-12113770Y17599291D01*
X-12113543Y17593523D01*
X-12110498Y17516023D01*
X-12110401Y17511076D01*
X-12110401Y14370156D01*
X-12130403Y14302035D01*
X-12147306Y14281061D01*
X-12961397Y13466970D01*
X-13023709Y13432944D01*
X-13094524Y13438009D01*
X-13151360Y13480556D01*
X-13164687Y13502815D01*
X-13220152Y13621762D01*
X-13220155Y13621767D01*
X-13222478Y13626749D01*
X-13323831Y13771496D01*
X-13350644Y13809789D01*
X-13350646Y13809792D01*
X-13353803Y13814300D01*
X-13515701Y13976198D01*
X-13520212Y13979357D01*
X-13524425Y13982892D01*
X-13523613Y13983860D01*
X-13564091Y14034494D01*
X-13571405Y14105113D01*
X-13539377Y14168476D01*
X-13478178Y14204464D01*
X-13461100Y14207520D01*
X-13457649Y14207895D01*
X-13442397Y14211521D01*
X-13321947Y14256676D01*
X-13306352Y14265214D01*
X-13204277Y14341715D01*
X-13191716Y14354276D01*
X-13115215Y14456351D01*
X-13106677Y14471946D01*
X-13061523Y14592394D01*
X-13057896Y14607649D01*
X-13052370Y14658514D01*
X-13052001Y14665328D01*
X-13052001Y15237885D01*
X-13056476Y15253124D01*
X-13057866Y15254329D01*
X-13065549Y15256000D01*
X-15649885Y15256000D01*
X-15665124Y15251525D01*
X-15666329Y15250135D01*
X-15668000Y15242452D01*
X-15668000Y14665331D01*
X-15667630Y14658510D01*
X-15662106Y14607648D01*
X-15658480Y14592396D01*
X-15613325Y14471946D01*
X-15604787Y14456351D01*
X-15528286Y14354276D01*
X-15515725Y14341715D01*
X-15413650Y14265214D01*
X-15398055Y14256676D01*
X-15277607Y14211522D01*
X-15262358Y14207896D01*
X-15258905Y14207521D01*
X-15256395Y14206478D01*
X-15254670Y14206068D01*
X-15254736Y14205789D01*
X-15193342Y14180281D01*
X-15152913Y14121920D01*
X-15150455Y14050966D01*
X-15186748Y13989946D01*
X-15198241Y13980656D01*
X-15199787Y13979359D01*
X-15204301Y13976198D01*
X-15366199Y13814300D01*
X-15369356Y13809792D01*
X-15369358Y13809789D01*
X-15396171Y13771496D01*
X-15497524Y13626749D01*
X-15499847Y13621767D01*
X-15499850Y13621762D01*
X-15565918Y13480077D01*
X-15594285Y13419243D01*
X-15595707Y13413935D01*
X-15595708Y13413933D01*
X-15651844Y13204433D01*
X-15653544Y13198087D01*
X-15673499Y12970000D01*
X-15653544Y12741913D01*
X-15652120Y12736600D01*
X-15652120Y12736598D01*
X-15635186Y12673402D01*
X-15594285Y12520757D01*
X-15591962Y12515776D01*
X-15591962Y12515775D01*
X-15499850Y12318238D01*
X-15499847Y12318233D01*
X-15497524Y12313251D01*
X-15366199Y12125700D01*
X-15204301Y11963802D01*
X-15199793Y11960645D01*
X-15199790Y11960643D01*
X-15194741Y11957108D01*
X-15016750Y11832477D01*
X-15011768Y11830154D01*
X-15011763Y11830151D01*
X-14977544Y11814195D01*
X-14924259Y11767278D01*
X-14904798Y11699001D01*
X-14925340Y11631041D01*
X-14977544Y11585805D01*
X-15011763Y11569849D01*
X-15011768Y11569846D01*
X-15016750Y11567523D01*
X-15106566Y11504633D01*
X-15199790Y11439357D01*
X-15199793Y11439355D01*
X-15204301Y11436198D01*
X-15366199Y11274300D01*
X-15497524Y11086749D01*
X-15499847Y11081767D01*
X-15499850Y11081762D01*
X-15580243Y10909357D01*
X-15594285Y10879243D01*
X-15595707Y10873935D01*
X-15595708Y10873933D01*
X-15645029Y10689865D01*
X-15653544Y10658087D01*
X-15673499Y10430000D01*
X-15653544Y10201913D01*
X-15652120Y10196600D01*
X-15652120Y10196598D01*
X-15595708Y9986069D01*
X-15594285Y9980757D01*
X-15591962Y9975776D01*
X-15591962Y9975775D01*
X-15499850Y9778238D01*
X-15499847Y9778233D01*
X-15497524Y9773251D01*
X-15494367Y9768743D01*
X-15373768Y9596510D01*
X-15366199Y9585700D01*
X-15204301Y9423802D01*
X-15199793Y9420645D01*
X-15199790Y9420643D01*
X-15158806Y9391946D01*
X-15016750Y9292477D01*
X-15011768Y9290154D01*
X-15011763Y9290151D01*
X-14977544Y9274195D01*
X-14924259Y9227278D01*
X-14904798Y9159001D01*
X-14925340Y9091041D01*
X-14977544Y9045805D01*
X-15011763Y9029849D01*
X-15011768Y9029846D01*
X-15016750Y9027523D01*
X-15099814Y8969361D01*
X-15199790Y8899357D01*
X-15199793Y8899355D01*
X-15204301Y8896198D01*
X-15366199Y8734300D01*
X-15497524Y8546749D01*
X-15499847Y8541767D01*
X-15499850Y8541762D01*
X-15561424Y8409715D01*
X-15594285Y8339243D01*
X-15595707Y8333935D01*
X-15595708Y8333933D01*
X-15629399Y8208197D01*
X-15653544Y8118087D01*
X-15673499Y7890000D01*
X-15653544Y7661913D01*
X-15652120Y7656600D01*
X-15652120Y7656598D01*
X-15600257Y7463046D01*
X-15594285Y7440757D01*
X-15591962Y7435776D01*
X-15591962Y7435775D01*
X-15499850Y7238238D01*
X-15499847Y7238233D01*
X-15497524Y7233251D01*
X-15489270Y7221463D01*
X-15397201Y7089976D01*
X-15366199Y7045700D01*
X-15204301Y6883802D01*
X-15199793Y6880645D01*
X-15199790Y6880643D01*
X-15121612Y6825902D01*
X-15016750Y6752477D01*
X-15011768Y6750154D01*
X-15011763Y6750151D01*
X-14977544Y6734195D01*
X-14924259Y6687278D01*
X-14904798Y6619001D01*
X-14925340Y6551041D01*
X-14977544Y6505805D01*
X-15011763Y6489849D01*
X-15011768Y6489846D01*
X-15016750Y6487523D01*
X-15109841Y6422340D01*
X-15199790Y6359357D01*
X-15199793Y6359355D01*
X-15204301Y6356198D01*
X-15366199Y6194300D01*
X-15369356Y6189792D01*
X-15369358Y6189789D01*
X-15389941Y6160393D01*
X-15497524Y6006749D01*
X-15499847Y6001767D01*
X-15499850Y6001762D01*
X-15591962Y5804225D01*
X-15594285Y5799243D01*
X-15595707Y5793935D01*
X-15595708Y5793933D01*
X-15647323Y5601305D01*
X-15653544Y5578087D01*
X-15673499Y5350000D01*
X-15653544Y5121913D01*
X-15652120Y5116600D01*
X-15652120Y5116598D01*
X-15595708Y4906069D01*
X-15594285Y4900757D01*
X-15591962Y4895776D01*
X-15591962Y4895775D01*
X-15499850Y4698238D01*
X-15499847Y4698233D01*
X-15497524Y4693251D01*
X-15494367Y4688743D01*
X-15374889Y4518111D01*
X-15366199Y4505700D01*
X-15204301Y4343802D01*
X-15199793Y4340645D01*
X-15199790Y4340643D01*
X-15121612Y4285902D01*
X-15016750Y4212477D01*
X-15011768Y4210154D01*
X-15011763Y4210151D01*
X-14977544Y4194195D01*
X-14924259Y4147278D01*
X-14904798Y4079001D01*
X-14925340Y4011041D01*
X-14977544Y3965805D01*
X-15011763Y3949849D01*
X-15011768Y3949846D01*
X-15016750Y3947523D01*
X-15073657Y3907676D01*
X-15199790Y3819357D01*
X-15199793Y3819355D01*
X-15204301Y3816198D01*
X-15366199Y3654300D01*
X-15369356Y3649792D01*
X-15369358Y3649789D01*
X-15390945Y3618959D01*
X-15497524Y3466749D01*
X-15499847Y3461767D01*
X-15499850Y3461762D01*
X-15550479Y3353186D01*
X-15594285Y3259243D01*
X-15595707Y3253935D01*
X-15595708Y3253933D01*
X-15650744Y3048537D01*
X-15653544Y3038087D01*
X-15673499Y2810000D01*
X-15653544Y2581913D01*
X-15652120Y2576600D01*
X-15652120Y2576598D01*
X-15618256Y2450219D01*
X-15594285Y2360757D01*
X-15591962Y2355776D01*
X-15591962Y2355775D01*
X-15499850Y2158238D01*
X-15499847Y2158233D01*
X-15497524Y2153251D01*
X-15366199Y1965700D01*
X-15204301Y1803802D01*
X-15199793Y1800645D01*
X-15199790Y1800643D01*
X-15187059Y1791729D01*
X-15016750Y1672477D01*
X-15011768Y1670154D01*
X-15011763Y1670151D01*
X-14977544Y1654195D01*
X-14924259Y1607278D01*
X-14904798Y1539001D01*
X-14925340Y1471041D01*
X-14977544Y1425805D01*
X-15011763Y1409849D01*
X-15011768Y1409846D01*
X-15016750Y1407523D01*
X-15055441Y1380431D01*
X-15199790Y1279357D01*
X-15199793Y1279355D01*
X-15204301Y1276198D01*
X-15366199Y1114300D01*
X-15497524Y926749D01*
X-15499847Y921767D01*
X-15499850Y921762D01*
X-15580243Y749357D01*
X-15594285Y719243D01*
X-15595707Y713935D01*
X-15595708Y713933D01*
X-15601813Y691149D01*
X-15653544Y498087D01*
X-15673499Y270000D01*
X-15653544Y41913D01*
X-15652120Y36600D01*
X-15652120Y36598D01*
X-15635186Y-26598D01*
X-15594285Y-179243D01*
X-15591962Y-184224D01*
X-15591962Y-184225D01*
X-15499850Y-381762D01*
X-15499847Y-381767D01*
X-15497524Y-386749D01*
X-15427968Y-486085D01*
X-15390893Y-539033D01*
X-15366199Y-574300D01*
X-15204301Y-736198D01*
X-15199793Y-739355D01*
X-15199790Y-739357D01*
X-15142795Y-779265D01*
X-15016750Y-867523D01*
X-15011768Y-869846D01*
X-15011763Y-869849D01*
X-14977544Y-885805D01*
X-14924259Y-932722D01*
X-14904798Y-1000999D01*
X-14925340Y-1068959D01*
X-14977544Y-1114195D01*
X-15011763Y-1130151D01*
X-15011768Y-1130154D01*
X-15016750Y-1132477D01*
X-15094130Y-1186659D01*
X-15199790Y-1260643D01*
X-15199793Y-1260645D01*
X-15204301Y-1263802D01*
X-15366199Y-1425700D01*
X-15497524Y-1613251D01*
X-15499847Y-1618233D01*
X-15499850Y-1618238D01*
X-15552871Y-1731944D01*
X-15594285Y-1820757D01*
X-15653544Y-2041913D01*
X-15673499Y-2270000D01*
X-15653544Y-2498087D01*
X-15652120Y-2503400D01*
X-15652120Y-2503402D01*
X-15633853Y-2571573D01*
X-15594285Y-2719243D01*
X-15591962Y-2724224D01*
X-15591962Y-2724225D01*
X-15499850Y-2921762D01*
X-15499847Y-2921767D01*
X-15497524Y-2926749D01*
X-15494367Y-2931257D01*
X-15375681Y-3100758D01*
X-15366199Y-3114300D01*
X-15204301Y-3276198D01*
X-15199793Y-3279355D01*
X-15199790Y-3279357D01*
X-15190100Y-3286142D01*
X-15016750Y-3407523D01*
X-15011768Y-3409846D01*
X-15011763Y-3409849D01*
X-14977544Y-3425805D01*
X-14924259Y-3472722D01*
X-14904798Y-3540999D01*
X-14925340Y-3608959D01*
X-14977544Y-3654195D01*
X-15011763Y-3670151D01*
X-15011768Y-3670154D01*
X-15016750Y-3672477D01*
X-15094130Y-3726659D01*
X-15199790Y-3800643D01*
X-15199793Y-3800645D01*
X-15204301Y-3803802D01*
X-15366199Y-3965700D01*
X-15497524Y-4153251D01*
X-15499847Y-4158233D01*
X-15499850Y-4158238D01*
X-15532238Y-4227695D01*
X-15594285Y-4360757D01*
X-15595707Y-4366065D01*
X-15595708Y-4366067D01*
X-15602077Y-4389837D01*
X-15653544Y-4581913D01*
X-15673499Y-4810000D01*
X-15653544Y-5038087D01*
X-15652120Y-5043400D01*
X-15652120Y-5043402D01*
X-15635186Y-5106598D01*
X-15594285Y-5259243D01*
X-15591962Y-5264224D01*
X-15591962Y-5264225D01*
X-15499850Y-5461762D01*
X-15499847Y-5461767D01*
X-15497524Y-5466749D01*
X-15366199Y-5654300D01*
X-15204301Y-5816198D01*
X-15199793Y-5819355D01*
X-15199790Y-5819357D01*
X-15124842Y-5871836D01*
X-15016750Y-5947523D01*
X-15011768Y-5949846D01*
X-15011763Y-5949849D01*
X-14977544Y-5965805D01*
X-14924259Y-6012722D01*
X-14904798Y-6080999D01*
X-14925340Y-6148959D01*
X-14977544Y-6194195D01*
X-15011763Y-6210151D01*
X-15011768Y-6210154D01*
X-15016750Y-6212477D01*
X-15094130Y-6266659D01*
X-15199790Y-6340643D01*
X-15199793Y-6340645D01*
X-15204301Y-6343802D01*
X-15366199Y-6505700D01*
X-15497524Y-6693251D01*
X-15499847Y-6698233D01*
X-15499850Y-6698238D01*
X-15580243Y-6870643D01*
X-15594285Y-6900757D01*
X-15653544Y-7121913D01*
X-15673499Y-7350000D01*
X-15653544Y-7578087D01*
X-15652120Y-7583400D01*
X-15652120Y-7583402D01*
X-15623469Y-7690326D01*
X-15594285Y-7799243D01*
X-15591962Y-7804224D01*
X-15591962Y-7804225D01*
X-15499850Y-8001762D01*
X-15499847Y-8001767D01*
X-15497524Y-8006749D01*
X-15366199Y-8194300D01*
X-15204301Y-8356198D01*
X-15199793Y-8359355D01*
X-15199790Y-8359357D01*
X-15138631Y-8402181D01*
X-15016750Y-8487523D01*
X-15011768Y-8489846D01*
X-15011763Y-8489849D01*
X-14977544Y-8505805D01*
X-14924259Y-8552722D01*
X-14904798Y-8620999D01*
X-14925340Y-8688959D01*
X-14977544Y-8734195D01*
X-15011763Y-8750151D01*
X-15011768Y-8750154D01*
X-15016750Y-8752477D01*
X-15094130Y-8806659D01*
X-15199790Y-8880643D01*
X-15199793Y-8880645D01*
X-15204301Y-8883802D01*
X-15366199Y-9045700D01*
X-15369356Y-9050208D01*
X-15369358Y-9050211D01*
X-15408032Y-9105444D01*
X-15497524Y-9233251D01*
X-15499847Y-9238233D01*
X-15499850Y-9238238D01*
X-15591962Y-9435775D01*
X-15594285Y-9440757D01*
X-15595707Y-9446062D01*
X-15595709Y-9446069D01*
X-15602077Y-9469837D01*
X-15634689Y-9526322D01*
X-16799957Y-10691590D01*
X-16805975Y-10697227D01*
X-16855347Y-10740525D01*
X-16858919Y-10745056D01*
X-16910851Y-10810931D01*
X-16912927Y-10813494D01*
X-16970241Y-10882407D01*
X-16973066Y-10887452D01*
X-16974445Y-10889458D01*
X-16982217Y-10901088D01*
X-16983585Y-10903194D01*
X-16987163Y-10907733D01*
X-17028936Y-10987130D01*
X-17030460Y-10989936D01*
X-17074277Y-11068177D01*
X-17076135Y-11073651D01*
X-17077180Y-11075998D01*
X-17082669Y-11088773D01*
X-17083615Y-11091056D01*
X-17086301Y-11096162D01*
X-17088013Y-11101676D01*
X-17088014Y-11101678D01*
X-17112902Y-11181828D01*
X-17113921Y-11184964D01*
X-17123895Y-11214346D01*
X-17142717Y-11269795D01*
X-17143546Y-11275515D01*
X-17144125Y-11277925D01*
X-17147202Y-11291522D01*
X-17147724Y-11293975D01*
X-17149440Y-11299502D01*
X-17150119Y-11305239D01*
X-17150120Y-11305244D01*
X-17159977Y-11388534D01*
X-17160408Y-11391806D01*
X-17171714Y-11469781D01*
X-17173270Y-11480509D01*
X-17172036Y-11511902D01*
X-17169998Y-11563777D01*
X-17169901Y-11568724D01*
X-17169901Y-18182903D01*
X-17170171Y-18191144D01*
X-17174465Y-18256656D01*
X-17173786Y-18262391D01*
X-17173635Y-18268171D01*
X-17175642Y-18268224D01*
X-17186010Y-18329379D01*
X-17233837Y-18381849D01*
X-17302439Y-18400133D01*
X-17370035Y-18378426D01*
X-17388367Y-18363268D01*
X-26650191Y-9101444D01*
X-26655828Y-9095426D01*
X-26695321Y-9050393D01*
X-26699126Y-9046054D01*
X-26739322Y-9014366D01*
X-26769532Y-8990550D01*
X-26772095Y-8988474D01*
X-26794941Y-8969473D01*
X-26841008Y-8931160D01*
X-26846053Y-8928335D01*
X-26848059Y-8926956D01*
X-26859689Y-8919184D01*
X-26861795Y-8917816D01*
X-26866334Y-8914238D01*
X-26945731Y-8872465D01*
X-26948537Y-8870941D01*
X-27026778Y-8827124D01*
X-27032252Y-8825266D01*
X-27034599Y-8824221D01*
X-27047374Y-8818732D01*
X-27049657Y-8817786D01*
X-27054763Y-8815100D01*
X-27060277Y-8813388D01*
X-27060279Y-8813387D01*
X-27140429Y-8788499D01*
X-27143565Y-8787480D01*
X-27172947Y-8777506D01*
X-27228396Y-8758684D01*
X-27234116Y-8757855D01*
X-27236572Y-8757265D01*
X-27250123Y-8754199D01*
X-27252576Y-8753677D01*
X-27258103Y-8751961D01*
X-27263840Y-8751282D01*
X-27263845Y-8751281D01*
X-27333005Y-8743096D01*
X-27347141Y-8741423D01*
X-27350400Y-8740994D01*
X-27366119Y-8738715D01*
X-27433397Y-8728959D01*
X-27433401Y-8728959D01*
X-27439110Y-8728131D01*
X-27522378Y-8731403D01*
X-27527325Y-8731500D01*
X-28898113Y-8731500D01*
X-28966234Y-8711498D01*
X-29012727Y-8657842D01*
X-29022831Y-8587568D01*
X-28993337Y-8522988D01*
X-28951360Y-8491304D01*
X-28948242Y-8489850D01*
X-28948241Y-8489849D01*
X-28943252Y-8487523D01*
X-28821371Y-8402181D01*
X-28760212Y-8359357D01*
X-28760209Y-8359355D01*
X-28755701Y-8356198D01*
X-28593803Y-8194300D01*
X-28462478Y-8006749D01*
X-28460155Y-8001767D01*
X-28460152Y-8001762D01*
X-28368040Y-7804225D01*
X-28368040Y-7804224D01*
X-28365717Y-7799243D01*
X-28336532Y-7690326D01*
X-28307882Y-7583402D01*
X-28307882Y-7583400D01*
X-28306458Y-7578087D01*
X-28286503Y-7350000D01*
X-28306458Y-7121913D01*
X-28365717Y-6900757D01*
X-28379759Y-6870643D01*
X-28460152Y-6698238D01*
X-28460155Y-6698233D01*
X-28462478Y-6693251D01*
X-28593803Y-6505700D01*
X-28755701Y-6343802D01*
X-28760209Y-6340645D01*
X-28760212Y-6340643D01*
X-28865872Y-6266659D01*
X-28943252Y-6212477D01*
X-28948234Y-6210154D01*
X-28948239Y-6210151D01*
X-28982458Y-6194195D01*
X-29035743Y-6147278D01*
X-29055204Y-6079001D01*
X-29034662Y-6011041D01*
X-28982458Y-5965805D01*
X-28948239Y-5949849D01*
X-28948234Y-5949846D01*
X-28943252Y-5947523D01*
X-28835160Y-5871836D01*
X-28760212Y-5819357D01*
X-28760209Y-5819355D01*
X-28755701Y-5816198D01*
X-28593803Y-5654300D01*
X-28462478Y-5466749D01*
X-28460155Y-5461767D01*
X-28460152Y-5461762D01*
X-28368040Y-5264225D01*
X-28368040Y-5264224D01*
X-28365717Y-5259243D01*
X-28324815Y-5106598D01*
X-28307882Y-5043402D01*
X-28307882Y-5043400D01*
X-28306458Y-5038087D01*
X-28286503Y-4810000D01*
X-28306458Y-4581913D01*
X-28357925Y-4389837D01*
X-28364294Y-4366067D01*
X-28364295Y-4366065D01*
X-28365717Y-4360757D01*
X-28427764Y-4227695D01*
X-28460152Y-4158238D01*
X-28460155Y-4158233D01*
X-28462478Y-4153251D01*
X-28593803Y-3965700D01*
X-28755701Y-3803802D01*
X-28760209Y-3800645D01*
X-28760212Y-3800643D01*
X-28865872Y-3726659D01*
X-28943252Y-3672477D01*
X-28948234Y-3670154D01*
X-28948239Y-3670151D01*
X-28982458Y-3654195D01*
X-29035743Y-3607278D01*
X-29055204Y-3539001D01*
X-29034662Y-3471041D01*
X-28982458Y-3425805D01*
X-28948239Y-3409849D01*
X-28948234Y-3409846D01*
X-28943252Y-3407523D01*
X-28769902Y-3286142D01*
X-28760212Y-3279357D01*
X-28760209Y-3279355D01*
X-28755701Y-3276198D01*
X-28593803Y-3114300D01*
X-28584320Y-3100758D01*
X-28465635Y-2931257D01*
X-28462478Y-2926749D01*
X-28460155Y-2921767D01*
X-28460152Y-2921762D01*
X-28368040Y-2724225D01*
X-28368040Y-2724224D01*
X-28365717Y-2719243D01*
X-28326148Y-2571573D01*
X-28307882Y-2503402D01*
X-28307882Y-2503400D01*
X-28306458Y-2498087D01*
X-28286503Y-2270000D01*
X-28306458Y-2041913D01*
X-28365717Y-1820757D01*
X-28407131Y-1731944D01*
X-28460152Y-1618238D01*
X-28460155Y-1618233D01*
X-28462478Y-1613251D01*
X-28593803Y-1425700D01*
X-28755701Y-1263802D01*
X-28760209Y-1260645D01*
X-28760212Y-1260643D01*
X-28865872Y-1186659D01*
X-28943252Y-1132477D01*
X-28948234Y-1130154D01*
X-28948239Y-1130151D01*
X-28982458Y-1114195D01*
X-29035743Y-1067278D01*
X-29055204Y-999001D01*
X-29034662Y-931041D01*
X-28982458Y-885805D01*
X-28948239Y-869849D01*
X-28948234Y-869846D01*
X-28943252Y-867523D01*
X-28817207Y-779265D01*
X-28760212Y-739357D01*
X-28760209Y-739355D01*
X-28755701Y-736198D01*
X-28593803Y-574300D01*
X-28569108Y-539033D01*
X-28532034Y-486085D01*
X-28462478Y-386749D01*
X-28460155Y-381767D01*
X-28460152Y-381762D01*
X-28368040Y-184225D01*
X-28368040Y-184224D01*
X-28365717Y-179243D01*
X-28324815Y-26598D01*
X-28307882Y36598D01*
X-28307882Y36600D01*
X-28306458Y41913D01*
X-28286503Y270000D01*
X-28306458Y498087D01*
X-28358189Y691149D01*
X-28364294Y713933D01*
X-28364295Y713935D01*
X-28365717Y719243D01*
X-28379759Y749357D01*
X-28460152Y921762D01*
X-28460155Y921767D01*
X-28462478Y926749D01*
X-28593803Y1114300D01*
X-28755701Y1276198D01*
X-28760209Y1279355D01*
X-28760212Y1279357D01*
X-28904561Y1380431D01*
X-28943252Y1407523D01*
X-28948234Y1409846D01*
X-28948239Y1409849D01*
X-28982458Y1425805D01*
X-29035743Y1472722D01*
X-29055204Y1540999D01*
X-29034662Y1608959D01*
X-28982458Y1654195D01*
X-28948239Y1670151D01*
X-28948234Y1670154D01*
X-28943252Y1672477D01*
X-28772943Y1791729D01*
X-28760212Y1800643D01*
X-28760209Y1800645D01*
X-28755701Y1803802D01*
X-28593803Y1965700D01*
X-28462478Y2153251D01*
X-28460155Y2158233D01*
X-28460152Y2158238D01*
X-28368040Y2355775D01*
X-28368040Y2355776D01*
X-28365717Y2360757D01*
X-28341745Y2450219D01*
X-28307882Y2576598D01*
X-28307882Y2576600D01*
X-28306458Y2581913D01*
X-28286503Y2810000D01*
X-28306458Y3038087D01*
X-28309258Y3048537D01*
X-28364294Y3253933D01*
X-28364295Y3253935D01*
X-28365717Y3259243D01*
X-28409523Y3353186D01*
X-28460152Y3461762D01*
X-28460155Y3461767D01*
X-28462478Y3466749D01*
X-28569057Y3618959D01*
X-28590644Y3649789D01*
X-28590646Y3649792D01*
X-28593803Y3654300D01*
X-28755701Y3816198D01*
X-28760209Y3819355D01*
X-28760212Y3819357D01*
X-28886345Y3907676D01*
X-28943252Y3947523D01*
X-28948234Y3949846D01*
X-28948239Y3949849D01*
X-28982458Y3965805D01*
X-29035743Y4012722D01*
X-29055204Y4080999D01*
X-29034662Y4148959D01*
X-28982458Y4194195D01*
X-28948239Y4210151D01*
X-28948234Y4210154D01*
X-28943252Y4212477D01*
X-28838390Y4285902D01*
X-28760212Y4340643D01*
X-28760209Y4340645D01*
X-28755701Y4343802D01*
X-28593803Y4505700D01*
X-28585112Y4518111D01*
X-28465635Y4688743D01*
X-28462478Y4693251D01*
X-28460155Y4698233D01*
X-28460152Y4698238D01*
X-28368040Y4895775D01*
X-28368040Y4895776D01*
X-28365717Y4900757D01*
X-28364293Y4906069D01*
X-28307882Y5116598D01*
X-28307882Y5116600D01*
X-28306458Y5121913D01*
X-28286503Y5350000D01*
X-28306458Y5578087D01*
X-28312679Y5601305D01*
X-28364294Y5793933D01*
X-28364295Y5793935D01*
X-28365717Y5799243D01*
X-28368040Y5804225D01*
X-28460152Y6001762D01*
X-28460155Y6001767D01*
X-28462478Y6006749D01*
X-28570061Y6160393D01*
X-28590644Y6189789D01*
X-28590646Y6189792D01*
X-28593803Y6194300D01*
X-28755701Y6356198D01*
X-28760209Y6359355D01*
X-28760212Y6359357D01*
X-28850161Y6422340D01*
X-28943252Y6487523D01*
X-28948234Y6489846D01*
X-28948239Y6489849D01*
X-28982458Y6505805D01*
X-29035743Y6552722D01*
X-29055204Y6620999D01*
X-29034662Y6688959D01*
X-28982458Y6734195D01*
X-28948239Y6750151D01*
X-28948234Y6750154D01*
X-28943252Y6752477D01*
X-28838390Y6825902D01*
X-28760212Y6880643D01*
X-28760209Y6880645D01*
X-28755701Y6883802D01*
X-28593803Y7045700D01*
X-28562800Y7089976D01*
X-28470732Y7221463D01*
X-28462478Y7233251D01*
X-28460155Y7238233D01*
X-28460152Y7238238D01*
X-28368040Y7435775D01*
X-28368040Y7435776D01*
X-28365717Y7440757D01*
X-28359744Y7463046D01*
X-28307882Y7656598D01*
X-28307882Y7656600D01*
X-28306458Y7661913D01*
X-28286503Y7890000D01*
X-28306458Y8118087D01*
X-28330603Y8208197D01*
X-28364294Y8333933D01*
X-28364295Y8333935D01*
X-28365717Y8339243D01*
X-28398578Y8409715D01*
X-28460152Y8541762D01*
X-28460155Y8541767D01*
X-28462478Y8546749D01*
X-28593803Y8734300D01*
X-28755701Y8896198D01*
X-28760212Y8899357D01*
X-28764425Y8902892D01*
X-28763613Y8903860D01*
X-28804091Y8954494D01*
X-28811405Y9025113D01*
X-28779377Y9088476D01*
X-28718178Y9124464D01*
X-28701100Y9127520D01*
X-28697649Y9127895D01*
X-28682397Y9131521D01*
X-28561947Y9176676D01*
X-28546352Y9185214D01*
X-28444277Y9261715D01*
X-28431716Y9274276D01*
X-28355215Y9376351D01*
X-28346677Y9391946D01*
X-28301523Y9512394D01*
X-28297896Y9527649D01*
X-28292370Y9578514D01*
X-28292001Y9585328D01*
X-28292001Y10157885D01*
X-28296476Y10173124D01*
X-28297866Y10174329D01*
X-28305549Y10176000D01*
X-30889885Y10176000D01*
X-30905124Y10171525D01*
X-30906329Y10170135D01*
X-30908000Y10162452D01*
X-30908000Y9585331D01*
X-30907630Y9578510D01*
X-30902106Y9527648D01*
X-30898480Y9512396D01*
X-30853325Y9391946D01*
X-30844787Y9376351D01*
X-30768286Y9274276D01*
X-30755725Y9261715D01*
X-30653650Y9185214D01*
X-30638055Y9176676D01*
X-30517607Y9131522D01*
X-30502358Y9127896D01*
X-30498905Y9127521D01*
X-30496395Y9126478D01*
X-30494670Y9126068D01*
X-30494736Y9125789D01*
X-30433342Y9100281D01*
X-30392913Y9041920D01*
X-30390455Y8970966D01*
X-30426748Y8909946D01*
X-30438241Y8900656D01*
X-30439787Y8899359D01*
X-30444301Y8896198D01*
X-30606199Y8734300D01*
X-30737524Y8546749D01*
X-30739847Y8541767D01*
X-30739850Y8541762D01*
X-30795315Y8422815D01*
X-30842232Y8369530D01*
X-30910509Y8350069D01*
X-30978469Y8370611D01*
X-30998605Y8386970D01*
X-31580996Y8969361D01*
X-31615022Y9031673D01*
X-31617901Y9058456D01*
X-31617901Y15299943D01*
X-31597899Y15368064D01*
X-31544243Y15414557D01*
X-31473969Y15424661D01*
X-31409389Y15395167D01*
X-31402809Y15389041D01*
X-30735203Y14721435D01*
X-30729567Y14715418D01*
X-30686276Y14666054D01*
X-30681741Y14662479D01*
X-30681740Y14662478D01*
X-30615894Y14610569D01*
X-30613331Y14608493D01*
X-30548835Y14554852D01*
X-30548831Y14554849D01*
X-30544394Y14551159D01*
X-30539356Y14548337D01*
X-30537333Y14546947D01*
X-30525696Y14539172D01*
X-30523604Y14537813D01*
X-30519068Y14534238D01*
X-30455215Y14500643D01*
X-30439763Y14492513D01*
X-30436867Y14490940D01*
X-30387780Y14463451D01*
X-30377078Y14456731D01*
X-30256750Y14372477D01*
X-30251768Y14370154D01*
X-30251763Y14370151D01*
X-30217544Y14354195D01*
X-30164259Y14307278D01*
X-30144798Y14239001D01*
X-30165340Y14171041D01*
X-30217544Y14125805D01*
X-30251763Y14109849D01*
X-30251768Y14109846D01*
X-30256750Y14107523D01*
X-30343518Y14046767D01*
X-30439790Y13979357D01*
X-30439793Y13979355D01*
X-30444301Y13976198D01*
X-30606199Y13814300D01*
X-30609356Y13809792D01*
X-30609358Y13809789D01*
X-30636171Y13771496D01*
X-30737524Y13626749D01*
X-30739847Y13621767D01*
X-30739850Y13621762D01*
X-30805918Y13480077D01*
X-30834285Y13419243D01*
X-30835707Y13413935D01*
X-30835708Y13413933D01*
X-30891844Y13204433D01*
X-30893544Y13198087D01*
X-30913499Y12970000D01*
X-30893544Y12741913D01*
X-30892120Y12736600D01*
X-30892120Y12736598D01*
X-30875186Y12673402D01*
X-30834285Y12520757D01*
X-30831962Y12515776D01*
X-30831962Y12515775D01*
X-30739850Y12318238D01*
X-30739847Y12318233D01*
X-30737524Y12313251D01*
X-30606199Y12125700D01*
X-30444301Y11963802D01*
X-30439790Y11960643D01*
X-30435577Y11957108D01*
X-30436389Y11956140D01*
X-30395911Y11905506D01*
X-30388597Y11834887D01*
X-30420625Y11771524D01*
X-30481824Y11735536D01*
X-30498902Y11732480D01*
X-30502353Y11732105D01*
X-30517605Y11728479D01*
X-30638055Y11683324D01*
X-30653650Y11674786D01*
X-30755725Y11598285D01*
X-30768286Y11585724D01*
X-30844787Y11483649D01*
X-30853325Y11468054D01*
X-30898479Y11347606D01*
X-30902106Y11332351D01*
X-30907632Y11281486D01*
X-30908001Y11274672D01*
X-30908001Y10702115D01*
X-30903526Y10686876D01*
X-30902136Y10685671D01*
X-30894453Y10684000D01*
X-28310117Y10684000D01*
X-28294878Y10688475D01*
X-28293673Y10689865D01*
X-28292002Y10697548D01*
X-28292002Y11274669D01*
X-28292372Y11281490D01*
X-28297896Y11332352D01*
X-28301522Y11347604D01*
X-28346677Y11468054D01*
X-28355215Y11483649D01*
X-28431716Y11585724D01*
X-28444277Y11598285D01*
X-28546352Y11674786D01*
X-28561947Y11683324D01*
X-28682395Y11728478D01*
X-28697644Y11732104D01*
X-28701097Y11732479D01*
X-28703607Y11733522D01*
X-28705332Y11733932D01*
X-28705266Y11734211D01*
X-28766660Y11759719D01*
X-28807089Y11818080D01*
X-28809547Y11889034D01*
X-28773254Y11950054D01*
X-28761761Y11959344D01*
X-28760213Y11960643D01*
X-28755701Y11963802D01*
X-28593803Y12125700D01*
X-28462478Y12313251D01*
X-28460155Y12318233D01*
X-28460152Y12318238D01*
X-28368040Y12515775D01*
X-28368040Y12515776D01*
X-28365717Y12520757D01*
X-28324815Y12673402D01*
X-28307882Y12736598D01*
X-28307882Y12736600D01*
X-28306458Y12741913D01*
X-28286503Y12970000D01*
X-28306458Y13198087D01*
X-28308158Y13204433D01*
X-28364294Y13413933D01*
X-28364295Y13413935D01*
X-28365717Y13419243D01*
X-28394084Y13480077D01*
X-28460152Y13621762D01*
X-28460155Y13621767D01*
X-28462478Y13626749D01*
X-28563831Y13771496D01*
X-28590644Y13809789D01*
X-28590646Y13809792D01*
X-28593803Y13814300D01*
X-28755701Y13976198D01*
X-28760209Y13979355D01*
X-28760212Y13979357D01*
X-28856484Y14046767D01*
X-28943252Y14107523D01*
X-28948234Y14109846D01*
X-28948239Y14109849D01*
X-28982458Y14125805D01*
X-29035743Y14172722D01*
X-29055204Y14240999D01*
X-29034662Y14308959D01*
X-28982458Y14354195D01*
X-28948239Y14370151D01*
X-28948234Y14370154D01*
X-28943252Y14372477D01*
X-28801196Y14471946D01*
X-28760212Y14500643D01*
X-28760209Y14500645D01*
X-28755701Y14503802D01*
X-28593803Y14665700D01*
X-28590515Y14670395D01*
X-28465635Y14848743D01*
X-28462478Y14853251D01*
X-28460155Y14858233D01*
X-28460152Y14858238D01*
X-28368040Y15055775D01*
X-28368040Y15055776D01*
X-28365717Y15060757D01*
X-28324815Y15213402D01*
X-28307882Y15276598D01*
X-28307882Y15276600D01*
X-28306458Y15281913D01*
X-28286503Y15510000D01*
X-28306458Y15738087D01*
X-28316608Y15775966D01*
X-28364294Y15953933D01*
X-28364295Y15953935D01*
X-28365717Y15959243D01*
X-28380365Y15990656D01*
X-28460152Y16161762D01*
X-28460155Y16161767D01*
X-28462478Y16166749D01*
X-28569057Y16318959D01*
X-28590644Y16349789D01*
X-28590646Y16349792D01*
X-28593803Y16354300D01*
X-28755701Y16516198D01*
X-28760209Y16519355D01*
X-28760212Y16519357D01*
X-28844553Y16578413D01*
X-28943252Y16647523D01*
X-28951360Y16651304D01*
X-28952503Y16652310D01*
X-28953003Y16652599D01*
X-28952945Y16652699D01*
X-29004647Y16698220D01*
X-29024109Y16766497D01*
X-29003569Y16834457D01*
X-28949547Y16880524D01*
X-28898113Y16891500D01*
X-27543298Y16891500D01*
X-27535056Y16891230D01*
X-27469545Y16886936D01*
X-27380507Y16897475D01*
X-27377239Y16897817D01*
X-27287977Y16906019D01*
X-27282420Y16907586D01*
X-27280020Y16908031D01*
X-27266269Y16910767D01*
X-27263843Y16911283D01*
X-27258103Y16911962D01*
X-27252583Y16913676D01*
X-27252578Y16913677D01*
X-27205235Y16928377D01*
X-27134247Y16929476D01*
X-27073934Y16892021D01*
X-27052103Y16857783D01*
X-27011520Y16763324D01*
X-27006072Y16750643D01*
X-26887781Y16573609D01*
X-26883748Y16569469D01*
X-26784193Y16467273D01*
X-26739210Y16421096D01*
X-26734492Y16417761D01*
X-26734490Y16417760D01*
X-26610364Y16330037D01*
X-26565333Y16298212D01*
X-26371973Y16209071D01*
X-26366374Y16207649D01*
X-26366371Y16207648D01*
X-26216060Y16169475D01*
X-26165607Y16156662D01*
X-25953145Y16142736D01*
X-25741703Y16167762D01*
X-25538363Y16230900D01*
X-25349934Y16330037D01*
X-25321711Y16352286D01*
X-25279410Y16385634D01*
X-25213221Y16437814D01*
X-24796440Y16854595D01*
X-24734128Y16888621D01*
X-24707345Y16891500D01*
X-15606700Y16891500D01*
X-15538579Y16871498D01*
X-15492086Y16817842D01*
X-15481982Y16747568D01*
X-15511476Y16682988D01*
X-15517605Y16676405D01*
X-15528286Y16665724D01*
X-15604787Y16563649D01*
X-15613325Y16548054D01*
X-15658479Y16427606D01*
X-15662106Y16412351D01*
X-15667632Y16361486D01*
X-15668001Y16354672D01*
X-15668001Y15782115D01*
X-15663526Y15766876D01*
X-15662136Y15765671D01*
X-15654453Y15764000D01*
X-13070117Y15764000D01*
X-13054878Y15768475D01*
X-13053673Y15769865D01*
X-13052002Y15777548D01*
X-13052002Y16354669D01*
X-13052372Y16361490D01*
X-13057896Y16412352D01*
X-13061522Y16427604D01*
X-13106677Y16548054D01*
X-13115215Y16563649D01*
X-13191716Y16665724D01*
X-13204277Y16678285D01*
X-13306352Y16754786D01*
X-13321947Y16763324D01*
X-13442395Y16808478D01*
X-13457644Y16812104D01*
X-13461097Y16812479D01*
X-13463607Y16813522D01*
X-13465332Y16813932D01*
X-13465266Y16814211D01*
X-13526660Y16839719D01*
X-13567089Y16898080D01*
X-13569547Y16969034D01*
X-13533254Y17030054D01*
X-13521761Y17039344D01*
X-13520215Y17040641D01*
X-13515701Y17043802D01*
X-13353803Y17205700D01*
X-13324264Y17247885D01*
X-13225635Y17388743D01*
X-13222478Y17393251D01*
X-13220155Y17398233D01*
X-13220152Y17398238D01*
X-13128040Y17595775D01*
X-13128040Y17595776D01*
X-13125717Y17600757D01*
X-13097464Y17706196D01*
X-13067882Y17816598D01*
X-13067882Y17816600D01*
X-13066458Y17821913D01*
X-13046503Y18050000D01*
X-13066458Y18278087D01*
X-13089658Y18364669D01*
X-13124294Y18493933D01*
X-13124295Y18493935D01*
X-13125717Y18499243D01*
X-13128040Y18504225D01*
X-13220152Y18701762D01*
X-13220155Y18701767D01*
X-13222478Y18706749D01*
X-13353803Y18894300D01*
X-13515701Y19056198D01*
X-13520209Y19059355D01*
X-13520212Y19059357D01*
X-13622569Y19131028D01*
X-13703252Y19187523D01*
X-13708234Y19189846D01*
X-13708239Y19189849D01*
X-13905776Y19281961D01*
X-13905777Y19281961D01*
X-13910758Y19284284D01*
X-13916067Y19285707D01*
X-13921242Y19287590D01*
X-13920301Y19290175D01*
X-13971158Y19320963D01*
X-14002373Y19384729D01*
X-13994157Y19455249D01*
X-13949121Y19510132D01*
X-13878181Y19532000D01*
X-10900857Y19532000D01*
X-10832736Y19511998D01*
G37*
%TD.AperFunction*%
%TA.AperFunction,Conductor*%
G36*
X-16815648Y41527398D02*
G01*
X-16769155Y41473742D01*
X-16759051Y41403468D01*
X-16762062Y41388789D01*
X-16784060Y41306691D01*
X-16785963Y41295896D01*
X-16804373Y41085475D01*
X-16804373Y41074525D01*
X-16785963Y40864104D01*
X-16784060Y40853309D01*
X-16729392Y40649285D01*
X-16725646Y40638993D01*
X-16636378Y40447559D01*
X-16630898Y40438068D01*
X-16600207Y40394235D01*
X-16589730Y40385860D01*
X-16576283Y40392928D01*
X-15619096Y41350115D01*
X-15556784Y41384141D01*
X-15485969Y41379076D01*
X-15440906Y41350115D01*
X-14482998Y40392207D01*
X-14471224Y40385777D01*
X-14459208Y40395074D01*
X-14429104Y40438068D01*
X-14423624Y40447559D01*
X-14374472Y40552965D01*
X-14327554Y40606250D01*
X-14259277Y40625711D01*
X-14191317Y40605169D01*
X-14146082Y40552965D01*
X-14096815Y40447311D01*
X-14096812Y40447306D01*
X-14094489Y40442324D01*
X-14091333Y40437817D01*
X-14091332Y40437815D01*
X-13971354Y40266469D01*
X-13966978Y40260219D01*
X-13809782Y40103023D01*
X-13805274Y40099866D01*
X-13805271Y40099864D01*
X-13776478Y40079703D01*
X-13627678Y39975512D01*
X-13622696Y39973189D01*
X-13622691Y39973186D01*
X-13528900Y39929451D01*
X-13426197Y39881560D01*
X-13420889Y39880138D01*
X-13420887Y39880137D01*
X-13373296Y39867385D01*
X-13211464Y39824022D01*
X-12990001Y39804647D01*
X-12768538Y39824022D01*
X-12606706Y39867385D01*
X-12559115Y39880137D01*
X-12559113Y39880138D01*
X-12553805Y39881560D01*
X-12451102Y39929451D01*
X-12357311Y39973186D01*
X-12357306Y39973189D01*
X-12352324Y39975512D01*
X-12203524Y40079703D01*
X-12174731Y40099864D01*
X-12174728Y40099866D01*
X-12170220Y40103023D01*
X-12013024Y40260219D01*
X-12008647Y40266469D01*
X-11949714Y40350635D01*
X-11894257Y40394963D01*
X-11823638Y40402272D01*
X-11760277Y40370241D01*
X-11724292Y40309040D01*
X-11720501Y40278364D01*
X-11720501Y40269866D01*
X-11713746Y40207684D01*
X-11662616Y40071295D01*
X-11575262Y39954739D01*
X-11458706Y39867385D01*
X-11322317Y39816255D01*
X-11260135Y39809500D01*
X-9639867Y39809500D01*
X-9577685Y39816255D01*
X-9441296Y39867385D01*
X-9324740Y39954739D01*
X-9237386Y40071295D01*
X-9186256Y40207684D01*
X-9179501Y40269866D01*
X-9179501Y41421400D01*
X-9159499Y41489521D01*
X-9105843Y41536014D01*
X-9053501Y41547400D01*
X-5375007Y41547400D01*
X-5306886Y41527398D01*
X-5285912Y41510495D01*
X-4126053Y40350635D01*
X-2986861Y39211443D01*
X-2981224Y39205425D01*
X-2941738Y39160400D01*
X-2941734Y39160396D01*
X-2937926Y39156054D01*
X-2933391Y39152479D01*
X-2933390Y39152478D01*
X-2867531Y39100559D01*
X-2864968Y39098483D01*
X-2841953Y39079342D01*
X-2796044Y39041160D01*
X-2791000Y39038335D01*
X-2788993Y39036956D01*
X-2777363Y39029184D01*
X-2775257Y39027816D01*
X-2770718Y39024238D01*
X-2691321Y38982465D01*
X-2688515Y38980941D01*
X-2610274Y38937124D01*
X-2604800Y38935266D01*
X-2602453Y38934221D01*
X-2589678Y38928732D01*
X-2587395Y38927786D01*
X-2582289Y38925100D01*
X-2576775Y38923388D01*
X-2576773Y38923387D01*
X-2496623Y38898499D01*
X-2493487Y38897480D01*
X-2464105Y38887506D01*
X-2408656Y38868684D01*
X-2402936Y38867855D01*
X-2400480Y38867265D01*
X-2386929Y38864199D01*
X-2384476Y38863677D01*
X-2378949Y38861961D01*
X-2373212Y38861282D01*
X-2373207Y38861281D01*
X-2304047Y38853096D01*
X-2289911Y38851423D01*
X-2286652Y38850994D01*
X-2270933Y38848715D01*
X-2203655Y38838959D01*
X-2203651Y38838959D01*
X-2197942Y38838131D01*
X-2114673Y38841403D01*
X-2109727Y38841500D01*
X16057943Y38841500D01*
X16126064Y38821498D01*
X16147038Y38804595D01*
X20291538Y34660095D01*
X20325564Y34597783D01*
X20320499Y34526968D01*
X20277952Y34470132D01*
X20211432Y34445321D01*
X20202443Y34445000D01*
X19648330Y34444999D01*
X19641509Y34444629D01*
X19590647Y34439105D01*
X19575395Y34435479D01*
X19454945Y34390324D01*
X19439350Y34381786D01*
X19337275Y34305285D01*
X19324714Y34292724D01*
X19248213Y34190649D01*
X19239675Y34175054D01*
X19194521Y34054606D01*
X19190894Y34039351D01*
X19185368Y33988486D01*
X19184999Y33981672D01*
X19184999Y33447115D01*
X19189474Y33431876D01*
X19190864Y33430671D01*
X19198547Y33429000D01*
X20582999Y33429000D01*
X20651120Y33408998D01*
X20697613Y33355342D01*
X20708999Y33303000D01*
X20708999Y33047000D01*
X20688997Y32978879D01*
X20635341Y32932386D01*
X20582999Y32921000D01*
X19203115Y32921000D01*
X19187876Y32916525D01*
X19186671Y32915135D01*
X19185000Y32907452D01*
X19185000Y32368331D01*
X19185370Y32361510D01*
X19190894Y32310648D01*
X19194520Y32295396D01*
X19239675Y32174946D01*
X19248213Y32159351D01*
X19324714Y32057276D01*
X19337275Y32044715D01*
X19439350Y31968214D01*
X19454945Y31959676D01*
X19575393Y31914522D01*
X19590648Y31910895D01*
X19641513Y31905369D01*
X19648327Y31905000D01*
X19654077Y31905000D01*
X19722198Y31884998D01*
X19768691Y31831342D01*
X19778795Y31761068D01*
X19749301Y31696488D01*
X19726348Y31675787D01*
X19639729Y31615136D01*
X19639726Y31615134D01*
X19635218Y31611977D01*
X19478022Y31454781D01*
X19474865Y31450273D01*
X19474863Y31450270D01*
X19355304Y31279521D01*
X19350511Y31272676D01*
X19348188Y31267694D01*
X19348185Y31267689D01*
X19258882Y31076178D01*
X19256559Y31071196D01*
X19255137Y31065888D01*
X19255136Y31065886D01*
X19243177Y31021254D01*
X19199021Y30856463D01*
X19179646Y30635000D01*
X19199021Y30413537D01*
X19210330Y30371331D01*
X19251956Y30215984D01*
X19256559Y30198804D01*
X19258881Y30193823D01*
X19258882Y30193822D01*
X19348185Y30002311D01*
X19348188Y30002306D01*
X19350511Y29997324D01*
X19353667Y29992817D01*
X19353668Y29992815D01*
X19448442Y29857464D01*
X19478022Y29815219D01*
X19635218Y29658023D01*
X19639726Y29654866D01*
X19639729Y29654864D01*
X19656660Y29643009D01*
X19817322Y29530512D01*
X19822304Y29528189D01*
X19822309Y29528186D01*
X19889669Y29496776D01*
X19927351Y29479205D01*
X19927372Y29479195D01*
X19980657Y29432278D01*
X20000118Y29364001D01*
X19979576Y29296041D01*
X19927372Y29250805D01*
X19822310Y29201814D01*
X19822305Y29201811D01*
X19817323Y29199488D01*
X19812816Y29196332D01*
X19812814Y29196331D01*
X19639729Y29075136D01*
X19639726Y29075134D01*
X19635218Y29071977D01*
X19538613Y28975372D01*
X19476301Y28941346D01*
X19405486Y28946411D01*
X19348650Y28988958D01*
X19324047Y29052935D01*
X19321880Y29076524D01*
X19320313Y29082079D01*
X19319868Y29084481D01*
X19317136Y29098214D01*
X19316616Y29100659D01*
X19315937Y29106398D01*
X19289344Y29192045D01*
X19288414Y29195185D01*
X19287414Y29198733D01*
X19264085Y29281448D01*
X19261528Y29286634D01*
X19260633Y29288965D01*
X19255442Y29301978D01*
X19254511Y29304224D01*
X19252799Y29309739D01*
X19211043Y29389102D01*
X19209550Y29392033D01*
X19190473Y29430718D01*
X19169914Y29472408D01*
X19166452Y29477044D01*
X19165128Y29479205D01*
X19157677Y29491015D01*
X19156347Y29493063D01*
X19153661Y29498168D01*
X19098160Y29568570D01*
X19096164Y29571172D01*
X19045973Y29638386D01*
X19042521Y29643009D01*
X18981318Y29699584D01*
X18977752Y29703013D01*
X13096509Y35584256D01*
X13090872Y35590274D01*
X13051379Y35635307D01*
X13047574Y35639646D01*
X13021347Y35660322D01*
X12977168Y35695150D01*
X12974605Y35697226D01*
X12948633Y35718826D01*
X12905692Y35754540D01*
X12900647Y35757365D01*
X12898641Y35758744D01*
X12887011Y35766516D01*
X12884905Y35767884D01*
X12880366Y35771462D01*
X12800969Y35813235D01*
X12798163Y35814759D01*
X12719922Y35858576D01*
X12714448Y35860434D01*
X12712101Y35861479D01*
X12699326Y35866968D01*
X12697043Y35867914D01*
X12691937Y35870600D01*
X12686423Y35872312D01*
X12686421Y35872313D01*
X12606271Y35897201D01*
X12603135Y35898220D01*
X12573753Y35908194D01*
X12518304Y35927016D01*
X12512584Y35927845D01*
X12510128Y35928435D01*
X12496577Y35931501D01*
X12494124Y35932023D01*
X12488597Y35933739D01*
X12482860Y35934418D01*
X12482855Y35934419D01*
X12413695Y35942604D01*
X12399559Y35944277D01*
X12396300Y35944706D01*
X12372025Y35948226D01*
X12313303Y35956741D01*
X12313299Y35956741D01*
X12307590Y35957569D01*
X12224322Y35954297D01*
X12219375Y35954200D01*
X10877196Y35954200D01*
X10868955Y35954470D01*
X10834307Y35956741D01*
X10803443Y35958764D01*
X10714405Y35948225D01*
X10711137Y35947883D01*
X10621875Y35939681D01*
X10616318Y35938114D01*
X10613918Y35937669D01*
X10600167Y35934933D01*
X10597741Y35934417D01*
X10592001Y35933738D01*
X10506355Y35907145D01*
X10503223Y35906217D01*
X10464407Y35895270D01*
X10422510Y35883454D01*
X10422508Y35883453D01*
X10416951Y35881886D01*
X10411772Y35879332D01*
X10409430Y35878433D01*
X10396491Y35873271D01*
X10394179Y35872313D01*
X10388661Y35870600D01*
X10320929Y35834965D01*
X10309317Y35828856D01*
X10306380Y35827359D01*
X10231167Y35790268D01*
X10231163Y35790266D01*
X10225991Y35787715D01*
X10221365Y35784261D01*
X10219254Y35782967D01*
X10207366Y35775466D01*
X10205346Y35774154D01*
X10200231Y35771463D01*
X10195695Y35767887D01*
X10129821Y35715955D01*
X10127202Y35713946D01*
X10104811Y35697226D01*
X10055390Y35660322D01*
X10015382Y35617041D01*
X9998816Y35599120D01*
X9995386Y35595553D01*
X9128943Y34729110D01*
X9122925Y34723473D01*
X9073553Y34680175D01*
X9069981Y34675644D01*
X9018049Y34609769D01*
X9015973Y34607206D01*
X8958659Y34538293D01*
X8955834Y34533248D01*
X8954455Y34531242D01*
X8946683Y34519612D01*
X8945315Y34517506D01*
X8941737Y34512967D01*
X8899964Y34433570D01*
X8898440Y34430764D01*
X8854623Y34352523D01*
X8852765Y34347049D01*
X8851720Y34344702D01*
X8846231Y34331927D01*
X8845285Y34329644D01*
X8842599Y34324538D01*
X8840887Y34319024D01*
X8840886Y34319022D01*
X8815998Y34238872D01*
X8814979Y34235736D01*
X8786183Y34150905D01*
X8785354Y34145185D01*
X8784764Y34142729D01*
X8781698Y34129178D01*
X8781176Y34126725D01*
X8779460Y34121198D01*
X8778781Y34115461D01*
X8778780Y34115456D01*
X8768923Y34032166D01*
X8768492Y34028894D01*
X8756587Y33946788D01*
X8755630Y33940191D01*
X8757934Y33881560D01*
X8758902Y33856923D01*
X8758999Y33851976D01*
X8758999Y-9594203D01*
X8758729Y-9602444D01*
X8754435Y-9667956D01*
X8755114Y-9673691D01*
X8764973Y-9756988D01*
X8765316Y-9760262D01*
X8773518Y-9849524D01*
X8775085Y-9855081D01*
X8775530Y-9857481D01*
X8778266Y-9871232D01*
X8778782Y-9873658D01*
X8779461Y-9879398D01*
X8792487Y-9921349D01*
X8806050Y-9965029D01*
X8806982Y-9968176D01*
X8831313Y-10054448D01*
X8833867Y-10059627D01*
X8834766Y-10061969D01*
X8839925Y-10074900D01*
X8840885Y-10077217D01*
X8842599Y-10082738D01*
X8845288Y-10087850D01*
X8845291Y-10087856D01*
X8884355Y-10162105D01*
X8885853Y-10165044D01*
X8909899Y-10213804D01*
X8925484Y-10245408D01*
X8928937Y-10250032D01*
X8930257Y-10252186D01*
X8937696Y-10263975D01*
X8939046Y-10266054D01*
X8941736Y-10271167D01*
X8997247Y-10341581D01*
X8999218Y-10344151D01*
X9049420Y-10411381D01*
X9049427Y-10411388D01*
X9052877Y-10416009D01*
X9066430Y-10428537D01*
X9114079Y-10472583D01*
X9117646Y-10476013D01*
X9719106Y-11077473D01*
X9744205Y-11113317D01*
X9759693Y-11146530D01*
X9771499Y-11199781D01*
X9771499Y-13530344D01*
X9751497Y-13598465D01*
X9734594Y-13619439D01*
X8158093Y-15195940D01*
X8095781Y-15229966D01*
X8024966Y-15224901D01*
X7968130Y-15182354D01*
X7943319Y-15115834D01*
X7942998Y-15106845D01*
X7942998Y-14655331D01*
X7942628Y-14648510D01*
X7937104Y-14597648D01*
X7933478Y-14582396D01*
X7888323Y-14461946D01*
X7879785Y-14446351D01*
X7803284Y-14344276D01*
X7790723Y-14331715D01*
X7688648Y-14255214D01*
X7673053Y-14246676D01*
X7552605Y-14201522D01*
X7537356Y-14197896D01*
X7533903Y-14197521D01*
X7531393Y-14196478D01*
X7529668Y-14196068D01*
X7529734Y-14195789D01*
X7468340Y-14170281D01*
X7427911Y-14111920D01*
X7425453Y-14040966D01*
X7461746Y-13979946D01*
X7473239Y-13970656D01*
X7474787Y-13969357D01*
X7479299Y-13966198D01*
X7641197Y-13804300D01*
X7772522Y-13616749D01*
X7774845Y-13611767D01*
X7774848Y-13611762D01*
X7866960Y-13414225D01*
X7866960Y-13414224D01*
X7869283Y-13409243D01*
X7878772Y-13373832D01*
X7927118Y-13193402D01*
X7927118Y-13193400D01*
X7928542Y-13188087D01*
X7948497Y-12960000D01*
X7928542Y-12731913D01*
X7927118Y-12726598D01*
X7870706Y-12516067D01*
X7870705Y-12516065D01*
X7869283Y-12510757D01*
X7809864Y-12383331D01*
X7774848Y-12308238D01*
X7774845Y-12308233D01*
X7772522Y-12303251D01*
X7641197Y-12115700D01*
X7479299Y-11953802D01*
X7474791Y-11950645D01*
X7474788Y-11950643D01*
X7376981Y-11882158D01*
X7291748Y-11822477D01*
X7286766Y-11820154D01*
X7286761Y-11820151D01*
X7252542Y-11804195D01*
X7199257Y-11757278D01*
X7179796Y-11689001D01*
X7200338Y-11621041D01*
X7252542Y-11575805D01*
X7286761Y-11559849D01*
X7286766Y-11559846D01*
X7291748Y-11557523D01*
X7423499Y-11465270D01*
X7474788Y-11429357D01*
X7474791Y-11429355D01*
X7479299Y-11426198D01*
X7641197Y-11264300D01*
X7772522Y-11076749D01*
X7774845Y-11071767D01*
X7774848Y-11071762D01*
X7866960Y-10874225D01*
X7866960Y-10874224D01*
X7869283Y-10869243D01*
X7870707Y-10863931D01*
X7927118Y-10653402D01*
X7927118Y-10653400D01*
X7928542Y-10648087D01*
X7948497Y-10420000D01*
X7928542Y-10191913D01*
X7927118Y-10186598D01*
X7870706Y-9976067D01*
X7870705Y-9976065D01*
X7869283Y-9970757D01*
X7822874Y-9871232D01*
X7774848Y-9768238D01*
X7774845Y-9768233D01*
X7772522Y-9763251D01*
X7668640Y-9614892D01*
X7644356Y-9580211D01*
X7644354Y-9580208D01*
X7641197Y-9575700D01*
X7479299Y-9413802D01*
X7474791Y-9410645D01*
X7474788Y-9410643D01*
X7396610Y-9355902D01*
X7291748Y-9282477D01*
X7286766Y-9280154D01*
X7286761Y-9280151D01*
X7252542Y-9264195D01*
X7199257Y-9217278D01*
X7179796Y-9149001D01*
X7200338Y-9081041D01*
X7252542Y-9035805D01*
X7286761Y-9019849D01*
X7286766Y-9019846D01*
X7291748Y-9017523D01*
X7443094Y-8911549D01*
X7474788Y-8889357D01*
X7474791Y-8889355D01*
X7479299Y-8886198D01*
X7641197Y-8724300D01*
X7651390Y-8709744D01*
X7727663Y-8600814D01*
X7772522Y-8536749D01*
X7774845Y-8531767D01*
X7774848Y-8531762D01*
X7866960Y-8334225D01*
X7866960Y-8334224D01*
X7869283Y-8329243D01*
X7876667Y-8301688D01*
X7927118Y-8113402D01*
X7927118Y-8113400D01*
X7928542Y-8108087D01*
X7948497Y-7880000D01*
X7928542Y-7651913D01*
X7924564Y-7637068D01*
X7870706Y-7436067D01*
X7870705Y-7436065D01*
X7869283Y-7430757D01*
X7829073Y-7344525D01*
X7774848Y-7228238D01*
X7774845Y-7228233D01*
X7772522Y-7223251D01*
X7641197Y-7035700D01*
X7479299Y-6873802D01*
X7474791Y-6870645D01*
X7474788Y-6870643D01*
X7396610Y-6815902D01*
X7291748Y-6742477D01*
X7286766Y-6740154D01*
X7286761Y-6740151D01*
X7252542Y-6724195D01*
X7199257Y-6677278D01*
X7179796Y-6609001D01*
X7200338Y-6541041D01*
X7252542Y-6495805D01*
X7286761Y-6479849D01*
X7286766Y-6479846D01*
X7291748Y-6477523D01*
X7396610Y-6404098D01*
X7474788Y-6349357D01*
X7474791Y-6349355D01*
X7479299Y-6346198D01*
X7641197Y-6184300D01*
X7772522Y-5996749D01*
X7774845Y-5991767D01*
X7774848Y-5991762D01*
X7866960Y-5794225D01*
X7866960Y-5794224D01*
X7869283Y-5789243D01*
X7928542Y-5568087D01*
X7948497Y-5340000D01*
X7928542Y-5111913D01*
X7927118Y-5106598D01*
X7870706Y-4896067D01*
X7870705Y-4896065D01*
X7869283Y-4890757D01*
X7829073Y-4804525D01*
X7774848Y-4688238D01*
X7774845Y-4688233D01*
X7772522Y-4683251D01*
X7641197Y-4495700D01*
X7479299Y-4333802D01*
X7474791Y-4330645D01*
X7474788Y-4330643D01*
X7396610Y-4275902D01*
X7291748Y-4202477D01*
X7286766Y-4200154D01*
X7286761Y-4200151D01*
X7252542Y-4184195D01*
X7199257Y-4137278D01*
X7179796Y-4069001D01*
X7200338Y-4001041D01*
X7252542Y-3955805D01*
X7286761Y-3939849D01*
X7286766Y-3939846D01*
X7291748Y-3937523D01*
X7396610Y-3864098D01*
X7474788Y-3809357D01*
X7474791Y-3809355D01*
X7479299Y-3806198D01*
X7641197Y-3644300D01*
X7772522Y-3456749D01*
X7774845Y-3451767D01*
X7774848Y-3451762D01*
X7866960Y-3254225D01*
X7866960Y-3254224D01*
X7869283Y-3249243D01*
X7928542Y-3028087D01*
X7948497Y-2800000D01*
X7928542Y-2571913D01*
X7927118Y-2566598D01*
X7870706Y-2356067D01*
X7870705Y-2356065D01*
X7869283Y-2350757D01*
X7829073Y-2264525D01*
X7774848Y-2148238D01*
X7774845Y-2148233D01*
X7772522Y-2143251D01*
X7641197Y-1955700D01*
X7479299Y-1793802D01*
X7474791Y-1790645D01*
X7474788Y-1790643D01*
X7390957Y-1731944D01*
X7291748Y-1662477D01*
X7286766Y-1660154D01*
X7286761Y-1660151D01*
X7252542Y-1644195D01*
X7199257Y-1597278D01*
X7179796Y-1529001D01*
X7200338Y-1461041D01*
X7252542Y-1415805D01*
X7286761Y-1399849D01*
X7286766Y-1399846D01*
X7291748Y-1397523D01*
X7396610Y-1324098D01*
X7474788Y-1269357D01*
X7474791Y-1269355D01*
X7479299Y-1266198D01*
X7641197Y-1104300D01*
X7772522Y-916749D01*
X7774845Y-911767D01*
X7774848Y-911762D01*
X7866960Y-714225D01*
X7866960Y-714224D01*
X7869283Y-709243D01*
X7878623Y-674388D01*
X7927118Y-493402D01*
X7927118Y-493400D01*
X7928542Y-488087D01*
X7948497Y-260000D01*
X7928542Y-31913D01*
X7919520Y1759D01*
X7870706Y183933D01*
X7870705Y183935D01*
X7869283Y189243D01*
X7829073Y275475D01*
X7774848Y391762D01*
X7774845Y391767D01*
X7772522Y396749D01*
X7641197Y584300D01*
X7479299Y746198D01*
X7474791Y749355D01*
X7474788Y749357D01*
X7396610Y804098D01*
X7291748Y877523D01*
X7286766Y879846D01*
X7286761Y879849D01*
X7252542Y895805D01*
X7199257Y942722D01*
X7179796Y1010999D01*
X7200338Y1078959D01*
X7252542Y1124195D01*
X7286761Y1140151D01*
X7286766Y1140154D01*
X7291748Y1142477D01*
X7396610Y1215902D01*
X7474788Y1270643D01*
X7474791Y1270645D01*
X7479299Y1273802D01*
X7641197Y1435700D01*
X7645411Y1441717D01*
X7717774Y1545063D01*
X7772522Y1623251D01*
X7774845Y1628233D01*
X7774848Y1628238D01*
X7866960Y1825775D01*
X7866960Y1825776D01*
X7869283Y1830757D01*
X7875664Y1854569D01*
X7927118Y2046598D01*
X7927118Y2046600D01*
X7928542Y2051913D01*
X7948497Y2280000D01*
X7928542Y2508087D01*
X7923243Y2527863D01*
X7870706Y2723933D01*
X7870705Y2723935D01*
X7869283Y2729243D01*
X7854253Y2761476D01*
X7774848Y2931762D01*
X7774845Y2931767D01*
X7772522Y2936749D01*
X7675154Y3075805D01*
X7644356Y3119789D01*
X7644354Y3119792D01*
X7641197Y3124300D01*
X7479299Y3286198D01*
X7474791Y3289355D01*
X7474788Y3289357D01*
X7375800Y3358669D01*
X7291748Y3417523D01*
X7286766Y3419846D01*
X7286761Y3419849D01*
X7252542Y3435805D01*
X7199257Y3482722D01*
X7179796Y3550999D01*
X7200338Y3618959D01*
X7252542Y3664195D01*
X7286761Y3680151D01*
X7286766Y3680154D01*
X7291748Y3682477D01*
X7396610Y3755902D01*
X7474788Y3810643D01*
X7474791Y3810645D01*
X7479299Y3813802D01*
X7641197Y3975700D01*
X7649666Y3987794D01*
X7714928Y4080999D01*
X7772522Y4163251D01*
X7774845Y4168233D01*
X7774848Y4168238D01*
X7866960Y4365775D01*
X7866960Y4365776D01*
X7869283Y4370757D01*
X7928542Y4591913D01*
X7948497Y4820000D01*
X7928542Y5048087D01*
X7915255Y5097676D01*
X7870706Y5263933D01*
X7870705Y5263935D01*
X7869283Y5269243D01*
X7862552Y5283678D01*
X7774848Y5471762D01*
X7774845Y5471767D01*
X7772522Y5476749D01*
X7663122Y5632988D01*
X7644356Y5659789D01*
X7644354Y5659792D01*
X7641197Y5664300D01*
X7479299Y5826198D01*
X7474791Y5829355D01*
X7474788Y5829357D01*
X7377469Y5897500D01*
X7291748Y5957523D01*
X7286766Y5959846D01*
X7286761Y5959849D01*
X7252542Y5975805D01*
X7199257Y6022722D01*
X7179796Y6090999D01*
X7200338Y6158959D01*
X7252542Y6204195D01*
X7286761Y6220151D01*
X7286766Y6220154D01*
X7291748Y6222477D01*
X7396610Y6295902D01*
X7474788Y6350643D01*
X7474791Y6350645D01*
X7479299Y6353802D01*
X7641197Y6515700D01*
X7649666Y6527794D01*
X7721985Y6631077D01*
X7772522Y6703251D01*
X7774845Y6708233D01*
X7774848Y6708238D01*
X7866960Y6905775D01*
X7866960Y6905776D01*
X7869283Y6910757D01*
X7870707Y6916069D01*
X7927118Y7126598D01*
X7927118Y7126600D01*
X7928542Y7131913D01*
X7948497Y7360000D01*
X7928542Y7588087D01*
X7915255Y7637676D01*
X7870706Y7803933D01*
X7870705Y7803935D01*
X7869283Y7809243D01*
X7830554Y7892298D01*
X7774848Y8011762D01*
X7774845Y8011767D01*
X7772522Y8016749D01*
X7697843Y8123402D01*
X7644356Y8199789D01*
X7644354Y8199792D01*
X7641197Y8204300D01*
X7479299Y8366198D01*
X7474791Y8369355D01*
X7474788Y8369357D01*
X7322247Y8476167D01*
X7291748Y8497523D01*
X7286766Y8499846D01*
X7286761Y8499849D01*
X7252542Y8515805D01*
X7199257Y8562722D01*
X7179796Y8630999D01*
X7200338Y8698959D01*
X7252542Y8744195D01*
X7286761Y8760151D01*
X7286766Y8760154D01*
X7291748Y8762477D01*
X7472227Y8888850D01*
X7474788Y8890643D01*
X7474791Y8890645D01*
X7479299Y8893802D01*
X7641197Y9055700D01*
X7648869Y9066656D01*
X7718088Y9165512D01*
X7772522Y9243251D01*
X7774845Y9248233D01*
X7774848Y9248238D01*
X7866960Y9445775D01*
X7866960Y9445776D01*
X7869283Y9450757D01*
X7875272Y9473106D01*
X7927118Y9666598D01*
X7927118Y9666600D01*
X7928542Y9671913D01*
X7948497Y9900000D01*
X7928542Y10128087D01*
X7916474Y10173124D01*
X7870706Y10343933D01*
X7870705Y10343935D01*
X7869283Y10349243D01*
X7822803Y10448920D01*
X7774848Y10551762D01*
X7774845Y10551767D01*
X7772522Y10556749D01*
X7673933Y10697548D01*
X7644356Y10739789D01*
X7644354Y10739792D01*
X7641197Y10744300D01*
X7479299Y10906198D01*
X7474791Y10909355D01*
X7474788Y10909357D01*
X7392489Y10966983D01*
X7291748Y11037523D01*
X7286766Y11039846D01*
X7286761Y11039849D01*
X7252542Y11055805D01*
X7199257Y11102722D01*
X7179796Y11170999D01*
X7200338Y11238959D01*
X7252542Y11284195D01*
X7286761Y11300151D01*
X7286766Y11300154D01*
X7291748Y11302477D01*
X7430594Y11399698D01*
X7474788Y11430643D01*
X7474791Y11430645D01*
X7479299Y11433802D01*
X7641197Y11595700D01*
X7772522Y11783251D01*
X7774845Y11788233D01*
X7774848Y11788238D01*
X7866960Y11985775D01*
X7866960Y11985776D01*
X7869283Y11990757D01*
X7877302Y12020682D01*
X7927118Y12206598D01*
X7927118Y12206600D01*
X7928542Y12211913D01*
X7948497Y12440000D01*
X7928542Y12668087D01*
X7927118Y12673402D01*
X7870706Y12883933D01*
X7870705Y12883935D01*
X7869283Y12889243D01*
X7828343Y12977040D01*
X7774848Y13091762D01*
X7774845Y13091767D01*
X7772522Y13096749D01*
X7692301Y13211316D01*
X7644356Y13279789D01*
X7644354Y13279792D01*
X7641197Y13284300D01*
X7479299Y13446198D01*
X7474791Y13449355D01*
X7474788Y13449357D01*
X7322877Y13555726D01*
X7291748Y13577523D01*
X7286766Y13579846D01*
X7286761Y13579849D01*
X7252542Y13595805D01*
X7199257Y13642722D01*
X7179796Y13710999D01*
X7200338Y13778959D01*
X7252542Y13824195D01*
X7286761Y13840151D01*
X7286766Y13840154D01*
X7291748Y13842477D01*
X7447510Y13951543D01*
X7474788Y13970643D01*
X7474791Y13970645D01*
X7479299Y13973802D01*
X7641197Y14135700D01*
X7772522Y14323251D01*
X7774845Y14328233D01*
X7774848Y14328238D01*
X7866960Y14525775D01*
X7866960Y14525776D01*
X7869283Y14530757D01*
X7890113Y14608493D01*
X7927118Y14746598D01*
X7927118Y14746600D01*
X7928542Y14751913D01*
X7948497Y14980000D01*
X7928542Y15208087D01*
X7916474Y15253124D01*
X7870706Y15423933D01*
X7870705Y15423935D01*
X7869283Y15429243D01*
X7791628Y15595776D01*
X7774848Y15631762D01*
X7774845Y15631767D01*
X7772522Y15636749D01*
X7673933Y15777548D01*
X7644356Y15819789D01*
X7644354Y15819792D01*
X7641197Y15824300D01*
X7479299Y15986198D01*
X7474788Y15989357D01*
X7470575Y15992892D01*
X7471387Y15993860D01*
X7430909Y16044494D01*
X7423595Y16115113D01*
X7455623Y16178476D01*
X7516822Y16214464D01*
X7533900Y16217520D01*
X7537351Y16217895D01*
X7552603Y16221521D01*
X7673053Y16266676D01*
X7688648Y16275214D01*
X7790723Y16351715D01*
X7803284Y16364276D01*
X7879785Y16466351D01*
X7888323Y16481946D01*
X7933477Y16602394D01*
X7937104Y16617649D01*
X7942630Y16668514D01*
X7942999Y16675328D01*
X7942999Y17247885D01*
X7938524Y17263124D01*
X7937134Y17264329D01*
X7929451Y17266000D01*
X5345115Y17266000D01*
X5329876Y17261525D01*
X5328671Y17260135D01*
X5327000Y17252452D01*
X5327000Y16675331D01*
X5327370Y16668510D01*
X5332894Y16617648D01*
X5336520Y16602396D01*
X5381675Y16481946D01*
X5390213Y16466351D01*
X5466714Y16364276D01*
X5479275Y16351715D01*
X5581350Y16275214D01*
X5596945Y16266676D01*
X5717393Y16221522D01*
X5732642Y16217896D01*
X5736095Y16217521D01*
X5738605Y16216478D01*
X5740330Y16216068D01*
X5740264Y16215789D01*
X5801658Y16190281D01*
X5842087Y16131920D01*
X5844545Y16060966D01*
X5808252Y15999946D01*
X5796759Y15990656D01*
X5795213Y15989359D01*
X5790699Y15986198D01*
X5628801Y15824300D01*
X5625644Y15819792D01*
X5625642Y15819789D01*
X5596065Y15777548D01*
X5497476Y15636749D01*
X5495153Y15631767D01*
X5495150Y15631762D01*
X5478370Y15595776D01*
X5400715Y15429243D01*
X5399293Y15423935D01*
X5399292Y15423933D01*
X5353524Y15253124D01*
X5341456Y15208087D01*
X5321501Y14980000D01*
X5341456Y14751913D01*
X5342880Y14746600D01*
X5342880Y14746598D01*
X5379886Y14608493D01*
X5400715Y14530757D01*
X5403038Y14525776D01*
X5403038Y14525775D01*
X5495150Y14328238D01*
X5495153Y14328233D01*
X5497476Y14323251D01*
X5628801Y14135700D01*
X5790699Y13973802D01*
X5795207Y13970645D01*
X5795210Y13970643D01*
X5822488Y13951543D01*
X5978250Y13842477D01*
X5983232Y13840154D01*
X5983237Y13840151D01*
X6017456Y13824195D01*
X6070741Y13777278D01*
X6090202Y13709001D01*
X6069660Y13641041D01*
X6017456Y13595805D01*
X5983237Y13579849D01*
X5983232Y13579846D01*
X5978250Y13577523D01*
X5947121Y13555726D01*
X5795210Y13449357D01*
X5795207Y13449355D01*
X5790699Y13446198D01*
X5628801Y13284300D01*
X5625644Y13279792D01*
X5625642Y13279789D01*
X5577697Y13211316D01*
X5497476Y13096749D01*
X5495153Y13091767D01*
X5495150Y13091762D01*
X5441655Y12977040D01*
X5400715Y12889243D01*
X5399293Y12883935D01*
X5399292Y12883933D01*
X5342880Y12673402D01*
X5341456Y12668087D01*
X5321501Y12440000D01*
X5341456Y12211913D01*
X5342880Y12206600D01*
X5342880Y12206598D01*
X5360085Y12142388D01*
X5358395Y12071411D01*
X5318601Y12012616D01*
X5253336Y11984668D01*
X5183323Y11996442D01*
X5149283Y12020682D01*
X-622150Y17792115D01*
X5326999Y17792115D01*
X5331474Y17776876D01*
X5332864Y17775671D01*
X5340547Y17774000D01*
X6362884Y17774000D01*
X6378123Y17778475D01*
X6379328Y17779865D01*
X6380999Y17787548D01*
X6380999Y17792115D01*
X6888999Y17792115D01*
X6893474Y17776876D01*
X6894864Y17775671D01*
X6902547Y17774000D01*
X7924883Y17774000D01*
X7940122Y17778475D01*
X7941327Y17779865D01*
X7942998Y17787548D01*
X7942998Y18364669D01*
X7942628Y18371490D01*
X7937104Y18422352D01*
X7933478Y18437604D01*
X7888323Y18558054D01*
X7879785Y18573649D01*
X7803284Y18675724D01*
X7790723Y18688285D01*
X7688648Y18764786D01*
X7673053Y18773324D01*
X7552605Y18818478D01*
X7537350Y18822105D01*
X7486485Y18827631D01*
X7479671Y18828000D01*
X6907114Y18828000D01*
X6891875Y18823525D01*
X6890670Y18822135D01*
X6888999Y18814452D01*
X6888999Y17792115D01*
X6380999Y17792115D01*
X6380999Y18809884D01*
X6376524Y18825123D01*
X6375134Y18826328D01*
X6367451Y18827999D01*
X5790330Y18827999D01*
X5783509Y18827629D01*
X5732647Y18822105D01*
X5717395Y18818479D01*
X5596945Y18773324D01*
X5581350Y18764786D01*
X5479275Y18688285D01*
X5466714Y18675724D01*
X5390213Y18573649D01*
X5381675Y18558054D01*
X5336521Y18437606D01*
X5332894Y18422351D01*
X5327368Y18371486D01*
X5326999Y18364672D01*
X5326999Y17792115D01*
X-622150Y17792115D01*
X-5831991Y23001956D01*
X-5837628Y23007974D01*
X-5877121Y23053007D01*
X-5880926Y23057346D01*
X-5907153Y23078022D01*
X-5951332Y23112850D01*
X-5953895Y23114926D01*
X-5976741Y23133927D01*
X-6022808Y23172240D01*
X-6027853Y23175065D01*
X-6029859Y23176444D01*
X-6041489Y23184216D01*
X-6043595Y23185584D01*
X-6048134Y23189162D01*
X-6127531Y23230935D01*
X-6130337Y23232459D01*
X-6208578Y23276276D01*
X-6214052Y23278134D01*
X-6216399Y23279179D01*
X-6229174Y23284668D01*
X-6231457Y23285614D01*
X-6236563Y23288300D01*
X-6242077Y23290012D01*
X-6242079Y23290013D01*
X-6322229Y23314901D01*
X-6325365Y23315920D01*
X-6354747Y23325894D01*
X-6410196Y23344716D01*
X-6415916Y23345545D01*
X-6418372Y23346135D01*
X-6431923Y23349201D01*
X-6434376Y23349723D01*
X-6439903Y23351439D01*
X-6445640Y23352118D01*
X-6445645Y23352119D01*
X-6514805Y23360304D01*
X-6528941Y23361977D01*
X-6532200Y23362406D01*
X-6556475Y23365926D01*
X-6615197Y23374441D01*
X-6615201Y23374441D01*
X-6620910Y23375269D01*
X-6704178Y23371997D01*
X-6709125Y23371900D01*
X-28245301Y23371900D01*
X-28253539Y23372170D01*
X-28319057Y23376464D01*
X-28408095Y23365925D01*
X-28411363Y23365583D01*
X-28500625Y23357381D01*
X-28506182Y23355814D01*
X-28508582Y23355369D01*
X-28522333Y23352633D01*
X-28524759Y23352117D01*
X-28530499Y23351438D01*
X-28616145Y23324845D01*
X-28619277Y23323917D01*
X-28662219Y23311807D01*
X-28699990Y23301154D01*
X-28699992Y23301153D01*
X-28705549Y23299586D01*
X-28710728Y23297032D01*
X-28713070Y23296133D01*
X-28726001Y23290974D01*
X-28728318Y23290014D01*
X-28733839Y23288300D01*
X-28738951Y23285611D01*
X-28738957Y23285608D01*
X-28813206Y23246544D01*
X-28816131Y23245053D01*
X-28840903Y23232837D01*
X-28891331Y23207969D01*
X-28891335Y23207967D01*
X-28896509Y23205415D01*
X-28901133Y23201962D01*
X-28903287Y23200642D01*
X-28915076Y23193203D01*
X-28917155Y23191853D01*
X-28922268Y23189163D01*
X-28992682Y23133652D01*
X-28995252Y23131681D01*
X-29062482Y23081479D01*
X-29062489Y23081472D01*
X-29067110Y23078022D01*
X-29090233Y23053007D01*
X-29123684Y23016820D01*
X-29127114Y23013253D01*
X-31402806Y20737561D01*
X-31465118Y20703535D01*
X-31535933Y20708600D01*
X-31592769Y20751147D01*
X-31617580Y20817667D01*
X-31617901Y20826656D01*
X-31617901Y24920000D01*
X-7155354Y24920000D01*
X-7135979Y24698537D01*
X-7078441Y24483804D01*
X-7076119Y24478823D01*
X-7076118Y24478822D01*
X-6986815Y24287311D01*
X-6986812Y24287306D01*
X-6984489Y24282324D01*
X-6856978Y24100219D01*
X-6699782Y23943023D01*
X-6695274Y23939866D01*
X-6695271Y23939864D01*
X-6619506Y23886813D01*
X-6517678Y23815512D01*
X-6512696Y23813189D01*
X-6512691Y23813186D01*
X-6321179Y23723883D01*
X-6316197Y23721560D01*
X-6310889Y23720138D01*
X-6310887Y23720137D01*
X-6245052Y23702497D01*
X-6101464Y23664022D01*
X-5880001Y23644647D01*
X-5658538Y23664022D01*
X-5514950Y23702497D01*
X-5449115Y23720137D01*
X-5449113Y23720138D01*
X-5443805Y23721560D01*
X-5438823Y23723883D01*
X-5247311Y23813186D01*
X-5247306Y23813189D01*
X-5242324Y23815512D01*
X-5140496Y23886813D01*
X-5064731Y23939864D01*
X-5064728Y23939866D01*
X-5060220Y23943023D01*
X-4903024Y24100219D01*
X-4775513Y24282324D01*
X-4773190Y24287306D01*
X-4773187Y24287311D01*
X-4683884Y24478822D01*
X-4683883Y24478823D01*
X-4681561Y24483804D01*
X-4624023Y24698537D01*
X-4604648Y24920000D01*
X-4624023Y25141463D01*
X-4675489Y25333537D01*
X-4680138Y25350886D01*
X-4680139Y25350888D01*
X-4681561Y25356196D01*
X-4711130Y25419607D01*
X-4773187Y25552689D01*
X-4773190Y25552694D01*
X-4775513Y25557676D01*
X-4890674Y25722144D01*
X-4899865Y25735270D01*
X-4899867Y25735273D01*
X-4903024Y25739781D01*
X-5060220Y25896977D01*
X-5064728Y25900134D01*
X-5064731Y25900136D01*
X-5187195Y25985886D01*
X-5242324Y26024488D01*
X-5247306Y26026811D01*
X-5247311Y26026814D01*
X-5352374Y26075805D01*
X-5405659Y26122722D01*
X-5425120Y26190999D01*
X-5404578Y26258959D01*
X-5352374Y26304195D01*
X-5247311Y26353186D01*
X-5247306Y26353189D01*
X-5242324Y26355512D01*
X-5112987Y26446075D01*
X-5064731Y26479864D01*
X-5064728Y26479866D01*
X-5060220Y26483023D01*
X-4903024Y26640219D01*
X-4889531Y26659488D01*
X-4778670Y26817815D01*
X-4778669Y26817817D01*
X-4775513Y26822324D01*
X-4773190Y26827306D01*
X-4773187Y26827311D01*
X-4683884Y27018822D01*
X-4683883Y27018823D01*
X-4681561Y27023804D01*
X-4624023Y27238537D01*
X-4604648Y27460000D01*
X-4624023Y27681463D01*
X-4675489Y27873537D01*
X-4680138Y27890886D01*
X-4680139Y27890888D01*
X-4681561Y27896196D01*
X-4714444Y27966714D01*
X-4773187Y28092689D01*
X-4773190Y28092694D01*
X-4775513Y28097676D01*
X-4781160Y28105741D01*
X-4899865Y28275270D01*
X-4899867Y28275273D01*
X-4903024Y28279781D01*
X-5060220Y28436977D01*
X-5064728Y28440134D01*
X-5064731Y28440136D01*
X-5174102Y28516718D01*
X-5242324Y28564488D01*
X-5247306Y28566811D01*
X-5247311Y28566814D01*
X-5352374Y28615805D01*
X-5405659Y28662722D01*
X-5425120Y28730999D01*
X-5404578Y28798959D01*
X-5352374Y28844195D01*
X-5247311Y28893186D01*
X-5247306Y28893189D01*
X-5242324Y28895512D01*
X-5113674Y28985594D01*
X-5064731Y29019864D01*
X-5064728Y29019866D01*
X-5060220Y29023023D01*
X-4903024Y29180219D01*
X-4899175Y29185715D01*
X-4778670Y29357815D01*
X-4778669Y29357817D01*
X-4775513Y29362324D01*
X-4773190Y29367306D01*
X-4773187Y29367311D01*
X-4683884Y29558822D01*
X-4683883Y29558823D01*
X-4681561Y29563804D01*
X-4679941Y29569848D01*
X-4627681Y29764885D01*
X-4624023Y29778537D01*
X-4604648Y30000000D01*
X-4624023Y30221463D01*
X-4665026Y30374488D01*
X-4680138Y30430886D01*
X-4680139Y30430888D01*
X-4681561Y30436196D01*
X-4695513Y30466117D01*
X-4773187Y30632689D01*
X-4773190Y30632694D01*
X-4775513Y30637676D01*
X-4778670Y30642185D01*
X-4899865Y30815270D01*
X-4899867Y30815273D01*
X-4903024Y30819781D01*
X-5060220Y30976977D01*
X-5064728Y30980134D01*
X-5064731Y30980136D01*
X-5151351Y31040788D01*
X-5195679Y31096245D01*
X-5202988Y31166865D01*
X-5170957Y31230225D01*
X-5109756Y31266210D01*
X-5079080Y31270001D01*
X-5073332Y31270001D01*
X-5066511Y31270371D01*
X-5015649Y31275895D01*
X-5000397Y31279521D01*
X-4879947Y31324676D01*
X-4864352Y31333214D01*
X-4762277Y31409715D01*
X-4749716Y31422276D01*
X-4673215Y31524351D01*
X-4664677Y31539946D01*
X-4619523Y31660394D01*
X-4615896Y31675649D01*
X-4610370Y31726514D01*
X-4610001Y31733328D01*
X-4610001Y32267885D01*
X-4614476Y32283124D01*
X-4615866Y32284329D01*
X-4623549Y32286000D01*
X-7131885Y32286000D01*
X-7147124Y32281525D01*
X-7148329Y32280135D01*
X-7150000Y32272452D01*
X-7150000Y31733331D01*
X-7149630Y31726510D01*
X-7144106Y31675648D01*
X-7140480Y31660396D01*
X-7095325Y31539946D01*
X-7086787Y31524351D01*
X-7010286Y31422276D01*
X-6997725Y31409715D01*
X-6895650Y31333214D01*
X-6880055Y31324676D01*
X-6759607Y31279522D01*
X-6744352Y31275895D01*
X-6693487Y31270369D01*
X-6686673Y31270000D01*
X-6680923Y31270000D01*
X-6612802Y31249998D01*
X-6566309Y31196342D01*
X-6556205Y31126068D01*
X-6585699Y31061488D01*
X-6608652Y31040787D01*
X-6695271Y30980136D01*
X-6695274Y30980134D01*
X-6699782Y30976977D01*
X-6856978Y30819781D01*
X-6860135Y30815273D01*
X-6860137Y30815270D01*
X-6981332Y30642185D01*
X-6984489Y30637676D01*
X-6986812Y30632694D01*
X-6986815Y30632689D01*
X-7064489Y30466117D01*
X-7078441Y30436196D01*
X-7079863Y30430888D01*
X-7079864Y30430886D01*
X-7094976Y30374488D01*
X-7135979Y30221463D01*
X-7155354Y30000000D01*
X-7135979Y29778537D01*
X-7132321Y29764885D01*
X-7080060Y29569848D01*
X-7078441Y29563804D01*
X-7076119Y29558823D01*
X-7076118Y29558822D01*
X-6986815Y29367311D01*
X-6986812Y29367306D01*
X-6984489Y29362324D01*
X-6981333Y29357817D01*
X-6981332Y29357815D01*
X-6860826Y29185715D01*
X-6856978Y29180219D01*
X-6699782Y29023023D01*
X-6695274Y29019866D01*
X-6695271Y29019864D01*
X-6646328Y28985594D01*
X-6517678Y28895512D01*
X-6512696Y28893189D01*
X-6512691Y28893186D01*
X-6407628Y28844195D01*
X-6354343Y28797278D01*
X-6334882Y28729001D01*
X-6355424Y28661041D01*
X-6407628Y28615805D01*
X-6512690Y28566814D01*
X-6512695Y28566811D01*
X-6517677Y28564488D01*
X-6522184Y28561332D01*
X-6522186Y28561331D01*
X-6695271Y28440136D01*
X-6695274Y28440134D01*
X-6699782Y28436977D01*
X-6856978Y28279781D01*
X-6860135Y28275273D01*
X-6860137Y28275270D01*
X-6978842Y28105741D01*
X-6984489Y28097676D01*
X-6986812Y28092694D01*
X-6986815Y28092689D01*
X-7045558Y27966714D01*
X-7078441Y27896196D01*
X-7079863Y27890888D01*
X-7079864Y27890886D01*
X-7084513Y27873537D01*
X-7135979Y27681463D01*
X-7155354Y27460000D01*
X-7135979Y27238537D01*
X-7078441Y27023804D01*
X-7076119Y27018823D01*
X-7076118Y27018822D01*
X-6986815Y26827311D01*
X-6986812Y26827306D01*
X-6984489Y26822324D01*
X-6981333Y26817817D01*
X-6981332Y26817815D01*
X-6870470Y26659488D01*
X-6856978Y26640219D01*
X-6699782Y26483023D01*
X-6695274Y26479866D01*
X-6695271Y26479864D01*
X-6647015Y26446075D01*
X-6517678Y26355512D01*
X-6512696Y26353189D01*
X-6512691Y26353186D01*
X-6407628Y26304195D01*
X-6354343Y26257278D01*
X-6334882Y26189001D01*
X-6355424Y26121041D01*
X-6407628Y26075805D01*
X-6512690Y26026814D01*
X-6512695Y26026811D01*
X-6517677Y26024488D01*
X-6522184Y26021332D01*
X-6522186Y26021331D01*
X-6695271Y25900136D01*
X-6695274Y25900134D01*
X-6699782Y25896977D01*
X-6856978Y25739781D01*
X-6860135Y25735273D01*
X-6860137Y25735270D01*
X-6869328Y25722144D01*
X-6984489Y25557676D01*
X-6986812Y25552694D01*
X-6986815Y25552689D01*
X-7048872Y25419607D01*
X-7078441Y25356196D01*
X-7079863Y25350888D01*
X-7079864Y25350886D01*
X-7084513Y25333537D01*
X-7135979Y25141463D01*
X-7155354Y24920000D01*
X-31617901Y24920000D01*
X-31617901Y29270000D01*
X-25535354Y29270000D01*
X-25515979Y29048537D01*
X-25499113Y28985594D01*
X-25474352Y28893186D01*
X-25458441Y28833804D01*
X-25456119Y28828823D01*
X-25456118Y28828822D01*
X-25366815Y28637311D01*
X-25366812Y28637306D01*
X-25364489Y28632324D01*
X-25361333Y28627817D01*
X-25361332Y28627815D01*
X-25278686Y28509785D01*
X-25236978Y28450219D01*
X-25079782Y28293023D01*
X-25075274Y28289866D01*
X-25075271Y28289864D01*
X-24999506Y28236813D01*
X-24897678Y28165512D01*
X-24892696Y28163189D01*
X-24892691Y28163186D01*
X-24733458Y28088935D01*
X-24696197Y28071560D01*
X-24690889Y28070138D01*
X-24690887Y28070137D01*
X-24625052Y28052497D01*
X-24481464Y28014022D01*
X-24260001Y27994647D01*
X-24038538Y28014022D01*
X-23894950Y28052497D01*
X-23829115Y28070137D01*
X-23829113Y28070138D01*
X-23823805Y28071560D01*
X-23786544Y28088935D01*
X-23627311Y28163186D01*
X-23627306Y28163189D01*
X-23622324Y28165512D01*
X-23520496Y28236813D01*
X-23444731Y28289864D01*
X-23444728Y28289866D01*
X-23440220Y28293023D01*
X-23283024Y28450219D01*
X-23241315Y28509785D01*
X-23158670Y28627815D01*
X-23158669Y28627817D01*
X-23155513Y28632324D01*
X-23153190Y28637306D01*
X-23153187Y28637311D01*
X-23104196Y28742373D01*
X-23057278Y28795658D01*
X-22989001Y28815119D01*
X-22921041Y28794577D01*
X-22875806Y28742373D01*
X-22826815Y28637311D01*
X-22826812Y28637306D01*
X-22824489Y28632324D01*
X-22821333Y28627817D01*
X-22821332Y28627815D01*
X-22738686Y28509785D01*
X-22696978Y28450219D01*
X-22539782Y28293023D01*
X-22535274Y28289866D01*
X-22535271Y28289864D01*
X-22459506Y28236813D01*
X-22357678Y28165512D01*
X-22352696Y28163189D01*
X-22352691Y28163186D01*
X-22193458Y28088935D01*
X-22156197Y28071560D01*
X-22150889Y28070138D01*
X-22150887Y28070137D01*
X-22085052Y28052497D01*
X-21941464Y28014022D01*
X-21720001Y27994647D01*
X-21498538Y28014022D01*
X-21354950Y28052497D01*
X-21289115Y28070137D01*
X-21289113Y28070138D01*
X-21283805Y28071560D01*
X-21246544Y28088935D01*
X-21087311Y28163186D01*
X-21087306Y28163189D01*
X-21082324Y28165512D01*
X-20980496Y28236813D01*
X-20904731Y28289864D01*
X-20904728Y28289866D01*
X-20900220Y28293023D01*
X-20743024Y28450219D01*
X-20701315Y28509785D01*
X-20618670Y28627815D01*
X-20618669Y28627817D01*
X-20615513Y28632324D01*
X-20613190Y28637306D01*
X-20613187Y28637311D01*
X-20523884Y28828822D01*
X-20523883Y28828823D01*
X-20521561Y28833804D01*
X-20505649Y28893186D01*
X-20480889Y28985594D01*
X-20464023Y29048537D01*
X-20444648Y29270000D01*
X-20464023Y29491463D01*
X-20507191Y29652566D01*
X-20520138Y29700886D01*
X-20520139Y29700888D01*
X-20521561Y29706196D01*
X-20573513Y29817608D01*
X-20613187Y29902689D01*
X-20613190Y29902694D01*
X-20615513Y29907676D01*
X-20618670Y29912185D01*
X-20739865Y30085270D01*
X-20739867Y30085273D01*
X-20743024Y30089781D01*
X-20900220Y30246977D01*
X-20904728Y30250134D01*
X-20904731Y30250136D01*
X-21001148Y30317648D01*
X-21082324Y30374488D01*
X-21087306Y30376811D01*
X-21087311Y30376814D01*
X-21278823Y30466117D01*
X-21278824Y30466118D01*
X-21283805Y30468440D01*
X-21289113Y30469862D01*
X-21289115Y30469863D01*
X-21379606Y30494110D01*
X-21498538Y30525978D01*
X-21720001Y30545353D01*
X-21941464Y30525978D01*
X-22060396Y30494110D01*
X-22150887Y30469863D01*
X-22150889Y30469862D01*
X-22156197Y30468440D01*
X-22161178Y30466118D01*
X-22161179Y30466117D01*
X-22352690Y30376814D01*
X-22352695Y30376811D01*
X-22357677Y30374488D01*
X-22362184Y30371332D01*
X-22362186Y30371331D01*
X-22535271Y30250136D01*
X-22535274Y30250134D01*
X-22539782Y30246977D01*
X-22696978Y30089781D01*
X-22700135Y30085273D01*
X-22700137Y30085270D01*
X-22821332Y29912185D01*
X-22824489Y29907676D01*
X-22826812Y29902694D01*
X-22826815Y29902689D01*
X-22875806Y29797627D01*
X-22922724Y29744342D01*
X-22991001Y29724881D01*
X-23058961Y29745423D01*
X-23104196Y29797627D01*
X-23153187Y29902689D01*
X-23153190Y29902694D01*
X-23155513Y29907676D01*
X-23158670Y29912185D01*
X-23279865Y30085270D01*
X-23279867Y30085273D01*
X-23283024Y30089781D01*
X-23440220Y30246977D01*
X-23444728Y30250134D01*
X-23444731Y30250136D01*
X-23541148Y30317648D01*
X-23622324Y30374488D01*
X-23627306Y30376811D01*
X-23627311Y30376814D01*
X-23818823Y30466117D01*
X-23818824Y30466118D01*
X-23823805Y30468440D01*
X-23829113Y30469862D01*
X-23829115Y30469863D01*
X-23919606Y30494110D01*
X-24038538Y30525978D01*
X-24260001Y30545353D01*
X-24481464Y30525978D01*
X-24600396Y30494110D01*
X-24690887Y30469863D01*
X-24690889Y30469862D01*
X-24696197Y30468440D01*
X-24701178Y30466118D01*
X-24701179Y30466117D01*
X-24892690Y30376814D01*
X-24892695Y30376811D01*
X-24897677Y30374488D01*
X-24902184Y30371332D01*
X-24902186Y30371331D01*
X-25075271Y30250136D01*
X-25075274Y30250134D01*
X-25079782Y30246977D01*
X-25236978Y30089781D01*
X-25240135Y30085273D01*
X-25240137Y30085270D01*
X-25361332Y29912185D01*
X-25364489Y29907676D01*
X-25366812Y29902694D01*
X-25366815Y29902689D01*
X-25406489Y29817608D01*
X-25458441Y29706196D01*
X-25459863Y29700888D01*
X-25459864Y29700886D01*
X-25472811Y29652566D01*
X-25515979Y29491463D01*
X-25535354Y29270000D01*
X-31617901Y29270000D01*
X-31617901Y30514044D01*
X-31597899Y30582165D01*
X-31580996Y30603139D01*
X-27104135Y35080000D01*
X-7155354Y35080000D01*
X-7135979Y34858537D01*
X-7134555Y34853224D01*
X-7085758Y34671113D01*
X-7078441Y34643804D01*
X-7076119Y34638823D01*
X-7076118Y34638822D01*
X-6986815Y34447311D01*
X-6986812Y34447306D01*
X-6984489Y34442324D01*
X-6981333Y34437817D01*
X-6981332Y34437815D01*
X-6879738Y34292724D01*
X-6856978Y34260219D01*
X-6699782Y34103023D01*
X-6695274Y34099866D01*
X-6695271Y34099864D01*
X-6608651Y34039212D01*
X-6564323Y33983755D01*
X-6557014Y33913135D01*
X-6589045Y33849775D01*
X-6650246Y33813790D01*
X-6680922Y33809999D01*
X-6686670Y33809999D01*
X-6693491Y33809629D01*
X-6744353Y33804105D01*
X-6759605Y33800479D01*
X-6880055Y33755324D01*
X-6895650Y33746786D01*
X-6997725Y33670285D01*
X-7010286Y33657724D01*
X-7086787Y33555649D01*
X-7095325Y33540054D01*
X-7140479Y33419606D01*
X-7144106Y33404351D01*
X-7149632Y33353486D01*
X-7150001Y33346672D01*
X-7150001Y32812115D01*
X-7145526Y32796876D01*
X-7144136Y32795671D01*
X-7136453Y32794000D01*
X-4628117Y32794000D01*
X-4612878Y32798475D01*
X-4611673Y32799865D01*
X-4610002Y32807548D01*
X-4610002Y33346669D01*
X-4610372Y33353490D01*
X-4615896Y33404352D01*
X-4619522Y33419604D01*
X-4664677Y33540054D01*
X-4673215Y33555649D01*
X-4749716Y33657724D01*
X-4762277Y33670285D01*
X-4864352Y33746786D01*
X-4879947Y33755324D01*
X-5000395Y33800478D01*
X-5015650Y33804105D01*
X-5066515Y33809631D01*
X-5073329Y33810000D01*
X-5079079Y33810000D01*
X-5147200Y33830002D01*
X-5193693Y33883658D01*
X-5203797Y33953932D01*
X-5174303Y34018512D01*
X-5151350Y34039213D01*
X-5064731Y34099864D01*
X-5064728Y34099866D01*
X-5060220Y34103023D01*
X-4903024Y34260219D01*
X-4880263Y34292724D01*
X-4778670Y34437815D01*
X-4778669Y34437817D01*
X-4775513Y34442324D01*
X-4773190Y34447306D01*
X-4773187Y34447311D01*
X-4683884Y34638822D01*
X-4683883Y34638823D01*
X-4681561Y34643804D01*
X-4674243Y34671113D01*
X-4625447Y34853224D01*
X-4624023Y34858537D01*
X-4604648Y35080000D01*
X-4624023Y35301463D01*
X-4681561Y35516196D01*
X-4720229Y35599120D01*
X-4773187Y35712689D01*
X-4773190Y35712694D01*
X-4775513Y35717676D01*
X-4798882Y35751051D01*
X-4899865Y35895270D01*
X-4899867Y35895273D01*
X-4903024Y35899781D01*
X-5060220Y36056977D01*
X-5064728Y36060134D01*
X-5064731Y36060136D01*
X-5215224Y36165512D01*
X-5242324Y36184488D01*
X-5247306Y36186811D01*
X-5247311Y36186814D01*
X-5438823Y36276117D01*
X-5438824Y36276118D01*
X-5443805Y36278440D01*
X-5449113Y36279862D01*
X-5449115Y36279863D01*
X-5542278Y36304826D01*
X-5658538Y36335978D01*
X-5880001Y36355353D01*
X-6101464Y36335978D01*
X-6217724Y36304826D01*
X-6310887Y36279863D01*
X-6310889Y36279862D01*
X-6316197Y36278440D01*
X-6321178Y36276118D01*
X-6321179Y36276117D01*
X-6512690Y36186814D01*
X-6512695Y36186811D01*
X-6517677Y36184488D01*
X-6522184Y36181332D01*
X-6522186Y36181331D01*
X-6695271Y36060136D01*
X-6695274Y36060134D01*
X-6699782Y36056977D01*
X-6856978Y35899781D01*
X-6860135Y35895273D01*
X-6860137Y35895270D01*
X-6961120Y35751051D01*
X-6984489Y35717676D01*
X-6986812Y35712694D01*
X-6986815Y35712689D01*
X-7039773Y35599120D01*
X-7078441Y35516196D01*
X-7135979Y35301463D01*
X-7155354Y35080000D01*
X-27104135Y35080000D01*
X-25547815Y36636320D01*
X-25485503Y36670346D01*
X-25414688Y36665281D01*
X-25355507Y36619496D01*
X-25240140Y36454735D01*
X-25236978Y36450219D01*
X-25079782Y36293023D01*
X-25075274Y36289866D01*
X-25075271Y36289864D01*
X-24999902Y36237090D01*
X-24897678Y36165512D01*
X-24892696Y36163189D01*
X-24892691Y36163186D01*
X-24752122Y36097638D01*
X-24696197Y36071560D01*
X-24690889Y36070138D01*
X-24690887Y36070137D01*
X-24645535Y36057985D01*
X-24481464Y36014022D01*
X-24260001Y35994647D01*
X-24038538Y36014022D01*
X-23874467Y36057985D01*
X-23829115Y36070137D01*
X-23829113Y36070138D01*
X-23823805Y36071560D01*
X-23767880Y36097638D01*
X-23627311Y36163186D01*
X-23627306Y36163189D01*
X-23622324Y36165512D01*
X-23520100Y36237090D01*
X-23444731Y36289864D01*
X-23444728Y36289866D01*
X-23440220Y36293023D01*
X-23283024Y36450219D01*
X-23279865Y36454730D01*
X-23279861Y36454735D01*
X-23219213Y36541350D01*
X-23163756Y36585679D01*
X-23093137Y36592988D01*
X-23029776Y36560958D01*
X-22993791Y36499756D01*
X-22990000Y36469080D01*
X-22990000Y36463331D01*
X-22989630Y36456510D01*
X-22984106Y36405648D01*
X-22980480Y36390396D01*
X-22935325Y36269946D01*
X-22926787Y36254351D01*
X-22850286Y36152276D01*
X-22837725Y36139715D01*
X-22735650Y36063214D01*
X-22720055Y36054676D01*
X-22599607Y36009522D01*
X-22584352Y36005895D01*
X-22533487Y36000369D01*
X-22526673Y36000000D01*
X-21992116Y36000000D01*
X-21976877Y36004475D01*
X-21975672Y36005865D01*
X-21974001Y36013548D01*
X-21974001Y36018116D01*
X-21466001Y36018116D01*
X-21461526Y36002877D01*
X-21460136Y36001672D01*
X-21452453Y36000001D01*
X-20913332Y36000001D01*
X-20906511Y36000371D01*
X-20855649Y36005895D01*
X-20840397Y36009521D01*
X-20719947Y36054676D01*
X-20704352Y36063214D01*
X-20602277Y36139715D01*
X-20589716Y36152276D01*
X-20513215Y36254351D01*
X-20504677Y36269946D01*
X-20459523Y36390394D01*
X-20455896Y36405649D01*
X-20450370Y36456514D01*
X-20450001Y36463328D01*
X-20450001Y36997885D01*
X-20454476Y37013124D01*
X-20455866Y37014329D01*
X-20463549Y37016000D01*
X-21447886Y37016000D01*
X-21463125Y37011525D01*
X-21464330Y37010135D01*
X-21466001Y37002452D01*
X-21466001Y36018116D01*
X-21974001Y36018116D01*
X-21974001Y37542115D01*
X-21466001Y37542115D01*
X-21461526Y37526876D01*
X-21460136Y37525671D01*
X-21452453Y37524000D01*
X-20468117Y37524000D01*
X-20452878Y37528475D01*
X-20451673Y37529865D01*
X-20450002Y37537548D01*
X-20450002Y38076669D01*
X-20450372Y38083490D01*
X-20455896Y38134352D01*
X-20459522Y38149604D01*
X-20504677Y38270054D01*
X-20513215Y38285649D01*
X-20589716Y38387724D01*
X-20602277Y38400285D01*
X-20704352Y38476786D01*
X-20719947Y38485324D01*
X-20840395Y38530478D01*
X-20855650Y38534105D01*
X-20906515Y38539631D01*
X-20913329Y38540000D01*
X-21447886Y38540000D01*
X-21463125Y38535525D01*
X-21464330Y38534135D01*
X-21466001Y38526452D01*
X-21466001Y37542115D01*
X-21974001Y37542115D01*
X-21974001Y38521884D01*
X-21978476Y38537123D01*
X-21979866Y38538328D01*
X-21987549Y38539999D01*
X-22526670Y38539999D01*
X-22533491Y38539629D01*
X-22584353Y38534105D01*
X-22599605Y38530479D01*
X-22720055Y38485324D01*
X-22735650Y38476786D01*
X-22837725Y38400285D01*
X-22850286Y38387724D01*
X-22926787Y38285649D01*
X-22935325Y38270054D01*
X-22980479Y38149606D01*
X-22984106Y38134351D01*
X-22989632Y38083486D01*
X-22990001Y38076672D01*
X-22990001Y38070922D01*
X-23010003Y38002801D01*
X-23063659Y37956308D01*
X-23133933Y37946204D01*
X-23198513Y37975698D01*
X-23219214Y37998651D01*
X-23279865Y38085270D01*
X-23279867Y38085273D01*
X-23283024Y38089781D01*
X-23440220Y38246977D01*
X-23444728Y38250134D01*
X-23444731Y38250136D01*
X-23544522Y38320010D01*
X-23609498Y38365507D01*
X-23653825Y38420963D01*
X-23661134Y38491582D01*
X-23626321Y38557814D01*
X-22162912Y40021223D01*
X-16224224Y40021223D01*
X-16214927Y40009207D01*
X-16171932Y39979102D01*
X-16162446Y39973624D01*
X-15971008Y39884355D01*
X-15960716Y39880609D01*
X-15756692Y39825941D01*
X-15745897Y39824038D01*
X-15535476Y39805628D01*
X-15524526Y39805628D01*
X-15314105Y39824038D01*
X-15303310Y39825941D01*
X-15099286Y39880609D01*
X-15088994Y39884355D01*
X-14897556Y39973624D01*
X-14888070Y39979102D01*
X-14844237Y40009793D01*
X-14835862Y40020271D01*
X-14842930Y40033719D01*
X-15517189Y40707978D01*
X-15531133Y40715592D01*
X-15532966Y40715461D01*
X-15539581Y40711210D01*
X-16217794Y40032997D01*
X-16224224Y40021223D01*
X-22162912Y40021223D01*
X-20673640Y41510495D01*
X-20611328Y41544521D01*
X-20584545Y41547400D01*
X-16883769Y41547400D01*
X-16815648Y41527398D01*
G37*
%TD.AperFunction*%
%TD*%
M02*
