M48
; DRILL file {KiCad (6.0.5)} date Thu Aug  4 01:21:26 2022
; FORMAT={2:4/ absolute / inch / suppress leading zeros}
; #@! TF.CreationDate,2022-08-04T01:21:26+09:00
; #@! TF.GenerationSoftware,Kicad,Pcbnew,(6.0.5)
; #@! TF.FileFunction,MixedPlating,1,2
FMAT,2
INCH,TZ
; #@! TA.AperFunction,Plated,PTH,ViaDrill
T1C0.0157
; #@! TA.AperFunction,Plated,PTH,ComponentDrill
T2C0.0300
; #@! TA.AperFunction,Plated,PTH,ComponentDrill
T3C0.0315
; #@! TA.AperFunction,Plated,PTH,ComponentDrill
T4C0.0394
; #@! TA.AperFunction,Plated,PTH,ComponentDrill
T5C0.0669
; #@! TA.AperFunction,NonPlated,NPTH,ComponentDrill
T6C0.1260
%
G90
G05
T1
X-16400Y9000
X-15992Y2118
X-14400Y-11800
X-8830Y-604
X-7054Y10326
X-6387Y10920
X-5653Y15283
X-3792Y-7789
X-1864Y8511
X-1800Y-10341
X-710Y-8754
X200Y16000
X607Y8066
X1000Y-2600
X3400Y18200
X6200Y-5400
X7653Y2280
X9200Y-16400
X14400Y7000
X14400Y-12200
X17717Y787
T2
X-11433Y14272
X-11433Y12402
X-11433Y10630
X-11433Y8858
X-10433Y14272
X-10433Y12402
X-10433Y10630
X-10433Y8858
X-9433Y14272
X-9433Y12402
X-9433Y10630
X-9433Y8858
X-7791Y12894
X-7791Y11516
X-7791Y10138
X-5791Y12894
X-5791Y11516
X-5791Y10138
X-4402Y-11362
X-3402Y-11362
X-3374Y9579
X-2402Y-11362
X-2374Y9579
X-1402Y-11362
X-1374Y9579
X-402Y-11362
X-374Y9579
X598Y-11362
X626Y9579
X1598Y-11362
X1626Y9579
X2598Y-11362
X3598Y-11362
X4065Y12970
X4065Y9470
X4598Y-11362
X5065Y12970
X5065Y9470
X5768Y3280
X5768Y2280
X5768Y1280
X5768Y280
X5768Y-720
X6065Y12970
X6065Y9470
X7047Y-9614
X7047Y-10614
X7047Y-11614
X7047Y-12614
X7047Y-13614
X7065Y12970
X7065Y9470
X10039Y14583
X10039Y13583
X10039Y12583
T3
X-17823Y4224
X-17823Y1567
X-17823Y-992
X-17823Y-3551
X-17823Y-6094
X-16823Y4224
X-16823Y1567
X-16823Y-992
X-16823Y-3551
X-16823Y-6094
X-7783Y17126
X-7783Y15748
X-7783Y14370
X-6783Y17126
X-6783Y15748
X-6783Y14370
X-4937Y15354
X-4437Y17429
X-3937Y15354
X-3785Y6898
X-3785Y5898
X-3785Y4898
X-3785Y3898
X-3785Y2898
X-3785Y1898
X-3785Y898
X-3785Y-102
X-3785Y-1102
X-3785Y-2102
X-3785Y-3102
X-3785Y-4102
X-3785Y-5102
X-3785Y-6102
X-3437Y17429
X-2937Y15354
X2215Y6898
X2215Y5898
X2215Y4898
X2215Y3898
X2215Y2898
X2215Y1898
X2215Y898
X2215Y-102
X2215Y-1102
X2215Y-2102
X2215Y-3102
X2215Y-4102
X2215Y-5102
X2215Y-6102
X3173Y16445
X3173Y15445
X5626Y16445
X5626Y15445
X8087Y16445
X8087Y15445
X14161Y3378
X14161Y2378
X14161Y1378
X14161Y378
X14161Y-622
T4
X-12372Y5246
X-12372Y4246
X-12372Y3246
X-12372Y2246
X-12372Y1246
X-12372Y246
X-12372Y-754
X-12372Y-1754
X-12372Y-2754
X-12372Y-3754
X-12372Y-4754
X-12372Y-5754
X-12372Y-6754
X-12372Y-7754
X-12372Y-8754
X-6372Y5246
X-6372Y4246
X-6372Y3246
X-6372Y2246
X-6372Y1246
X-6372Y246
X-6372Y-754
X-6372Y-1754
X-6372Y-2754
X-6372Y-3754
X-6372Y-4754
X-6372Y-5754
X-6372Y-6754
X-6372Y-7754
X-6372Y-8754
X-984Y5886
X-984Y4886
X-984Y3886
X-984Y2886
X-984Y1886
X-984Y886
X-984Y-114
X-984Y-1114
X-984Y-2114
X-984Y-3114
X-984Y-4114
T5
X17754Y3953
X17754Y1953
X17799Y-673
X17799Y-2673
T6
X-15350Y-8661
X19Y17714
X15173Y-9164
T0
M30
