%TF.GenerationSoftware,KiCad,Pcbnew,(6.0.5)*%
%TF.CreationDate,2022-08-04T01:21:20+09:00*%
%TF.ProjectId,sc11bbm,73633131-6262-46d2-9e6b-696361645f70,rev?*%
%TF.SameCoordinates,PXca2b5f1PY459e440*%
%TF.FileFunction,Legend,Top*%
%TF.FilePolarity,Positive*%
%FSLAX46Y46*%
G04 Gerber Fmt 4.6, Leading zero omitted, Abs format (unit mm)*
G04 Created by KiCad (PCBNEW (6.0.5)) date 2022-08-04 01:21:20*
%MOMM*%
%LPD*%
G01*
G04 APERTURE LIST*
%ADD10C,0.150000*%
%ADD11C,0.120000*%
%ADD12C,0.010000*%
G04 APERTURE END LIST*
D10*
X-27416667Y-39178571D02*
X-27273810Y-39226190D01*
X-27226191Y-39273809D01*
X-27178572Y-39369047D01*
X-27178572Y-39511904D01*
X-27226191Y-39607142D01*
X-27273810Y-39654761D01*
X-27369048Y-39702380D01*
X-27750000Y-39702380D01*
X-27750000Y-38702380D01*
X-27416667Y-38702380D01*
X-27321429Y-38750000D01*
X-27273810Y-38797619D01*
X-27226191Y-38892857D01*
X-27226191Y-38988095D01*
X-27273810Y-39083333D01*
X-27321429Y-39130952D01*
X-27416667Y-39178571D01*
X-27750000Y-39178571D01*
X-26607143Y-39702380D02*
X-26702381Y-39654761D01*
X-26750000Y-39607142D01*
X-26797620Y-39511904D01*
X-26797620Y-39226190D01*
X-26750000Y-39130952D01*
X-26702381Y-39083333D01*
X-26607143Y-39035714D01*
X-26464286Y-39035714D01*
X-26369048Y-39083333D01*
X-26321429Y-39130952D01*
X-26273810Y-39226190D01*
X-26273810Y-39511904D01*
X-26321429Y-39607142D01*
X-26369048Y-39654761D01*
X-26464286Y-39702380D01*
X-26607143Y-39702380D01*
X-25416667Y-39702380D02*
X-25416667Y-39178571D01*
X-25464286Y-39083333D01*
X-25559524Y-39035714D01*
X-25750000Y-39035714D01*
X-25845239Y-39083333D01*
X-25416667Y-39654761D02*
X-25511905Y-39702380D01*
X-25750000Y-39702380D01*
X-25845239Y-39654761D01*
X-25892858Y-39559523D01*
X-25892858Y-39464285D01*
X-25845239Y-39369047D01*
X-25750000Y-39321428D01*
X-25511905Y-39321428D01*
X-25416667Y-39273809D01*
X-24940477Y-39702380D02*
X-24940477Y-39035714D01*
X-24940477Y-39226190D02*
X-24892858Y-39130952D01*
X-24845239Y-39083333D01*
X-24750000Y-39035714D01*
X-24654762Y-39035714D01*
X-23892858Y-39702380D02*
X-23892858Y-38702380D01*
X-23892858Y-39654761D02*
X-23988096Y-39702380D01*
X-24178572Y-39702380D01*
X-24273810Y-39654761D01*
X-24321429Y-39607142D01*
X-24369048Y-39511904D01*
X-24369048Y-39226190D01*
X-24321429Y-39130952D01*
X-24273810Y-39083333D01*
X-24178572Y-39035714D01*
X-23988096Y-39035714D01*
X-23892858Y-39083333D01*
X-22750000Y-39035714D02*
X-22511905Y-39702380D01*
X-22273810Y-39035714D01*
X-21511905Y-39654761D02*
X-21607143Y-39702380D01*
X-21797620Y-39702380D01*
X-21892858Y-39654761D01*
X-21940477Y-39559523D01*
X-21940477Y-39178571D01*
X-21892858Y-39083333D01*
X-21797620Y-39035714D01*
X-21607143Y-39035714D01*
X-21511905Y-39083333D01*
X-21464286Y-39178571D01*
X-21464286Y-39273809D01*
X-21940477Y-39369047D01*
X-21035715Y-39702380D02*
X-21035715Y-39035714D01*
X-21035715Y-39226190D02*
X-20988096Y-39130952D01*
X-20940477Y-39083333D01*
X-20845239Y-39035714D01*
X-20750000Y-39035714D01*
X-19702381Y-38797619D02*
X-19654762Y-38750000D01*
X-19559524Y-38702380D01*
X-19321429Y-38702380D01*
X-19226191Y-38750000D01*
X-19178572Y-38797619D01*
X-19130953Y-38892857D01*
X-19130953Y-38988095D01*
X-19178572Y-39130952D01*
X-19750000Y-39702380D01*
X-19130953Y-39702380D01*
X-18702381Y-39607142D02*
X-18654762Y-39654761D01*
X-18702381Y-39702380D01*
X-18750000Y-39654761D01*
X-18702381Y-39607142D01*
X-18702381Y-39702380D01*
X-18035715Y-38702380D02*
X-17940477Y-38702380D01*
X-17845239Y-38750000D01*
X-17797620Y-38797619D01*
X-17750000Y-38892857D01*
X-17702381Y-39083333D01*
X-17702381Y-39321428D01*
X-17750000Y-39511904D01*
X-17797620Y-39607142D01*
X-17845239Y-39654761D01*
X-17940477Y-39702380D01*
X-18035715Y-39702380D01*
X-18130953Y-39654761D01*
X-18178572Y-39607142D01*
X-18226191Y-39511904D01*
X-18273810Y-39321428D01*
X-18273810Y-39083333D01*
X-18226191Y-38892857D01*
X-18178572Y-38797619D01*
X-18130953Y-38750000D01*
X-18035715Y-38702380D01*
X-31452381Y36761905D02*
X-31452381Y36190477D01*
X-32452381Y36476191D02*
X-31452381Y36476191D01*
X-31452381Y35952381D02*
X-32452381Y35285715D01*
X-31452381Y35285715D02*
X-32452381Y35952381D01*
X-32452381Y24214286D02*
X-31452381Y24214286D01*
X-32452381Y23642858D01*
X-31452381Y23642858D01*
X-32452381Y23166667D02*
X-31785715Y23166667D01*
X-31452381Y23166667D02*
X-31500000Y23214286D01*
X-31547620Y23166667D01*
X-31500000Y23119048D01*
X-31452381Y23166667D01*
X-31547620Y23166667D01*
X-32404762Y22261905D02*
X-32452381Y22357143D01*
X-32452381Y22547620D01*
X-32404762Y22642858D01*
X-32357143Y22690477D01*
X-32261905Y22738096D01*
X-31976191Y22738096D01*
X-31880953Y22690477D01*
X-31833334Y22642858D01*
X-31785715Y22547620D01*
X-31785715Y22357143D01*
X-31833334Y22261905D01*
X-32452381Y21833334D02*
X-31452381Y21833334D01*
X-32452381Y21404762D02*
X-31928572Y21404762D01*
X-31833334Y21452381D01*
X-31785715Y21547620D01*
X-31785715Y21690477D01*
X-31833334Y21785715D01*
X-31880953Y21833334D01*
X-32452381Y20928572D02*
X-31785715Y20928572D01*
X-31976191Y20928572D02*
X-31880953Y20880953D01*
X-31833334Y20833334D01*
X-31785715Y20738096D01*
X-31785715Y20642858D01*
X-32212024Y-31294761D02*
X-32069167Y-31342380D01*
X-31831072Y-31342380D01*
X-31735834Y-31294761D01*
X-31688215Y-31247142D01*
X-31640596Y-31151904D01*
X-31640596Y-31056666D01*
X-31688215Y-30961428D01*
X-31735834Y-30913809D01*
X-31831072Y-30866190D01*
X-32021548Y-30818571D01*
X-32116786Y-30770952D01*
X-32164405Y-30723333D01*
X-32212024Y-30628095D01*
X-32212024Y-30532857D01*
X-32164405Y-30437619D01*
X-32116786Y-30390000D01*
X-32021548Y-30342380D01*
X-31783453Y-30342380D01*
X-31640596Y-30390000D01*
X-30640596Y-31247142D02*
X-30688215Y-31294761D01*
X-30831072Y-31342380D01*
X-30926310Y-31342380D01*
X-31069167Y-31294761D01*
X-31164405Y-31199523D01*
X-31212024Y-31104285D01*
X-31259643Y-30913809D01*
X-31259643Y-30770952D01*
X-31212024Y-30580476D01*
X-31164405Y-30485238D01*
X-31069167Y-30390000D01*
X-30926310Y-30342380D01*
X-30831072Y-30342380D01*
X-30688215Y-30390000D01*
X-30640596Y-30437619D01*
X-30212024Y-30961428D02*
X-29450120Y-30961428D01*
X-28450120Y-31342380D02*
X-29021548Y-31342380D01*
X-28735834Y-31342380D02*
X-28735834Y-30342380D01*
X-28831072Y-30485238D01*
X-28926310Y-30580476D01*
X-29021548Y-30628095D01*
X-27497739Y-31342380D02*
X-28069167Y-31342380D01*
X-27783453Y-31342380D02*
X-27783453Y-30342380D01*
X-27878691Y-30485238D01*
X-27973929Y-30580476D01*
X-28069167Y-30628095D01*
X-32164405Y-32952380D02*
X-32164405Y-31952380D01*
X-31926310Y-31952380D01*
X-31783453Y-32000000D01*
X-31688215Y-32095238D01*
X-31640596Y-32190476D01*
X-31592977Y-32380952D01*
X-31592977Y-32523809D01*
X-31640596Y-32714285D01*
X-31688215Y-32809523D01*
X-31783453Y-32904761D01*
X-31926310Y-32952380D01*
X-32164405Y-32952380D01*
X-30783453Y-32904761D02*
X-30878691Y-32952380D01*
X-31069167Y-32952380D01*
X-31164405Y-32904761D01*
X-31212024Y-32809523D01*
X-31212024Y-32428571D01*
X-31164405Y-32333333D01*
X-31069167Y-32285714D01*
X-30878691Y-32285714D01*
X-30783453Y-32333333D01*
X-30735834Y-32428571D01*
X-30735834Y-32523809D01*
X-31212024Y-32619047D01*
X-30354881Y-32904761D02*
X-30259643Y-32952380D01*
X-30069167Y-32952380D01*
X-29973929Y-32904761D01*
X-29926310Y-32809523D01*
X-29926310Y-32761904D01*
X-29973929Y-32666666D01*
X-30069167Y-32619047D01*
X-30212024Y-32619047D01*
X-30307262Y-32571428D01*
X-30354881Y-32476190D01*
X-30354881Y-32428571D01*
X-30307262Y-32333333D01*
X-30212024Y-32285714D01*
X-30069167Y-32285714D01*
X-29973929Y-32333333D01*
X-29497739Y-32952380D02*
X-29497739Y-32285714D01*
X-29497739Y-31952380D02*
X-29545358Y-32000000D01*
X-29497739Y-32047619D01*
X-29450120Y-32000000D01*
X-29497739Y-31952380D01*
X-29497739Y-32047619D01*
X-28592977Y-32285714D02*
X-28592977Y-33095238D01*
X-28640596Y-33190476D01*
X-28688215Y-33238095D01*
X-28783453Y-33285714D01*
X-28926310Y-33285714D01*
X-29021548Y-33238095D01*
X-28592977Y-32904761D02*
X-28688215Y-32952380D01*
X-28878691Y-32952380D01*
X-28973929Y-32904761D01*
X-29021548Y-32857142D01*
X-29069167Y-32761904D01*
X-29069167Y-32476190D01*
X-29021548Y-32380952D01*
X-28973929Y-32333333D01*
X-28878691Y-32285714D01*
X-28688215Y-32285714D01*
X-28592977Y-32333333D01*
X-28116786Y-32285714D02*
X-28116786Y-32952380D01*
X-28116786Y-32380952D02*
X-28069167Y-32333333D01*
X-27973929Y-32285714D01*
X-27831072Y-32285714D01*
X-27735834Y-32333333D01*
X-27688215Y-32428571D01*
X-27688215Y-32952380D01*
X-26831072Y-32904761D02*
X-26926310Y-32952380D01*
X-27116786Y-32952380D01*
X-27212024Y-32904761D01*
X-27259643Y-32809523D01*
X-27259643Y-32428571D01*
X-27212024Y-32333333D01*
X-27116786Y-32285714D01*
X-26926310Y-32285714D01*
X-26831072Y-32333333D01*
X-26783453Y-32428571D01*
X-26783453Y-32523809D01*
X-27259643Y-32619047D01*
X-25926310Y-32952380D02*
X-25926310Y-31952380D01*
X-25926310Y-32904761D02*
X-26021548Y-32952380D01*
X-26212024Y-32952380D01*
X-26307262Y-32904761D01*
X-26354881Y-32857142D01*
X-26402500Y-32761904D01*
X-26402500Y-32476190D01*
X-26354881Y-32380952D01*
X-26307262Y-32333333D01*
X-26212024Y-32285714D01*
X-26021548Y-32285714D01*
X-25926310Y-32333333D01*
X-24688215Y-32952380D02*
X-24688215Y-31952380D01*
X-24688215Y-32333333D02*
X-24592977Y-32285714D01*
X-24402500Y-32285714D01*
X-24307262Y-32333333D01*
X-24259643Y-32380952D01*
X-24212024Y-32476190D01*
X-24212024Y-32761904D01*
X-24259643Y-32857142D01*
X-24307262Y-32904761D01*
X-24402500Y-32952380D01*
X-24592977Y-32952380D01*
X-24688215Y-32904761D01*
X-23878691Y-32285714D02*
X-23640596Y-32952380D01*
X-23402500Y-32285714D02*
X-23640596Y-32952380D01*
X-23735834Y-33190476D01*
X-23783453Y-33238095D01*
X-23878691Y-33285714D01*
X-32164405Y-34562380D02*
X-32164405Y-33562380D01*
X-31926310Y-33562380D01*
X-31783453Y-33610000D01*
X-31688215Y-33705238D01*
X-31640596Y-33800476D01*
X-31592977Y-33990952D01*
X-31592977Y-34133809D01*
X-31640596Y-34324285D01*
X-31688215Y-34419523D01*
X-31783453Y-34514761D01*
X-31926310Y-34562380D01*
X-32164405Y-34562380D01*
X-30735834Y-34562380D02*
X-30735834Y-34038571D01*
X-30783453Y-33943333D01*
X-30878691Y-33895714D01*
X-31069167Y-33895714D01*
X-31164405Y-33943333D01*
X-30735834Y-34514761D02*
X-30831072Y-34562380D01*
X-31069167Y-34562380D01*
X-31164405Y-34514761D01*
X-31212024Y-34419523D01*
X-31212024Y-34324285D01*
X-31164405Y-34229047D01*
X-31069167Y-34181428D01*
X-30831072Y-34181428D01*
X-30735834Y-34133809D01*
X-30259643Y-34562380D02*
X-30259643Y-33895714D01*
X-30259643Y-33562380D02*
X-30307262Y-33610000D01*
X-30259643Y-33657619D01*
X-30212024Y-33610000D01*
X-30259643Y-33562380D01*
X-30259643Y-33657619D01*
X-29831072Y-34514761D02*
X-29735834Y-34562380D01*
X-29545358Y-34562380D01*
X-29450120Y-34514761D01*
X-29402500Y-34419523D01*
X-29402500Y-34371904D01*
X-29450120Y-34276666D01*
X-29545358Y-34229047D01*
X-29688215Y-34229047D01*
X-29783453Y-34181428D01*
X-29831072Y-34086190D01*
X-29831072Y-34038571D01*
X-29783453Y-33943333D01*
X-29688215Y-33895714D01*
X-29545358Y-33895714D01*
X-29450120Y-33943333D01*
X-28545358Y-33895714D02*
X-28545358Y-34562380D01*
X-28973929Y-33895714D02*
X-28973929Y-34419523D01*
X-28926310Y-34514761D01*
X-28831072Y-34562380D01*
X-28688215Y-34562380D01*
X-28592977Y-34514761D01*
X-28545358Y-34467142D01*
X-28069167Y-34562380D02*
X-28069167Y-33562380D01*
X-27973929Y-34181428D02*
X-27688215Y-34562380D01*
X-27688215Y-33895714D02*
X-28069167Y-34276666D01*
X-26878691Y-34514761D02*
X-26973929Y-34562380D01*
X-27164405Y-34562380D01*
X-27259643Y-34514761D01*
X-27307262Y-34419523D01*
X-27307262Y-34038571D01*
X-27259643Y-33943333D01*
X-27164405Y-33895714D01*
X-26973929Y-33895714D01*
X-26878691Y-33943333D01*
X-26831072Y-34038571D01*
X-26831072Y-34133809D01*
X-27307262Y-34229047D01*
X-25640596Y-34562380D02*
X-25640596Y-33562380D01*
X-25069167Y-34562380D01*
X-25069167Y-33562380D01*
X-24592977Y-34562380D02*
X-24592977Y-33895714D01*
X-24592977Y-33562380D02*
X-24640596Y-33610000D01*
X-24592977Y-33657619D01*
X-24545358Y-33610000D01*
X-24592977Y-33562380D01*
X-24592977Y-33657619D01*
X-24164405Y-34514761D02*
X-24069167Y-34562380D01*
X-23878691Y-34562380D01*
X-23783453Y-34514761D01*
X-23735834Y-34419523D01*
X-23735834Y-34371904D01*
X-23783453Y-34276666D01*
X-23878691Y-34229047D01*
X-24021548Y-34229047D01*
X-24116786Y-34181428D01*
X-24164405Y-34086190D01*
X-24164405Y-34038571D01*
X-24116786Y-33943333D01*
X-24021548Y-33895714D01*
X-23878691Y-33895714D01*
X-23783453Y-33943333D01*
X-23307262Y-34562380D02*
X-23307262Y-33562380D01*
X-22878691Y-34562380D02*
X-22878691Y-34038571D01*
X-22926310Y-33943333D01*
X-23021548Y-33895714D01*
X-23164405Y-33895714D01*
X-23259643Y-33943333D01*
X-23307262Y-33990952D01*
X-22402500Y-34562380D02*
X-22402500Y-33895714D01*
X-22402500Y-33562380D02*
X-22450120Y-33610000D01*
X-22402500Y-33657619D01*
X-22354881Y-33610000D01*
X-22402500Y-33562380D01*
X-22402500Y-33657619D01*
X-21926310Y-34562380D02*
X-21926310Y-33562380D01*
X-21497739Y-34562380D02*
X-21497739Y-34038571D01*
X-21545358Y-33943333D01*
X-21640596Y-33895714D01*
X-21783453Y-33895714D01*
X-21878691Y-33943333D01*
X-21926310Y-33990952D01*
X-20592977Y-34562380D02*
X-20592977Y-34038571D01*
X-20640596Y-33943333D01*
X-20735834Y-33895714D01*
X-20926310Y-33895714D01*
X-21021548Y-33943333D01*
X-20592977Y-34514761D02*
X-20688215Y-34562380D01*
X-20926310Y-34562380D01*
X-21021548Y-34514761D01*
X-21069167Y-34419523D01*
X-21069167Y-34324285D01*
X-21021548Y-34229047D01*
X-20926310Y-34181428D01*
X-20688215Y-34181428D01*
X-20592977Y-34133809D01*
X-20116786Y-34562380D02*
X-20116786Y-33895714D01*
X-20116786Y-33990952D02*
X-20069167Y-33943333D01*
X-19973929Y-33895714D01*
X-19831072Y-33895714D01*
X-19735834Y-33943333D01*
X-19688215Y-34038571D01*
X-19688215Y-34562380D01*
X-19688215Y-34038571D02*
X-19640596Y-33943333D01*
X-19545358Y-33895714D01*
X-19402500Y-33895714D01*
X-19307262Y-33943333D01*
X-19259643Y-34038571D01*
X-19259643Y-34562380D01*
X-18354881Y-34562380D02*
X-18354881Y-34038571D01*
X-18402500Y-33943333D01*
X-18497739Y-33895714D01*
X-18688215Y-33895714D01*
X-18783453Y-33943333D01*
X-18354881Y-34514761D02*
X-18450120Y-34562380D01*
X-18688215Y-34562380D01*
X-18783453Y-34514761D01*
X-18831072Y-34419523D01*
X-18831072Y-34324285D01*
X-18783453Y-34229047D01*
X-18688215Y-34181428D01*
X-18450120Y-34181428D01*
X-18354881Y-34133809D01*
X-28671143Y16107334D02*
X-28194953Y16107334D01*
X-28766381Y15821620D02*
X-28433048Y16821620D01*
X-28099715Y15821620D01*
X-27766381Y15821620D02*
X-27766381Y16488286D01*
X-27766381Y16297810D02*
X-27718762Y16393048D01*
X-27671143Y16440667D01*
X-27575905Y16488286D01*
X-27480667Y16488286D01*
X-26718762Y15821620D02*
X-26718762Y16821620D01*
X-26718762Y15869239D02*
X-26814000Y15821620D01*
X-27004477Y15821620D01*
X-27099715Y15869239D01*
X-27147334Y15916858D01*
X-27194953Y16012096D01*
X-27194953Y16297810D01*
X-27147334Y16393048D01*
X-27099715Y16440667D01*
X-27004477Y16488286D01*
X-26814000Y16488286D01*
X-26718762Y16440667D01*
X-25814000Y16488286D02*
X-25814000Y15821620D01*
X-26242572Y16488286D02*
X-26242572Y15964477D01*
X-26194953Y15869239D01*
X-26099715Y15821620D01*
X-25956858Y15821620D01*
X-25861620Y15869239D01*
X-25814000Y15916858D01*
X-25337810Y15821620D02*
X-25337810Y16488286D01*
X-25337810Y16821620D02*
X-25385429Y16774000D01*
X-25337810Y16726381D01*
X-25290191Y16774000D01*
X-25337810Y16821620D01*
X-25337810Y16726381D01*
X-24861620Y16488286D02*
X-24861620Y15821620D01*
X-24861620Y16393048D02*
X-24814000Y16440667D01*
X-24718762Y16488286D01*
X-24575905Y16488286D01*
X-24480667Y16440667D01*
X-24433048Y16345429D01*
X-24433048Y15821620D01*
X-23814000Y15821620D02*
X-23909239Y15869239D01*
X-23956858Y15916858D01*
X-24004477Y16012096D01*
X-24004477Y16297810D01*
X-23956858Y16393048D01*
X-23909239Y16440667D01*
X-23814000Y16488286D01*
X-23671143Y16488286D01*
X-23575905Y16440667D01*
X-23528286Y16393048D01*
X-23480667Y16297810D01*
X-23480667Y16012096D01*
X-23528286Y15916858D01*
X-23575905Y15869239D01*
X-23671143Y15821620D01*
X-23814000Y15821620D01*
X-22290191Y15821620D02*
X-22290191Y16821620D01*
X-21718762Y15821620D01*
X-21718762Y16821620D01*
X-20814000Y15821620D02*
X-20814000Y16345429D01*
X-20861620Y16440667D01*
X-20956858Y16488286D01*
X-21147334Y16488286D01*
X-21242572Y16440667D01*
X-20814000Y15869239D02*
X-20909239Y15821620D01*
X-21147334Y15821620D01*
X-21242572Y15869239D01*
X-21290191Y15964477D01*
X-21290191Y16059715D01*
X-21242572Y16154953D01*
X-21147334Y16202572D01*
X-20909239Y16202572D01*
X-20814000Y16250191D01*
X-20337810Y16488286D02*
X-20337810Y15821620D01*
X-20337810Y16393048D02*
X-20290191Y16440667D01*
X-20194953Y16488286D01*
X-20052096Y16488286D01*
X-19956858Y16440667D01*
X-19909239Y16345429D01*
X-19909239Y15821620D01*
X-19290191Y15821620D02*
X-19385429Y15869239D01*
X-19433048Y15916858D01*
X-19480667Y16012096D01*
X-19480667Y16297810D01*
X-19433048Y16393048D01*
X-19385429Y16440667D01*
X-19290191Y16488286D01*
X-19147334Y16488286D01*
X-19052096Y16440667D01*
X-19004477Y16393048D01*
X-18956858Y16297810D01*
X-18956858Y16012096D01*
X-19004477Y15916858D01*
X-19052096Y15869239D01*
X-19147334Y15821620D01*
X-19290191Y15821620D01*
X-5928572Y31678572D02*
X-5976191Y31535715D01*
X-6023810Y31488096D01*
X-6119048Y31440477D01*
X-6261905Y31440477D01*
X-6357143Y31488096D01*
X-6404762Y31535715D01*
X-6452381Y31630953D01*
X-6452381Y32011905D01*
X-5452381Y32011905D01*
X-5452381Y31678572D01*
X-5500000Y31583334D01*
X-5547620Y31535715D01*
X-5642858Y31488096D01*
X-5738096Y31488096D01*
X-5833334Y31535715D01*
X-5880953Y31583334D01*
X-5928572Y31678572D01*
X-5928572Y32011905D01*
X-6452381Y31011905D02*
X-5452381Y31011905D01*
X-6166667Y30678572D01*
X-5452381Y30345239D01*
X-6452381Y30345239D01*
X-6452381Y29869048D02*
X-5452381Y29869048D01*
X-5452381Y29488096D01*
X-5500000Y29392858D01*
X-5547620Y29345239D01*
X-5642858Y29297620D01*
X-5785715Y29297620D01*
X-5880953Y29345239D01*
X-5928572Y29392858D01*
X-5976191Y29488096D01*
X-5976191Y29869048D01*
X-5547620Y28916667D02*
X-5500000Y28869048D01*
X-5452381Y28773810D01*
X-5452381Y28535715D01*
X-5500000Y28440477D01*
X-5547620Y28392858D01*
X-5642858Y28345239D01*
X-5738096Y28345239D01*
X-5880953Y28392858D01*
X-6452381Y28964286D01*
X-6452381Y28345239D01*
X-5880953Y27773810D02*
X-5833334Y27869048D01*
X-5785715Y27916667D01*
X-5690477Y27964286D01*
X-5642858Y27964286D01*
X-5547620Y27916667D01*
X-5500000Y27869048D01*
X-5452381Y27773810D01*
X-5452381Y27583334D01*
X-5500000Y27488096D01*
X-5547620Y27440477D01*
X-5642858Y27392858D01*
X-5690477Y27392858D01*
X-5785715Y27440477D01*
X-5833334Y27488096D01*
X-5880953Y27583334D01*
X-5880953Y27773810D01*
X-5928572Y27869048D01*
X-5976191Y27916667D01*
X-6071429Y27964286D01*
X-6261905Y27964286D01*
X-6357143Y27916667D01*
X-6404762Y27869048D01*
X-6452381Y27773810D01*
X-6452381Y27583334D01*
X-6404762Y27488096D01*
X-6357143Y27440477D01*
X-6261905Y27392858D01*
X-6071429Y27392858D01*
X-5976191Y27440477D01*
X-5928572Y27488096D01*
X-5880953Y27583334D01*
X-5452381Y26773810D02*
X-5452381Y26678572D01*
X-5500000Y26583334D01*
X-5547620Y26535715D01*
X-5642858Y26488096D01*
X-5833334Y26440477D01*
X-6071429Y26440477D01*
X-6261905Y26488096D01*
X-6357143Y26535715D01*
X-6404762Y26583334D01*
X-6452381Y26678572D01*
X-6452381Y26773810D01*
X-6404762Y26869048D01*
X-6357143Y26916667D01*
X-6261905Y26964286D01*
X-6071429Y27011905D01*
X-5833334Y27011905D01*
X-5642858Y26964286D01*
X-5547620Y26916667D01*
X-5500000Y26869048D01*
X-5452381Y26773810D01*
X-32452381Y31666667D02*
X-31976191Y32000000D01*
X-32452381Y32238096D02*
X-31452381Y32238096D01*
X-31452381Y31857143D01*
X-31500000Y31761905D01*
X-31547620Y31714286D01*
X-31642858Y31666667D01*
X-31785715Y31666667D01*
X-31880953Y31714286D01*
X-31928572Y31761905D01*
X-31976191Y31857143D01*
X-31976191Y32238096D01*
X-31452381Y31333334D02*
X-32452381Y30666667D01*
X-31452381Y30666667D02*
X-32452381Y31333334D01*
X22000000Y-26857619D02*
X21904761Y-26810000D01*
X21809523Y-26714761D01*
X21666666Y-26571904D01*
X21571428Y-26524285D01*
X21476190Y-26524285D01*
X21523809Y-26762380D02*
X21428571Y-26714761D01*
X21333333Y-26619523D01*
X21285714Y-26429047D01*
X21285714Y-26095714D01*
X21333333Y-25905238D01*
X21428571Y-25810000D01*
X21523809Y-25762380D01*
X21714285Y-25762380D01*
X21809523Y-25810000D01*
X21904761Y-25905238D01*
X21952380Y-26095714D01*
X21952380Y-26429047D01*
X21904761Y-26619523D01*
X21809523Y-26714761D01*
X21714285Y-26762380D01*
X21523809Y-26762380D01*
X22380952Y-26762380D02*
X22380952Y-25762380D01*
X22714285Y-26476666D01*
X23047619Y-25762380D01*
X23047619Y-26762380D01*
X24095238Y-26667142D02*
X24047619Y-26714761D01*
X23904761Y-26762380D01*
X23809523Y-26762380D01*
X23666666Y-26714761D01*
X23571428Y-26619523D01*
X23523809Y-26524285D01*
X23476190Y-26333809D01*
X23476190Y-26190952D01*
X23523809Y-26000476D01*
X23571428Y-25905238D01*
X23666666Y-25810000D01*
X23809523Y-25762380D01*
X23904761Y-25762380D01*
X24047619Y-25810000D01*
X24095238Y-25857619D01*
X25000000Y-25762380D02*
X24523809Y-25762380D01*
X24476190Y-26238571D01*
X24523809Y-26190952D01*
X24619047Y-26143333D01*
X24857142Y-26143333D01*
X24952380Y-26190952D01*
X25000000Y-26238571D01*
X25047619Y-26333809D01*
X25047619Y-26571904D01*
X25000000Y-26667142D01*
X24952380Y-26714761D01*
X24857142Y-26762380D01*
X24619047Y-26762380D01*
X24523809Y-26714761D01*
X24476190Y-26667142D01*
X25619047Y-26190952D02*
X25523809Y-26143333D01*
X25476190Y-26095714D01*
X25428571Y-26000476D01*
X25428571Y-25952857D01*
X25476190Y-25857619D01*
X25523809Y-25810000D01*
X25619047Y-25762380D01*
X25809523Y-25762380D01*
X25904761Y-25810000D01*
X25952380Y-25857619D01*
X26000000Y-25952857D01*
X26000000Y-26000476D01*
X25952380Y-26095714D01*
X25904761Y-26143333D01*
X25809523Y-26190952D01*
X25619047Y-26190952D01*
X25523809Y-26238571D01*
X25476190Y-26286190D01*
X25428571Y-26381428D01*
X25428571Y-26571904D01*
X25476190Y-26667142D01*
X25523809Y-26714761D01*
X25619047Y-26762380D01*
X25809523Y-26762380D01*
X25904761Y-26714761D01*
X25952380Y-26667142D01*
X26000000Y-26571904D01*
X26000000Y-26381428D01*
X25952380Y-26286190D01*
X25904761Y-26238571D01*
X25809523Y-26190952D01*
X26571428Y-26190952D02*
X26476190Y-26143333D01*
X26428571Y-26095714D01*
X26380952Y-26000476D01*
X26380952Y-25952857D01*
X26428571Y-25857619D01*
X26476190Y-25810000D01*
X26571428Y-25762380D01*
X26761904Y-25762380D01*
X26857142Y-25810000D01*
X26904761Y-25857619D01*
X26952380Y-25952857D01*
X26952380Y-26000476D01*
X26904761Y-26095714D01*
X26857142Y-26143333D01*
X26761904Y-26190952D01*
X26571428Y-26190952D01*
X26476190Y-26238571D01*
X26428571Y-26286190D01*
X26380952Y-26381428D01*
X26380952Y-26571904D01*
X26428571Y-26667142D01*
X26476190Y-26714761D01*
X26571428Y-26762380D01*
X26761904Y-26762380D01*
X26857142Y-26714761D01*
X26904761Y-26667142D01*
X26952380Y-26571904D01*
X26952380Y-26381428D01*
X26904761Y-26286190D01*
X26857142Y-26238571D01*
X26761904Y-26190952D01*
X27285714Y-25762380D02*
X27904761Y-25762380D01*
X27571428Y-26143333D01*
X27714285Y-26143333D01*
X27809523Y-26190952D01*
X27857142Y-26238571D01*
X27904761Y-26333809D01*
X27904761Y-26571904D01*
X27857142Y-26667142D01*
X27809523Y-26714761D01*
X27714285Y-26762380D01*
X27428571Y-26762380D01*
X27333333Y-26714761D01*
X27285714Y-26667142D01*
X28809523Y-26762380D02*
X28333333Y-26762380D01*
X28333333Y-25762380D01*
X19390951Y19833334D02*
X19867141Y19833334D01*
X19295713Y19547620D02*
X19629046Y20547620D01*
X19962379Y19547620D01*
X20295713Y20071429D02*
X20629046Y20071429D01*
X20771903Y19547620D02*
X20295713Y19547620D01*
X20295713Y20547620D01*
X20771903Y20547620D01*
X21200475Y19928572D02*
X21962379Y19928572D01*
X22962379Y20500000D02*
X22867141Y20547620D01*
X22724284Y20547620D01*
X22581427Y20500000D01*
X22486189Y20404762D01*
X22438570Y20309524D01*
X22390951Y20119048D01*
X22390951Y19976191D01*
X22438570Y19785715D01*
X22486189Y19690477D01*
X22581427Y19595239D01*
X22724284Y19547620D01*
X22819522Y19547620D01*
X22962379Y19595239D01*
X23009999Y19642858D01*
X23009999Y19976191D01*
X22819522Y19976191D01*
X23629046Y20023810D02*
X23629046Y19547620D01*
X23295713Y20547620D02*
X23629046Y20023810D01*
X23962379Y20547620D01*
X24248094Y19595239D02*
X24390951Y19547620D01*
X24629046Y19547620D01*
X24724284Y19595239D01*
X24771903Y19642858D01*
X24819522Y19738096D01*
X24819522Y19833334D01*
X24771903Y19928572D01*
X24724284Y19976191D01*
X24629046Y20023810D01*
X24438570Y20071429D01*
X24343332Y20119048D01*
X24295713Y20166667D01*
X24248094Y20261905D01*
X24248094Y20357143D01*
X24295713Y20452381D01*
X24343332Y20500000D01*
X24438570Y20547620D01*
X24676665Y20547620D01*
X24819522Y20500000D01*
X25581427Y20071429D02*
X25248094Y20071429D01*
X25248094Y19547620D02*
X25248094Y20547620D01*
X25724284Y20547620D01*
X26105237Y19547620D02*
X26105237Y20547620D01*
X26343332Y20547620D01*
X26486189Y20500000D01*
X26581427Y20404762D01*
X26629046Y20309524D01*
X26676665Y20119048D01*
X26676665Y19976191D01*
X26629046Y19785715D01*
X26581427Y19690477D01*
X26486189Y19595239D01*
X26343332Y19547620D01*
X26105237Y19547620D01*
X27105237Y19547620D02*
X27105237Y20547620D01*
X27438570Y19833334D01*
X27771903Y20547620D01*
X27771903Y19547620D01*
X28200475Y19833334D02*
X28676665Y19833334D01*
X28105237Y19547620D02*
X28438570Y20547620D01*
X28771903Y19547620D01*
X29009999Y20547620D02*
X29676665Y19547620D01*
X29676665Y20547620D02*
X29009999Y19547620D01*
X30390951Y20071429D02*
X30533808Y20023810D01*
X30581427Y19976191D01*
X30629046Y19880953D01*
X30629046Y19738096D01*
X30581427Y19642858D01*
X30533808Y19595239D01*
X30438570Y19547620D01*
X30057618Y19547620D01*
X30057618Y20547620D01*
X30390951Y20547620D01*
X30486189Y20500000D01*
X30533808Y20452381D01*
X30581427Y20357143D01*
X30581427Y20261905D01*
X30533808Y20166667D01*
X30486189Y20119048D01*
X30390951Y20071429D01*
X30057618Y20071429D01*
X21837380Y26357143D02*
X21837380Y25880953D01*
X20837380Y25880953D01*
X20837380Y26595239D02*
X20837380Y27214286D01*
X21218333Y26880953D01*
X21218333Y27023810D01*
X21265952Y27119048D01*
X21313571Y27166667D01*
X21408809Y27214286D01*
X21646904Y27214286D01*
X21742142Y27166667D01*
X21789761Y27119048D01*
X21837380Y27023810D01*
X21837380Y26738096D01*
X21789761Y26642858D01*
X21742142Y26595239D01*
X20885000Y28166667D02*
X20837380Y28071429D01*
X20837380Y27928572D01*
X20885000Y27785715D01*
X20980238Y27690477D01*
X21075476Y27642858D01*
X21265952Y27595239D01*
X21408809Y27595239D01*
X21599285Y27642858D01*
X21694523Y27690477D01*
X21789761Y27785715D01*
X21837380Y27928572D01*
X21837380Y28023810D01*
X21789761Y28166667D01*
X21742142Y28214286D01*
X21408809Y28214286D01*
X21408809Y28023810D01*
X21837380Y28642858D02*
X20837380Y28642858D01*
X20837380Y28880953D01*
X20885000Y29023810D01*
X20980238Y29119048D01*
X21075476Y29166667D01*
X21265952Y29214286D01*
X21408809Y29214286D01*
X21599285Y29166667D01*
X21694523Y29119048D01*
X21789761Y29023810D01*
X21837380Y28880953D01*
X21837380Y28642858D01*
X20932619Y29595239D02*
X20885000Y29642858D01*
X20837380Y29738096D01*
X20837380Y29976191D01*
X20885000Y30071429D01*
X20932619Y30119048D01*
X21027857Y30166667D01*
X21123095Y30166667D01*
X21265952Y30119048D01*
X21837380Y29547620D01*
X21837380Y30166667D01*
X20837380Y30785715D02*
X20837380Y30880953D01*
X20885000Y30976191D01*
X20932619Y31023810D01*
X21027857Y31071429D01*
X21218333Y31119048D01*
X21456428Y31119048D01*
X21646904Y31071429D01*
X21742142Y31023810D01*
X21789761Y30976191D01*
X21837380Y30880953D01*
X21837380Y30785715D01*
X21789761Y30690477D01*
X21742142Y30642858D01*
X21646904Y30595239D01*
X21456428Y30547620D01*
X21218333Y30547620D01*
X21027857Y30595239D01*
X20932619Y30642858D01*
X20885000Y30690477D01*
X20837380Y30785715D01*
X21837380Y31547620D02*
X20837380Y31547620D01*
X21313571Y31547620D02*
X21313571Y32119048D01*
X21837380Y32119048D02*
X20837380Y32119048D01*
X-32452381Y28309524D02*
X-32452381Y28785715D01*
X-31452381Y28785715D01*
X-32452381Y27976191D02*
X-31785715Y27976191D01*
X-31452381Y27976191D02*
X-31500000Y28023810D01*
X-31547620Y27976191D01*
X-31500000Y27928572D01*
X-31452381Y27976191D01*
X-31547620Y27976191D01*
X-31785715Y27500000D02*
X-32785715Y27500000D01*
X-31833334Y27500000D02*
X-31785715Y27404762D01*
X-31785715Y27214286D01*
X-31833334Y27119048D01*
X-31880953Y27071429D01*
X-31976191Y27023810D01*
X-32261905Y27023810D01*
X-32357143Y27071429D01*
X-32404762Y27119048D01*
X-32452381Y27214286D01*
X-32452381Y27404762D01*
X-32404762Y27500000D01*
X-32452381Y26452381D02*
X-32404762Y26547620D01*
X-32357143Y26595239D01*
X-32261905Y26642858D01*
X-31976191Y26642858D01*
X-31880953Y26595239D01*
X-31833334Y26547620D01*
X-31785715Y26452381D01*
X-31785715Y26309524D01*
X-31833334Y26214286D01*
X-31880953Y26166667D01*
X-31976191Y26119048D01*
X-32261905Y26119048D01*
X-32357143Y26166667D01*
X-32404762Y26214286D01*
X-32452381Y26309524D01*
X-32452381Y26452381D01*
X-31547620Y25738096D02*
X-31500000Y25690477D01*
X-31452381Y25595239D01*
X-31452381Y25357143D01*
X-31500000Y25261905D01*
X-31547620Y25214286D01*
X-31642858Y25166667D01*
X-31738096Y25166667D01*
X-31880953Y25214286D01*
X-32452381Y25785715D01*
X-32452381Y25166667D01*
X-4964286Y-46904761D02*
X-4821429Y-46952380D01*
X-4583334Y-46952380D01*
X-4488096Y-46904761D01*
X-4440477Y-46857142D01*
X-4392858Y-46761904D01*
X-4392858Y-46666666D01*
X-4440477Y-46571428D01*
X-4488096Y-46523809D01*
X-4583334Y-46476190D01*
X-4773810Y-46428571D01*
X-4869048Y-46380952D01*
X-4916667Y-46333333D01*
X-4964286Y-46238095D01*
X-4964286Y-46142857D01*
X-4916667Y-46047619D01*
X-4869048Y-46000000D01*
X-4773810Y-45952380D01*
X-4535715Y-45952380D01*
X-4392858Y-46000000D01*
X-3964286Y-46952380D02*
X-3964286Y-45952380D01*
X-3726191Y-45952380D01*
X-3583334Y-46000000D01*
X-3488096Y-46095238D01*
X-3440477Y-46190476D01*
X-3392858Y-46380952D01*
X-3392858Y-46523809D01*
X-3440477Y-46714285D01*
X-3488096Y-46809523D01*
X-3583334Y-46904761D01*
X-3726191Y-46952380D01*
X-3964286Y-46952380D01*
X-1630953Y-46857142D02*
X-1678572Y-46904761D01*
X-1821429Y-46952380D01*
X-1916667Y-46952380D01*
X-2059524Y-46904761D01*
X-2154762Y-46809523D01*
X-2202381Y-46714285D01*
X-2250000Y-46523809D01*
X-2250000Y-46380952D01*
X-2202381Y-46190476D01*
X-2154762Y-46095238D01*
X-2059524Y-46000000D01*
X-1916667Y-45952380D01*
X-1821429Y-45952380D01*
X-1678572Y-46000000D01*
X-1630953Y-46047619D01*
X-1250000Y-46666666D02*
X-773810Y-46666666D01*
X-1345239Y-46952380D02*
X-1011905Y-45952380D01*
X-678572Y-46952380D01*
X226190Y-46952380D02*
X-107143Y-46476190D01*
X-345239Y-46952380D02*
X-345239Y-45952380D01*
X35714Y-45952380D01*
X130952Y-46000000D01*
X178571Y-46047619D01*
X226190Y-46142857D01*
X226190Y-46285714D01*
X178571Y-46380952D01*
X130952Y-46428571D01*
X35714Y-46476190D01*
X-345239Y-46476190D01*
X654761Y-46952380D02*
X654761Y-45952380D01*
X892857Y-45952380D01*
X1035714Y-46000000D01*
X1130952Y-46095238D01*
X1178571Y-46190476D01*
X1226190Y-46380952D01*
X1226190Y-46523809D01*
X1178571Y-46714285D01*
X1130952Y-46809523D01*
X1035714Y-46904761D01*
X892857Y-46952380D01*
X654761Y-46952380D01*
X2416666Y-46952380D02*
X2416666Y-45952380D01*
X2654761Y-45952380D01*
X2797619Y-46000000D01*
X2892857Y-46095238D01*
X2940476Y-46190476D01*
X2988095Y-46380952D01*
X2988095Y-46523809D01*
X2940476Y-46714285D01*
X2892857Y-46809523D01*
X2797619Y-46904761D01*
X2654761Y-46952380D01*
X2416666Y-46952380D01*
X3416666Y-46952380D02*
X3416666Y-45952380D01*
X3892857Y-46952380D02*
X3892857Y-45952380D01*
X4273809Y-45952380D01*
X4369047Y-46000000D01*
X4416666Y-46047619D01*
X4464285Y-46142857D01*
X4464285Y-46285714D01*
X4416666Y-46380952D01*
X4369047Y-46428571D01*
X4273809Y-46476190D01*
X3892857Y-46476190D01*
X26559523Y40952381D02*
X27035714Y40952381D01*
X27035714Y39952381D01*
X26226190Y40952381D02*
X26226190Y40285715D01*
X26226190Y39952381D02*
X26273809Y40000000D01*
X26226190Y40047620D01*
X26178571Y40000000D01*
X26226190Y39952381D01*
X26226190Y40047620D01*
X25750000Y40285715D02*
X25750000Y41285715D01*
X25750000Y40333334D02*
X25654761Y40285715D01*
X25464285Y40285715D01*
X25369047Y40333334D01*
X25321428Y40380953D01*
X25273809Y40476191D01*
X25273809Y40761905D01*
X25321428Y40857143D01*
X25369047Y40904762D01*
X25464285Y40952381D01*
X25654761Y40952381D01*
X25750000Y40904762D01*
X24702380Y40952381D02*
X24797619Y40904762D01*
X24845238Y40857143D01*
X24892857Y40761905D01*
X24892857Y40476191D01*
X24845238Y40380953D01*
X24797619Y40333334D01*
X24702380Y40285715D01*
X24559523Y40285715D01*
X24464285Y40333334D01*
X24416666Y40380953D01*
X24369047Y40476191D01*
X24369047Y40761905D01*
X24416666Y40857143D01*
X24464285Y40904762D01*
X24559523Y40952381D01*
X24702380Y40952381D01*
X24035714Y39952381D02*
X23416666Y39952381D01*
X23750000Y40333334D01*
X23607142Y40333334D01*
X23511904Y40380953D01*
X23464285Y40428572D01*
X23416666Y40523810D01*
X23416666Y40761905D01*
X23464285Y40857143D01*
X23511904Y40904762D01*
X23607142Y40952381D01*
X23892857Y40952381D01*
X23988095Y40904762D01*
X24035714Y40857143D01*
X-6857143Y20547620D02*
X-6285715Y20547620D01*
X-6571429Y19547620D02*
X-6571429Y20547620D01*
X-6047620Y20547620D02*
X-5809524Y19547620D01*
X-5619048Y20261905D01*
X-5428572Y19547620D01*
X-5190477Y20547620D01*
X-4809524Y20071429D02*
X-4476191Y20071429D01*
X-4333334Y19547620D02*
X-4809524Y19547620D01*
X-4809524Y20547620D01*
X-4333334Y20547620D01*
X-3428572Y19547620D02*
X-3904762Y19547620D01*
X-3904762Y20547620D01*
X-3095239Y19547620D02*
X-3095239Y20547620D01*
X-2761905Y20547620D02*
X-2190477Y20547620D01*
X-2476191Y19547620D02*
X-2476191Y20547620D01*
X-1857143Y20071429D02*
X-1523810Y20071429D01*
X-1380953Y19547620D02*
X-1857143Y19547620D01*
X-1857143Y20547620D01*
X-1380953Y20547620D01*
X-952381Y19928572D02*
X-190477Y19928572D01*
X857142Y19547620D02*
X523809Y20023810D01*
X285714Y19547620D02*
X285714Y20547620D01*
X666666Y20547620D01*
X761904Y20500000D01*
X809523Y20452381D01*
X857142Y20357143D01*
X857142Y20214286D01*
X809523Y20119048D01*
X761904Y20071429D01*
X666666Y20023810D01*
X285714Y20023810D01*
X1285714Y20071429D02*
X1619047Y20071429D01*
X1761904Y19547620D02*
X1285714Y19547620D01*
X1285714Y20547620D01*
X1761904Y20547620D01*
X2190476Y19547620D02*
X2190476Y20547620D01*
X2428571Y20547620D01*
X2571428Y20500000D01*
X2666666Y20404762D01*
X2714285Y20309524D01*
X2761904Y20119048D01*
X2761904Y19976191D01*
X2714285Y19785715D01*
X2666666Y19690477D01*
X2571428Y19595239D01*
X2428571Y19547620D01*
X2190476Y19547620D01*
%TO.C,BT4*%
X-42182382Y-11171190D02*
X-43182382Y-11504523D01*
X-42182382Y-11837857D01*
X-43182382Y-12171190D02*
X-42515716Y-12171190D01*
X-42182382Y-12171190D02*
X-42230001Y-12123571D01*
X-42277621Y-12171190D01*
X-42230001Y-12218809D01*
X-42182382Y-12171190D01*
X-42277621Y-12171190D01*
X-42515716Y-12647380D02*
X-43182382Y-12647380D01*
X-42610954Y-12647380D02*
X-42563335Y-12695000D01*
X-42515716Y-12790238D01*
X-42515716Y-12933095D01*
X-42563335Y-13028333D01*
X-42658573Y-13075952D01*
X-43182382Y-13075952D01*
X-44770001Y-11433095D02*
X-44722382Y-11337857D01*
X-44722382Y-11195000D01*
X-44770001Y-11052142D01*
X-44865240Y-10956904D01*
X-44960478Y-10909285D01*
X-45150954Y-10861666D01*
X-45293811Y-10861666D01*
X-45484287Y-10909285D01*
X-45579525Y-10956904D01*
X-45674763Y-11052142D01*
X-45722382Y-11195000D01*
X-45722382Y-11290238D01*
X-45674763Y-11433095D01*
X-45627144Y-11480714D01*
X-45293811Y-11480714D01*
X-45293811Y-11290238D01*
X-45722382Y-11909285D02*
X-44722382Y-11909285D01*
X-45722382Y-12480714D01*
X-44722382Y-12480714D01*
X-45722382Y-12956904D02*
X-44722382Y-12956904D01*
X-44722382Y-13195000D01*
X-44770001Y-13337857D01*
X-44865240Y-13433095D01*
X-44960478Y-13480714D01*
X-45150954Y-13528333D01*
X-45293811Y-13528333D01*
X-45484287Y-13480714D01*
X-45579525Y-13433095D01*
X-45674763Y-13337857D01*
X-45722382Y-13195000D01*
X-45722382Y-12956904D01*
X-47952382Y-7690476D02*
X-47952382Y-7214285D01*
X-46952382Y-7214285D01*
X-47952382Y-8023809D02*
X-47285716Y-8023809D01*
X-46952382Y-8023809D02*
X-47000001Y-7976190D01*
X-47047621Y-8023809D01*
X-47000001Y-8071428D01*
X-46952382Y-8023809D01*
X-47047621Y-8023809D01*
X-47285716Y-8500000D02*
X-48285716Y-8500000D01*
X-47333335Y-8500000D02*
X-47285716Y-8595238D01*
X-47285716Y-8785714D01*
X-47333335Y-8880952D01*
X-47380954Y-8928571D01*
X-47476192Y-8976190D01*
X-47761906Y-8976190D01*
X-47857144Y-8928571D01*
X-47904763Y-8880952D01*
X-47952382Y-8785714D01*
X-47952382Y-8595238D01*
X-47904763Y-8500000D01*
X-47952382Y-9547619D02*
X-47904763Y-9452380D01*
X-47857144Y-9404761D01*
X-47761906Y-9357142D01*
X-47476192Y-9357142D01*
X-47380954Y-9404761D01*
X-47333335Y-9452380D01*
X-47285716Y-9547619D01*
X-47285716Y-9690476D01*
X-47333335Y-9785714D01*
X-47380954Y-9833333D01*
X-47476192Y-9880952D01*
X-47761906Y-9880952D01*
X-47857144Y-9833333D01*
X-47904763Y-9785714D01*
X-47952382Y-9690476D01*
X-47952382Y-9547619D01*
X-47047621Y-10261904D02*
X-47000001Y-10309523D01*
X-46952382Y-10404761D01*
X-46952382Y-10642857D01*
X-47000001Y-10738095D01*
X-47047621Y-10785714D01*
X-47142859Y-10833333D01*
X-47238097Y-10833333D01*
X-47380954Y-10785714D01*
X-47952382Y-10214285D01*
X-47952382Y-10833333D01*
%TO.C,R2*%
X-16940478Y32297620D02*
X-17273811Y32773810D01*
X-17511906Y32297620D02*
X-17511906Y33297620D01*
X-17130954Y33297620D01*
X-17035716Y33250000D01*
X-16988097Y33202381D01*
X-16940478Y33107143D01*
X-16940478Y32964286D01*
X-16988097Y32869048D01*
X-17035716Y32821429D01*
X-17130954Y32773810D01*
X-17511906Y32773810D01*
%TO.C,BT6*%
X5908808Y38682381D02*
X5575475Y39682381D01*
X5242141Y38682381D01*
X4908808Y39682381D02*
X4908808Y39015715D01*
X4908808Y38682381D02*
X4956427Y38730000D01*
X4908808Y38777620D01*
X4861189Y38730000D01*
X4908808Y38682381D01*
X4908808Y38777620D01*
X4432618Y39015715D02*
X4432618Y39682381D01*
X4432618Y39110953D02*
X4384999Y39063334D01*
X4289760Y39015715D01*
X4146903Y39015715D01*
X4051665Y39063334D01*
X4004046Y39158572D01*
X4004046Y39682381D01*
X8619522Y37452381D02*
X9095713Y37452381D01*
X9095713Y36452381D01*
X8286189Y37452381D02*
X8286189Y36785715D01*
X8286189Y36452381D02*
X8333808Y36500000D01*
X8286189Y36547620D01*
X8238570Y36500000D01*
X8286189Y36452381D01*
X8286189Y36547620D01*
X7809999Y36785715D02*
X7809999Y37785715D01*
X7809999Y36833334D02*
X7714760Y36785715D01*
X7524284Y36785715D01*
X7429046Y36833334D01*
X7381427Y36880953D01*
X7333808Y36976191D01*
X7333808Y37261905D01*
X7381427Y37357143D01*
X7429046Y37404762D01*
X7524284Y37452381D01*
X7714760Y37452381D01*
X7809999Y37404762D01*
X6762379Y37452381D02*
X6857618Y37404762D01*
X6905237Y37357143D01*
X6952856Y37261905D01*
X6952856Y36976191D01*
X6905237Y36880953D01*
X6857618Y36833334D01*
X6762379Y36785715D01*
X6619522Y36785715D01*
X6524284Y36833334D01*
X6476665Y36880953D01*
X6429046Y36976191D01*
X6429046Y37261905D01*
X6476665Y37357143D01*
X6524284Y37404762D01*
X6619522Y37452381D01*
X6762379Y37452381D01*
X6095713Y36452381D02*
X5476665Y36452381D01*
X5809999Y36833334D01*
X5667141Y36833334D01*
X5571903Y36880953D01*
X5524284Y36928572D01*
X5476665Y37023810D01*
X5476665Y37261905D01*
X5524284Y37357143D01*
X5571903Y37404762D01*
X5667141Y37452381D01*
X5952856Y37452381D01*
X6048094Y37404762D01*
X6095713Y37357143D01*
X5646903Y41270000D02*
X5742141Y41222381D01*
X5884999Y41222381D01*
X6027856Y41270000D01*
X6123094Y41365239D01*
X6170713Y41460477D01*
X6218332Y41650953D01*
X6218332Y41793810D01*
X6170713Y41984286D01*
X6123094Y42079524D01*
X6027856Y42174762D01*
X5884999Y42222381D01*
X5789760Y42222381D01*
X5646903Y42174762D01*
X5599284Y42127143D01*
X5599284Y41793810D01*
X5789760Y41793810D01*
X5170713Y42222381D02*
X5170713Y41222381D01*
X4599284Y42222381D01*
X4599284Y41222381D01*
X4123094Y42222381D02*
X4123094Y41222381D01*
X3884999Y41222381D01*
X3742141Y41270000D01*
X3646903Y41365239D01*
X3599284Y41460477D01*
X3551665Y41650953D01*
X3551665Y41793810D01*
X3599284Y41984286D01*
X3646903Y42079524D01*
X3742141Y42174762D01*
X3884999Y42222381D01*
X4123094Y42222381D01*
%TO.C,D2*%
X-14547621Y42857143D02*
X-14547621Y42380953D01*
X-15547621Y42380953D01*
X-15071430Y43190477D02*
X-15071430Y43523810D01*
X-14547621Y43666667D02*
X-14547621Y43190477D01*
X-15547621Y43190477D01*
X-15547621Y43666667D01*
X-14547621Y44095239D02*
X-15547621Y44095239D01*
X-15547621Y44333334D01*
X-15500001Y44476191D01*
X-15404763Y44571429D01*
X-15309525Y44619048D01*
X-15119049Y44666667D01*
X-14976192Y44666667D01*
X-14785716Y44619048D01*
X-14690478Y44571429D01*
X-14595240Y44476191D01*
X-14547621Y44333334D01*
X-14547621Y44095239D01*
%TO.C,RV1*%
X-14809525Y45722620D02*
X-14809525Y46722620D01*
X-14238097Y45722620D01*
X-14238097Y46722620D01*
X-13761906Y45722620D02*
X-13761906Y46389286D01*
X-13761906Y46722620D02*
X-13809525Y46675000D01*
X-13761906Y46627381D01*
X-13714287Y46675000D01*
X-13761906Y46722620D01*
X-13761906Y46627381D01*
X-12857144Y45770239D02*
X-12952382Y45722620D01*
X-13142859Y45722620D01*
X-13238097Y45770239D01*
X-13285716Y45817858D01*
X-13333335Y45913096D01*
X-13333335Y46198810D01*
X-13285716Y46294048D01*
X-13238097Y46341667D01*
X-13142859Y46389286D01*
X-12952382Y46389286D01*
X-12857144Y46341667D01*
X-12428573Y45722620D02*
X-12428573Y46722620D01*
X-12000001Y45722620D02*
X-12000001Y46246429D01*
X-12047621Y46341667D01*
X-12142859Y46389286D01*
X-12285716Y46389286D01*
X-12380954Y46341667D01*
X-12428573Y46294048D01*
X-11523811Y45722620D02*
X-11523811Y46389286D01*
X-11523811Y46198810D02*
X-11476192Y46294048D01*
X-11428573Y46341667D01*
X-11333335Y46389286D01*
X-11238097Y46389286D01*
X-10761906Y45722620D02*
X-10857144Y45770239D01*
X-10904763Y45817858D01*
X-10952382Y45913096D01*
X-10952382Y46198810D01*
X-10904763Y46294048D01*
X-10857144Y46341667D01*
X-10761906Y46389286D01*
X-10619049Y46389286D01*
X-10523811Y46341667D01*
X-10476192Y46294048D01*
X-10428573Y46198810D01*
X-10428573Y45913096D01*
X-10476192Y45817858D01*
X-10523811Y45770239D01*
X-10619049Y45722620D01*
X-10761906Y45722620D01*
X-10000001Y45722620D02*
X-10000001Y46389286D01*
X-10000001Y46294048D02*
X-9952382Y46341667D01*
X-9857144Y46389286D01*
X-9714287Y46389286D01*
X-9619049Y46341667D01*
X-9571430Y46246429D01*
X-9571430Y45722620D01*
X-9571430Y46246429D02*
X-9523811Y46341667D01*
X-9428573Y46389286D01*
X-9285716Y46389286D01*
X-9190478Y46341667D01*
X-9142859Y46246429D01*
X-9142859Y45722620D01*
X-8285716Y45770239D02*
X-8380954Y45722620D01*
X-8571430Y45722620D01*
X-8666668Y45770239D01*
X-8714287Y45865477D01*
X-8714287Y46246429D01*
X-8666668Y46341667D01*
X-8571430Y46389286D01*
X-8380954Y46389286D01*
X-8285716Y46341667D01*
X-8238097Y46246429D01*
X-8238097Y46151191D01*
X-8714287Y46055953D01*
X-7904763Y46722620D02*
X-7666668Y45722620D01*
X-7476192Y46436905D01*
X-7285716Y45722620D01*
X-7047621Y46722620D01*
X-6666668Y45722620D02*
X-6666668Y46389286D01*
X-6666668Y46722620D02*
X-6714287Y46675000D01*
X-6666668Y46627381D01*
X-6619049Y46675000D01*
X-6666668Y46722620D01*
X-6666668Y46627381D01*
X-6190478Y45722620D02*
X-6190478Y46389286D01*
X-6190478Y46198810D02*
X-6142859Y46294048D01*
X-6095240Y46341667D01*
X-6000001Y46389286D01*
X-5904763Y46389286D01*
X-5190478Y45770239D02*
X-5285716Y45722620D01*
X-5476192Y45722620D01*
X-5571430Y45770239D01*
X-5619049Y45865477D01*
X-5619049Y46246429D01*
X-5571430Y46341667D01*
X-5476192Y46389286D01*
X-5285716Y46389286D01*
X-5190478Y46341667D01*
X-5142859Y46246429D01*
X-5142859Y46151191D01*
X-5619049Y46055953D01*
%TO.C,BT1*%
X-47952382Y-1190476D02*
X-47952382Y-714285D01*
X-46952382Y-714285D01*
X-47952382Y-1523809D02*
X-47285716Y-1523809D01*
X-46952382Y-1523809D02*
X-47000001Y-1476190D01*
X-47047621Y-1523809D01*
X-47000001Y-1571428D01*
X-46952382Y-1523809D01*
X-47047621Y-1523809D01*
X-47285716Y-2000000D02*
X-48285716Y-2000000D01*
X-47333335Y-2000000D02*
X-47285716Y-2095238D01*
X-47285716Y-2285714D01*
X-47333335Y-2380952D01*
X-47380954Y-2428571D01*
X-47476192Y-2476190D01*
X-47761906Y-2476190D01*
X-47857144Y-2428571D01*
X-47904763Y-2380952D01*
X-47952382Y-2285714D01*
X-47952382Y-2095238D01*
X-47904763Y-2000000D01*
X-47952382Y-3047619D02*
X-47904763Y-2952380D01*
X-47857144Y-2904761D01*
X-47761906Y-2857142D01*
X-47476192Y-2857142D01*
X-47380954Y-2904761D01*
X-47333335Y-2952380D01*
X-47285716Y-3047619D01*
X-47285716Y-3190476D01*
X-47333335Y-3285714D01*
X-47380954Y-3333333D01*
X-47476192Y-3380952D01*
X-47761906Y-3380952D01*
X-47857144Y-3333333D01*
X-47904763Y-3285714D01*
X-47952382Y-3190476D01*
X-47952382Y-3047619D01*
X-47047621Y-3761904D02*
X-47000001Y-3809523D01*
X-46952382Y-3904761D01*
X-46952382Y-4142857D01*
X-47000001Y-4238095D01*
X-47047621Y-4285714D01*
X-47142859Y-4333333D01*
X-47238097Y-4333333D01*
X-47380954Y-4285714D01*
X-47952382Y-3714285D01*
X-47952382Y-4333333D01*
X-44770001Y-4933095D02*
X-44722382Y-4837857D01*
X-44722382Y-4695000D01*
X-44770001Y-4552142D01*
X-44865240Y-4456904D01*
X-44960478Y-4409285D01*
X-45150954Y-4361666D01*
X-45293811Y-4361666D01*
X-45484287Y-4409285D01*
X-45579525Y-4456904D01*
X-45674763Y-4552142D01*
X-45722382Y-4695000D01*
X-45722382Y-4790238D01*
X-45674763Y-4933095D01*
X-45627144Y-4980714D01*
X-45293811Y-4980714D01*
X-45293811Y-4790238D01*
X-45722382Y-5409285D02*
X-44722382Y-5409285D01*
X-45722382Y-5980714D01*
X-44722382Y-5980714D01*
X-45722382Y-6456904D02*
X-44722382Y-6456904D01*
X-44722382Y-6695000D01*
X-44770001Y-6837857D01*
X-44865240Y-6933095D01*
X-44960478Y-6980714D01*
X-45150954Y-7028333D01*
X-45293811Y-7028333D01*
X-45484287Y-6980714D01*
X-45579525Y-6933095D01*
X-45674763Y-6837857D01*
X-45722382Y-6695000D01*
X-45722382Y-6456904D01*
X-42182382Y-4671190D02*
X-43182382Y-5004523D01*
X-42182382Y-5337857D01*
X-43182382Y-5671190D02*
X-42515716Y-5671190D01*
X-42182382Y-5671190D02*
X-42230001Y-5623571D01*
X-42277621Y-5671190D01*
X-42230001Y-5718809D01*
X-42182382Y-5671190D01*
X-42277621Y-5671190D01*
X-42515716Y-6147380D02*
X-43182382Y-6147380D01*
X-42610954Y-6147380D02*
X-42563335Y-6195000D01*
X-42515716Y-6290238D01*
X-42515716Y-6433095D01*
X-42563335Y-6528333D01*
X-42658573Y-6575952D01*
X-43182382Y-6575952D01*
%TO.C,D1*%
X-14547621Y39357143D02*
X-14547621Y38880953D01*
X-15547621Y38880953D01*
X-15071430Y39690477D02*
X-15071430Y40023810D01*
X-14547621Y40166667D02*
X-14547621Y39690477D01*
X-15547621Y39690477D01*
X-15547621Y40166667D01*
X-14547621Y40595239D02*
X-15547621Y40595239D01*
X-15547621Y40833334D01*
X-15500001Y40976191D01*
X-15404763Y41071429D01*
X-15309525Y41119048D01*
X-15119049Y41166667D01*
X-14976192Y41166667D01*
X-14785716Y41119048D01*
X-14690478Y41071429D01*
X-14595240Y40976191D01*
X-14547621Y40833334D01*
X-14547621Y40595239D01*
%TO.C,U2*%
X-47952382Y3690477D02*
X-47952382Y4166667D01*
X-46952382Y4166667D01*
X-43182382Y2209762D02*
X-42182382Y2209762D01*
X-42182382Y1828810D01*
X-42230001Y1733572D01*
X-42277621Y1685953D01*
X-42372859Y1638334D01*
X-42515716Y1638334D01*
X-42610954Y1685953D01*
X-42658573Y1733572D01*
X-42706192Y1828810D01*
X-42706192Y2209762D01*
X-42182382Y1305000D02*
X-43182382Y1066905D01*
X-42468097Y876429D01*
X-43182382Y685953D01*
X-42182382Y447858D01*
X-43182382Y66905D02*
X-42182382Y66905D01*
X-42896668Y-266428D01*
X-42182382Y-599761D01*
X-43182382Y-599761D01*
X-44770001Y1566905D02*
X-44722382Y1662143D01*
X-44722382Y1805000D01*
X-44770001Y1947858D01*
X-44865240Y2043096D01*
X-44960478Y2090715D01*
X-45150954Y2138334D01*
X-45293811Y2138334D01*
X-45484287Y2090715D01*
X-45579525Y2043096D01*
X-45674763Y1947858D01*
X-45722382Y1805000D01*
X-45722382Y1709762D01*
X-45674763Y1566905D01*
X-45627144Y1519286D01*
X-45293811Y1519286D01*
X-45293811Y1709762D01*
X-45722382Y1090715D02*
X-44722382Y1090715D01*
X-45722382Y519286D01*
X-44722382Y519286D01*
X-45722382Y43096D02*
X-44722382Y43096D01*
X-44722382Y-195000D01*
X-44770001Y-337857D01*
X-44865240Y-433095D01*
X-44960478Y-480714D01*
X-45150954Y-528333D01*
X-45293811Y-528333D01*
X-45484287Y-480714D01*
X-45579525Y-433095D01*
X-45674763Y-337857D01*
X-45722382Y-195000D01*
X-45722382Y43096D01*
%TO.C,BT5*%
X18388808Y38682381D02*
X18055475Y39682381D01*
X17722141Y38682381D01*
X17388808Y39682381D02*
X17388808Y39015715D01*
X17388808Y38682381D02*
X17436427Y38730000D01*
X17388808Y38777620D01*
X17341189Y38730000D01*
X17388808Y38682381D01*
X17388808Y38777620D01*
X16912618Y39015715D02*
X16912618Y39682381D01*
X16912618Y39110953D02*
X16864999Y39063334D01*
X16769760Y39015715D01*
X16626903Y39015715D01*
X16531665Y39063334D01*
X16484046Y39158572D01*
X16484046Y39682381D01*
X18126903Y41270000D02*
X18222141Y41222381D01*
X18364999Y41222381D01*
X18507856Y41270000D01*
X18603094Y41365239D01*
X18650713Y41460477D01*
X18698332Y41650953D01*
X18698332Y41793810D01*
X18650713Y41984286D01*
X18603094Y42079524D01*
X18507856Y42174762D01*
X18364999Y42222381D01*
X18269760Y42222381D01*
X18126903Y42174762D01*
X18079284Y42127143D01*
X18079284Y41793810D01*
X18269760Y41793810D01*
X17650713Y42222381D02*
X17650713Y41222381D01*
X17079284Y42222381D01*
X17079284Y41222381D01*
X16603094Y42222381D02*
X16603094Y41222381D01*
X16364999Y41222381D01*
X16222141Y41270000D01*
X16126903Y41365239D01*
X16079284Y41460477D01*
X16031665Y41650953D01*
X16031665Y41793810D01*
X16079284Y41984286D01*
X16126903Y42079524D01*
X16222141Y42174762D01*
X16364999Y42222381D01*
X16603094Y42222381D01*
X21119522Y37452381D02*
X21595713Y37452381D01*
X21595713Y36452381D01*
X20786189Y37452381D02*
X20786189Y36785715D01*
X20786189Y36452381D02*
X20833808Y36500000D01*
X20786189Y36547620D01*
X20738570Y36500000D01*
X20786189Y36452381D01*
X20786189Y36547620D01*
X20309999Y36785715D02*
X20309999Y37785715D01*
X20309999Y36833334D02*
X20214760Y36785715D01*
X20024284Y36785715D01*
X19929046Y36833334D01*
X19881427Y36880953D01*
X19833808Y36976191D01*
X19833808Y37261905D01*
X19881427Y37357143D01*
X19929046Y37404762D01*
X20024284Y37452381D01*
X20214760Y37452381D01*
X20309999Y37404762D01*
X19262379Y37452381D02*
X19357618Y37404762D01*
X19405237Y37357143D01*
X19452856Y37261905D01*
X19452856Y36976191D01*
X19405237Y36880953D01*
X19357618Y36833334D01*
X19262379Y36785715D01*
X19119522Y36785715D01*
X19024284Y36833334D01*
X18976665Y36880953D01*
X18929046Y36976191D01*
X18929046Y37261905D01*
X18976665Y37357143D01*
X19024284Y37404762D01*
X19119522Y37452381D01*
X19262379Y37452381D01*
X18595713Y36452381D02*
X17976665Y36452381D01*
X18309999Y36833334D01*
X18167141Y36833334D01*
X18071903Y36880953D01*
X18024284Y36928572D01*
X17976665Y37023810D01*
X17976665Y37261905D01*
X18024284Y37357143D01*
X18071903Y37404762D01*
X18167141Y37452381D01*
X18452856Y37452381D01*
X18548094Y37404762D01*
X18595713Y37357143D01*
%TO.C,U1*%
X-47952382Y10440477D02*
X-47476192Y10773810D01*
X-47952382Y11011905D02*
X-46952382Y11011905D01*
X-46952382Y10630953D01*
X-47000001Y10535715D01*
X-47047621Y10488096D01*
X-47142859Y10440477D01*
X-47285716Y10440477D01*
X-47380954Y10488096D01*
X-47428573Y10535715D01*
X-47476192Y10630953D01*
X-47476192Y11011905D01*
X-44770001Y8316905D02*
X-44722382Y8412143D01*
X-44722382Y8555000D01*
X-44770001Y8697858D01*
X-44865240Y8793096D01*
X-44960478Y8840715D01*
X-45150954Y8888334D01*
X-45293811Y8888334D01*
X-45484287Y8840715D01*
X-45579525Y8793096D01*
X-45674763Y8697858D01*
X-45722382Y8555000D01*
X-45722382Y8459762D01*
X-45674763Y8316905D01*
X-45627144Y8269286D01*
X-45293811Y8269286D01*
X-45293811Y8459762D01*
X-45722382Y7840715D02*
X-44722382Y7840715D01*
X-45722382Y7269286D01*
X-44722382Y7269286D01*
X-45722382Y6793096D02*
X-44722382Y6793096D01*
X-44722382Y6555000D01*
X-44770001Y6412143D01*
X-44865240Y6316905D01*
X-44960478Y6269286D01*
X-45150954Y6221667D01*
X-45293811Y6221667D01*
X-45484287Y6269286D01*
X-45579525Y6316905D01*
X-45674763Y6412143D01*
X-45722382Y6555000D01*
X-45722382Y6793096D01*
X-43182382Y8959762D02*
X-42182382Y8959762D01*
X-42182382Y8578810D01*
X-42230001Y8483572D01*
X-42277621Y8435953D01*
X-42372859Y8388334D01*
X-42515716Y8388334D01*
X-42610954Y8435953D01*
X-42658573Y8483572D01*
X-42706192Y8578810D01*
X-42706192Y8959762D01*
X-42182382Y8055000D02*
X-43182382Y7816905D01*
X-42468097Y7626429D01*
X-43182382Y7435953D01*
X-42182382Y7197858D01*
X-43182382Y6816905D02*
X-42182382Y6816905D01*
X-42896668Y6483572D01*
X-42182382Y6150239D01*
X-43182382Y6150239D01*
%TO.C,Q1*%
X-12985716Y40915239D02*
X-12842859Y40867620D01*
X-12604763Y40867620D01*
X-12509525Y40915239D01*
X-12461906Y40962858D01*
X-12414287Y41058096D01*
X-12414287Y41153334D01*
X-12461906Y41248572D01*
X-12509525Y41296191D01*
X-12604763Y41343810D01*
X-12795240Y41391429D01*
X-12890478Y41439048D01*
X-12938097Y41486667D01*
X-12985716Y41581905D01*
X-12985716Y41677143D01*
X-12938097Y41772381D01*
X-12890478Y41820000D01*
X-12795240Y41867620D01*
X-12557144Y41867620D01*
X-12414287Y41820000D01*
X-10261906Y40867620D02*
X-10261906Y41867620D01*
X-10023811Y41867620D01*
X-9880954Y41820000D01*
X-9785716Y41724762D01*
X-9738097Y41629524D01*
X-9690478Y41439048D01*
X-9690478Y41296191D01*
X-9738097Y41105715D01*
X-9785716Y41010477D01*
X-9880954Y40915239D01*
X-10023811Y40867620D01*
X-10261906Y40867620D01*
X-7038097Y41820000D02*
X-7133335Y41867620D01*
X-7276192Y41867620D01*
X-7419049Y41820000D01*
X-7514287Y41724762D01*
X-7561906Y41629524D01*
X-7609525Y41439048D01*
X-7609525Y41296191D01*
X-7561906Y41105715D01*
X-7514287Y41010477D01*
X-7419049Y40915239D01*
X-7276192Y40867620D01*
X-7180954Y40867620D01*
X-7038097Y40915239D01*
X-6990478Y40962858D01*
X-6990478Y41296191D01*
X-7180954Y41296191D01*
%TO.C,U4*%
X29814189Y-27976000D02*
X30290379Y-27976000D01*
X29290379Y-28309333D02*
X29814189Y-27976000D01*
X29290379Y-27642666D01*
X25480379Y-32119333D02*
X26480379Y-31452666D01*
X25480379Y-31452666D02*
X26480379Y-32119333D01*
%TO.C,R3*%
X-16940478Y28797620D02*
X-17273811Y29273810D01*
X-17511906Y28797620D02*
X-17511906Y29797620D01*
X-17130954Y29797620D01*
X-17035716Y29750000D01*
X-16988097Y29702381D01*
X-16940478Y29607143D01*
X-16940478Y29464286D01*
X-16988097Y29369048D01*
X-17035716Y29321429D01*
X-17130954Y29273810D01*
X-17511906Y29273810D01*
%TO.C,SW3*%
X-23412382Y40679048D02*
X-23412382Y40488572D01*
X-23460001Y40393334D01*
X-23555240Y40298096D01*
X-23745716Y40250477D01*
X-24079049Y40250477D01*
X-24269525Y40298096D01*
X-24364763Y40393334D01*
X-24412382Y40488572D01*
X-24412382Y40679048D01*
X-24364763Y40774286D01*
X-24269525Y40869524D01*
X-24079049Y40917143D01*
X-23745716Y40917143D01*
X-23555240Y40869524D01*
X-23460001Y40774286D01*
X-23412382Y40679048D01*
X-24412382Y39821905D02*
X-23412382Y39821905D01*
X-24412382Y39250477D01*
X-23412382Y39250477D01*
X-25952382Y41012381D02*
X-25952382Y40821905D01*
X-26000001Y40726667D01*
X-26095240Y40631429D01*
X-26285716Y40583810D01*
X-26619049Y40583810D01*
X-26809525Y40631429D01*
X-26904763Y40726667D01*
X-26952382Y40821905D01*
X-26952382Y41012381D01*
X-26904763Y41107620D01*
X-26809525Y41202858D01*
X-26619049Y41250477D01*
X-26285716Y41250477D01*
X-26095240Y41202858D01*
X-26000001Y41107620D01*
X-25952382Y41012381D01*
X-26428573Y39821905D02*
X-26428573Y40155239D01*
X-26952382Y40155239D02*
X-25952382Y40155239D01*
X-25952382Y39679048D01*
X-26428573Y38964762D02*
X-26428573Y39298096D01*
X-26952382Y39298096D02*
X-25952382Y39298096D01*
X-25952382Y38821905D01*
%TO.C,BT2*%
X-45535716Y-17821428D02*
X-44773811Y-17821428D01*
X-45154763Y-18202380D02*
X-45154763Y-17440476D01*
X-44250001Y-18202380D02*
X-44059525Y-18202380D01*
X-43964287Y-18154761D01*
X-43916668Y-18107142D01*
X-43821430Y-17964285D01*
X-43773811Y-17773809D01*
X-43773811Y-17392857D01*
X-43821430Y-17297619D01*
X-43869049Y-17250000D01*
X-43964287Y-17202380D01*
X-44154763Y-17202380D01*
X-44250001Y-17250000D01*
X-44297621Y-17297619D01*
X-44345240Y-17392857D01*
X-44345240Y-17630952D01*
X-44297621Y-17726190D01*
X-44250001Y-17773809D01*
X-44154763Y-17821428D01*
X-43964287Y-17821428D01*
X-43869049Y-17773809D01*
X-43821430Y-17726190D01*
X-43773811Y-17630952D01*
X-43488097Y-17202380D02*
X-43154763Y-18202380D01*
X-42821430Y-17202380D01*
%TO.C,SW5*%
X29929046Y31412381D02*
X29738570Y31412381D01*
X29643332Y31460000D01*
X29548094Y31555239D01*
X29500475Y31745715D01*
X29500475Y32079048D01*
X29548094Y32269524D01*
X29643332Y32364762D01*
X29738570Y32412381D01*
X29929046Y32412381D01*
X30024284Y32364762D01*
X30119522Y32269524D01*
X30167141Y32079048D01*
X30167141Y31745715D01*
X30119522Y31555239D01*
X30024284Y31460000D01*
X29929046Y31412381D01*
X29071903Y32412381D02*
X29071903Y31412381D01*
X28500475Y32412381D01*
X28500475Y31412381D01*
X30262379Y33952381D02*
X30071903Y33952381D01*
X29976665Y34000000D01*
X29881427Y34095239D01*
X29833808Y34285715D01*
X29833808Y34619048D01*
X29881427Y34809524D01*
X29976665Y34904762D01*
X30071903Y34952381D01*
X30262379Y34952381D01*
X30357618Y34904762D01*
X30452856Y34809524D01*
X30500475Y34619048D01*
X30500475Y34285715D01*
X30452856Y34095239D01*
X30357618Y34000000D01*
X30262379Y33952381D01*
X29071903Y34428572D02*
X29405237Y34428572D01*
X29405237Y34952381D02*
X29405237Y33952381D01*
X28929046Y33952381D01*
X28214760Y34428572D02*
X28548094Y34428572D01*
X28548094Y34952381D02*
X28548094Y33952381D01*
X28071903Y33952381D01*
%TO.C,R1*%
X-16940478Y25297620D02*
X-17273811Y25773810D01*
X-17511906Y25297620D02*
X-17511906Y26297620D01*
X-17130954Y26297620D01*
X-17035716Y26250000D01*
X-16988097Y26202381D01*
X-16940478Y26107143D01*
X-16940478Y25964286D01*
X-16988097Y25869048D01*
X-17035716Y25821429D01*
X-17130954Y25773810D01*
X-17511906Y25773810D01*
%TO.C,BT3*%
X11876903Y41270000D02*
X11972141Y41222381D01*
X12114999Y41222381D01*
X12257856Y41270000D01*
X12353094Y41365239D01*
X12400713Y41460477D01*
X12448332Y41650953D01*
X12448332Y41793810D01*
X12400713Y41984286D01*
X12353094Y42079524D01*
X12257856Y42174762D01*
X12114999Y42222381D01*
X12019760Y42222381D01*
X11876903Y42174762D01*
X11829284Y42127143D01*
X11829284Y41793810D01*
X12019760Y41793810D01*
X11400713Y42222381D02*
X11400713Y41222381D01*
X10829284Y42222381D01*
X10829284Y41222381D01*
X10353094Y42222381D02*
X10353094Y41222381D01*
X10114999Y41222381D01*
X9972141Y41270000D01*
X9876903Y41365239D01*
X9829284Y41460477D01*
X9781665Y41650953D01*
X9781665Y41793810D01*
X9829284Y41984286D01*
X9876903Y42079524D01*
X9972141Y42174762D01*
X10114999Y42222381D01*
X10353094Y42222381D01*
X12138808Y38682381D02*
X11805475Y39682381D01*
X11472141Y38682381D01*
X11138808Y39682381D02*
X11138808Y39015715D01*
X11138808Y38682381D02*
X11186427Y38730000D01*
X11138808Y38777620D01*
X11091189Y38730000D01*
X11138808Y38682381D01*
X11138808Y38777620D01*
X10662618Y39015715D02*
X10662618Y39682381D01*
X10662618Y39110953D02*
X10614999Y39063334D01*
X10519760Y39015715D01*
X10376903Y39015715D01*
X10281665Y39063334D01*
X10234046Y39158572D01*
X10234046Y39682381D01*
X15119522Y37452381D02*
X15595713Y37452381D01*
X15595713Y36452381D01*
X14786189Y37452381D02*
X14786189Y36785715D01*
X14786189Y36452381D02*
X14833808Y36500000D01*
X14786189Y36547620D01*
X14738570Y36500000D01*
X14786189Y36452381D01*
X14786189Y36547620D01*
X14309999Y36785715D02*
X14309999Y37785715D01*
X14309999Y36833334D02*
X14214760Y36785715D01*
X14024284Y36785715D01*
X13929046Y36833334D01*
X13881427Y36880953D01*
X13833808Y36976191D01*
X13833808Y37261905D01*
X13881427Y37357143D01*
X13929046Y37404762D01*
X14024284Y37452381D01*
X14214760Y37452381D01*
X14309999Y37404762D01*
X13262379Y37452381D02*
X13357618Y37404762D01*
X13405237Y37357143D01*
X13452856Y37261905D01*
X13452856Y36976191D01*
X13405237Y36880953D01*
X13357618Y36833334D01*
X13262379Y36785715D01*
X13119522Y36785715D01*
X13024284Y36833334D01*
X12976665Y36880953D01*
X12929046Y36976191D01*
X12929046Y37261905D01*
X12976665Y37357143D01*
X13024284Y37404762D01*
X13119522Y37452381D01*
X13262379Y37452381D01*
X12595713Y36452381D02*
X11976665Y36452381D01*
X12309999Y36833334D01*
X12167141Y36833334D01*
X12071903Y36880953D01*
X12024284Y36928572D01*
X11976665Y37023810D01*
X11976665Y37261905D01*
X12024284Y37357143D01*
X12071903Y37404762D01*
X12167141Y37452381D01*
X12452856Y37452381D01*
X12548094Y37404762D01*
X12595713Y37357143D01*
%TO.C,D3*%
X-14547621Y35857143D02*
X-14547621Y35380953D01*
X-15547621Y35380953D01*
X-15071430Y36190477D02*
X-15071430Y36523810D01*
X-14547621Y36666667D02*
X-14547621Y36190477D01*
X-15547621Y36190477D01*
X-15547621Y36666667D01*
X-14547621Y37095239D02*
X-15547621Y37095239D01*
X-15547621Y37333334D01*
X-15500001Y37476191D01*
X-15404763Y37571429D01*
X-15309525Y37619048D01*
X-15119049Y37666667D01*
X-14976192Y37666667D01*
X-14785716Y37619048D01*
X-14690478Y37571429D01*
X-14595240Y37476191D01*
X-14547621Y37333334D01*
X-14547621Y37095239D01*
D11*
%TO.C,U9*%
X-12450001Y-47910000D02*
X12949999Y-47910000D01*
X12949999Y-27590000D02*
X12949999Y-44100000D01*
X-12450001Y-27590000D02*
X-12450001Y-47910000D01*
X-12450001Y-27590000D02*
X12949999Y-27590000D01*
X12949999Y-47910000D02*
X12949999Y-44100000D01*
%TO.C,CI1*%
X42669999Y-9330000D02*
X47749999Y-9330000D01*
X47749999Y-9330000D02*
X47749999Y830000D01*
X47749999Y830000D02*
X42669999Y830000D01*
X42669999Y830000D02*
X42669999Y-9330000D01*
%TO.C,BT4*%
X-46540001Y-7750000D02*
X-46540001Y-10290000D01*
X-46540001Y-10290000D02*
X-41460001Y-10290000D01*
X-41460001Y-10290000D02*
X-41460001Y-7750000D01*
X-41460001Y-7750000D02*
X-46540001Y-7750000D01*
%TO.C,R2*%
X-21060001Y34020000D02*
X-13440001Y34020000D01*
X-13440001Y34020000D02*
X-13440001Y31480000D01*
X-13440001Y31480000D02*
X-21060001Y31480000D01*
X-21060001Y31480000D02*
X-21060001Y34020000D01*
%TO.C,SW1*%
X-30945001Y28905000D02*
X-22055001Y28905000D01*
X-30945001Y25095000D02*
X-30945001Y28905000D01*
X-22055001Y25095000D02*
X-22055001Y28905000D01*
X-22055001Y25095000D02*
X-30945001Y25095000D01*
%TO.C,BT6*%
X6789999Y43040000D02*
X6789999Y37960000D01*
X6789999Y37960000D02*
X9329999Y37960000D01*
X9329999Y37960000D02*
X9329999Y43040000D01*
X9329999Y43040000D02*
X6789999Y43040000D01*
%TO.C,G2*%
G36*
X39582498Y23771334D02*
G01*
X39591356Y23726064D01*
X39596601Y23665269D01*
X39598137Y23597987D01*
X39595869Y23533257D01*
X39589701Y23480116D01*
X39579537Y23447603D01*
X39573821Y23442179D01*
X39549940Y23445019D01*
X39502595Y23459329D01*
X39439191Y23482646D01*
X39383321Y23505516D01*
X39307785Y23538666D01*
X39258535Y23563261D01*
X39230228Y23582856D01*
X39217524Y23601008D01*
X39215001Y23617557D01*
X39218933Y23637482D01*
X39234302Y23656023D01*
X39266463Y23676833D01*
X39320771Y23703566D01*
X39379622Y23729861D01*
X39449953Y23758757D01*
X39510565Y23780144D01*
X39553809Y23791526D01*
X39570122Y23792040D01*
X39582498Y23771334D01*
G37*
D12*
X39582498Y23771334D02*
X39591356Y23726064D01*
X39596601Y23665269D01*
X39598137Y23597987D01*
X39595869Y23533257D01*
X39589701Y23480116D01*
X39579537Y23447603D01*
X39573821Y23442179D01*
X39549940Y23445019D01*
X39502595Y23459329D01*
X39439191Y23482646D01*
X39383321Y23505516D01*
X39307785Y23538666D01*
X39258535Y23563261D01*
X39230228Y23582856D01*
X39217524Y23601008D01*
X39215001Y23617557D01*
X39218933Y23637482D01*
X39234302Y23656023D01*
X39266463Y23676833D01*
X39320771Y23703566D01*
X39379622Y23729861D01*
X39449953Y23758757D01*
X39510565Y23780144D01*
X39553809Y23791526D01*
X39570122Y23792040D01*
X39582498Y23771334D01*
G36*
X38105867Y23667337D02*
G01*
X38000034Y23753571D01*
X37928455Y23808564D01*
X37833944Y23876256D01*
X37722912Y23952438D01*
X37601770Y24032898D01*
X37476927Y24113427D01*
X37354796Y24189813D01*
X37241787Y24257846D01*
X37166067Y24301306D01*
X36833379Y24476410D01*
X36474806Y24645787D01*
X36098231Y24806327D01*
X35711535Y24954919D01*
X35322599Y25088452D01*
X34939305Y25203817D01*
X34754037Y25253255D01*
X34566800Y25300964D01*
X34566800Y26593256D01*
X34774234Y26603482D01*
X34980857Y26613713D01*
X35157502Y26622582D01*
X35308017Y26630311D01*
X35436254Y26637124D01*
X35546061Y26643245D01*
X35641290Y26648897D01*
X35725791Y26654305D01*
X35803414Y26659691D01*
X35878009Y26665278D01*
X35953426Y26671292D01*
X35980734Y26673539D01*
X36308965Y26704683D01*
X36605549Y26741384D01*
X36872333Y26784179D01*
X37111162Y26833609D01*
X37323883Y26890211D01*
X37512342Y26954525D01*
X37678385Y27027090D01*
X37823858Y27108445D01*
X37950607Y27199129D01*
X38033901Y27273012D01*
X38105867Y27342991D01*
X38105867Y23667337D01*
G37*
X38105867Y23667337D02*
X38000034Y23753571D01*
X37928455Y23808564D01*
X37833944Y23876256D01*
X37722912Y23952438D01*
X37601770Y24032898D01*
X37476927Y24113427D01*
X37354796Y24189813D01*
X37241787Y24257846D01*
X37166067Y24301306D01*
X36833379Y24476410D01*
X36474806Y24645787D01*
X36098231Y24806327D01*
X35711535Y24954919D01*
X35322599Y25088452D01*
X34939305Y25203817D01*
X34754037Y25253255D01*
X34566800Y25300964D01*
X34566800Y26593256D01*
X34774234Y26603482D01*
X34980857Y26613713D01*
X35157502Y26622582D01*
X35308017Y26630311D01*
X35436254Y26637124D01*
X35546061Y26643245D01*
X35641290Y26648897D01*
X35725791Y26654305D01*
X35803414Y26659691D01*
X35878009Y26665278D01*
X35953426Y26671292D01*
X35980734Y26673539D01*
X36308965Y26704683D01*
X36605549Y26741384D01*
X36872333Y26784179D01*
X37111162Y26833609D01*
X37323883Y26890211D01*
X37512342Y26954525D01*
X37678385Y27027090D01*
X37823858Y27108445D01*
X37950607Y27199129D01*
X38033901Y27273012D01*
X38105867Y27342991D01*
X38105867Y23667337D01*
G36*
X29639201Y25750000D02*
G01*
X29639201Y25038800D01*
X29638972Y24887304D01*
X29638320Y24746833D01*
X29637292Y24620883D01*
X29635937Y24512954D01*
X29634305Y24426543D01*
X29632445Y24365149D01*
X29630404Y24332269D01*
X29629266Y24327600D01*
X29606334Y24333027D01*
X29554338Y24348684D01*
X29475999Y24373633D01*
X29374039Y24406938D01*
X29251177Y24447661D01*
X29110136Y24494865D01*
X28953636Y24547613D01*
X28784398Y24604968D01*
X28605144Y24665992D01*
X28418593Y24729749D01*
X28227468Y24795302D01*
X28034489Y24861713D01*
X27842378Y24928045D01*
X27653854Y24993361D01*
X27471640Y25056724D01*
X27298456Y25117197D01*
X27137024Y25173843D01*
X26990064Y25225724D01*
X26860297Y25271903D01*
X26750444Y25311444D01*
X26663227Y25343409D01*
X26601366Y25366861D01*
X26567582Y25380863D01*
X26562161Y25383928D01*
X26575824Y25391126D01*
X26616864Y25408674D01*
X26681018Y25434851D01*
X26764023Y25467932D01*
X26861614Y25506194D01*
X26934050Y25534260D01*
X27310921Y25679610D01*
X28352294Y25714847D01*
X28540961Y25721163D01*
X28722642Y25727115D01*
X28893977Y25732601D01*
X29051606Y25737519D01*
X29192169Y25741768D01*
X29312306Y25745246D01*
X29408657Y25747853D01*
X29477863Y25749485D01*
X29516434Y25750042D01*
X29639201Y25750000D01*
G37*
X29639201Y25750000D02*
X29639201Y25038800D01*
X29638972Y24887304D01*
X29638320Y24746833D01*
X29637292Y24620883D01*
X29635937Y24512954D01*
X29634305Y24426543D01*
X29632445Y24365149D01*
X29630404Y24332269D01*
X29629266Y24327600D01*
X29606334Y24333027D01*
X29554338Y24348684D01*
X29475999Y24373633D01*
X29374039Y24406938D01*
X29251177Y24447661D01*
X29110136Y24494865D01*
X28953636Y24547613D01*
X28784398Y24604968D01*
X28605144Y24665992D01*
X28418593Y24729749D01*
X28227468Y24795302D01*
X28034489Y24861713D01*
X27842378Y24928045D01*
X27653854Y24993361D01*
X27471640Y25056724D01*
X27298456Y25117197D01*
X27137024Y25173843D01*
X26990064Y25225724D01*
X26860297Y25271903D01*
X26750444Y25311444D01*
X26663227Y25343409D01*
X26601366Y25366861D01*
X26567582Y25380863D01*
X26562161Y25383928D01*
X26575824Y25391126D01*
X26616864Y25408674D01*
X26681018Y25434851D01*
X26764023Y25467932D01*
X26861614Y25506194D01*
X26934050Y25534260D01*
X27310921Y25679610D01*
X28352294Y25714847D01*
X28540961Y25721163D01*
X28722642Y25727115D01*
X28893977Y25732601D01*
X29051606Y25737519D01*
X29192169Y25741768D01*
X29312306Y25745246D01*
X29408657Y25747853D01*
X29477863Y25749485D01*
X29516434Y25750042D01*
X29639201Y25750000D01*
G36*
X39923141Y23504094D02*
G01*
X39964911Y23489312D01*
X40014857Y23466342D01*
X40062791Y23440201D01*
X40098527Y23415903D01*
X40111379Y23401462D01*
X40101726Y23381002D01*
X40062651Y23352309D01*
X40019293Y23328513D01*
X39965423Y23302562D01*
X39922726Y23284259D01*
X39901283Y23277733D01*
X39892241Y23292828D01*
X39886494Y23331065D01*
X39884115Y23381873D01*
X39885176Y23434682D01*
X39889749Y23478922D01*
X39897905Y23504020D01*
X39899733Y23505673D01*
X39923141Y23504094D01*
G37*
X39923141Y23504094D02*
X39964911Y23489312D01*
X40014857Y23466342D01*
X40062791Y23440201D01*
X40098527Y23415903D01*
X40111379Y23401462D01*
X40101726Y23381002D01*
X40062651Y23352309D01*
X40019293Y23328513D01*
X39965423Y23302562D01*
X39922726Y23284259D01*
X39901283Y23277733D01*
X39892241Y23292828D01*
X39886494Y23331065D01*
X39884115Y23381873D01*
X39885176Y23434682D01*
X39889749Y23478922D01*
X39897905Y23504020D01*
X39899733Y23505673D01*
X39923141Y23504094D01*
G36*
X34051693Y24087537D02*
G01*
X34168385Y24087150D01*
X34264406Y24086421D01*
X34336243Y24085367D01*
X34380385Y24084005D01*
X34393234Y24082780D01*
X34401786Y24063726D01*
X34408352Y24018445D01*
X34412939Y23953775D01*
X34415556Y23876555D01*
X34416213Y23793620D01*
X34414917Y23711810D01*
X34411678Y23637961D01*
X34406504Y23578911D01*
X34399405Y23541497D01*
X34392529Y23531733D01*
X34363181Y23537651D01*
X34304918Y23554777D01*
X34220436Y23582171D01*
X34112433Y23618893D01*
X33983606Y23664004D01*
X33836651Y23716563D01*
X33674266Y23775631D01*
X33499147Y23840267D01*
X33384109Y23883195D01*
X32853351Y24082067D01*
X33612709Y24086482D01*
X33770343Y24087220D01*
X33917841Y24087566D01*
X34051693Y24087537D01*
G37*
X34051693Y24087537D02*
X34168385Y24087150D01*
X34264406Y24086421D01*
X34336243Y24085367D01*
X34380385Y24084005D01*
X34393234Y24082780D01*
X34401786Y24063726D01*
X34408352Y24018445D01*
X34412939Y23953775D01*
X34415556Y23876555D01*
X34416213Y23793620D01*
X34414917Y23711810D01*
X34411678Y23637961D01*
X34406504Y23578911D01*
X34399405Y23541497D01*
X34392529Y23531733D01*
X34363181Y23537651D01*
X34304918Y23554777D01*
X34220436Y23582171D01*
X34112433Y23618893D01*
X33983606Y23664004D01*
X33836651Y23716563D01*
X33674266Y23775631D01*
X33499147Y23840267D01*
X33384109Y23883195D01*
X32853351Y24082067D01*
X33612709Y24086482D01*
X33770343Y24087220D01*
X33917841Y24087566D01*
X34051693Y24087537D01*
G36*
X36107734Y29090094D02*
G01*
X35286594Y28884780D01*
X35125247Y28844510D01*
X34973822Y28806854D01*
X34835502Y28772595D01*
X34713472Y28742514D01*
X34610916Y28717396D01*
X34531021Y28698020D01*
X34476969Y28685171D01*
X34451945Y28679629D01*
X34450706Y28679467D01*
X34436802Y28693699D01*
X34414340Y28731068D01*
X34388109Y28783583D01*
X34387318Y28785300D01*
X34363692Y28840666D01*
X34349305Y28888697D01*
X34342052Y28941233D01*
X34339829Y29010114D01*
X34339927Y29052000D01*
X34342735Y29142207D01*
X34350979Y29212055D01*
X34366833Y29274894D01*
X34384039Y29322933D01*
X34466160Y29495285D01*
X34579336Y29669799D01*
X34724139Y29847156D01*
X34901139Y30028039D01*
X35110909Y30213131D01*
X35169369Y30260809D01*
X35260211Y30331024D01*
X35369978Y30411472D01*
X35491606Y30497351D01*
X35618030Y30583861D01*
X35742185Y30666202D01*
X35857004Y30739572D01*
X35955424Y30799171D01*
X35993434Y30820745D01*
X36107734Y30883715D01*
X36107734Y29090094D01*
G37*
X36107734Y29090094D02*
X35286594Y28884780D01*
X35125247Y28844510D01*
X34973822Y28806854D01*
X34835502Y28772595D01*
X34713472Y28742514D01*
X34610916Y28717396D01*
X34531021Y28698020D01*
X34476969Y28685171D01*
X34451945Y28679629D01*
X34450706Y28679467D01*
X34436802Y28693699D01*
X34414340Y28731068D01*
X34388109Y28783583D01*
X34387318Y28785300D01*
X34363692Y28840666D01*
X34349305Y28888697D01*
X34342052Y28941233D01*
X34339829Y29010114D01*
X34339927Y29052000D01*
X34342735Y29142207D01*
X34350979Y29212055D01*
X34366833Y29274894D01*
X34384039Y29322933D01*
X34466160Y29495285D01*
X34579336Y29669799D01*
X34724139Y29847156D01*
X34901139Y30028039D01*
X35110909Y30213131D01*
X35169369Y30260809D01*
X35260211Y30331024D01*
X35369978Y30411472D01*
X35491606Y30497351D01*
X35618030Y30583861D01*
X35742185Y30666202D01*
X35857004Y30739572D01*
X35955424Y30799171D01*
X35993434Y30820745D01*
X36107734Y30883715D01*
X36107734Y29090094D01*
G36*
X36175467Y23165788D02*
G01*
X36035767Y23180050D01*
X35832127Y23204929D01*
X35607447Y23239493D01*
X35372451Y23281680D01*
X35137863Y23329430D01*
X34914408Y23380682D01*
X34712810Y23433374D01*
X34702765Y23436217D01*
X34575267Y23472466D01*
X34570652Y23781500D01*
X34566037Y24090533D01*
X36175467Y24090533D01*
X36175467Y23165788D01*
G37*
X36175467Y23165788D02*
X36035767Y23180050D01*
X35832127Y23204929D01*
X35607447Y23239493D01*
X35372451Y23281680D01*
X35137863Y23329430D01*
X34914408Y23380682D01*
X34712810Y23433374D01*
X34702765Y23436217D01*
X34575267Y23472466D01*
X34570652Y23781500D01*
X34566037Y24090533D01*
X36175467Y24090533D01*
X36175467Y23165788D01*
G36*
X39919603Y23773885D02*
G01*
X39958913Y23760055D01*
X40008308Y23739655D01*
X40058039Y23716983D01*
X40098357Y23696335D01*
X40119514Y23682007D01*
X40120675Y23679656D01*
X40112702Y23664189D01*
X40107975Y23656721D01*
X40085041Y23636948D01*
X40043629Y23612180D01*
X39994010Y23587321D01*
X39946457Y23567273D01*
X39911241Y23556939D01*
X39900166Y23557526D01*
X39890913Y23579306D01*
X39885620Y23622847D01*
X39884289Y23676281D01*
X39886923Y23727735D01*
X39893524Y23765339D01*
X39900128Y23776851D01*
X39919603Y23773885D01*
G37*
X39919603Y23773885D02*
X39958913Y23760055D01*
X40008308Y23739655D01*
X40058039Y23716983D01*
X40098357Y23696335D01*
X40119514Y23682007D01*
X40120675Y23679656D01*
X40112702Y23664189D01*
X40107975Y23656721D01*
X40085041Y23636948D01*
X40043629Y23612180D01*
X39994010Y23587321D01*
X39946457Y23567273D01*
X39911241Y23556939D01*
X39900166Y23557526D01*
X39890913Y23579306D01*
X39885620Y23622847D01*
X39884289Y23676281D01*
X39886923Y23727735D01*
X39893524Y23765339D01*
X39900128Y23776851D01*
X39919603Y23773885D01*
G36*
X39736365Y27565592D02*
G01*
X39765836Y27531051D01*
X39781495Y27505332D01*
X39782267Y27501587D01*
X39770840Y27484903D01*
X39739161Y27448686D01*
X39691131Y27397142D01*
X39630654Y27334475D01*
X39574920Y27278147D01*
X39367573Y27070800D01*
X39731467Y27070800D01*
X39731467Y26935333D01*
X38766267Y26935333D01*
X38766267Y27070800D01*
X38962812Y27070800D01*
X39048424Y27071466D01*
X39105009Y27073868D01*
X39137388Y27078613D01*
X39150382Y27086310D01*
X39150292Y27094423D01*
X39137368Y27115947D01*
X39108014Y27159037D01*
X39066110Y27218163D01*
X39015541Y27287794D01*
X38994777Y27315970D01*
X38937930Y27393337D01*
X38899137Y27448301D01*
X38876005Y27485460D01*
X38866146Y27509411D01*
X38867169Y27524751D01*
X38876683Y27536080D01*
X38879263Y27538166D01*
X38920463Y27567532D01*
X38955806Y27587828D01*
X38975591Y27593602D01*
X38976622Y27592872D01*
X38987754Y27577951D01*
X39015197Y27541098D01*
X39055049Y27487555D01*
X39103407Y27422565D01*
X39113152Y27409466D01*
X39163794Y27341644D01*
X39207845Y27283113D01*
X39241007Y27239550D01*
X39258983Y27216634D01*
X39260144Y27215283D01*
X39277181Y27220733D01*
X39314700Y27248982D01*
X39370236Y27297915D01*
X39441327Y27365421D01*
X39482661Y27406202D01*
X39690462Y27613504D01*
X39736365Y27565592D01*
G37*
X39736365Y27565592D02*
X39765836Y27531051D01*
X39781495Y27505332D01*
X39782267Y27501587D01*
X39770840Y27484903D01*
X39739161Y27448686D01*
X39691131Y27397142D01*
X39630654Y27334475D01*
X39574920Y27278147D01*
X39367573Y27070800D01*
X39731467Y27070800D01*
X39731467Y26935333D01*
X38766267Y26935333D01*
X38766267Y27070800D01*
X38962812Y27070800D01*
X39048424Y27071466D01*
X39105009Y27073868D01*
X39137388Y27078613D01*
X39150382Y27086310D01*
X39150292Y27094423D01*
X39137368Y27115947D01*
X39108014Y27159037D01*
X39066110Y27218163D01*
X39015541Y27287794D01*
X38994777Y27315970D01*
X38937930Y27393337D01*
X38899137Y27448301D01*
X38876005Y27485460D01*
X38866146Y27509411D01*
X38867169Y27524751D01*
X38876683Y27536080D01*
X38879263Y27538166D01*
X38920463Y27567532D01*
X38955806Y27587828D01*
X38975591Y27593602D01*
X38976622Y27592872D01*
X38987754Y27577951D01*
X39015197Y27541098D01*
X39055049Y27487555D01*
X39103407Y27422565D01*
X39113152Y27409466D01*
X39163794Y27341644D01*
X39207845Y27283113D01*
X39241007Y27239550D01*
X39258983Y27216634D01*
X39260144Y27215283D01*
X39277181Y27220733D01*
X39314700Y27248982D01*
X39370236Y27297915D01*
X39441327Y27365421D01*
X39482661Y27406202D01*
X39690462Y27613504D01*
X39736365Y27565592D01*
G36*
X30909201Y26681333D02*
G01*
X30786434Y26681289D01*
X30730677Y26680827D01*
X30648726Y26679567D01*
X30548240Y26677656D01*
X30436876Y26675240D01*
X30322293Y26672465D01*
X30316534Y26672317D01*
X29969400Y26663389D01*
X30206467Y26749934D01*
X30317860Y26790389D01*
X30444352Y26835992D01*
X30570147Y26881066D01*
X30676367Y26918843D01*
X30909201Y27001206D01*
X30909201Y26681333D01*
G37*
X30909201Y26681333D02*
X30786434Y26681289D01*
X30730677Y26680827D01*
X30648726Y26679567D01*
X30548240Y26677656D01*
X30436876Y26675240D01*
X30322293Y26672465D01*
X30316534Y26672317D01*
X29969400Y26663389D01*
X30206467Y26749934D01*
X30317860Y26790389D01*
X30444352Y26835992D01*
X30570147Y26881066D01*
X30676367Y26918843D01*
X30909201Y27001206D01*
X30909201Y26681333D01*
G36*
X39240401Y26105600D02*
G01*
X40154800Y26105600D01*
X40154800Y25953200D01*
X39240401Y25953200D01*
X39240401Y25614533D01*
X39121867Y25614533D01*
X39121867Y26444266D01*
X39240401Y26444266D01*
X39240401Y26105600D01*
G37*
X39240401Y26105600D02*
X40154800Y26105600D01*
X40154800Y25953200D01*
X39240401Y25953200D01*
X39240401Y25614533D01*
X39121867Y25614533D01*
X39121867Y26444266D01*
X39240401Y26444266D01*
X39240401Y26105600D01*
G36*
X39799200Y23464000D02*
G01*
X39680667Y23464000D01*
X39680667Y23719812D01*
X39680060Y23821582D01*
X39678016Y23893375D01*
X39674199Y23939065D01*
X39668273Y23962523D01*
X39659903Y23967623D01*
X39659214Y23967391D01*
X39590571Y23940081D01*
X39508196Y23905784D01*
X39417038Y23866730D01*
X39322046Y23825149D01*
X39228167Y23783271D01*
X39140350Y23743326D01*
X39063544Y23707544D01*
X39002696Y23678155D01*
X38962755Y23657389D01*
X38948670Y23647476D01*
X38948791Y23647236D01*
X38966543Y23637557D01*
X39011633Y23615458D01*
X39080583Y23582577D01*
X39169916Y23540547D01*
X39276155Y23491005D01*
X39395825Y23435584D01*
X39525448Y23375920D01*
X39535922Y23371114D01*
X39665632Y23311544D01*
X39785231Y23256485D01*
X39891325Y23207509D01*
X39980519Y23166188D01*
X40049420Y23134095D01*
X40094635Y23112803D01*
X40112769Y23103884D01*
X40112959Y23103738D01*
X40108954Y23087230D01*
X40095958Y23050639D01*
X40090478Y23036433D01*
X40071699Y22996505D01*
X40055311Y22974455D01*
X40051705Y22972933D01*
X40034259Y22979730D01*
X39989932Y22998945D01*
X39922598Y23028811D01*
X39836129Y23067563D01*
X39734400Y23113434D01*
X39621283Y23164660D01*
X39500652Y23219474D01*
X39376380Y23276110D01*
X39252340Y23332803D01*
X39132405Y23387787D01*
X39020448Y23439296D01*
X38920343Y23485564D01*
X38835963Y23524826D01*
X38771182Y23555315D01*
X38729871Y23575267D01*
X38723924Y23578268D01*
X38665989Y23607991D01*
X38703428Y23674728D01*
X38715043Y23693929D01*
X38728870Y23711149D01*
X38748397Y23728232D01*
X38777112Y23747022D01*
X38818503Y23769361D01*
X38876058Y23797094D01*
X38953266Y23832065D01*
X39053615Y23876116D01*
X39180592Y23931092D01*
X39223467Y23949589D01*
X39344919Y24001342D01*
X39458178Y24048420D01*
X39559033Y24089163D01*
X39643272Y24121915D01*
X39706686Y24145016D01*
X39745063Y24156808D01*
X39752634Y24157989D01*
X39799200Y24158267D01*
X39799200Y23464000D01*
G37*
X39799200Y23464000D02*
X39680667Y23464000D01*
X39680667Y23719812D01*
X39680060Y23821582D01*
X39678016Y23893375D01*
X39674199Y23939065D01*
X39668273Y23962523D01*
X39659903Y23967623D01*
X39659214Y23967391D01*
X39590571Y23940081D01*
X39508196Y23905784D01*
X39417038Y23866730D01*
X39322046Y23825149D01*
X39228167Y23783271D01*
X39140350Y23743326D01*
X39063544Y23707544D01*
X39002696Y23678155D01*
X38962755Y23657389D01*
X38948670Y23647476D01*
X38948791Y23647236D01*
X38966543Y23637557D01*
X39011633Y23615458D01*
X39080583Y23582577D01*
X39169916Y23540547D01*
X39276155Y23491005D01*
X39395825Y23435584D01*
X39525448Y23375920D01*
X39535922Y23371114D01*
X39665632Y23311544D01*
X39785231Y23256485D01*
X39891325Y23207509D01*
X39980519Y23166188D01*
X40049420Y23134095D01*
X40094635Y23112803D01*
X40112769Y23103884D01*
X40112959Y23103738D01*
X40108954Y23087230D01*
X40095958Y23050639D01*
X40090478Y23036433D01*
X40071699Y22996505D01*
X40055311Y22974455D01*
X40051705Y22972933D01*
X40034259Y22979730D01*
X39989932Y22998945D01*
X39922598Y23028811D01*
X39836129Y23067563D01*
X39734400Y23113434D01*
X39621283Y23164660D01*
X39500652Y23219474D01*
X39376380Y23276110D01*
X39252340Y23332803D01*
X39132405Y23387787D01*
X39020448Y23439296D01*
X38920343Y23485564D01*
X38835963Y23524826D01*
X38771182Y23555315D01*
X38729871Y23575267D01*
X38723924Y23578268D01*
X38665989Y23607991D01*
X38703428Y23674728D01*
X38715043Y23693929D01*
X38728870Y23711149D01*
X38748397Y23728232D01*
X38777112Y23747022D01*
X38818503Y23769361D01*
X38876058Y23797094D01*
X38953266Y23832065D01*
X39053615Y23876116D01*
X39180592Y23931092D01*
X39223467Y23949589D01*
X39344919Y24001342D01*
X39458178Y24048420D01*
X39559033Y24089163D01*
X39643272Y24121915D01*
X39706686Y24145016D01*
X39745063Y24156808D01*
X39752634Y24157989D01*
X39799200Y24158267D01*
X39799200Y23464000D01*
G36*
X29634677Y26529812D02*
G01*
X29636490Y26485162D01*
X29637923Y26417186D01*
X29638863Y26331157D01*
X29639201Y26232600D01*
X29639201Y25919333D01*
X29575701Y25919012D01*
X29545134Y25918340D01*
X29484735Y25916558D01*
X29398516Y25913802D01*
X29290486Y25910204D01*
X29164659Y25905899D01*
X29025044Y25901022D01*
X28875654Y25895706D01*
X28826401Y25893933D01*
X28669846Y25888449D01*
X28517611Y25883430D01*
X28374457Y25879011D01*
X28245142Y25875326D01*
X28134429Y25872510D01*
X28047076Y25870697D01*
X27987846Y25870021D01*
X27979734Y25870034D01*
X27818867Y25870893D01*
X27928934Y25913852D01*
X27969911Y25929549D01*
X28036041Y25954515D01*
X28123773Y25987433D01*
X28229557Y26026986D01*
X28349845Y26071858D01*
X28481087Y26120731D01*
X28619733Y26172290D01*
X28762234Y26225217D01*
X28905040Y26278195D01*
X29044602Y26329908D01*
X29177371Y26379039D01*
X29299796Y26424271D01*
X29408329Y26464288D01*
X29499420Y26497772D01*
X29569519Y26523407D01*
X29615078Y26539876D01*
X29632545Y26545863D01*
X29632593Y26545866D01*
X29634677Y26529812D01*
G37*
X29634677Y26529812D02*
X29636490Y26485162D01*
X29637923Y26417186D01*
X29638863Y26331157D01*
X29639201Y26232600D01*
X29639201Y25919333D01*
X29575701Y25919012D01*
X29545134Y25918340D01*
X29484735Y25916558D01*
X29398516Y25913802D01*
X29290486Y25910204D01*
X29164659Y25905899D01*
X29025044Y25901022D01*
X28875654Y25895706D01*
X28826401Y25893933D01*
X28669846Y25888449D01*
X28517611Y25883430D01*
X28374457Y25879011D01*
X28245142Y25875326D01*
X28134429Y25872510D01*
X28047076Y25870697D01*
X27987846Y25870021D01*
X27979734Y25870034D01*
X27818867Y25870893D01*
X27928934Y25913852D01*
X27969911Y25929549D01*
X28036041Y25954515D01*
X28123773Y25987433D01*
X28229557Y26026986D01*
X28349845Y26071858D01*
X28481087Y26120731D01*
X28619733Y26172290D01*
X28762234Y26225217D01*
X28905040Y26278195D01*
X29044602Y26329908D01*
X29177371Y26379039D01*
X29299796Y26424271D01*
X29408329Y26464288D01*
X29499420Y26497772D01*
X29569519Y26523407D01*
X29615078Y26539876D01*
X29632545Y26545863D01*
X29632593Y26545866D01*
X29634677Y26529812D01*
G36*
X36331800Y28328959D02*
G01*
X36496738Y28324533D01*
X36644914Y28316026D01*
X36784831Y28302721D01*
X36924988Y28283900D01*
X37073888Y28258846D01*
X37147108Y28245135D01*
X37324683Y28205524D01*
X37499640Y28156153D01*
X37665766Y28099351D01*
X37816850Y28037448D01*
X37946677Y27972772D01*
X38049035Y27907653D01*
X38050834Y27906306D01*
X38080266Y27882079D01*
X38096675Y27858257D01*
X38103756Y27824300D01*
X38105204Y27769670D01*
X38105119Y27751505D01*
X38098819Y27662500D01*
X38079619Y27593311D01*
X38068792Y27570333D01*
X38026400Y27507640D01*
X37962698Y27435387D01*
X37885596Y27361130D01*
X37803007Y27292423D01*
X37722844Y27236822D01*
X37713866Y27231449D01*
X37592301Y27166941D01*
X37456574Y27108287D01*
X37304843Y27055172D01*
X37135266Y27007286D01*
X36945999Y26964315D01*
X36735201Y26925949D01*
X36501030Y26891875D01*
X36241642Y26861780D01*
X35955196Y26835353D01*
X35639848Y26812282D01*
X35293758Y26792254D01*
X35053763Y26780822D01*
X34931263Y26775676D01*
X34820225Y26771505D01*
X34725022Y26768435D01*
X34650028Y26766590D01*
X34599616Y26766094D01*
X34578160Y26767071D01*
X34577748Y26767282D01*
X34576131Y26785221D01*
X34574143Y26833395D01*
X34571873Y26908173D01*
X34569410Y27005927D01*
X34566843Y27123026D01*
X34564261Y27255841D01*
X34561753Y27400743D01*
X34560908Y27453766D01*
X34550312Y28133066D01*
X34799856Y28186575D01*
X35002733Y28228545D01*
X35182014Y28261758D01*
X35346517Y28287156D01*
X35505058Y28305683D01*
X35666454Y28318280D01*
X35839521Y28325891D01*
X36033076Y28329458D01*
X36141601Y28330022D01*
X36331800Y28328959D01*
G37*
X36331800Y28328959D02*
X36496738Y28324533D01*
X36644914Y28316026D01*
X36784831Y28302721D01*
X36924988Y28283900D01*
X37073888Y28258846D01*
X37147108Y28245135D01*
X37324683Y28205524D01*
X37499640Y28156153D01*
X37665766Y28099351D01*
X37816850Y28037448D01*
X37946677Y27972772D01*
X38049035Y27907653D01*
X38050834Y27906306D01*
X38080266Y27882079D01*
X38096675Y27858257D01*
X38103756Y27824300D01*
X38105204Y27769670D01*
X38105119Y27751505D01*
X38098819Y27662500D01*
X38079619Y27593311D01*
X38068792Y27570333D01*
X38026400Y27507640D01*
X37962698Y27435387D01*
X37885596Y27361130D01*
X37803007Y27292423D01*
X37722844Y27236822D01*
X37713866Y27231449D01*
X37592301Y27166941D01*
X37456574Y27108287D01*
X37304843Y27055172D01*
X37135266Y27007286D01*
X36945999Y26964315D01*
X36735201Y26925949D01*
X36501030Y26891875D01*
X36241642Y26861780D01*
X35955196Y26835353D01*
X35639848Y26812282D01*
X35293758Y26792254D01*
X35053763Y26780822D01*
X34931263Y26775676D01*
X34820225Y26771505D01*
X34725022Y26768435D01*
X34650028Y26766590D01*
X34599616Y26766094D01*
X34578160Y26767071D01*
X34577748Y26767282D01*
X34576131Y26785221D01*
X34574143Y26833395D01*
X34571873Y26908173D01*
X34569410Y27005927D01*
X34566843Y27123026D01*
X34564261Y27255841D01*
X34561753Y27400743D01*
X34560908Y27453766D01*
X34550312Y28133066D01*
X34799856Y28186575D01*
X35002733Y28228545D01*
X35182014Y28261758D01*
X35346517Y28287156D01*
X35505058Y28305683D01*
X35666454Y28318280D01*
X35839521Y28325891D01*
X36033076Y28329458D01*
X36141601Y28330022D01*
X36331800Y28328959D01*
G36*
X34498932Y22531656D02*
G01*
X34547481Y22523622D01*
X34616692Y22509609D01*
X34708650Y22489157D01*
X34825438Y22461805D01*
X34969141Y22427093D01*
X35141845Y22384561D01*
X35301510Y22344791D01*
X36124667Y22138972D01*
X36124667Y20345781D01*
X36027301Y20400270D01*
X35950139Y20445712D01*
X35852710Y20506515D01*
X35742040Y20577993D01*
X35625160Y20655462D01*
X35509096Y20734236D01*
X35400877Y20809630D01*
X35307533Y20876959D01*
X35269863Y20905197D01*
X35165339Y20989134D01*
X35053184Y21086507D01*
X34939789Y21191169D01*
X34831544Y21296970D01*
X34734840Y21397762D01*
X34656068Y21487397D01*
X34627765Y21522990D01*
X34517809Y21682135D01*
X34437793Y21832368D01*
X34386232Y21977396D01*
X34361640Y22120931D01*
X34358997Y22194000D01*
X34365364Y22279385D01*
X34381508Y22365500D01*
X34404806Y22443165D01*
X34432636Y22503203D01*
X34455483Y22531628D01*
X34468961Y22534171D01*
X34498932Y22531656D01*
G37*
X34498932Y22531656D02*
X34547481Y22523622D01*
X34616692Y22509609D01*
X34708650Y22489157D01*
X34825438Y22461805D01*
X34969141Y22427093D01*
X35141845Y22384561D01*
X35301510Y22344791D01*
X36124667Y22138972D01*
X36124667Y20345781D01*
X36027301Y20400270D01*
X35950139Y20445712D01*
X35852710Y20506515D01*
X35742040Y20577993D01*
X35625160Y20655462D01*
X35509096Y20734236D01*
X35400877Y20809630D01*
X35307533Y20876959D01*
X35269863Y20905197D01*
X35165339Y20989134D01*
X35053184Y21086507D01*
X34939789Y21191169D01*
X34831544Y21296970D01*
X34734840Y21397762D01*
X34656068Y21487397D01*
X34627765Y21522990D01*
X34517809Y21682135D01*
X34437793Y21832368D01*
X34386232Y21977396D01*
X34361640Y22120931D01*
X34358997Y22194000D01*
X34365364Y22279385D01*
X34381508Y22365500D01*
X34404806Y22443165D01*
X34432636Y22503203D01*
X34455483Y22531628D01*
X34468961Y22534171D01*
X34498932Y22531656D01*
G36*
X34387021Y28070469D02*
G01*
X34389741Y28023886D01*
X34392164Y27950666D01*
X34394218Y27854422D01*
X34395831Y27738769D01*
X34396929Y27607322D01*
X34397439Y27463694D01*
X34397467Y27420615D01*
X34397467Y26754431D01*
X33902167Y26743369D01*
X33789044Y26740945D01*
X33647317Y26738074D01*
X33482245Y26734855D01*
X33299085Y26731384D01*
X33103097Y26727761D01*
X32899538Y26724083D01*
X32693667Y26720447D01*
X32490743Y26716951D01*
X32407801Y26715551D01*
X32220898Y26712333D01*
X32039379Y26709049D01*
X31866915Y26705776D01*
X31707183Y26702590D01*
X31563856Y26699569D01*
X31440608Y26696789D01*
X31341114Y26694327D01*
X31269048Y26692260D01*
X31235167Y26691014D01*
X31061601Y26683232D01*
X31061601Y26866737D01*
X31062265Y26949157D01*
X31064879Y27003880D01*
X31070376Y27037061D01*
X31079686Y27054855D01*
X31091234Y27062454D01*
X31140634Y27081260D01*
X31219025Y27109107D01*
X31323080Y27144917D01*
X31449471Y27187612D01*
X31594870Y27236113D01*
X31755949Y27289342D01*
X31929381Y27346221D01*
X32111837Y27405671D01*
X32299990Y27466614D01*
X32490512Y27527972D01*
X32680074Y27588665D01*
X32865350Y27647617D01*
X33043012Y27703749D01*
X33209731Y27755981D01*
X33362180Y27803237D01*
X33497030Y27844437D01*
X33595882Y27874054D01*
X33673615Y27896639D01*
X33765912Y27922790D01*
X33867408Y27951059D01*
X33972736Y27979998D01*
X34076532Y28008158D01*
X34173430Y28034092D01*
X34258065Y28056351D01*
X34325072Y28073487D01*
X34369085Y28084052D01*
X34384077Y28086800D01*
X34387021Y28070469D01*
G37*
X34387021Y28070469D02*
X34389741Y28023886D01*
X34392164Y27950666D01*
X34394218Y27854422D01*
X34395831Y27738769D01*
X34396929Y27607322D01*
X34397439Y27463694D01*
X34397467Y27420615D01*
X34397467Y26754431D01*
X33902167Y26743369D01*
X33789044Y26740945D01*
X33647317Y26738074D01*
X33482245Y26734855D01*
X33299085Y26731384D01*
X33103097Y26727761D01*
X32899538Y26724083D01*
X32693667Y26720447D01*
X32490743Y26716951D01*
X32407801Y26715551D01*
X32220898Y26712333D01*
X32039379Y26709049D01*
X31866915Y26705776D01*
X31707183Y26702590D01*
X31563856Y26699569D01*
X31440608Y26696789D01*
X31341114Y26694327D01*
X31269048Y26692260D01*
X31235167Y26691014D01*
X31061601Y26683232D01*
X31061601Y26866737D01*
X31062265Y26949157D01*
X31064879Y27003880D01*
X31070376Y27037061D01*
X31079686Y27054855D01*
X31091234Y27062454D01*
X31140634Y27081260D01*
X31219025Y27109107D01*
X31323080Y27144917D01*
X31449471Y27187612D01*
X31594870Y27236113D01*
X31755949Y27289342D01*
X31929381Y27346221D01*
X32111837Y27405671D01*
X32299990Y27466614D01*
X32490512Y27527972D01*
X32680074Y27588665D01*
X32865350Y27647617D01*
X33043012Y27703749D01*
X33209731Y27755981D01*
X33362180Y27803237D01*
X33497030Y27844437D01*
X33595882Y27874054D01*
X33673615Y27896639D01*
X33765912Y27922790D01*
X33867408Y27951059D01*
X33972736Y27979998D01*
X34076532Y28008158D01*
X34173430Y28034092D01*
X34258065Y28056351D01*
X34325072Y28073487D01*
X34369085Y28084052D01*
X34384077Y28086800D01*
X34387021Y28070469D01*
G36*
X30909201Y25543331D02*
G01*
X30908505Y25452400D01*
X30906588Y25373694D01*
X30903701Y25313314D01*
X30900096Y25277361D01*
X30897912Y25270222D01*
X30878819Y25267467D01*
X30829991Y25264956D01*
X30755559Y25262772D01*
X30659653Y25261001D01*
X30546405Y25259727D01*
X30419946Y25259035D01*
X30347578Y25258933D01*
X29808534Y25258933D01*
X29808534Y25762449D01*
X30159900Y25773434D01*
X30282108Y25777470D01*
X30408108Y25782011D01*
X30528368Y25786686D01*
X30633356Y25791125D01*
X30710234Y25794784D01*
X30909201Y25805151D01*
X30909201Y25543331D01*
G37*
X30909201Y25543331D02*
X30908505Y25452400D01*
X30906588Y25373694D01*
X30903701Y25313314D01*
X30900096Y25277361D01*
X30897912Y25270222D01*
X30878819Y25267467D01*
X30829991Y25264956D01*
X30755559Y25262772D01*
X30659653Y25261001D01*
X30546405Y25259727D01*
X30419946Y25259035D01*
X30347578Y25258933D01*
X29808534Y25258933D01*
X29808534Y25762449D01*
X30159900Y25773434D01*
X30282108Y25777470D01*
X30408108Y25782011D01*
X30528368Y25786686D01*
X30633356Y25791125D01*
X30710234Y25794784D01*
X30909201Y25805151D01*
X30909201Y25543331D01*
G36*
X39731058Y25200059D02*
G01*
X39762815Y25167547D01*
X39780771Y25145118D01*
X39782267Y25141379D01*
X39770879Y25126853D01*
X39739301Y25092567D01*
X39691417Y25042583D01*
X39631108Y24980962D01*
X39574920Y24924413D01*
X39367573Y24717067D01*
X39731467Y24717067D01*
X39731467Y24564667D01*
X38766267Y24564667D01*
X38766267Y24717067D01*
X38961001Y24717067D01*
X39037668Y24717978D01*
X39100125Y24720457D01*
X39141688Y24724116D01*
X39155734Y24728291D01*
X39146111Y24745206D01*
X39119708Y24783862D01*
X39080224Y24839027D01*
X39031357Y24905466D01*
X39015088Y24927258D01*
X38962979Y24997081D01*
X38917852Y25058043D01*
X38883789Y25104594D01*
X38864873Y25131182D01*
X38862853Y25134283D01*
X38867835Y25155798D01*
X38895664Y25186648D01*
X38909787Y25198203D01*
X38968309Y25242840D01*
X39114893Y25047687D01*
X39167683Y24978311D01*
X39213503Y24919803D01*
X39248480Y24876976D01*
X39268740Y24854647D01*
X39271851Y24852533D01*
X39286701Y24863900D01*
X39321207Y24895356D01*
X39371183Y24942936D01*
X39432447Y25002674D01*
X39481037Y25050827D01*
X39679848Y25249120D01*
X39731058Y25200059D01*
G37*
X39731058Y25200059D02*
X39762815Y25167547D01*
X39780771Y25145118D01*
X39782267Y25141379D01*
X39770879Y25126853D01*
X39739301Y25092567D01*
X39691417Y25042583D01*
X39631108Y24980962D01*
X39574920Y24924413D01*
X39367573Y24717067D01*
X39731467Y24717067D01*
X39731467Y24564667D01*
X38766267Y24564667D01*
X38766267Y24717067D01*
X38961001Y24717067D01*
X39037668Y24717978D01*
X39100125Y24720457D01*
X39141688Y24724116D01*
X39155734Y24728291D01*
X39146111Y24745206D01*
X39119708Y24783862D01*
X39080224Y24839027D01*
X39031357Y24905466D01*
X39015088Y24927258D01*
X38962979Y24997081D01*
X38917852Y25058043D01*
X38883789Y25104594D01*
X38864873Y25131182D01*
X38862853Y25134283D01*
X38867835Y25155798D01*
X38895664Y25186648D01*
X38909787Y25198203D01*
X38968309Y25242840D01*
X39114893Y25047687D01*
X39167683Y24978311D01*
X39213503Y24919803D01*
X39248480Y24876976D01*
X39268740Y24854647D01*
X39271851Y24852533D01*
X39286701Y24863900D01*
X39321207Y24895356D01*
X39371183Y24942936D01*
X39432447Y25002674D01*
X39481037Y25050827D01*
X39679848Y25249120D01*
X39731058Y25200059D01*
G36*
X34397467Y25313856D02*
G01*
X34088434Y25303470D01*
X34021785Y25301675D01*
X33924628Y25299700D01*
X33800319Y25297586D01*
X33652216Y25295376D01*
X33483678Y25293113D01*
X33298059Y25290840D01*
X33098720Y25288600D01*
X32889015Y25286435D01*
X32672304Y25284388D01*
X32451943Y25282501D01*
X32420501Y25282248D01*
X31061601Y25271413D01*
X31061601Y26528933D01*
X31206766Y26528933D01*
X31262013Y26529288D01*
X31347166Y26530309D01*
X31458877Y26531929D01*
X31593802Y26534084D01*
X31748594Y26536706D01*
X31919909Y26539731D01*
X32104400Y26543092D01*
X32298721Y26546724D01*
X32499528Y26550560D01*
X32703474Y26554535D01*
X32907213Y26558583D01*
X33107401Y26562638D01*
X33300690Y26566634D01*
X33483737Y26570506D01*
X33653194Y26574186D01*
X33805717Y26577610D01*
X33937959Y26580712D01*
X34046576Y26583425D01*
X34128220Y26585684D01*
X34179547Y26587423D01*
X34181567Y26587509D01*
X34397467Y26596800D01*
X34397467Y25313856D01*
G37*
X34397467Y25313856D02*
X34088434Y25303470D01*
X34021785Y25301675D01*
X33924628Y25299700D01*
X33800319Y25297586D01*
X33652216Y25295376D01*
X33483678Y25293113D01*
X33298059Y25290840D01*
X33098720Y25288600D01*
X32889015Y25286435D01*
X32672304Y25284388D01*
X32451943Y25282501D01*
X32420501Y25282248D01*
X31061601Y25271413D01*
X31061601Y26528933D01*
X31206766Y26528933D01*
X31262013Y26529288D01*
X31347166Y26530309D01*
X31458877Y26531929D01*
X31593802Y26534084D01*
X31748594Y26536706D01*
X31919909Y26539731D01*
X32104400Y26543092D01*
X32298721Y26546724D01*
X32499528Y26550560D01*
X32703474Y26554535D01*
X32907213Y26558583D01*
X33107401Y26562638D01*
X33300690Y26566634D01*
X33483737Y26570506D01*
X33653194Y26574186D01*
X33805717Y26577610D01*
X33937959Y26580712D01*
X34046576Y26583425D01*
X34128220Y26585684D01*
X34179547Y26587423D01*
X34181567Y26587509D01*
X34397467Y26596800D01*
X34397467Y25313856D01*
G36*
X30909201Y26242208D02*
G01*
X30908875Y26140260D01*
X30907545Y26067208D01*
X30904683Y26018084D01*
X30899758Y25987923D01*
X30892243Y25971755D01*
X30881607Y25964615D01*
X30879567Y25963974D01*
X30855529Y25961447D01*
X30802184Y25958459D01*
X30724086Y25955181D01*
X30625790Y25951780D01*
X30511848Y25948426D01*
X30386816Y25945288D01*
X30358867Y25944656D01*
X30232042Y25941589D01*
X30115326Y25938274D01*
X30013274Y25934881D01*
X29930440Y25931576D01*
X29871377Y25928529D01*
X29840640Y25925908D01*
X29838167Y25925415D01*
X29827327Y25924647D01*
X29819498Y25932435D01*
X29814195Y25953323D01*
X29810934Y25991857D01*
X29809230Y26052583D01*
X29808599Y26140046D01*
X29808534Y26203393D01*
X29808534Y26489736D01*
X30100634Y26500816D01*
X30223545Y26504818D01*
X30360065Y26508185D01*
X30495941Y26510627D01*
X30616920Y26511857D01*
X30650967Y26511948D01*
X30909201Y26512000D01*
X30909201Y26242208D01*
G37*
X30909201Y26242208D02*
X30908875Y26140260D01*
X30907545Y26067208D01*
X30904683Y26018084D01*
X30899758Y25987923D01*
X30892243Y25971755D01*
X30881607Y25964615D01*
X30879567Y25963974D01*
X30855529Y25961447D01*
X30802184Y25958459D01*
X30724086Y25955181D01*
X30625790Y25951780D01*
X30511848Y25948426D01*
X30386816Y25945288D01*
X30358867Y25944656D01*
X30232042Y25941589D01*
X30115326Y25938274D01*
X30013274Y25934881D01*
X29930440Y25931576D01*
X29871377Y25928529D01*
X29840640Y25925908D01*
X29838167Y25925415D01*
X29827327Y25924647D01*
X29819498Y25932435D01*
X29814195Y25953323D01*
X29810934Y25991857D01*
X29809230Y26052583D01*
X29808599Y26140046D01*
X29808534Y26203393D01*
X29808534Y26489736D01*
X30100634Y26500816D01*
X30223545Y26504818D01*
X30360065Y26508185D01*
X30495941Y26510627D01*
X30616920Y26511857D01*
X30650967Y26511948D01*
X30909201Y26512000D01*
X30909201Y26242208D01*
G36*
X34401648Y24706687D02*
G01*
X34403869Y24588025D01*
X34405311Y24480576D01*
X34405959Y24388966D01*
X34405796Y24317824D01*
X34404806Y24271775D01*
X34403210Y24255633D01*
X34385360Y24253382D01*
X34336564Y24251259D01*
X34259744Y24249298D01*
X34157820Y24247536D01*
X34033713Y24246007D01*
X33890345Y24244747D01*
X33730636Y24243792D01*
X33557507Y24243176D01*
X33373880Y24242935D01*
X33355068Y24242933D01*
X32314667Y24242933D01*
X32314667Y24193518D01*
X32311245Y24147788D01*
X32304444Y24117461D01*
X32306645Y24091053D01*
X32317144Y24083582D01*
X32341775Y24075825D01*
X32391258Y24060257D01*
X32458135Y24039222D01*
X32526334Y24017777D01*
X32585836Y23998101D01*
X32672001Y23968260D01*
X32779809Y23930058D01*
X32904243Y23885300D01*
X33040283Y23835788D01*
X33182910Y23783328D01*
X33313734Y23734720D01*
X33604225Y23627441D01*
X33867784Y23532839D01*
X34108387Y23449749D01*
X34330009Y23377006D01*
X34536628Y23313445D01*
X34732220Y23257902D01*
X34920760Y23209213D01*
X35106225Y23166211D01*
X35292592Y23127733D01*
X35483837Y23092614D01*
X35536574Y23083599D01*
X35619817Y23070477D01*
X35716701Y23056663D01*
X35821842Y23042765D01*
X35929857Y23029392D01*
X36035362Y23017152D01*
X36132972Y23006651D01*
X36217305Y22998500D01*
X36282975Y22993305D01*
X36324599Y22991674D01*
X36336857Y22993211D01*
X36340818Y23002889D01*
X36343984Y23025046D01*
X36346399Y23062491D01*
X36348111Y23118034D01*
X36349163Y23194485D01*
X36349604Y23294654D01*
X36349477Y23421350D01*
X36348829Y23577383D01*
X36348197Y23688366D01*
X36344801Y24242933D01*
X34566800Y24242933D01*
X34566800Y25127236D01*
X34625421Y25116238D01*
X34709438Y25097422D01*
X34819921Y25068017D01*
X34951770Y25029704D01*
X35099886Y24984166D01*
X35259169Y24933085D01*
X35424520Y24878144D01*
X35590840Y24821026D01*
X35753029Y24763412D01*
X35905988Y24706985D01*
X36044618Y24653427D01*
X36116711Y24624233D01*
X36367479Y24515680D01*
X36618786Y24397657D01*
X36866300Y24272645D01*
X37105687Y24143123D01*
X37332611Y24011572D01*
X37542741Y23880470D01*
X37731741Y23752299D01*
X37895277Y23629538D01*
X37983101Y23556251D01*
X38033728Y23509752D01*
X38061059Y23476426D01*
X38068556Y23448688D01*
X38059682Y23418954D01*
X38052286Y23404733D01*
X37986914Y23317903D01*
X37890495Y23235767D01*
X37765677Y23159600D01*
X37615107Y23090679D01*
X37441431Y23030277D01*
X37247297Y22979671D01*
X37115267Y22953320D01*
X37051775Y22942489D01*
X36993264Y22933846D01*
X36934816Y22927145D01*
X36871513Y22922140D01*
X36798437Y22918584D01*
X36710669Y22916233D01*
X36603292Y22914839D01*
X36471386Y22914158D01*
X36327867Y22913951D01*
X36145997Y22914291D01*
X35990446Y22915839D01*
X35853674Y22919091D01*
X35728140Y22924541D01*
X35606304Y22932686D01*
X35480626Y22944021D01*
X35343566Y22959041D01*
X35187584Y22978241D01*
X35024001Y22999609D01*
X34577809Y23065085D01*
X34110148Y23145948D01*
X33620039Y23242432D01*
X33106503Y23354769D01*
X32568561Y23483191D01*
X32005235Y23627931D01*
X31415544Y23789221D01*
X30798510Y23967294D01*
X30244567Y24134244D01*
X29808534Y24268076D01*
X29808534Y25089600D01*
X30015967Y25089644D01*
X30101553Y25090258D01*
X30210953Y25091935D01*
X30334135Y25094470D01*
X30461071Y25097662D01*
X30566300Y25100799D01*
X30909201Y25111909D01*
X30909201Y24649333D01*
X31061601Y24649333D01*
X31061601Y25101772D01*
X31920967Y25112669D01*
X32127354Y25115298D01*
X32355602Y25118228D01*
X32596956Y25121344D01*
X32842660Y25124533D01*
X33083960Y25127681D01*
X33312099Y25130674D01*
X33518322Y25133399D01*
X33586339Y25134303D01*
X34392344Y25145040D01*
X34401648Y24706687D01*
G37*
X34401648Y24706687D02*
X34403869Y24588025D01*
X34405311Y24480576D01*
X34405959Y24388966D01*
X34405796Y24317824D01*
X34404806Y24271775D01*
X34403210Y24255633D01*
X34385360Y24253382D01*
X34336564Y24251259D01*
X34259744Y24249298D01*
X34157820Y24247536D01*
X34033713Y24246007D01*
X33890345Y24244747D01*
X33730636Y24243792D01*
X33557507Y24243176D01*
X33373880Y24242935D01*
X33355068Y24242933D01*
X32314667Y24242933D01*
X32314667Y24193518D01*
X32311245Y24147788D01*
X32304444Y24117461D01*
X32306645Y24091053D01*
X32317144Y24083582D01*
X32341775Y24075825D01*
X32391258Y24060257D01*
X32458135Y24039222D01*
X32526334Y24017777D01*
X32585836Y23998101D01*
X32672001Y23968260D01*
X32779809Y23930058D01*
X32904243Y23885300D01*
X33040283Y23835788D01*
X33182910Y23783328D01*
X33313734Y23734720D01*
X33604225Y23627441D01*
X33867784Y23532839D01*
X34108387Y23449749D01*
X34330009Y23377006D01*
X34536628Y23313445D01*
X34732220Y23257902D01*
X34920760Y23209213D01*
X35106225Y23166211D01*
X35292592Y23127733D01*
X35483837Y23092614D01*
X35536574Y23083599D01*
X35619817Y23070477D01*
X35716701Y23056663D01*
X35821842Y23042765D01*
X35929857Y23029392D01*
X36035362Y23017152D01*
X36132972Y23006651D01*
X36217305Y22998500D01*
X36282975Y22993305D01*
X36324599Y22991674D01*
X36336857Y22993211D01*
X36340818Y23002889D01*
X36343984Y23025046D01*
X36346399Y23062491D01*
X36348111Y23118034D01*
X36349163Y23194485D01*
X36349604Y23294654D01*
X36349477Y23421350D01*
X36348829Y23577383D01*
X36348197Y23688366D01*
X36344801Y24242933D01*
X34566800Y24242933D01*
X34566800Y25127236D01*
X34625421Y25116238D01*
X34709438Y25097422D01*
X34819921Y25068017D01*
X34951770Y25029704D01*
X35099886Y24984166D01*
X35259169Y24933085D01*
X35424520Y24878144D01*
X35590840Y24821026D01*
X35753029Y24763412D01*
X35905988Y24706985D01*
X36044618Y24653427D01*
X36116711Y24624233D01*
X36367479Y24515680D01*
X36618786Y24397657D01*
X36866300Y24272645D01*
X37105687Y24143123D01*
X37332611Y24011572D01*
X37542741Y23880470D01*
X37731741Y23752299D01*
X37895277Y23629538D01*
X37983101Y23556251D01*
X38033728Y23509752D01*
X38061059Y23476426D01*
X38068556Y23448688D01*
X38059682Y23418954D01*
X38052286Y23404733D01*
X37986914Y23317903D01*
X37890495Y23235767D01*
X37765677Y23159600D01*
X37615107Y23090679D01*
X37441431Y23030277D01*
X37247297Y22979671D01*
X37115267Y22953320D01*
X37051775Y22942489D01*
X36993264Y22933846D01*
X36934816Y22927145D01*
X36871513Y22922140D01*
X36798437Y22918584D01*
X36710669Y22916233D01*
X36603292Y22914839D01*
X36471386Y22914158D01*
X36327867Y22913951D01*
X36145997Y22914291D01*
X35990446Y22915839D01*
X35853674Y22919091D01*
X35728140Y22924541D01*
X35606304Y22932686D01*
X35480626Y22944021D01*
X35343566Y22959041D01*
X35187584Y22978241D01*
X35024001Y22999609D01*
X34577809Y23065085D01*
X34110148Y23145948D01*
X33620039Y23242432D01*
X33106503Y23354769D01*
X32568561Y23483191D01*
X32005235Y23627931D01*
X31415544Y23789221D01*
X30798510Y23967294D01*
X30244567Y24134244D01*
X29808534Y24268076D01*
X29808534Y25089600D01*
X30015967Y25089644D01*
X30101553Y25090258D01*
X30210953Y25091935D01*
X30334135Y25094470D01*
X30461071Y25097662D01*
X30566300Y25100799D01*
X30909201Y25111909D01*
X30909201Y24649333D01*
X31061601Y24649333D01*
X31061601Y25101772D01*
X31920967Y25112669D01*
X32127354Y25115298D01*
X32355602Y25118228D01*
X32596956Y25121344D01*
X32842660Y25124533D01*
X33083960Y25127681D01*
X33312099Y25130674D01*
X33518322Y25133399D01*
X33586339Y25134303D01*
X34392344Y25145040D01*
X34401648Y24706687D01*
G36*
X39958851Y24043372D02*
G01*
X40018698Y24014655D01*
X40076954Y23982852D01*
X40107003Y23959413D01*
X40112259Y23940562D01*
X40099581Y23925168D01*
X40063689Y23901915D01*
X40014066Y23875938D01*
X39962926Y23852944D01*
X39922482Y23838642D01*
X39909942Y23836533D01*
X39895400Y23843351D01*
X39887308Y23868160D01*
X39884118Y23917492D01*
X39883867Y23946600D01*
X39885774Y24009826D01*
X39895200Y24045159D01*
X39917706Y24055406D01*
X39958851Y24043372D01*
G37*
X39958851Y24043372D02*
X40018698Y24014655D01*
X40076954Y23982852D01*
X40107003Y23959413D01*
X40112259Y23940562D01*
X40099581Y23925168D01*
X40063689Y23901915D01*
X40014066Y23875938D01*
X39962926Y23852944D01*
X39922482Y23838642D01*
X39909942Y23836533D01*
X39895400Y23843351D01*
X39887308Y23868160D01*
X39884118Y23917492D01*
X39883867Y23946600D01*
X39885774Y24009826D01*
X39895200Y24045159D01*
X39917706Y24055406D01*
X39958851Y24043372D01*
D11*
%TO.C,D2*%
X-15960001Y42230000D02*
X-15960001Y44770000D01*
X-15960001Y44770000D02*
X-21040001Y44770000D01*
X-21040001Y44770000D02*
X-21040001Y42230000D01*
X-21040001Y42230000D02*
X-15960001Y42230000D01*
%TO.C,RV1*%
X-7460001Y43000000D02*
X-7460001Y45540000D01*
X-7460001Y45540000D02*
X-12540001Y45540000D01*
X-12540001Y43000000D02*
X-7460001Y43000000D01*
X-12540001Y45540000D02*
X-12540001Y43000000D01*
%TO.C,BT1*%
X-46540001Y-1250000D02*
X-46540001Y-3790000D01*
X-41460001Y-3790000D02*
X-41460001Y-1250000D01*
X-41460001Y-1250000D02*
X-46540001Y-1250000D01*
X-46540001Y-3790000D02*
X-41460001Y-3790000D01*
%TO.C,A1*%
X-30154001Y-23506000D02*
X-32824001Y-23506000D01*
X-14784001Y17264000D02*
X-32824001Y17264000D01*
X-17454001Y-23506000D02*
X-14784001Y-23506000D01*
X-30154001Y12054000D02*
X-32824001Y12054000D01*
X-32824001Y12054000D02*
X-32824001Y-26176000D01*
X-32824001Y-26176000D02*
X-14784001Y-26176000D01*
X-30154001Y14594000D02*
X-32824001Y14594000D01*
X-14784001Y-26176000D02*
X-14784001Y17264000D01*
X-17454001Y14594000D02*
X-14784001Y14594000D01*
X-30154001Y12054000D02*
X-30154001Y14594000D01*
X-30154001Y12054000D02*
X-30154001Y-23506000D01*
X-17454001Y14594000D02*
X-17454001Y-23506000D01*
X-32824001Y17264000D02*
X-32824001Y14594000D01*
%TO.C,D1*%
X-15960001Y38730000D02*
X-15960001Y41270000D01*
X-15960001Y41270000D02*
X-21040001Y41270000D01*
X-21040001Y41270000D02*
X-21040001Y38730000D01*
X-21040001Y38730000D02*
X-15960001Y38730000D01*
%TO.C,U2*%
X-46540001Y2710000D02*
X-41460001Y2710000D01*
X-41460001Y2710000D02*
X-41460001Y5250000D01*
X-41460001Y5250000D02*
X-46540001Y5250000D01*
X-46540001Y5250000D02*
X-46540001Y2710000D01*
%TO.C,SW2*%
X-30945001Y29595000D02*
X-30945001Y33405000D01*
X-30945001Y33405000D02*
X-22055001Y33405000D01*
X-22055001Y29595000D02*
X-30945001Y29595000D01*
X-22055001Y29595000D02*
X-22055001Y33405000D01*
%TO.C,C2*%
X47634999Y12580000D02*
X42554999Y12580000D01*
X42554999Y12580000D02*
X42554999Y2420000D01*
X42554999Y2420000D02*
X47634999Y2420000D01*
X47634999Y2420000D02*
X47634999Y12580000D01*
%TO.C,U6*%
X4464999Y-16830000D02*
X4464999Y18850000D01*
X4464999Y18850000D02*
X-8455001Y18850000D01*
X-8455001Y-16830000D02*
X-2995001Y-16830000D01*
X-8455001Y18850000D02*
X-8455001Y-16830000D01*
X-995001Y-16830000D02*
X4464999Y-16830000D01*
X-995001Y-16830000D02*
G75*
G03*
X-2995001Y-16830000I-1000000J0D01*
G01*
%TO.C,BT5*%
X21809999Y37960000D02*
X21809999Y43040000D01*
X19269999Y43040000D02*
X19269999Y37960000D01*
X21809999Y43040000D02*
X19269999Y43040000D01*
X19269999Y37960000D02*
X21809999Y37960000D01*
%TO.C,U1*%
X-41460001Y9460000D02*
X-41460001Y12000000D01*
X-46540001Y12000000D02*
X-46540001Y9460000D01*
X-46540001Y9460000D02*
X-41460001Y9460000D01*
X-41460001Y12000000D02*
X-46540001Y12000000D01*
%TO.C,U7*%
X37749999Y-11500000D02*
X37749999Y18500000D01*
X37749999Y18500000D02*
X7749999Y18500000D01*
X7749999Y18500000D02*
X7749999Y-11500000D01*
X7749999Y-11500000D02*
X37749999Y-11500000D01*
%TO.C,U5*%
X5249999Y22950000D02*
X-9750001Y22950000D01*
X5249999Y22950000D02*
X5249999Y34050000D01*
X5249999Y34050000D02*
X-9750001Y34050000D01*
X-9750001Y22950000D02*
X-9750001Y34050000D01*
%TO.C,Q1*%
X-6825001Y35825000D02*
X-13175001Y35825000D01*
X-13175001Y35825000D02*
X-13175001Y37095000D01*
X-13175001Y37095000D02*
X-6825001Y37095000D01*
X-6825001Y37095000D02*
X-6825001Y35825000D01*
%TO.C,U4*%
X26027999Y-30516000D02*
X26027999Y-27976000D01*
X16629999Y-23150000D02*
X31869999Y-23150000D01*
X16629999Y-35850000D02*
X16629999Y-23150000D01*
X31869999Y-35850000D02*
X16629999Y-35850000D01*
X26027999Y-27976000D02*
X26027999Y-30516000D01*
X26027999Y-27976000D02*
X28567999Y-27976000D01*
X31869999Y-23150000D02*
X31869999Y-35850000D01*
%TO.C,R3*%
X-21060001Y30520000D02*
X-13440001Y30520000D01*
X-13440001Y30520000D02*
X-13440001Y27980000D01*
X-13440001Y27980000D02*
X-21060001Y27980000D01*
X-21060001Y27980000D02*
X-21060001Y30520000D01*
%TO.C,SW3*%
X-30945001Y38155000D02*
X-22055001Y38155000D01*
X-22055001Y34345000D02*
X-22055001Y38155000D01*
X-30945001Y34345000D02*
X-30945001Y38155000D01*
X-22055001Y34345000D02*
X-30945001Y34345000D01*
%TO.C,U3*%
X8419999Y22785000D02*
X19849999Y22785000D01*
X8419999Y34215000D02*
X8419999Y22785000D01*
X19849999Y34215000D02*
X8419999Y34215000D01*
X19849999Y22785000D02*
X19849999Y34215000D01*
%TO.C,BT2*%
X-41460001Y-16750000D02*
X-41460001Y-14210000D01*
X-46540001Y-16750000D02*
X-41460001Y-16750000D01*
X-46540001Y-14210000D02*
X-46540001Y-16750000D01*
X-41460001Y-14210000D02*
X-46540001Y-14210000D01*
%TO.C,SW5*%
X23594999Y30055000D02*
X27404999Y30055000D01*
X23594999Y30055000D02*
X23594999Y38945000D01*
X27404999Y38945000D02*
X27404999Y30055000D01*
X23594999Y38945000D02*
X27404999Y38945000D01*
%TO.C,G\u002A\u002A\u002A*%
G36*
X2533899Y-14277666D02*
G01*
X2331752Y-14300329D01*
X2254523Y-14322120D01*
X2143624Y-14374243D01*
X2026062Y-14453702D01*
X1918899Y-14546840D01*
X1839202Y-14639996D01*
X1821799Y-14668486D01*
X1802615Y-14700088D01*
X1778473Y-14720328D01*
X1738278Y-14731730D01*
X1670933Y-14736817D01*
X1565342Y-14738111D01*
X1515502Y-14738134D01*
X1246533Y-14738032D01*
X1135456Y-14594202D01*
X996854Y-14454742D01*
X869073Y-14376431D01*
X830958Y-14353072D01*
X647873Y-14291934D01*
X457703Y-14274070D01*
X270551Y-14302222D01*
X180153Y-14334902D01*
X448Y-14433431D01*
X-136446Y-14553101D01*
X-201135Y-14637172D01*
X-272649Y-14745236D01*
X-486324Y-14735109D01*
X-560100Y-14731612D01*
X-762583Y-14712810D01*
X-925843Y-14674498D01*
X-1062010Y-14611662D01*
X-1183216Y-14519287D01*
X-1257730Y-14443250D01*
X-1339826Y-14340494D01*
X-1397547Y-14236457D01*
X-1434592Y-14118771D01*
X-1454661Y-13975069D01*
X-1461453Y-13792984D01*
X-1461555Y-13761814D01*
X-1461555Y-13461915D01*
X-1369470Y-13405004D01*
X-1296530Y-13347452D01*
X-1221603Y-13269761D01*
X-1196772Y-13238476D01*
X-1152097Y-13159024D01*
X-580794Y-13159024D01*
X-556549Y-13499824D01*
X-543783Y-13590110D01*
X-524448Y-13705794D01*
X-506696Y-13800604D01*
X-492816Y-13862937D01*
X-486324Y-13881393D01*
X-456675Y-13881026D01*
X-386600Y-13870210D01*
X-287474Y-13851312D01*
X-170672Y-13826700D01*
X-47568Y-13798739D01*
X70463Y-13769797D01*
X143636Y-13750316D01*
X206498Y-13729720D01*
X228969Y-13703989D01*
X222359Y-13654781D01*
X216324Y-13632442D01*
X191792Y-13509213D01*
X173731Y-13349417D01*
X163075Y-13169562D01*
X161191Y-13020692D01*
X779622Y-13020692D01*
X783717Y-13154488D01*
X794843Y-13284942D01*
X811260Y-13401483D01*
X831226Y-13493544D01*
X853004Y-13550555D01*
X869073Y-13563968D01*
X905352Y-13557037D01*
X981962Y-13538367D01*
X1087892Y-13510755D01*
X1212130Y-13476999D01*
X1219853Y-13474859D01*
X1540021Y-13386069D01*
X1530570Y-13159290D01*
X1535479Y-13007370D01*
X2012615Y-13007370D01*
X2023543Y-13230127D01*
X2081773Y-13431648D01*
X2183917Y-13607370D01*
X2326587Y-13752730D01*
X2506396Y-13863165D01*
X2696696Y-13928808D01*
X2894881Y-13950170D01*
X3090200Y-13922887D01*
X3275055Y-13851464D01*
X3441848Y-13740405D01*
X3582978Y-13594217D01*
X3690848Y-13417406D01*
X3731060Y-13315511D01*
X3758015Y-13168042D01*
X3755376Y-12998502D01*
X3724872Y-12828022D01*
X3681057Y-12704046D01*
X3570765Y-12522752D01*
X3426677Y-12377742D01*
X3256363Y-12271857D01*
X3067392Y-12207938D01*
X2867332Y-12188828D01*
X2663755Y-12217367D01*
X2520603Y-12268399D01*
X2332988Y-12380500D01*
X2186246Y-12526166D01*
X2082491Y-12702322D01*
X2023838Y-12905893D01*
X2012615Y-13007370D01*
X1535479Y-13007370D01*
X1539628Y-12878952D01*
X1592535Y-12626876D01*
X1690897Y-12398718D01*
X1836322Y-12190135D01*
X1924525Y-12094483D01*
X2131174Y-11921360D01*
X2355664Y-11798243D01*
X2599940Y-11724383D01*
X2865945Y-11699031D01*
X2946059Y-11700585D01*
X3164286Y-11709979D01*
X3236793Y-11376471D01*
X3264402Y-11248104D01*
X3287580Y-11137741D01*
X3304067Y-11056332D01*
X3311602Y-11014825D01*
X3311793Y-11013103D01*
X3290011Y-10990109D01*
X3232833Y-10970310D01*
X3214233Y-10966705D01*
X3092385Y-10954574D01*
X2937320Y-10950473D01*
X2768493Y-10953874D01*
X2605358Y-10964247D01*
X2467367Y-10981062D01*
X2430154Y-10988043D01*
X2120721Y-11079876D01*
X1833938Y-11216819D01*
X1573604Y-11394193D01*
X1343519Y-11607321D01*
X1147480Y-11851522D01*
X989288Y-12122121D01*
X872740Y-12414437D01*
X801636Y-12723792D01*
X779622Y-13020692D01*
X161191Y-13020692D01*
X160754Y-12986156D01*
X167702Y-12815704D01*
X169170Y-12797288D01*
X224828Y-12440213D01*
X328163Y-12095316D01*
X475416Y-11767622D01*
X662828Y-11462155D01*
X886641Y-11183941D01*
X1143096Y-10938003D01*
X1428434Y-10729366D01*
X1738897Y-10563054D01*
X1884969Y-10503667D01*
X2160782Y-10421013D01*
X2456090Y-10365898D01*
X2753444Y-10340299D01*
X3035395Y-10346193D01*
X3154201Y-10359886D01*
X3258849Y-10375385D01*
X3348185Y-10388236D01*
X3404414Y-10395884D01*
X3407645Y-10396278D01*
X3431568Y-10393363D01*
X3452637Y-10372952D01*
X3474383Y-10327020D01*
X3500339Y-10247542D01*
X3534037Y-10126492D01*
X3545763Y-10082458D01*
X3577978Y-9956368D01*
X3603737Y-9847001D01*
X3620504Y-9765766D01*
X3625740Y-9724069D01*
X3625667Y-9723329D01*
X3596312Y-9693531D01*
X3519455Y-9664395D01*
X3460868Y-9649982D01*
X3309025Y-9625547D01*
X3121922Y-9607830D01*
X2917312Y-9597451D01*
X2712945Y-9595032D01*
X2526575Y-9601196D01*
X2401270Y-9612870D01*
X1981494Y-9695151D01*
X1581575Y-9825594D01*
X1204714Y-10001666D01*
X854111Y-10220833D01*
X532968Y-10480562D01*
X244486Y-10778319D01*
X-8136Y-11111572D01*
X-221695Y-11477787D01*
X-366373Y-11803362D01*
X-463677Y-12110819D01*
X-532852Y-12449358D01*
X-572393Y-12803814D01*
X-580794Y-13159024D01*
X-1152097Y-13159024D01*
X-1099540Y-13065555D01*
X-1046307Y-12878287D01*
X-1035955Y-12685998D01*
X-1067367Y-12498019D01*
X-1139425Y-12323679D01*
X-1251012Y-12172305D01*
X-1333302Y-12098785D01*
X-1458516Y-12003467D01*
X-1458516Y-11416492D01*
X-1333302Y-11321173D01*
X-1200417Y-11188779D01*
X-1106566Y-11029806D01*
X-1051582Y-10853399D01*
X-1035298Y-10668699D01*
X-1057545Y-10484849D01*
X-1118158Y-10310991D01*
X-1216969Y-10156266D01*
X-1353809Y-10029819D01*
X-1356975Y-10027612D01*
X-1461555Y-9955138D01*
X-1461534Y-9671949D01*
X-1460148Y-9539154D01*
X-1454172Y-9443565D01*
X-1440845Y-9369057D01*
X-1417403Y-9299506D01*
X-1385497Y-9228080D01*
X-1291300Y-9074728D01*
X-1167306Y-8939678D01*
X-1026379Y-8834776D01*
X-893826Y-8775369D01*
X-818948Y-8759800D01*
X-718162Y-8747707D01*
X-603413Y-8739395D01*
X-486648Y-8735166D01*
X-379814Y-8735324D01*
X-294857Y-8740172D01*
X-243723Y-8750013D01*
X-234244Y-8758626D01*
X-213613Y-8799649D01*
X-159331Y-8859449D01*
X-82810Y-8928229D01*
X4534Y-8996192D01*
X91288Y-9053541D01*
X139286Y-9079241D01*
X239997Y-9119822D01*
X338422Y-9141162D01*
X459783Y-9148296D01*
X486134Y-9148460D01*
X691966Y-9126149D01*
X874121Y-9057308D01*
X1037671Y-8939646D01*
X1109271Y-8867144D01*
X1228004Y-8735084D01*
X1519578Y-8735084D01*
X1647532Y-8735530D01*
X1732673Y-8738389D01*
X1785551Y-8745939D01*
X1816715Y-8760461D01*
X1836712Y-8784234D01*
X1849010Y-8806275D01*
X1913063Y-8889018D01*
X2012365Y-8975073D01*
X2130894Y-9052963D01*
X2252630Y-9111209D01*
X2294121Y-9125149D01*
X2501704Y-9159328D01*
X2703930Y-9141810D01*
X2895202Y-9074259D01*
X3069920Y-8958339D01*
X3164212Y-8866556D01*
X3288544Y-8728269D01*
X3574892Y-8740564D01*
X3766407Y-8756794D01*
X3919534Y-8790474D01*
X4047823Y-8846810D01*
X4164822Y-8931008D01*
X4230756Y-8992563D01*
X4330990Y-9105562D01*
X4401430Y-9219864D01*
X4447126Y-9348867D01*
X4473129Y-9505971D01*
X4483197Y-9662238D01*
X4485858Y-9797185D01*
X4483195Y-9895878D01*
X4475529Y-9951899D01*
X4468190Y-9962395D01*
X4420767Y-9982854D01*
X4354540Y-10036788D01*
X4279946Y-10113036D01*
X4207421Y-10200436D01*
X4147401Y-10287827D01*
X4124280Y-10330217D01*
X4067909Y-10498223D01*
X4047152Y-10682327D01*
X4062491Y-10863665D01*
X4106975Y-11007628D01*
X4157698Y-11098115D01*
X4227317Y-11194714D01*
X4304547Y-11284347D01*
X4378107Y-11353933D01*
X4436711Y-11390391D01*
X4437334Y-11390592D01*
X4459452Y-11402203D01*
X4474078Y-11426650D01*
X4482731Y-11473468D01*
X4486932Y-11552188D01*
X4488199Y-11672344D01*
X4488235Y-11709979D01*
X4487464Y-11841985D01*
X4484140Y-11930171D01*
X4476742Y-11984072D01*
X4463752Y-12013219D01*
X4443650Y-12027146D01*
X4437334Y-12029366D01*
X4380329Y-12064517D01*
X4307945Y-12132188D01*
X4231919Y-12218942D01*
X4163987Y-12311339D01*
X4115886Y-12395942D01*
X4114533Y-12398990D01*
X4056256Y-12593663D01*
X4046371Y-12791471D01*
X4082550Y-12983501D01*
X4162467Y-13160838D01*
X4283796Y-13314570D01*
X4373212Y-13390121D01*
X4484974Y-13470904D01*
X4485357Y-13764391D01*
X4482779Y-13919112D01*
X4473478Y-14034717D01*
X4455803Y-14125212D01*
X4435622Y-14186147D01*
X4336206Y-14374480D01*
X4200472Y-14523779D01*
X4028592Y-14633940D01*
X3820737Y-14704863D01*
X3577081Y-14736447D01*
X3496726Y-14738235D01*
X3290168Y-14738235D01*
X3211166Y-14623410D01*
X3079574Y-14477192D01*
X2916823Y-14368937D01*
X2894881Y-14360932D01*
X2731927Y-14301482D01*
X2533899Y-14277666D01*
G37*
%TO.C,R1*%
X-21060001Y27020000D02*
X-13440001Y27020000D01*
X-13440001Y27020000D02*
X-13440001Y24480000D01*
X-13440001Y24480000D02*
X-21060001Y24480000D01*
X-21060001Y24480000D02*
X-21060001Y27020000D01*
%TO.C,BT3*%
X13019999Y37960000D02*
X15559999Y37960000D01*
X13019999Y43040000D02*
X13019999Y37960000D01*
X15559999Y43040000D02*
X13019999Y43040000D01*
X15559999Y37960000D02*
X15559999Y43040000D01*
%TO.C,SW4*%
X-30945001Y20595000D02*
X-30945001Y24405000D01*
X-22055001Y20595000D02*
X-22055001Y24405000D01*
X-22055001Y20595000D02*
X-30945001Y20595000D01*
X-30945001Y24405000D02*
X-22055001Y24405000D01*
%TO.C,D3*%
X-15960001Y37770000D02*
X-21040001Y37770000D01*
X-21040001Y37770000D02*
X-21040001Y35230000D01*
X-15960001Y35230000D02*
X-15960001Y37770000D01*
X-21040001Y35230000D02*
X-15960001Y35230000D01*
%TD*%
M02*
