%TF.GenerationSoftware,KiCad,Pcbnew,(6.0.5)*%
%TF.CreationDate,2022-08-04T01:21:20+09:00*%
%TF.ProjectId,sc11bbm,73633131-6262-46d2-9e6b-696361645f70,rev?*%
%TF.SameCoordinates,PXca2b5f1PY459e440*%
%TF.FileFunction,Soldermask,Bot*%
%TF.FilePolarity,Negative*%
%FSLAX46Y46*%
G04 Gerber Fmt 4.6, Leading zero omitted, Abs format (unit mm)*
G04 Created by KiCad (PCBNEW (6.0.5)) date 2022-08-04 01:21:20*
%MOMM*%
%LPD*%
G01*
G04 APERTURE LIST*
%ADD10C,1.524000*%
%ADD11R,1.524000X1.524000*%
%ADD12C,3.000000*%
%ADD13R,3.000000X3.000000*%
%ADD14C,3.200000*%
%ADD15C,1.600000*%
%ADD16O,1.600000X1.600000*%
%ADD17R,1.600000X1.600000*%
%ADD18C,1.700000*%
%ADD19O,1.700000X1.700000*%
G04 APERTURE END LIST*
D10*
%TO.C,U9*%
X11679999Y-28860000D03*
X9139999Y-28860000D03*
X6599999Y-28860000D03*
X4059999Y-28860000D03*
X1519999Y-28860000D03*
D11*
X-1020001Y-28860000D03*
D10*
X-3560001Y-28860000D03*
X-6100001Y-28860000D03*
X-8640001Y-28860000D03*
X-11180001Y-28860000D03*
%TD*%
D12*
%TO.C,CI1*%
X45209999Y-6790000D03*
D13*
X45209999Y-1710000D03*
%TD*%
D10*
%TO.C,BT4*%
X-42730001Y-9020000D03*
D11*
X-45270001Y-9020000D03*
%TD*%
D10*
%TO.C,R2*%
X-19790001Y32750000D03*
X-14710001Y32750000D03*
%TD*%
%TO.C,SW1*%
X-23960001Y27000000D03*
X-26500001Y27000000D03*
X-29040001Y27000000D03*
%TD*%
D14*
%TO.C,M3*%
X47899Y44992400D03*
%TD*%
D10*
%TO.C,BT6*%
X8059999Y39230000D03*
D11*
X8059999Y41770000D03*
%TD*%
%TO.C,D2*%
X-19770001Y43500000D03*
D10*
X-17230001Y43500000D03*
%TD*%
%TO.C,RV1*%
X-11270001Y44270000D03*
X-8730001Y44270000D03*
%TD*%
%TO.C,BT1*%
X-42730001Y-2520000D03*
D11*
X-45270001Y-2520000D03*
%TD*%
D15*
%TO.C,A1*%
X-31424001Y13324000D03*
D16*
X-31424001Y10784000D03*
X-31424001Y8244000D03*
D17*
X-31424001Y5704000D03*
D16*
X-31424001Y3164000D03*
X-31424001Y624000D03*
X-31424001Y-1916000D03*
X-31424001Y-4456000D03*
X-31424001Y-6996000D03*
X-31424001Y-9536000D03*
X-31424001Y-12076000D03*
X-31424001Y-14616000D03*
X-31424001Y-17156000D03*
X-31424001Y-19696000D03*
X-31424001Y-22236000D03*
X-16184001Y-22236000D03*
X-16184001Y-19696000D03*
X-16184001Y-17156000D03*
X-16184001Y-14616000D03*
X-16184001Y-12076000D03*
X-16184001Y-9536000D03*
X-16184001Y-6996000D03*
X-16184001Y-4456000D03*
X-16184001Y-1916000D03*
X-16184001Y624000D03*
X-16184001Y3164000D03*
X-16184001Y5704000D03*
X-16184001Y8244000D03*
D17*
X-16184001Y10784000D03*
D16*
X-16184001Y13324000D03*
%TD*%
D11*
%TO.C,D1*%
X-19770001Y40000000D03*
X-17230001Y40000000D03*
%TD*%
D10*
%TO.C,U2*%
X-42730001Y3980000D03*
D11*
X-45270001Y3980000D03*
%TD*%
D10*
%TO.C,SW2*%
X-23960001Y31500000D03*
X-26500001Y31500000D03*
X-29040001Y31500000D03*
%TD*%
D12*
%TO.C,C2*%
X45094999Y10040000D03*
D13*
X45094999Y4960000D03*
%TD*%
D17*
%TO.C,U6*%
X5624999Y-15500000D03*
D16*
X5624999Y-12960000D03*
X5624999Y-10420000D03*
X5624999Y-7880000D03*
X5624999Y-5340000D03*
X5624999Y-2800000D03*
X5624999Y-260000D03*
X5624999Y2280000D03*
X5624999Y4820000D03*
X5624999Y7360000D03*
X5624999Y9900000D03*
X5624999Y12440000D03*
X5624999Y14980000D03*
D17*
X5624999Y17520000D03*
D16*
X-9615001Y17520000D03*
X-9615001Y14980000D03*
X-9615001Y12440000D03*
X-9615001Y9900000D03*
X-9615001Y7360000D03*
X-9615001Y4820000D03*
X-9615001Y2280000D03*
X-9615001Y-260000D03*
X-9615001Y-2800000D03*
X-9615001Y-5340000D03*
X-9615001Y-7880000D03*
X-9615001Y-10420000D03*
X-9615001Y-12960000D03*
X-9615001Y-15500000D03*
%TD*%
D10*
%TO.C,BT5*%
X20539999Y39230000D03*
D11*
X20539999Y41770000D03*
%TD*%
D10*
%TO.C,U1*%
X-42730001Y10730000D03*
D11*
X-45270001Y10730000D03*
%TD*%
D10*
%TO.C,U7*%
X35969999Y8580000D03*
D11*
X35969999Y6040000D03*
D10*
X35969999Y3500000D03*
X35969999Y960000D03*
X35969999Y-1580000D03*
%TD*%
%TO.C,U5*%
X4129999Y24330000D03*
D11*
X1589999Y24330000D03*
D10*
X-950001Y24330000D03*
X-3490001Y24330000D03*
X-6030001Y24330000D03*
X-8570001Y24330000D03*
%TD*%
D14*
%TO.C,M1*%
X-38990001Y-22000000D03*
%TD*%
D11*
%TO.C,Q1*%
X-7460001Y39000000D03*
D10*
X-10000001Y39000000D03*
X-12540001Y39000000D03*
%TD*%
%TO.C,U4*%
X17899999Y-24420000D03*
D11*
X17899999Y-26960000D03*
D10*
X17899999Y-29500000D03*
X17899999Y-32040000D03*
X17899999Y-34580000D03*
%TD*%
%TO.C,R3*%
X-19790001Y29250000D03*
X-14710001Y29250000D03*
%TD*%
%TO.C,SW3*%
X-23960001Y36250000D03*
X-26500001Y36250000D03*
X-29040001Y36250000D03*
%TD*%
%TO.C,U3*%
X10324999Y24055000D03*
X12864999Y24055000D03*
X15404999Y24055000D03*
X17944999Y24055000D03*
X17944999Y32945000D03*
X15404999Y32945000D03*
X12864999Y32945000D03*
D11*
X10324999Y32945000D03*
%TD*%
D10*
%TO.C,BT2*%
X-45270001Y-15480000D03*
D11*
X-42730001Y-15480000D03*
%TD*%
D10*
%TO.C,SW5*%
X25499999Y31960000D03*
X25499999Y34500000D03*
%TD*%
%TO.C,R1*%
X-19790001Y25750000D03*
X-14710001Y25750000D03*
%TD*%
%TO.C,BT3*%
X14289999Y39230000D03*
D11*
X14289999Y41770000D03*
%TD*%
D10*
%TO.C,SW4*%
X-23960001Y22500000D03*
X-26500001Y22500000D03*
X-29040001Y22500000D03*
%TD*%
D14*
%TO.C,M2*%
X38539399Y-23275300D03*
%TD*%
D11*
%TO.C,D3*%
X-19770001Y36500000D03*
D10*
X-17230001Y36500000D03*
%TD*%
D18*
%TO.C,REF\u002A\u002A*%
X-2500001Y-10450000D03*
D19*
X-2500001Y-7910000D03*
X-2500001Y-5370000D03*
X-2500001Y-2830000D03*
X-2500001Y-290000D03*
X-2500001Y2250000D03*
X-2500001Y4790000D03*
X-2500001Y7330000D03*
X-2500001Y9870000D03*
X-2500001Y12410000D03*
X-2500001Y14950000D03*
%TD*%
D10*
%TO.C,U8*%
X14649999Y8330000D03*
X14649999Y5790000D03*
X14649999Y3250000D03*
X14649999Y710000D03*
D11*
X14649999Y-1830000D03*
%TD*%
M02*
